<?xml version="1.0" encoding="UTF-8" standalone="no"?>
<!-- Created with Inkscape (http://www.inkscape.org/) -->

<svg
   xmlns:dc="http://purl.org/dc/elements/1.1/"
   xmlns:cc="http://creativecommons.org/ns#"
   xmlns:rdf="http://www.w3.org/1999/02/22-rdf-syntax-ns#"
   xmlns:svg="http://www.w3.org/2000/svg"
   xmlns="http://www.w3.org/2000/svg"
   xmlns:sodipodi="http://sodipodi.sourceforge.net/DTD/sodipodi-0.dtd"
   xmlns:inkscape="http://www.inkscape.org/namespaces/inkscape"
   width="64"
   height="64"
   id="svg2"
   version="1.1"
   inkscape:version="0.91 r13725"
   sodipodi:docname="4137_winhlp32.0.svg">
  <defs
     id="defs4" />
  <sodipodi:namedview
     id="base"
     pagecolor="#ffffff"
     bordercolor="#666666"
     borderopacity="1.0"
     inkscape:pageopacity="0.0"
     inkscape:pageshadow="2"
     inkscape:zoom="7.6413438"
     inkscape:cx="26.267058"
     inkscape:cy="32.862322"
     inkscape:document-units="px"
     inkscape:current-layer="layer1"
     showgrid="true"
     inkscape:object-paths="true"
     inkscape:snap-object-midpoints="true"
     inkscape:snap-center="true"
     inkscape:snap-bbox="true"
     inkscape:bbox-paths="true"
     inkscape:bbox-nodes="true"
     inkscape:snap-bbox-edge-midpoints="true"
     inkscape:snap-bbox-midpoints="true"
     inkscape:snap-intersection-paths="true"
     inkscape:object-nodes="true"
     inkscape:snap-smooth-nodes="true"
     inkscape:snap-midpoints="true"
     inkscape:snap-page="true"
     inkscape:window-width="697"
     inkscape:window-height="714"
     inkscape:window-x="227"
     inkscape:window-y="27"
     inkscape:window-maximized="0"
     inkscape:snap-global="false">
    <inkscape:grid
       empspacing="2"
       visible="true"
       enabled="true"
       snapvisiblegridlinesonly="true"
       type="xygrid"
       id="grid2987" />
  </sodipodi:namedview>
  <metadata
     id="metadata7">
    <rdf:RDF>
      <cc:Work
         rdf:about="">
        <dc:format>image/svg+xml</dc:format>
        <dc:type
           rdf:resource="http://purl.org/dc/dcmitype/StillImage" />
        <dc:title />
      </cc:Work>
    </rdf:RDF>
  </metadata>
  <g
     inkscape:label="Layer 1"
     inkscape:groupmode="layer"
     id="layer1"
     transform="translate(0,-988.36218)">
    <rect
       style="fill:#3697af;fill-opacity:1;stroke:none"
       id="rect4990"
       width="64"
       height="64"
       x="0"
       y="0"
       transform="translate(0,988.36218)"
       ry="4" />
    <path
       style="fill:#d7eef4;fill-opacity:1;fill-rule:evenodd;stroke:none;stroke-width:1px;stroke-linecap:butt;stroke-linejoin:miter;stroke-opacity:1"
       d="m 11,1016.8622 0,-13.6111 c 0,0 0,-3.88892 3.818182,-3.88892 3.818182,0 34.363636,0 34.363636,0 0,0 3.818182,0 3.818182,3.88892 0,3.8888 0,27.2222 0,27.2222 0,0 0,3.8889 -3.818182,3.8889 -3.818182,0 -34.363636,0 -34.363636,0 0,0 -3.818182,0 -3.818182,-3.8889 0,-3.8889 0,-13.6111 0,-13.6111 z"
       id="path3339"
       inkscape:connector-curvature="0" />
    <path
       style="fill:#3697af;fill-opacity:1;fill-rule:evenodd;stroke:none;stroke-width:1px;stroke-linecap:butt;stroke-linejoin:miter;stroke-opacity:1"
       d="m 22.667176,1011.9069 c 0,0 0.0864,-6.2882 6.254538,-7.9262 2.758479,-0.7326 7.142894,-0.1086 9.094802,2.166 2.057583,2.3977 2.95507,6.6093 0.61911,9.7918 -2.898238,3.9486 -4.219217,4.355 -4.219217,6.5527 l 0,1.8571 -4.75,0 c 0,0 -0.572845,-4.0686 2.113911,-6.8816 3.264801,-3.4182 3.596187,-4.5585 3.596187,-6.0237 0,-1.4649 -0.503939,-3.5874 -4.315424,-3.4308 -3.142328,0.1291 -3.914911,4.0581 -3.914911,4.0581 z"
       id="path3352"
       inkscape:connector-curvature="0"
       sodipodi:nodetypes="cssssccssscc" />
    <path
       style="fill:#d7eef4;fill-opacity:1;fill-rule:evenodd;stroke:none;stroke-width:1px;stroke-linecap:butt;stroke-linejoin:miter;stroke-opacity:1"
       d="m 16,1033.3622 0,7 c 0,0 0,1 1,1 1,0 10,-7 10,-7 z"
       id="path4143"
       inkscape:connector-curvature="0"
       sodipodi:nodetypes="ccscc" />
    <ellipse
       style="fill:#3697af;fill-opacity:1;stroke:none;stroke-opacity:1"
       id="path3356"
       cx="31.986359"
       cy="1028.064"
       rx="2.5281451"
       ry="2.5638673" />
  </g>
</svg>
