<?xml version="1.0" encoding="UTF-8" standalone="no"?>
<!-- Created with Inkscape (http://www.inkscape.org/) -->

<svg
   xmlns:dc="http://purl.org/dc/elements/1.1/"
   xmlns:cc="http://creativecommons.org/ns#"
   xmlns:rdf="http://www.w3.org/1999/02/22-rdf-syntax-ns#"
   xmlns:svg="http://www.w3.org/2000/svg"
   xmlns="http://www.w3.org/2000/svg"
   xmlns:sodipodi="http://sodipodi.sourceforge.net/DTD/sodipodi-0.dtd"
   xmlns:inkscape="http://www.inkscape.org/namespaces/inkscape"
   width="64"
   height="64"
   id="svg2"
   version="1.1"
   inkscape:version="0.91 r13725"
   sodipodi:docname="ax-applet.svg">
  <defs
     id="defs4" />
  <sodipodi:namedview
     id="base"
     pagecolor="#ffffff"
     bordercolor="#666666"
     borderopacity="1.0"
     inkscape:pageopacity="0.0"
     inkscape:pageshadow="2"
     inkscape:zoom="13.467156"
     inkscape:cx="25.652111"
     inkscape:cy="26.233223"
     inkscape:document-units="px"
     inkscape:current-layer="layer1"
     showgrid="true"
     inkscape:object-paths="true"
     inkscape:snap-object-midpoints="true"
     inkscape:snap-center="true"
     inkscape:snap-bbox="true"
     inkscape:bbox-paths="true"
     inkscape:bbox-nodes="true"
     inkscape:snap-bbox-edge-midpoints="true"
     inkscape:snap-bbox-midpoints="true"
     inkscape:snap-intersection-paths="true"
     inkscape:object-nodes="true"
     inkscape:snap-smooth-nodes="true"
     inkscape:snap-midpoints="true"
     inkscape:snap-page="true"
     inkscape:window-width="697"
     inkscape:window-height="714"
     inkscape:window-x="140"
     inkscape:window-y="119"
     inkscape:window-maximized="0"
     inkscape:snap-global="false">
    <inkscape:grid
       empspacing="2"
       visible="true"
       enabled="true"
       snapvisiblegridlinesonly="true"
       type="xygrid"
       id="grid2987" />
  </sodipodi:namedview>
  <metadata
     id="metadata7">
    <rdf:RDF>
      <cc:Work
         rdf:about="">
        <dc:format>image/svg+xml</dc:format>
        <dc:type
           rdf:resource="http://purl.org/dc/dcmitype/StillImage" />
        <dc:title />
      </cc:Work>
    </rdf:RDF>
  </metadata>
  <g
     inkscape:label="Layer 1"
     inkscape:groupmode="layer"
     id="layer1"
     transform="translate(0,-988.36218)">
    <rect
       style="fill:#3b80ac;fill-opacity:1;stroke:none"
       id="rect4990"
       width="64"
       height="64"
       x="0"
       y="0"
       transform="translate(0,988.36218)"
       ry="5" />
    <rect
       style="fill:#d7eef4;fill-opacity:1;stroke:none;stroke-opacity:1"
       id="rect3365"
       width="12"
       height="12"
       x="26"
       y="998.36218"
       ry="6" />
    <ellipse
       style="fill:#d7eef4;fill-opacity:1;stroke:none;stroke-opacity:1"
       id="path4193-4"
       cx="48.476978"
       cy="1009.9457"
       rx="1.4762484"
       ry="1.6350806" />
    <rect
       style="fill:#d7eef4;fill-opacity:1;stroke:none;stroke-opacity:1"
       id="rect4223"
       width="3.914861"
       height="3.8898351"
       x="18.404549"
       y="1039.549"
       ry="1.9449176" />
    <path
       style="fill:#d7eef4;fill-opacity:1;fill-rule:evenodd;stroke:none;stroke-width:1px;stroke-linecap:butt;stroke-linejoin:miter;stroke-opacity:1"
       d="m 35.934109,1012.4772 11.94668,-4.0449 1.222889,3.0101 L 37,1016.3622 l 0,11 8.05874,13.0533 -3.010187,2.3517 L 32,1029.3622 22.011993,1042.5791 18.719601,1040.4155 27,1027.3622 l 0,-11 -11.949062,-4.8257 0.940683,-3.2924 11.94668,4.2331 z"
       id="path3341"
       inkscape:connector-curvature="0"
       sodipodi:nodetypes="cccccccccccccccc" />
    <ellipse
       style="fill:#d7eef4;fill-opacity:1;stroke:none;stroke-opacity:1"
       id="path4193-4-3"
       cx="-15.706626"
       cy="1009.9796"
       rx="1.5467997"
       ry="1.7291489"
       transform="scale(-1,1)" />
    <rect
       style="fill:#d7eef4;fill-opacity:1;stroke:none;stroke-opacity:1"
       id="rect4223-9"
       width="3.914861"
       height="3.8898351"
       x="41.513996"
       y="1039.5298"
       ry="1.9449176" />
    <path
       style="fill:#d7eef4;fill-opacity:1;fill-rule:evenodd;stroke:none;stroke-width:1px;stroke-linecap:butt;stroke-linejoin:miter;stroke-opacity:1"
       d="m 29.600422,1032.3622 c 0,0 1.399578,-2 2.399578,-2 1,0 2.354527,2.123 2.354527,2.123 L 34,1029.3622 l -4,0 z"
       id="path3344"
       inkscape:connector-curvature="0"
       sodipodi:nodetypes="cscccc" />
    <path
       style="fill:#d7eef4;fill-rule:evenodd;stroke:none;stroke-width:1px;stroke-linecap:butt;stroke-linejoin:miter;stroke-opacity:1;fill-opacity:1"
       d="m 42,1014.3622 c 0,0 -5,2 -5,3 0,1 0,1 0,1 l -1,0 0,-4 z"
       id="path3342"
       inkscape:connector-curvature="0" />
    <path
       style="fill:#d7eef4;fill-opacity:1;fill-rule:evenodd;stroke:none;stroke-width:1px;stroke-linecap:butt;stroke-linejoin:miter;stroke-opacity:1"
       d="m 22,1014.3622 c 0,0 5,2 5,3 0,1 0,1 0,1 l 1,0 0,-4 z"
       id="path3342-9"
       inkscape:connector-curvature="0" />
    <path
       style="fill:#d7eef4;fill-opacity:1;fill-rule:evenodd;stroke:none;stroke-width:1px;stroke-linecap:butt;stroke-linejoin:miter;stroke-opacity:1"
       d="m 20,1038.3622 c 0,0 7,-8.3713 7,-13 l 0,-1 1,1 0,7 -2,0 0,4 -4,0 0,2 z"
       id="path4159"
       inkscape:connector-curvature="0"
       sodipodi:nodetypes="cscccccccc" />
    <path
       style="fill:#d7eef4;fill-opacity:1;fill-rule:evenodd;stroke:none;stroke-width:1px;stroke-linecap:butt;stroke-linejoin:miter;stroke-opacity:1"
       d="m 45,1040.3622 c 0,0 -8,-10 -8,-15 l 0,-3 -3,0 0,8 2,0 0,4 2,0 0,2 2,0 0,3 2,0 0,1 z"
       id="path4176"
       inkscape:connector-curvature="0"
       sodipodi:nodetypes="cscccccccccccc" />
  </g>
</svg>
