<?xml version="1.0" encoding="UTF-8" standalone="no"?>
<!-- Created with Inkscape (http://www.inkscape.org/) -->

<svg
   xmlns:dc="http://purl.org/dc/elements/1.1/"
   xmlns:cc="http://creativecommons.org/ns#"
   xmlns:rdf="http://www.w3.org/1999/02/22-rdf-syntax-ns#"
   xmlns:svg="http://www.w3.org/2000/svg"
   xmlns="http://www.w3.org/2000/svg"
   xmlns:sodipodi="http://sodipodi.sourceforge.net/DTD/sodipodi-0.dtd"
   xmlns:inkscape="http://www.inkscape.org/namespaces/inkscape"
   width="64"
   height="64"
   id="svg2"
   version="1.1"
   inkscape:version="0.91 r13725"
   sodipodi:docname="archive-manager.svg">
  <defs
     id="defs4" />
  <sodipodi:namedview
     id="base"
     pagecolor="#ffffff"
     bordercolor="#666666"
     borderopacity="1.0"
     inkscape:pageopacity="0.0"
     inkscape:pageshadow="2"
     inkscape:zoom="15.06574"
     inkscape:cx="16.305662"
     inkscape:cy="39.458879"
     inkscape:document-units="px"
     inkscape:current-layer="layer1"
     showgrid="true"
     inkscape:object-paths="true"
     inkscape:snap-object-midpoints="true"
     inkscape:snap-center="true"
     inkscape:snap-bbox="true"
     inkscape:bbox-paths="true"
     inkscape:bbox-nodes="true"
     inkscape:snap-bbox-edge-midpoints="true"
     inkscape:snap-bbox-midpoints="true"
     inkscape:snap-intersection-paths="true"
     inkscape:object-nodes="true"
     inkscape:snap-smooth-nodes="true"
     inkscape:snap-midpoints="true"
     inkscape:snap-page="true"
     inkscape:window-width="742"
     inkscape:window-height="714"
     inkscape:window-x="622"
     inkscape:window-y="27"
     inkscape:window-maximized="0">
    <inkscape:grid
       empspacing="2"
       visible="true"
       enabled="true"
       snapvisiblegridlinesonly="true"
       type="xygrid"
       id="grid2987" />
  </sodipodi:namedview>
  <metadata
     id="metadata7">
    <rdf:RDF>
      <cc:Work
         rdf:about="">
        <dc:format>image/svg+xml</dc:format>
        <dc:type
           rdf:resource="http://purl.org/dc/dcmitype/StillImage" />
        <dc:title />
      </cc:Work>
    </rdf:RDF>
  </metadata>
  <g
     inkscape:label="Layer 1"
     inkscape:groupmode="layer"
     id="layer1"
     transform="translate(0,-988.36218)">
    <rect
       style="fill:#d38d5f;fill-opacity:1;stroke:none"
       id="rect4990"
       width="64"
       height="64"
       x="0"
       y="0"
       transform="translate(0,988.36218)"
       ry="4" />
    <path
       style="fill:#a9673e;fill-rule:evenodd;stroke:none;stroke-width:1px;stroke-linecap:butt;stroke-linejoin:miter;stroke-opacity:1;fill-opacity:1"
       d="m 10,1002.7622 c 0,0 0,-4.40002 4.4,-4.40002 4.4,0 35.2,0 35.2,0 0,0 4.4,0 4.4,4.40002 0,4.4 0,35.2 0,35.2 0,0 0,4.4 -4.4,4.4 -4.4,0 -35.2,0 -35.2,0 0,0 -4.4,0 -4.4,-4.4 0,-4.4 0,-35.2 0,-35.2 z"
       id="path3340"
       inkscape:connector-curvature="0" />
    <path
       style="fill:#a05a2c;fill-rule:evenodd;stroke:none;stroke-width:1px;stroke-linecap:butt;stroke-linejoin:miter;stroke-opacity:1;fill-opacity:1"
       d="m 10,1034.3622 c 0,0 0,4 4,4 4,0 36,0 36,0 0,0 4,0 4,-4 0,-4 0,-2 0,-2 l 0,6 c 0,0 0,4 -4,4 -4,0 -36,0 -36,0 0,0 -4,0 -4,-4 0,-4 0,-4 0,-4 z"
       id="path3346"
       inkscape:connector-curvature="0" />
    <path
       style="fill:#a05a2c;fill-opacity:1;fill-rule:evenodd;stroke:none;stroke-width:1px;stroke-linecap:butt;stroke-linejoin:miter;stroke-opacity:1"
       d="m 10,1006.3622 c 0,0 0,-4 4,-4 4,0 36,0 36,0 0,0 4,0 4,4 0,4 0,2 0,2 l 0,-6 c 0,0 0,-4.00002 -4,-4.00002 -4,0 -36,0 -36,0 0,0 -4,0 -4,4.00002 0,4 0,4 0,4 z"
       id="path3346-5"
       inkscape:connector-curvature="0" />
    <path
       style="fill:none;fill-rule:evenodd;stroke:none;stroke-width:1px;stroke-linecap:butt;stroke-linejoin:miter;stroke-opacity:1"
       d="m 32,984.36218 0,76.00002"
       id="path4224"
       inkscape:connector-curvature="0" />
    <path
       style="fill:#deaa87;fill-rule:evenodd;stroke:none;stroke-width:1px;stroke-linecap:butt;stroke-linejoin:miter;stroke-opacity:1;fill-opacity:1"
       d="m 24,998.36218 c 0,0 4,0 4,4.00002 0,4 0,36 0,36 0,0 0,4 -4,4 -4,0 -4,0 -4,0 l 20,0 c 0,0 -4,0 -4,-4 0,-4 0,-36 0,-36 0,0 0,-4.00002 4,-4.00002 4,0 6,0 6,0 z"
       id="path4226"
       inkscape:connector-curvature="0" />
    <path
       style="fill:#deaa87;fill-opacity:1;fill-rule:evenodd;stroke:none;stroke-width:1px;stroke-linecap:butt;stroke-linejoin:miter;stroke-opacity:1"
       d="m 54.00002,1012.3622 c 0,0 0,4 -4.00002,4 -4,0 -36,0 -36,0 0,0 -4,0 -4,-4 0,-4 0,-4 0,-4 l 0,20 c 0,0 0,-4 4,-4 4,0 36,0 36,0 0,0 4.00002,0 4.00002,4 0,4 0,6 0,6 z"
       id="path4226-7"
       inkscape:connector-curvature="0" />
  </g>
</svg>
