<?xml version="1.0" encoding="UTF-8" standalone="no"?>
<!-- Created with Inkscape (http://www.inkscape.org/) -->

<svg
   xmlns:dc="http://purl.org/dc/elements/1.1/"
   xmlns:cc="http://creativecommons.org/ns#"
   xmlns:rdf="http://www.w3.org/1999/02/22-rdf-syntax-ns#"
   xmlns:svg="http://www.w3.org/2000/svg"
   xmlns="http://www.w3.org/2000/svg"
   xmlns:sodipodi="http://sodipodi.sourceforge.net/DTD/sodipodi-0.dtd"
   xmlns:inkscape="http://www.inkscape.org/namespaces/inkscape"
   width="64"
   height="64"
   id="svg2"
   version="1.1"
   inkscape:version="0.91 r13725"
   sodipodi:docname="addressbook.svg">
  <defs
     id="defs4" />
  <sodipodi:namedview
     id="base"
     pagecolor="#ffffff"
     bordercolor="#666666"
     borderopacity="1.0"
     inkscape:pageopacity="0.0"
     inkscape:pageshadow="2"
     inkscape:zoom="8.2681726"
     inkscape:cx="35.89327"
     inkscape:cy="34.750725"
     inkscape:document-units="px"
     inkscape:current-layer="layer1"
     showgrid="true"
     inkscape:object-paths="true"
     inkscape:snap-object-midpoints="true"
     inkscape:snap-center="true"
     inkscape:snap-bbox="true"
     inkscape:bbox-paths="true"
     inkscape:bbox-nodes="true"
     inkscape:snap-bbox-edge-midpoints="true"
     inkscape:snap-bbox-midpoints="true"
     inkscape:snap-intersection-paths="true"
     inkscape:object-nodes="true"
     inkscape:snap-smooth-nodes="true"
     inkscape:snap-midpoints="true"
     inkscape:snap-page="true"
     inkscape:window-width="696"
     inkscape:window-height="714"
     inkscape:window-x="215"
     inkscape:window-y="27"
     inkscape:window-maximized="0">
    <inkscape:grid
       empspacing="2"
       visible="true"
       enabled="true"
       snapvisiblegridlinesonly="true"
       type="xygrid"
       id="grid2987" />
  </sodipodi:namedview>
  <metadata
     id="metadata7">
    <rdf:RDF>
      <cc:Work
         rdf:about="">
        <dc:format>image/svg+xml</dc:format>
        <dc:type
           rdf:resource="http://purl.org/dc/dcmitype/StillImage" />
        <dc:title />
      </cc:Work>
    </rdf:RDF>
  </metadata>
  <g
     inkscape:label="Layer 1"
     inkscape:groupmode="layer"
     id="layer1"
     transform="translate(0,-988.36218)">
    <rect
       style="fill:#b5976b;fill-opacity:1;stroke:none"
       id="rect4990"
       width="64"
       height="64"
       x="0"
       y="0"
       transform="translate(0,988.36218)"
       ry="4" />
    <path
       style="fill:#744408;fill-opacity:1;fill-rule:evenodd;stroke:none;stroke-width:1px;stroke-linecap:butt;stroke-linejoin:miter;stroke-opacity:1"
       d="m 17,998.36218 c 0,0 -3,0 -3,3.00002 l 0,38 c 0,0 0,3 3,3 l 34,0 c 0,0 3,0 3,-3 l 0,-38 c 0,0 0,-3.00002 -3,-3.00002 z"
       id="path3353"
       inkscape:connector-curvature="0"
       sodipodi:nodetypes="cscscscsc" />
    <path
       style="fill:#643b08;fill-rule:evenodd;stroke:none;stroke-width:1px;stroke-linecap:butt;stroke-linejoin:miter;stroke-opacity:1;fill-opacity:1"
       d="m 22,998.36218 0,44.00002 -4,0 c 0,0 -4,0 -4,-4 l 0,-36 c 0,0 0.4,-4.00002 4,-4.00002 z"
       id="path3357"
       inkscape:connector-curvature="0"
       sodipodi:nodetypes="cccscsc" />
    <path
       style="fill:#c3bd9b;fill-rule:evenodd;stroke:none;stroke-width:1px;stroke-linecap:butt;stroke-linejoin:miter;stroke-opacity:1;fill-opacity:1"
       d="m 18,1004.3622 c 0,0 2,0 2,2 0,2 -2,2 -2,2 l -6,0 c 0,0 -2,0 -2,-2 0,-2 2,-2 2,-2 z"
       id="path3363"
       inkscape:connector-curvature="0" />
    <path
       style="fill:#c3bd9b;fill-rule:evenodd;stroke:none;stroke-width:1px;stroke-linecap:butt;stroke-linejoin:miter;stroke-opacity:1;fill-opacity:1"
       d="m 18,1011.3622 c 0,0 2,0 2,2 0,2 -2,2 -2,2 l -6,0 c 0,0 -2,0 -2,-2 0,-2 2,-2 2,-2 z"
       id="path3363-6"
       inkscape:connector-curvature="0" />
    <path
       style="fill:#c3bd9b;fill-rule:evenodd;stroke:none;stroke-width:1px;stroke-linecap:butt;stroke-linejoin:miter;stroke-opacity:1;fill-opacity:1"
       d="m 18,1018.3622 c 0,0 2,0 2,2 0,2 -2,2 -2,2 l -6,0 c 0,0 -2,0 -2,-2 0,-2 2,-2 2,-2 z"
       id="path3363-0"
       inkscape:connector-curvature="0" />
    <path
       style="fill:#c3bd9b;fill-rule:evenodd;stroke:none;stroke-width:1px;stroke-linecap:butt;stroke-linejoin:miter;stroke-opacity:1;fill-opacity:1"
       d="m 18,1025.3622 c 0,0 2,0 2,2 0,2 -2,2 -2,2 l -6,0 c 0,0 -2,0 -2,-2 0,-2 2,-2 2,-2 z"
       id="path3363-9"
       inkscape:connector-curvature="0" />
    <path
       style="fill:#c3bd9b;fill-rule:evenodd;stroke:none;stroke-width:1px;stroke-linecap:butt;stroke-linejoin:miter;stroke-opacity:1;fill-opacity:1"
       d="m 18,1032.3622 c 0,0 2,0 2,2 0,2 -2,2 -2,2 l -6,0 c 0,0 -2,0 -2,-2 0,-2 2,-2 2,-2 z"
       id="path3363-4"
       inkscape:connector-curvature="0" />
    <path
       style="fill:#f3cc7f;fill-rule:evenodd;stroke:none;stroke-width:1px;stroke-linecap:butt;stroke-linejoin:miter;stroke-opacity:1;fill-opacity:1"
       d="m 22,1000.3622 28,0 c 0,0 2,0 2,2 0,2 0,36 0,36 0,0 0,2 -2,2 -2,0 -30,0 -30,0 l 0,-40 z"
       id="path4145"
       inkscape:connector-curvature="0" />
    <path
       style="fill:#744408;fill-opacity:1;stroke:none;stroke-opacity:1"
       id="path4144"
       sodipodi:type="arc"
       sodipodi:cx="36"
       sodipodi:cy="1014.8622"
       sodipodi:rx="5.5"
       sodipodi:ry="5.4999986"
       sodipodi:start="0.020713917"
       sodipodi:end="0.012886272"
       sodipodi:open="true"
       d="m 41.49882,1014.9761 a 5.5,5.4999986 0 0 1 -5.601977,5.3851 5.5,5.4999986 0 0 1 -5.396067,-5.5914 5.5,5.4999986 0 0 1 5.580859,-5.407 5.5,5.4999986 0 0 1 5.417908,5.5703" />
    <path
       style="fill:#744408;fill-rule:evenodd;stroke:none;stroke-width:1px;stroke-linecap:butt;stroke-linejoin:miter;stroke-opacity:1;fill-opacity:1"
       d="m 29,1026.3622 c 0,0 0,-5 7,-5 7,0 7,5 7,5 l 0,5 c 0,0 0,1 -1,1 -1,0 -12,0 -12,0 0,0 -1,0 -1,-1 0,-1 0,-5 0,-5 z"
       id="path4169"
       inkscape:connector-curvature="0" />
  </g>
</svg>
