<?xml version="1.0" encoding="UTF-8" standalone="no"?>
<!-- Created with Inkscape (http://www.inkscape.org/) -->

<svg
   xmlns:dc="http://purl.org/dc/elements/1.1/"
   xmlns:cc="http://creativecommons.org/ns#"
   xmlns:rdf="http://www.w3.org/1999/02/22-rdf-syntax-ns#"
   xmlns:svg="http://www.w3.org/2000/svg"
   xmlns="http://www.w3.org/2000/svg"
   xmlns:sodipodi="http://sodipodi.sourceforge.net/DTD/sodipodi-0.dtd"
   xmlns:inkscape="http://www.inkscape.org/namespaces/inkscape"
   width="64"
   height="64"
   viewBox="0 0 64.000001 64.000001"
   id="svg3375"
   version="1.1"
   inkscape:version="0.91 r13725"
   sodipodi:docname="amarok.svg">
  <defs
     id="defs3377" />
  <sodipodi:namedview
     id="base"
     pagecolor="#ffffff"
     bordercolor="#666666"
     borderopacity="1.0"
     inkscape:pageopacity="0.0"
     inkscape:pageshadow="2"
     inkscape:zoom="9.4170746"
     inkscape:cx="49.355901"
     inkscape:cy="54.856893"
     inkscape:document-units="px"
     inkscape:current-layer="layer1"
     showgrid="true"
     units="px"
     borderlayer="true"
     inkscape:snap-bbox="true"
     inkscape:bbox-paths="true"
     inkscape:bbox-nodes="true"
     inkscape:snap-bbox-edge-midpoints="true"
     inkscape:snap-bbox-midpoints="true"
     inkscape:window-width="615"
     inkscape:window-height="420"
     inkscape:window-x="73"
     inkscape:window-y="166"
     inkscape:window-maximized="0"
     inkscape:snap-global="true">
    <inkscape:grid
       type="xygrid"
       id="grid3397"
       empspacing="2" />
  </sodipodi:namedview>
  <metadata
     id="metadata3380">
    <rdf:RDF>
      <cc:Work
         rdf:about="">
        <dc:format>image/svg+xml</dc:format>
        <dc:type
           rdf:resource="http://purl.org/dc/dcmitype/StillImage" />
        <dc:title />
      </cc:Work>
    </rdf:RDF>
  </metadata>
  <g
     inkscape:label="Layer 1"
     inkscape:groupmode="layer"
     id="layer1"
     transform="translate(0,-988.36216)">
    <rect
       style="fill:#51679e;fill-opacity:1;stroke:none"
       id="rect4990"
       width="64"
       height="64"
       x="0"
       y="988.36218"
       ry="3.9999774" />
    <rect
       style="fill:#f4e3d7;fill-opacity:1;stroke:none;stroke-opacity:1"
       id="rect3368"
       width="44"
       height="44.000023"
       x="10"
       y="998.36218"
       ry="22.000011" />
    <ellipse
       style="fill:#51679e;fill-opacity:1;stroke:none;stroke-opacity:1"
       id="path3433"
       cx="31.974382"
       cy="1020.2859"
       rx="18.659538"
       ry="18.633909" />
    <path
       style="fill:#f4e3d7;fill-opacity:1;fill-rule:evenodd;stroke:none;stroke-width:1px;stroke-linecap:butt;stroke-linejoin:miter;stroke-opacity:1"
       d="m 16.923752,1031.9808 c 0,0 2.366798,-2.0888 1.925398,-2.6038 -0.441401,-0.515 -4.119711,-3.1633 -4.26685,-4.4874 -0.147131,-1.3241 3.67832,-1.2507 4.561109,-2.2806 0.8828,-1.03 1.544891,-1.7656 2.280561,-2.06 0.73566,-0.2941 2.72195,-0.515 3.16335,-1.1769 0.4414,-0.6622 2.35412,-2.8691 3.82544,-3.5313 1.47133,-0.662 2.574821,0.6622 3.75188,-0.147 1.177071,-0.8093 7.135931,-5.0761 7.79803,-5.8855 0.0317,-0.5083 1.169581,-1.2808 1.544891,-1.1033 1.459619,0.6903 2.133419,1.6183 1.839159,2.869 -0.29427,1.2507 -3.236919,6.5475 -2.942649,6.9154 0.29426,0.3677 2.05985,0.2943 2.72195,0.1469 0.662099,-0.1469 1.47133,-1.1034 1.91272,-0.9563 0.441399,0.1471 1.3242,2.207 0.662099,2.5013 -0.662099,0.2942 -0.809229,0.1471 -1.47133,0.3677 -0.66209,0.2207 -5.076069,2.5014 -5.95886,5.2232 -0.8828,2.7221 -1.76559,11.6236 -1.39776,12.2122 0.367831,0.5885 0.58853,1.9127 0.58853,1.9127 l -19.56863,-5.3703 z"
       id="path3386"
       inkscape:connector-curvature="0"
       sodipodi:nodetypes="cssscssccscsccssccccc" />
    <path
       style="fill:#51679e;fill-opacity:1;fill-rule:evenodd;stroke:none;stroke-width:1px;stroke-linecap:butt;stroke-linejoin:miter;stroke-opacity:1"
       d="m 26.778135,1023.8183 c 0,0 0.441399,-3.6046 2.059859,-4.4875 1.61846,-0.8828 2.795521,-0.662 2.795521,-0.662 0,0 -0.956361,2.3541 -1.912731,2.4276 -0.956359,0.074 -2.942649,2.7219 -2.942649,2.7219 z"
       id="path3388"
       inkscape:connector-curvature="0" />
    <path
       style="fill:#f4e3d7;fill-opacity:1;fill-rule:evenodd;stroke:none;stroke-width:1px;stroke-linecap:butt;stroke-linejoin:miter;stroke-opacity:1"
       d="m 19.975394,1034.5716 0.20807,3.6413 4.26558,0.416 -0.10404,1.7687 9.88365,0.4162 -0.10404,-6.1382 z"
       id="path4192"
       inkscape:connector-curvature="0" />
  </g>
</svg>
