<?xml version="1.0" encoding="UTF-8" standalone="no"?>
<!-- Created with Inkscape (http://www.inkscape.org/) -->

<svg
   xmlns:dc="http://purl.org/dc/elements/1.1/"
   xmlns:cc="http://creativecommons.org/ns#"
   xmlns:rdf="http://www.w3.org/1999/02/22-rdf-syntax-ns#"
   xmlns:svg="http://www.w3.org/2000/svg"
   xmlns="http://www.w3.org/2000/svg"
   xmlns:sodipodi="http://sodipodi.sourceforge.net/DTD/sodipodi-0.dtd"
   xmlns:inkscape="http://www.inkscape.org/namespaces/inkscape"
   width="64"
   height="64"
   id="svg2"
   version="1.1"
   inkscape:version="0.91 r13725"
   sodipodi:docname="androidstudio.svg">
  <defs
     id="defs4" />
  <sodipodi:namedview
     id="base"
     pagecolor="#ffffff"
     bordercolor="#666666"
     borderopacity="1.0"
     inkscape:pageopacity="0.0"
     inkscape:pageshadow="2"
     inkscape:zoom="4.9447907"
     inkscape:cx="10.162832"
     inkscape:cy="20.421071"
     inkscape:document-units="px"
     inkscape:current-layer="layer1"
     showgrid="true"
     inkscape:object-paths="true"
     inkscape:snap-object-midpoints="true"
     inkscape:snap-center="true"
     inkscape:snap-bbox="true"
     inkscape:bbox-paths="true"
     inkscape:bbox-nodes="true"
     inkscape:snap-bbox-edge-midpoints="true"
     inkscape:snap-bbox-midpoints="true"
     inkscape:snap-intersection-paths="true"
     inkscape:object-nodes="true"
     inkscape:snap-smooth-nodes="true"
     inkscape:snap-midpoints="true"
     inkscape:snap-page="true"
     inkscape:window-width="696"
     inkscape:window-height="605"
     inkscape:window-x="648"
     inkscape:window-y="113"
     inkscape:window-maximized="0"
     inkscape:snap-global="true">
    <inkscape:grid
       empspacing="2"
       visible="true"
       enabled="true"
       snapvisiblegridlinesonly="true"
       type="xygrid"
       id="grid2987" />
  </sodipodi:namedview>
  <metadata
     id="metadata7">
    <rdf:RDF>
      <cc:Work
         rdf:about="">
        <dc:format>image/svg+xml</dc:format>
        <dc:type
           rdf:resource="http://purl.org/dc/dcmitype/StillImage" />
        <dc:title />
      </cc:Work>
    </rdf:RDF>
  </metadata>
  <g
     inkscape:label="Layer 1"
     inkscape:groupmode="layer"
     id="layer1"
     transform="translate(0,-988.36218)">
    <rect
       style="fill:#51a044;fill-opacity:1;stroke:none"
       id="rect4990"
       width="64"
       height="64"
       x="0"
       y="0"
       transform="translate(0,988.36218)"
       ry="4" />
    <path
       style="fill:#f4e3d7;fill-rule:evenodd;stroke:none;stroke-width:1px;stroke-linecap:butt;stroke-linejoin:miter;stroke-opacity:1;fill-opacity:1"
       d="m 24,1032.3622 0,8 c 0,0 0,2 2,2 2,0 2,0 2,0 0,0 2,0 2,-2 0,-2 0,-10 0,-10 l -6,0 z"
       id="path3352"
       inkscape:connector-curvature="0" />
    <path
       style="fill:#f4e3d7;fill-rule:evenodd;stroke:none;stroke-width:1px;stroke-linecap:butt;stroke-linejoin:miter;stroke-opacity:1;fill-opacity:1"
       d="m 40,1032.3622 0,8 c 0,0 0,2 -2,2 -2,0 -2,0 -2,0 0,0 -2,0 -2,-2 0,-2 0,-10 0,-10 l 6,0 z"
       id="path3354"
       inkscape:connector-curvature="0" />
    <path
       style="fill:#f4e3d7;fill-opacity:1;fill-rule:evenodd;stroke:none;stroke-width:1px;stroke-linecap:butt;stroke-linejoin:miter;stroke-opacity:1"
       d="m 26.401717,1002.1656 -2.999988,-3.99998 c 0,0 -0.599995,-0.8 0.200008,-1.4 0.800004,-0.59999 1.399999,0.20001 1.399999,0.20001 l 2.999988,3.99997 -1.600007,1.2 z"
       id="path3358"
       inkscape:connector-curvature="0"
       inkscape:transform-center-x="-0.16069187"
       inkscape:transform-center-y="-1.285535" />
    <path
       style="fill:#f4e3d7;fill-opacity:1;fill-rule:evenodd;stroke:none;stroke-width:1px;stroke-linecap:butt;stroke-linejoin:miter;stroke-opacity:1"
       d="m 43,1009.3622 c 0,0 1,0 1,-1 0,-1 -3.059283,-7.9359 -12,-8 -8.940717,-0.064 -12,7 -12,8 0,1 1,1 1,1 z"
       id="path4215"
       inkscape:connector-curvature="0"
       sodipodi:nodetypes="cscscc" />
    <path
       style="fill:#51a044;fill-opacity:1;fill-rule:evenodd;stroke:none;stroke-width:1px;stroke-linecap:butt;stroke-linejoin:miter;stroke-opacity:1"
       d="m 27,1004.3622 c 0,0 0,-1 1,-1 1,0 1,1 1,1 0,0 0,1 -1,1 -1,0 -1,-1 -1,-1 z"
       id="path3362"
       inkscape:connector-curvature="0" />
    <path
       style="fill:#51a044;fill-opacity:1;fill-rule:evenodd;stroke:none;stroke-width:1px;stroke-linecap:butt;stroke-linejoin:miter;stroke-opacity:1"
       d="m 35,1004.3622 c 0,0 0,-1 1,-1 1,0 1,1 1,1 0,0 0,1 -1,1 -1,0 -1,-1 -1,-1 z"
       id="path3362-3"
       inkscape:connector-curvature="0" />
    <path
       style="fill:#f4e3d7;fill-opacity:1;fill-rule:evenodd;stroke:none;stroke-width:1px;stroke-linecap:butt;stroke-linejoin:miter;stroke-opacity:1"
       d="m 15,1010.3622 2,0 c 0,0 2,0 2,2 0,2 0,12 0,12 0,0 0,2 -2,2 -2,0 -2,0 -2,0 0,0 -2,0 -2,-2 0,-2 0,-12 0,-12 0,0 0,-2 2,-2 z"
       id="path3394"
       inkscape:connector-curvature="0" />
    <path
       style="fill:#f4e3d7;fill-opacity:1;fill-rule:evenodd;stroke:none;stroke-width:1px;stroke-linecap:butt;stroke-linejoin:miter;stroke-opacity:1"
       d="m 47,1010.3622 2,0 c 0,0 2,0 2,2 0,2 0,12 0,12 0,0 0,2 -2,2 -2,0 -2,0 -2,0 0,0 -2,0 -2,-2 0,-2 0,-12 0,-12 0,0 0,-2 2,-2 z"
       id="path3394-9"
       inkscape:connector-curvature="0" />
    <path
       style="fill:#f4e3d7;fill-rule:evenodd;stroke:none;stroke-width:1px;stroke-linecap:butt;stroke-linejoin:miter;stroke-opacity:1;fill-opacity:1"
       d="m 22,1010.3622 c 0,0 -2,0 -2,2 0,2 0,18 0,18 0,0 0,2 2,2 2,0 20,0 20,0 0,0 2,0 2,-2 0,-2 0,-18 0,-18 0,0 0,-2 -2,-2 -2,0 -20,0 -20,0 z"
       id="path4211"
       inkscape:connector-curvature="0" />
    <path
       style="fill:#f4e3d7;fill-opacity:1;fill-rule:evenodd;stroke:none;stroke-width:1px;stroke-linecap:butt;stroke-linejoin:miter;stroke-opacity:1"
       d="m 37.677715,1002.1455 2.999988,-4.00008 c 0,0 0.599995,-0.8 -0.200008,-1.4 -0.800004,-0.6 -1.399999,0.2 -1.399999,0.2 l -2.999988,4.00008 1.600007,1.2 z"
       id="path3358-8"
       inkscape:connector-curvature="0"
       inkscape:transform-center-x="0.16069176"
       inkscape:transform-center-y="-1.285535" />
    <path
       style="fill:#51a044;fill-opacity:1;fill-rule:evenodd;stroke:none;stroke-width:1px;stroke-linecap:butt;stroke-linejoin:miter;stroke-opacity:1"
       d="m 30,1018.3622 c 0,0 0,-4 2,-4 2,0 2,4 2,4 0,0 4,0 4,2 0,2 -4,2 -4,2 0,0 0,4 -2,4 -2,0 -2,-4 -2,-4 0,0 -4,0 -4,-2 0,-2 4,-2 4,-2 z"
       id="path3347"
       inkscape:connector-curvature="0"
       sodipodi:nodetypes="cscscscsc" />
  </g>
</svg>
