<?xml version="1.0" encoding="UTF-8" standalone="no"?>
<!-- Created with Inkscape (http://www.inkscape.org/) -->

<svg
   xmlns:dc="http://purl.org/dc/elements/1.1/"
   xmlns:cc="http://creativecommons.org/ns#"
   xmlns:rdf="http://www.w3.org/1999/02/22-rdf-syntax-ns#"
   xmlns:svg="http://www.w3.org/2000/svg"
   xmlns="http://www.w3.org/2000/svg"
   xmlns:sodipodi="http://sodipodi.sourceforge.net/DTD/sodipodi-0.dtd"
   xmlns:inkscape="http://www.inkscape.org/namespaces/inkscape"
   width="64"
   height="64"
   id="svg2"
   version="1.1"
   inkscape:version="0.91 r13725"
   sodipodi:docname="app-launcher.svg">
  <defs
     id="defs4" />
  <sodipodi:namedview
     id="base"
     pagecolor="#ffffff"
     bordercolor="#666666"
     borderopacity="1.0"
     inkscape:pageopacity="0.0"
     inkscape:pageshadow="2"
     inkscape:zoom="3.3667889"
     inkscape:cx="43.447749"
     inkscape:cy="49.918734"
     inkscape:document-units="px"
     inkscape:current-layer="layer1"
     showgrid="true"
     inkscape:object-paths="true"
     inkscape:snap-object-midpoints="true"
     inkscape:snap-center="true"
     inkscape:snap-bbox="true"
     inkscape:bbox-paths="true"
     inkscape:bbox-nodes="true"
     inkscape:snap-bbox-edge-midpoints="true"
     inkscape:snap-bbox-midpoints="true"
     inkscape:snap-intersection-paths="true"
     inkscape:object-nodes="true"
     inkscape:snap-smooth-nodes="true"
     inkscape:snap-midpoints="true"
     inkscape:snap-page="true"
     inkscape:window-width="697"
     inkscape:window-height="714"
     inkscape:window-x="307"
     inkscape:window-y="27"
     inkscape:window-maximized="0">
    <inkscape:grid
       empspacing="2"
       visible="true"
       enabled="true"
       snapvisiblegridlinesonly="true"
       type="xygrid"
       id="grid2987" />
  </sodipodi:namedview>
  <metadata
     id="metadata7">
    <rdf:RDF>
      <cc:Work
         rdf:about="">
        <dc:format>image/svg+xml</dc:format>
        <dc:type
           rdf:resource="http://purl.org/dc/dcmitype/StillImage" />
        <dc:title />
      </cc:Work>
    </rdf:RDF>
  </metadata>
  <g
     inkscape:label="Layer 1"
     inkscape:groupmode="layer"
     id="layer1"
     transform="translate(0,-988.36218)">
    <rect
       style="fill:#e3dedb;fill-opacity:1;stroke:none"
       id="rect4990"
       width="64"
       height="64"
       x="0"
       y="0"
       ry="4"
       transform="translate(0,988.36218)" />
    <path
       style="fill:#f96767;fill-rule:evenodd;stroke:none;stroke-width:1px;stroke-linecap:butt;stroke-linejoin:miter;stroke-opacity:1;fill-opacity:1"
       d="m 15,999.86218 c 0,0 -3,0 -3,3.12502 l 0,6.25 c 0,0 0,3.125 3,3.125 l 6,0 c 0,0 3,0 3,-3.125 l 0,-6.25 c 0,0 0,-3.12502 -3,-3.12502 z"
       id="path3346"
       inkscape:connector-curvature="0"
       sodipodi:nodetypes="cscscscsc" />
    <path
       style="fill:#5fbcd3;fill-rule:evenodd;stroke:none;stroke-width:1px;stroke-linecap:butt;stroke-linejoin:miter;stroke-opacity:1;fill-opacity:1"
       d="m 29,1000.3622 c 0,0 -3,0 -3,3 l 0,6 c 0,0 0,3 3,3 l 6,0 c 0,0 3,0 3,-3 l 0,-6 c 0,0 0,-3 -3,-3 z"
       id="path3346-7"
       inkscape:connector-curvature="0"
       sodipodi:nodetypes="cscscscsc" />
    <path
       style="fill:#5fbcd3;fill-rule:evenodd;stroke:none;stroke-width:1px;stroke-linecap:butt;stroke-linejoin:miter;stroke-opacity:1;fill-opacity:1"
       d="m 43,1000.3622 c 0,0 -3,0 -3,3 l 0,6 c 0,0 0,3 3,3 l 6,0 c 0,0 3,0 3,-3 l 0,-6 c 0,0 0,-3 -3,-3 z"
       id="path3346-4"
       inkscape:connector-curvature="0"
       sodipodi:nodetypes="cscscscsc" />
    <path
       style="fill:#37c871;fill-opacity:1;fill-rule:evenodd;stroke:none;stroke-width:1px;stroke-linecap:butt;stroke-linejoin:miter;stroke-opacity:1"
       d="m 15,1014.3622 c 0,0 -3,0 -3,3 l 0,6 c 0,0 0,3 3,3 l 6,0 c 0,0 3,0 3,-3 l 0,-6 c 0,0 0,-3 -3,-3 z"
       id="path3346-3"
       inkscape:connector-curvature="0"
       sodipodi:nodetypes="cscscscsc" />
    <path
       style="fill:#f96767;fill-opacity:1;fill-rule:evenodd;stroke:none;stroke-width:1px;stroke-linecap:butt;stroke-linejoin:miter;stroke-opacity:1"
       d="m 29,1014.3622 c 0,0 -3,0 -3,3 l 0,6 c 0,0 0,3 3,3 l 6,0 c 0,0 3,0 3,-3 l 0,-6 c 0,0 0,-3 -3,-3 z"
       id="path3346-7-9"
       inkscape:connector-curvature="0"
       sodipodi:nodetypes="cscscscsc" />
    <path
       style="fill:#5fbcd3;fill-opacity:1;fill-rule:evenodd;stroke:none;stroke-width:1px;stroke-linecap:butt;stroke-linejoin:miter;stroke-opacity:1"
       d="m 43,1014.3622 c 0,0 -3,0 -3,3 l 0,6 c 0,0 0,3 3,3 l 6,0 c 0,0 3,0 3,-3 l 0,-6 c 0,0 0,-3 -3,-3 z"
       id="path3346-4-1"
       inkscape:connector-curvature="0"
       sodipodi:nodetypes="cscscscsc" />
    <path
       style="fill:#37c871;fill-opacity:1;fill-rule:evenodd;stroke:none;stroke-width:1px;stroke-linecap:butt;stroke-linejoin:miter;stroke-opacity:1"
       d="m 15,1028.3622 c 0,0 -3,0 -3,3.125 l 0,6.25 c 0,0 0,3.125 3,3.125 l 6,0 c 0,0 3,0 3,-3.125 l 0,-6.25 c 0,0 0,-3.125 -3,-3.125 z"
       id="path3346-36"
       inkscape:connector-curvature="0"
       sodipodi:nodetypes="cscscscsc" />
    <path
       style="fill:#37c871;fill-opacity:1;fill-rule:evenodd;stroke:none;stroke-width:1px;stroke-linecap:butt;stroke-linejoin:miter;stroke-opacity:1"
       d="m 29,1028.3622 c 0,0 -3,0 -3,3 l 0,6 c 0,0 0,3 3,3 l 6,0 c 0,0 3,0 3,-3 l 0,-6 c 0,0 0,-3 -3,-3 z"
       id="path3346-7-1"
       inkscape:connector-curvature="0"
       sodipodi:nodetypes="cscscscsc" />
    <path
       style="fill:#f96767;fill-opacity:1;fill-rule:evenodd;stroke:none;stroke-width:1px;stroke-linecap:butt;stroke-linejoin:miter;stroke-opacity:1"
       d="m 43,1028.3622 c 0,0 -3,0 -3,3 l 0,6 c 0,0 0,3 3,3 l 6,0 c 0,0 3,0 3,-3 l 0,-6 c 0,0 0,-3 -3,-3 z"
       id="path3346-4-9"
       inkscape:connector-curvature="0"
       sodipodi:nodetypes="cscscscsc" />
  </g>
</svg>
