<?xml version="1.0" encoding="UTF-8" standalone="no"?>
<!-- Created with Inkscape (http://www.inkscape.org/) -->

<svg
   xmlns:dc="http://purl.org/dc/elements/1.1/"
   xmlns:cc="http://creativecommons.org/ns#"
   xmlns:rdf="http://www.w3.org/1999/02/22-rdf-syntax-ns#"
   xmlns:svg="http://www.w3.org/2000/svg"
   xmlns="http://www.w3.org/2000/svg"
   xmlns:sodipodi="http://sodipodi.sourceforge.net/DTD/sodipodi-0.dtd"
   xmlns:inkscape="http://www.inkscape.org/namespaces/inkscape"
   width="64"
   height="64"
   id="svg2"
   version="1.1"
   inkscape:version="0.91 r13725"
   sodipodi:docname="applications-system.svg">
  <defs
     id="defs4" />
  <sodipodi:namedview
     id="base"
     pagecolor="#ffffff"
     bordercolor="#666666"
     borderopacity="1.0"
     inkscape:pageopacity="0.0"
     inkscape:pageshadow="2"
     inkscape:zoom="10.474395"
     inkscape:cx="34.591274"
     inkscape:cy="38.572506"
     inkscape:document-units="px"
     inkscape:current-layer="layer1"
     showgrid="true"
     inkscape:object-paths="true"
     inkscape:snap-object-midpoints="true"
     inkscape:snap-center="true"
     inkscape:snap-bbox="true"
     inkscape:bbox-paths="true"
     inkscape:bbox-nodes="true"
     inkscape:snap-bbox-edge-midpoints="true"
     inkscape:snap-bbox-midpoints="true"
     inkscape:snap-intersection-paths="true"
     inkscape:object-nodes="true"
     inkscape:snap-smooth-nodes="true"
     inkscape:snap-midpoints="true"
     inkscape:snap-page="true"
     inkscape:window-width="697"
     inkscape:window-height="714"
     inkscape:window-x="523"
     inkscape:window-y="27"
     inkscape:window-maximized="0"
     inkscape:snap-global="false">
    <inkscape:grid
       empspacing="2"
       visible="true"
       enabled="true"
       snapvisiblegridlinesonly="true"
       type="xygrid"
       id="grid2987" />
  </sodipodi:namedview>
  <metadata
     id="metadata7">
    <rdf:RDF>
      <cc:Work
         rdf:about="">
        <dc:format>image/svg+xml</dc:format>
        <dc:type
           rdf:resource="http://purl.org/dc/dcmitype/StillImage" />
        <dc:title />
      </cc:Work>
    </rdf:RDF>
  </metadata>
  <g
     inkscape:label="Layer 1"
     inkscape:groupmode="layer"
     id="layer1"
     transform="translate(0,-988.36218)">
    <rect
       style="fill:#2ca089;fill-opacity:1;stroke:none"
       id="rect4990"
       width="64"
       height="64"
       x="0"
       y="0"
       transform="translate(0,988.36218)"
       ry="4" />
    <path
       style="fill:#d5ffe6;fill-opacity:1;fill-rule:evenodd;stroke:none;stroke-width:1px;stroke-linecap:butt;stroke-linejoin:miter;stroke-opacity:1"
       d="m 11,1017.8622 0,-13.6111 c 0,0 0,-3.8889 3.818182,-3.8889 3.818182,0 34.363636,0 34.363636,0 0,0 3.818182,0 3.818182,3.8889 0,3.8888 0,27.2222 0,27.2222 0,0 0,3.8889 -3.818182,3.8889 -3.818182,0 -34.363636,0 -34.363636,0 0,0 -3.818182,0 -3.818182,-3.8889 0,-3.8889 0,-13.6111 0,-13.6111 z"
       id="path3339"
       inkscape:connector-curvature="0" />
    <ellipse
       style="fill:#2ca089;fill-opacity:1;stroke:none;stroke-opacity:1"
       id="path3356"
       cx="33.190941"
       cy="1007.3091"
       rx="2.8895638"
       ry="2.9469061" />
    <path
       style="fill:#d5ffe6;fill-opacity:1;fill-rule:evenodd;stroke:none;stroke-width:1px;stroke-linecap:butt;stroke-linejoin:miter;stroke-opacity:1"
       d="m 16,1034.3622 0,7 c 0,0 0,1 1,1 1,0 10,-7 10,-7 z"
       id="path4143"
       inkscape:connector-curvature="0"
       sodipodi:nodetypes="ccscc" />
    <path
       style="fill:#2ca089;fill-opacity:1;fill-rule:evenodd;stroke:none;stroke-width:1px;stroke-linecap:butt;stroke-linejoin:miter;stroke-opacity:1"
       d="m 27.389287,1013.0187 c 0,0 -0.966942,0 -0.966942,0.9618 0,0.9618 0.966942,0.9618 0.966942,0.9618 l 1.933885,0 c 0,0 1.11383,0.012 0.966942,0.9618 l -1.933884,12.5038 c 0,0 0.02631,2.2399 1.933884,1.9237 l 5.801653,-0.9618 c 0,0 0.966942,0 0.966942,-0.9619 0,-0.9618 -0.966942,-0.9618 -0.966942,-0.9618 l -1.933885,0 c 0,0 -1.113831,-0.012 -0.966942,-0.9618 l 1.933884,-12.5038 c 0,0 -0.02631,-2.2399 -1.933884,-1.9237 z"
       id="path3341"
       inkscape:connector-curvature="0"
       sodipodi:nodetypes="csccscscsccscsc" />
  </g>
</svg>
