<?xml version="1.0" encoding="UTF-8" standalone="no"?>
<!-- Created with Inkscape (http://www.inkscape.org/) -->

<svg
   xmlns:dc="http://purl.org/dc/elements/1.1/"
   xmlns:cc="http://creativecommons.org/ns#"
   xmlns:rdf="http://www.w3.org/1999/02/22-rdf-syntax-ns#"
   xmlns:svg="http://www.w3.org/2000/svg"
   xmlns="http://www.w3.org/2000/svg"
   xmlns:sodipodi="http://sodipodi.sourceforge.net/DTD/sodipodi-0.dtd"
   xmlns:inkscape="http://www.inkscape.org/namespaces/inkscape"
   width="64"
   height="64"
   id="svg2"
   version="1.1"
   inkscape:version="0.91 r13725"
   sodipodi:docname="aptdaemon-update-cache.svg">
  <defs
     id="defs4" />
  <sodipodi:namedview
     id="base"
     pagecolor="#ffffff"
     bordercolor="#666666"
     borderopacity="1.0"
     inkscape:pageopacity="0.0"
     inkscape:pageshadow="2"
     inkscape:zoom="6.7151459"
     inkscape:cx="31.662326"
     inkscape:cy="38.429743"
     inkscape:document-units="px"
     inkscape:current-layer="layer1"
     showgrid="true"
     inkscape:object-paths="true"
     inkscape:snap-object-midpoints="true"
     inkscape:snap-center="true"
     inkscape:snap-bbox="true"
     inkscape:bbox-paths="true"
     inkscape:bbox-nodes="true"
     inkscape:snap-bbox-edge-midpoints="true"
     inkscape:snap-bbox-midpoints="true"
     inkscape:snap-intersection-paths="true"
     inkscape:object-nodes="true"
     inkscape:snap-smooth-nodes="true"
     inkscape:snap-midpoints="true"
     inkscape:snap-page="true"
     inkscape:window-width="681"
     inkscape:window-height="714"
     inkscape:window-x="683"
     inkscape:window-y="27"
     inkscape:window-maximized="0">
    <inkscape:grid
       empspacing="2"
       visible="true"
       enabled="true"
       snapvisiblegridlinesonly="true"
       type="xygrid"
       id="grid2987" />
  </sodipodi:namedview>
  <metadata
     id="metadata7">
    <rdf:RDF>
      <cc:Work
         rdf:about="">
        <dc:format>image/svg+xml</dc:format>
        <dc:type
           rdf:resource="http://purl.org/dc/dcmitype/StillImage" />
        <dc:title />
      </cc:Work>
    </rdf:RDF>
  </metadata>
  <g
     inkscape:label="Layer 1"
     inkscape:groupmode="layer"
     id="layer1"
     transform="translate(0,-988.36218)">
    <rect
       style="fill:#d38d5f;fill-opacity:1;stroke:none"
       id="rect4990"
       width="64"
       height="64"
       x="0"
       y="988.36218"
       ry="4" />
    <path
       style="fill:#deaa87;fill-opacity:1;fill-rule:evenodd;stroke:none;stroke-width:1px;stroke-linecap:butt;stroke-linejoin:miter;stroke-opacity:1"
       d="m 10,1002.7622 c 0,0 0,-4.40002 4.4,-4.40002 4.4,0 35.2,0 35.2,0 0,0 4.4,0 4.4,4.40002 0,4.4 0,35.2 0,35.2 0,0 0,4.4 -4.4,4.4 -4.4,0 -35.2,0 -35.2,0 0,0 -4.4,0 -4.4,-4.4 0,-4.4 0,-35.2 0,-35.2 z"
       id="path3340"
       inkscape:connector-curvature="0" />
    <path
       style="fill:#c87137;fill-opacity:1;fill-rule:evenodd;stroke:none;stroke-width:1px;stroke-linecap:butt;stroke-linejoin:miter;stroke-opacity:1"
       d="m 10,1034.3622 c 0,0 0,4 4,4 4,0 36,0 36,0 0,0 4,0 4,-4 0,-4 0,-2 0,-2 l 0,6 c 0,0 0,4 -4,4 -4,0 -36,0 -36,0 0,0 -4,0 -4,-4 0,-4 0,-4 0,-4 z"
       id="path3346"
       inkscape:connector-curvature="0" />
    <path
       style="fill:#c87137;fill-opacity:1;fill-rule:evenodd;stroke:none;stroke-width:1px;stroke-linecap:butt;stroke-linejoin:miter;stroke-opacity:1"
       d="m 10,1006.3622 c 0,0 0,-4 4,-4 4,0 36,0 36,0 0,0 4,0 4,4 0,4 0,2 0,2 l 0,-6 c 0,0 0,-4.00002 -4,-4.00002 -4,0 -36,0 -36,0 0,0 -4,0 -4,4.00002 0,4 0,4 0,4 z"
       id="path3346-5"
       inkscape:connector-curvature="0" />
    <path
       style="fill:none;fill-rule:evenodd;stroke:none;stroke-width:1px;stroke-linecap:butt;stroke-linejoin:miter;stroke-opacity:1"
       d="m 32,984.36218 0,76.00002"
       id="path4224"
       inkscape:connector-curvature="0" />
    <path
       style="fill:#f4e3d7;fill-opacity:1;fill-rule:evenodd;stroke:none;stroke-width:1px;stroke-linecap:butt;stroke-linejoin:miter;stroke-opacity:1"
       d="m 26,1017.4431 0,13.7 0,3.7364 c 0,0 0,1.2454 1.500002,1.2454 l 8.999998,0 c 0,0 1.5,0 1.5,-1.2454 l 0,-19.9273 -12,0 z"
       id="path4161"
       inkscape:connector-curvature="0"
       sodipodi:nodetypes="cccscsccc" />
    <path
       style="fill:#f4e3d7;fill-opacity:1;fill-rule:evenodd;stroke:none;stroke-width:1px;stroke-linecap:butt;stroke-linejoin:miter;stroke-opacity:1"
       d="m 33.386794,1005.9158 c 0,0 -1.386795,-1.2455 -2.773586,0 l -9.707546,8.7182 c 0,0 -2.773586,2.4909 1.386792,2.4909 l 9.707546,0 9.707548,0 c 4.160378,0 1.386792,-2.4909 1.386792,-2.4909 z"
       id="path4157"
       inkscape:connector-curvature="0"
       sodipodi:nodetypes="cscscscc" />
  </g>
</svg>
