<?xml version="1.0" encoding="UTF-8" standalone="no"?>
<!-- Created with Inkscape (http://www.inkscape.org/) -->

<svg
   xmlns:dc="http://purl.org/dc/elements/1.1/"
   xmlns:cc="http://creativecommons.org/ns#"
   xmlns:rdf="http://www.w3.org/1999/02/22-rdf-syntax-ns#"
   xmlns:svg="http://www.w3.org/2000/svg"
   xmlns="http://www.w3.org/2000/svg"
   xmlns:sodipodi="http://sodipodi.sourceforge.net/DTD/sodipodi-0.dtd"
   xmlns:inkscape="http://www.inkscape.org/namespaces/inkscape"
   width="64"
   height="64"
   id="svg2"
   version="1.1"
   inkscape:version="0.91 r13725"
   sodipodi:docname="distributor-logo-archlinux.svg">
  <defs
     id="defs4">
    <clipPath
       id="clipPath-626667287">
      <g
         transform="translate(0,-1004.3622)"
         id="g17">
        <path
           style="fill:#1890d0"
           inkscape:connector-curvature="0"
           d="m -24,13 c 0,1.105 -0.672,2 -1.5,2 -0.828,0 -1.5,-0.895 -1.5,-2 0,-1.105 0.672,-2 1.5,-2 0.828,0 1.5,0.895 1.5,2 z"
           transform="matrix(15.333333,0,0,11.5,414.99999,878.8622)"
           id="path19" />
      </g>
    </clipPath>
  </defs>
  <sodipodi:namedview
     id="base"
     pagecolor="#ffffff"
     bordercolor="#666666"
     borderopacity="1.0"
     inkscape:pageopacity="0.0"
     inkscape:pageshadow="2"
     inkscape:zoom="16.522304"
     inkscape:cx="14.151977"
     inkscape:cy="21.660026"
     inkscape:document-units="px"
     inkscape:current-layer="layer1"
     showgrid="true"
     inkscape:object-paths="true"
     inkscape:snap-object-midpoints="true"
     inkscape:snap-center="true"
     inkscape:snap-bbox="true"
     inkscape:bbox-paths="true"
     inkscape:bbox-nodes="true"
     inkscape:snap-bbox-edge-midpoints="true"
     inkscape:snap-bbox-midpoints="true"
     inkscape:snap-intersection-paths="true"
     inkscape:object-nodes="true"
     inkscape:snap-smooth-nodes="true"
     inkscape:snap-midpoints="true"
     inkscape:snap-page="true"
     inkscape:window-width="697"
     inkscape:window-height="714"
     inkscape:window-x="514"
     inkscape:window-y="27"
     inkscape:window-maximized="0"
     inkscape:snap-global="false">
    <inkscape:grid
       empspacing="2"
       visible="true"
       enabled="true"
       snapvisiblegridlinesonly="true"
       type="xygrid"
       id="grid2987" />
  </sodipodi:namedview>
  <metadata
     id="metadata7">
    <rdf:RDF>
      <cc:Work
         rdf:about="">
        <dc:format>image/svg+xml</dc:format>
        <dc:type
           rdf:resource="http://purl.org/dc/dcmitype/StillImage" />
        <dc:title />
      </cc:Work>
    </rdf:RDF>
  </metadata>
  <g
     inkscape:label="Layer 1"
     inkscape:groupmode="layer"
     id="layer1"
     transform="translate(0,-988.36218)">
    <rect
       style="fill:#4b8cc0;fill-opacity:1;stroke:none"
       id="rect4990"
       width="64"
       height="64"
       x="0"
       y="0"
       transform="translate(0,988.36218)"
       ry="4" />
    <path
       style="fill:#d7eef4;fill-opacity:1;fill-rule:evenodd;stroke:none;stroke-width:1px;stroke-linecap:butt;stroke-linejoin:miter;stroke-opacity:1"
       d="m 11,1040.3622 c 0,0 13,-8 21,-8 8,0 21,8 21,8 l -4,-7 c 0,0 -5.026618,-3.7253 -6.50376,-4.407 -1.477142,-0.6818 -0.227252,-0.1137 -0.227252,-0.1137 0,0 4.431426,1.1363 5.681315,2.1589 0.08522,0.085 0,-0.1136 0,-0.1136 C 42.44853,1020.0924 36.154497,1009.0748 32,998.36218 l -5,12.00002 c 0,0 3.224599,3.367 4.928993,4.6169 1.704395,1.2499 -4.772305,-2.3861 -5.340436,-3.4088 -0.05681,-0.1846 -0.227253,0.2273 -0.227253,0.2273 z"
       id="path4168"
       inkscape:connector-curvature="0"
       sodipodi:nodetypes="csccccccccsccc" />
    <g
       transform="matrix(1.75,0,0,1.7492711,-10,980.85373)"
       id="g47"
       style="fill:#e9afaf;stroke:none">
      <g
         clip-path="url(#clipPath-626667287)"
         id="g49"
         style="fill:#e9afaf;stroke:none">
        <!-- color: #19a0e3 -->
        <g
           id="g51"
           style="fill:#e9afaf;stroke:none" />
      </g>
    </g>
    <path
       style="fill:#3b80ac;fill-opacity:1;fill-rule:evenodd;stroke:none;stroke-width:1px;stroke-linecap:butt;stroke-linejoin:miter;stroke-opacity:1"
       d="m 27.636757,1033.1707 c -0.08294,0 -1.086652,-5.3518 1.1107,-8.1925 1.47384,-2.4145 3.420035,-2.1382 3.461696,-2.1382 0,0 1.850334,-0.063 3.299069,2.4223 1.600573,2.7461 1.533955,6.079 1.193076,7.897 -0.340878,1.8181 -9.064541,0.011 -9.064541,0.011 z"
       id="path4178"
       inkscape:connector-curvature="0"
       sodipodi:nodetypes="cccscc" />
  </g>
</svg>
