<?xml version="1.0" encoding="UTF-8" standalone="no"?>
<!-- Created with Inkscape (http://www.inkscape.org/) -->

<svg
   xmlns:dc="http://purl.org/dc/elements/1.1/"
   xmlns:cc="http://creativecommons.org/ns#"
   xmlns:rdf="http://www.w3.org/1999/02/22-rdf-syntax-ns#"
   xmlns:svg="http://www.w3.org/2000/svg"
   xmlns="http://www.w3.org/2000/svg"
   xmlns:sodipodi="http://sodipodi.sourceforge.net/DTD/sodipodi-0.dtd"
   xmlns:inkscape="http://www.inkscape.org/namespaces/inkscape"
   width="64"
   height="64"
   id="svg2"
   version="1.1"
   inkscape:version="0.91 r13725"
   sodipodi:docname="atlas.svg">
  <defs
     id="defs4" />
  <sodipodi:namedview
     id="base"
     pagecolor="#ffffff"
     bordercolor="#666666"
     borderopacity="1.0"
     inkscape:pageopacity="0.0"
     inkscape:pageshadow="2"
     inkscape:zoom="9.6803071"
     inkscape:cx="21.634406"
     inkscape:cy="10.137641"
     inkscape:document-units="px"
     inkscape:current-layer="layer1"
     showgrid="true"
     inkscape:object-paths="true"
     inkscape:snap-object-midpoints="true"
     inkscape:snap-center="true"
     inkscape:snap-bbox="true"
     inkscape:bbox-paths="true"
     inkscape:bbox-nodes="true"
     inkscape:snap-bbox-edge-midpoints="true"
     inkscape:snap-bbox-midpoints="true"
     inkscape:snap-intersection-paths="true"
     inkscape:object-nodes="true"
     inkscape:snap-smooth-nodes="true"
     inkscape:snap-midpoints="true"
     inkscape:snap-page="true"
     inkscape:window-width="697"
     inkscape:window-height="714"
     inkscape:window-x="115"
     inkscape:window-y="27"
     inkscape:window-maximized="0"
     inkscape:snap-global="false">
    <inkscape:grid
       empspacing="2"
       visible="true"
       enabled="true"
       snapvisiblegridlinesonly="true"
       type="xygrid"
       id="grid2987" />
  </sodipodi:namedview>
  <metadata
     id="metadata7">
    <rdf:RDF>
      <cc:Work
         rdf:about="">
        <dc:format>image/svg+xml</dc:format>
        <dc:type
           rdf:resource="http://purl.org/dc/dcmitype/StillImage" />
        <dc:title />
      </cc:Work>
    </rdf:RDF>
  </metadata>
  <g
     inkscape:label="Layer 1"
     inkscape:groupmode="layer"
     id="layer1"
     transform="translate(0,-988.36218)">
    <rect
       style="fill:#218e5c;fill-opacity:1;stroke:none"
       id="rect4990"
       width="64"
       height="64"
       x="0"
       y="0"
       transform="translate(0,988.36218)"
       ry="4" />
    <path
       style="fill:#fdcf9b;fill-rule:evenodd;stroke:none;stroke-width:1px;stroke-linecap:butt;stroke-linejoin:miter;stroke-opacity:1;fill-opacity:1"
       d="m 10,1000.3622 c 0,0 0,-2.00002 2,-2.00002 2,0 40,0 40,0 0,0 2,0 2,2.00002 0,2 0,40 0,40 0,0 0,2 -2,2 -2,0 -40,0 -40,0 0,0 -2,0 -2,-2 0,-2 0,-40 0,-40 z"
       id="path4179"
       inkscape:connector-curvature="0" />
    <path
       style="fill:none;fill-rule:evenodd;stroke:none;stroke-width:1px;stroke-linecap:butt;stroke-linejoin:miter;stroke-opacity:1"
       d="m 10,1026.3622 44,0 0,14 c 0,0 0,2 -2,2 -2,0 -40,0 -40,0 0,0 -2,0 -2,-2 0,-2 0,-14 0,-14 z"
       id="path4181"
       inkscape:connector-curvature="0" />
    <path
       style="fill:#c8c4b7;fill-rule:evenodd;stroke:none;stroke-width:1px;stroke-linecap:butt;stroke-linejoin:miter;stroke-opacity:1;fill-opacity:1"
       d="m 27,1026.3622 0,16 -15,0 c 0,0 -2,0 -2,-2 l 0,-14 z"
       id="path4183"
       inkscape:connector-curvature="0"
       sodipodi:nodetypes="cccscc" />
    <path
       style="fill:#70abc0;fill-rule:evenodd;stroke:none;stroke-width:1px;stroke-linecap:butt;stroke-linejoin:miter;stroke-opacity:1;fill-opacity:1"
       d="m 10,1012.3622 25,0 c 0,0 2,0 2,2 0,2 0,12 0,12 l -27,0 0,-14 0,0 z"
       id="path4189"
       inkscape:connector-curvature="0" />
    <path
       style="fill:#5fd35f;fill-rule:evenodd;stroke:none;stroke-width:1px;stroke-linecap:butt;stroke-linejoin:miter;stroke-opacity:1;fill-opacity:1"
       d="m 37,1019.3622 8,0 c 0,0 1.894882,-0 2,-2 l 0,-19.00002 5,0 c 0,0 2,0 2,2.00002 l 0,26 -17,0 z"
       id="path4193"
       inkscape:connector-curvature="0"
       sodipodi:nodetypes="ccsccsccc" />
    <rect
       style="fill:#f1423f;fill-opacity:1;stroke:none;stroke-opacity:1"
       id="rect3344"
       width="14"
       height="13.222232"
       x="17"
       y="1002.3622"
       ry="6.6111159" />
    <path
       style="fill:#f1423f;fill-opacity:1;fill-rule:evenodd;stroke:none;stroke-width:1px;stroke-linecap:butt;stroke-linejoin:miter;stroke-opacity:1"
       d="m 24,1025.3622 c 0,0 0,-1.2222 -1.4,-4.8889 -1.4,-3.6667 -5.6,-7.3333 -5.6,-11 0,-3.6667 7,-3.6667 7,-3.6667 0,0 7,0 7,3.6667 0,3.6667 -4.2,7.3333 -5.6,11 -0.989943,2.5927 -1.4,4.8889 -1.4,4.8889 z"
       id="path4156"
       inkscape:connector-curvature="0"
       sodipodi:nodetypes="csscssc" />
    <rect
       style="fill:#652c2c;fill-opacity:1;stroke:none;stroke-opacity:1"
       id="rect4195"
       width="7.5"
       height="7.4998803"
       x="20.355013"
       y="1005.5722"
       ry="3.7499402" />
  </g>
</svg>
