<?xml version="1.0" encoding="UTF-8" standalone="no"?>
<!-- Created with Inkscape (http://www.inkscape.org/) -->

<svg
   xmlns:dc="http://purl.org/dc/elements/1.1/"
   xmlns:cc="http://creativecommons.org/ns#"
   xmlns:rdf="http://www.w3.org/1999/02/22-rdf-syntax-ns#"
   xmlns:svg="http://www.w3.org/2000/svg"
   xmlns="http://www.w3.org/2000/svg"
   xmlns:sodipodi="http://sodipodi.sourceforge.net/DTD/sodipodi-0.dtd"
   xmlns:inkscape="http://www.inkscape.org/namespaces/inkscape"
   width="64"
   height="64"
   id="svg2"
   version="1.1"
   inkscape:version="0.91 r13725"
   sodipodi:docname="audience.svg">
  <defs
     id="defs4" />
  <sodipodi:namedview
     id="base"
     pagecolor="#ffffff"
     bordercolor="#666666"
     borderopacity="1.0"
     inkscape:pageopacity="0.0"
     inkscape:pageshadow="2"
     inkscape:zoom="31.519699"
     inkscape:cx="50.861161"
     inkscape:cy="47.440996"
     inkscape:document-units="px"
     inkscape:current-layer="layer1"
     showgrid="true"
     inkscape:object-paths="true"
     inkscape:snap-object-midpoints="true"
     inkscape:snap-center="true"
     inkscape:snap-bbox="true"
     inkscape:bbox-paths="true"
     inkscape:bbox-nodes="true"
     inkscape:snap-bbox-edge-midpoints="true"
     inkscape:snap-bbox-midpoints="true"
     inkscape:snap-intersection-paths="true"
     inkscape:object-nodes="true"
     inkscape:snap-smooth-nodes="true"
     inkscape:snap-midpoints="true"
     inkscape:snap-page="true"
     inkscape:window-width="696"
     inkscape:window-height="664"
     inkscape:window-x="69"
     inkscape:window-y="46"
     inkscape:window-maximized="0"
     inkscape:snap-global="true">
    <inkscape:grid
       empspacing="2"
       visible="true"
       enabled="true"
       snapvisiblegridlinesonly="true"
       type="xygrid"
       id="grid2987" />
  </sodipodi:namedview>
  <metadata
     id="metadata7">
    <rdf:RDF>
      <cc:Work
         rdf:about="">
        <dc:format>image/svg+xml</dc:format>
        <dc:type
           rdf:resource="http://purl.org/dc/dcmitype/StillImage" />
        <dc:title />
      </cc:Work>
    </rdf:RDF>
  </metadata>
  <g
     inkscape:label="Layer 1"
     inkscape:groupmode="layer"
     id="layer1"
     transform="translate(0,-988.36218)">
    <rect
       style="fill:#536c67;fill-opacity:1;stroke:none"
       id="rect4990"
       width="64"
       height="64"
       x="0"
       y="0"
       transform="translate(0,988.36218)"
       ry="4" />
    <path
       style="fill:#f4e3d7;fill-opacity:1;fill-rule:evenodd;stroke:none;stroke-width:1px;stroke-linecap:butt;stroke-linejoin:miter;stroke-opacity:1"
       d="m 10,1002.7622 c 0,0 0,-4.40002 4.4,-4.40002 l 36.6,0 c 0,0 3,0 3,4.40002 l 0,36.6 c 0,0 0,3 -3,3 l -38,0 c 0,0 -3,0 -3,-3 z"
       id="path3340"
       inkscape:connector-curvature="0"
       sodipodi:nodetypes="cscscscsc" />
    <path
       style="fill:#334751;fill-opacity:1;fill-rule:evenodd;stroke:none;stroke-width:1px;stroke-linecap:butt;stroke-linejoin:miter;stroke-opacity:1"
       d="m 10,1006.3622 43,0 1,0 0,-5 c 0,0 0,-3.00002 -3,-3.00002 l -38,0 c 0,0 -3,0 -3,3.00002 z"
       id="path3372"
       inkscape:connector-curvature="0"
       sodipodi:nodetypes="ccccscsc" />
    <path
       style="fill:#334751;fill-opacity:1;fill-rule:evenodd;stroke:none;stroke-width:1px;stroke-linecap:butt;stroke-linejoin:miter;stroke-opacity:1"
       d="m 26.697497,1014.0255 14.144798,7.3236 c 0,0 1.171165,0.248 1.192736,1.9048 0.02,1.5356 -1.257689,1.9051 -1.257689,1.9051 l -14.014893,8.8598 c -0.0356,-0.1777 -1.733038,0.4716 -1.733038,-1.6661 l 0,-16.6611 c 0,0 -0.389716,-1.7959 1.668086,-1.6661 z"
       id="path3374"
       inkscape:connector-curvature="0"
       sodipodi:nodetypes="ccsccscc" />
    <path
       style="fill:#f4e3d7;fill-rule:evenodd;stroke:none;stroke-width:1px;stroke-linecap:butt;stroke-linejoin:miter;stroke-opacity:1;fill-opacity:1"
       d="m 14,1000.3622 4,0 c 0,0 2,0 2,2 0,2 -2,2 -2,2 l -4,0 c 0,0 -2,0 -2,-2 0,-2 2,-2 2,-2 z"
       id="path3398"
       inkscape:connector-curvature="0" />
    <path
       style="fill:#f4e3d7;fill-rule:evenodd;stroke:none;stroke-width:1px;stroke-linecap:butt;stroke-linejoin:miter;stroke-opacity:1;fill-opacity:1"
       d="m 26,998.36218 -3,3.00002 c 0,0 -1,1 0,2 1,1 3,3 3,3 l 4,0 -3,-3 c 0,0 -1,-1 0,-2 1,-1 3,-3.00002 3,-3.00002 z"
       id="path3344"
       inkscape:connector-curvature="0" />
    <path
       style="fill:#f4e3d7;fill-opacity:1;fill-rule:evenodd;stroke:none;stroke-width:1px;stroke-linecap:butt;stroke-linejoin:miter;stroke-opacity:1"
       d="m 35.722222,998.36218 -3,3.00002 c 0,0 -1,1 0,2 1,1 3,3 3,3 l 4,0 -3,-3 c 0,0 -1,-1 0,-2 1,-1 3,-3.00002 3,-3.00002 z"
       id="path3344-6"
       inkscape:connector-curvature="0" />
    <path
       style="fill:#f4e3d7;fill-opacity:1;fill-rule:evenodd;stroke:none;stroke-width:1px;stroke-linecap:butt;stroke-linejoin:miter;stroke-opacity:1"
       d="m 46,998.36218 -3,3.00002 c 0,0 -1,1 0,2 1,1 3,3 3,3 l 4,0 -3,-3 c 0,0 -1,-1 0,-2 1,-1 3,-3.00002 3,-3.00002 z"
       id="path3344-9"
       inkscape:connector-curvature="0" />
  </g>
</svg>
