<?xml version="1.0" encoding="UTF-8" standalone="no"?>
<!-- Created with Inkscape (http://www.inkscape.org/) -->

<svg
   xmlns:dc="http://purl.org/dc/elements/1.1/"
   xmlns:cc="http://creativecommons.org/ns#"
   xmlns:rdf="http://www.w3.org/1999/02/22-rdf-syntax-ns#"
   xmlns:svg="http://www.w3.org/2000/svg"
   xmlns="http://www.w3.org/2000/svg"
   xmlns:sodipodi="http://sodipodi.sourceforge.net/DTD/sodipodi-0.dtd"
   xmlns:inkscape="http://www.inkscape.org/namespaces/inkscape"
   width="64"
   height="64"
   id="svg2"
   version="1.1"
   inkscape:version="0.91 r13725"
   sodipodi:docname="avant-window-navigator.svg">
  <defs
     id="defs4" />
  <sodipodi:namedview
     id="base"
     pagecolor="#ffffff"
     bordercolor="#666666"
     borderopacity="1.0"
     inkscape:pageopacity="0.0"
     inkscape:pageshadow="2"
     inkscape:zoom="15.767234"
     inkscape:cx="-0.4093489"
     inkscape:cy="25.941826"
     inkscape:document-units="px"
     inkscape:current-layer="layer1"
     showgrid="true"
     inkscape:object-paths="true"
     inkscape:snap-object-midpoints="true"
     inkscape:snap-center="true"
     inkscape:snap-bbox="true"
     inkscape:bbox-paths="true"
     inkscape:bbox-nodes="true"
     inkscape:snap-bbox-edge-midpoints="true"
     inkscape:snap-bbox-midpoints="true"
     inkscape:snap-intersection-paths="true"
     inkscape:object-nodes="true"
     inkscape:snap-smooth-nodes="true"
     inkscape:snap-midpoints="true"
     inkscape:snap-page="true"
     inkscape:window-width="697"
     inkscape:window-height="714"
     inkscape:window-x="240"
     inkscape:window-y="27"
     inkscape:window-maximized="0">
    <inkscape:grid
       empspacing="2"
       visible="true"
       enabled="true"
       snapvisiblegridlinesonly="true"
       type="xygrid"
       id="grid2987" />
  </sodipodi:namedview>
  <metadata
     id="metadata7">
    <rdf:RDF>
      <cc:Work
         rdf:about="">
        <dc:format>image/svg+xml</dc:format>
        <dc:type
           rdf:resource="http://purl.org/dc/dcmitype/StillImage" />
        <dc:title />
      </cc:Work>
    </rdf:RDF>
  </metadata>
  <g
     inkscape:label="Layer 1"
     inkscape:groupmode="layer"
     id="layer1"
     transform="translate(0,-988.36218)">
    <rect
       style="fill:#709ec7;fill-opacity:0.98823529;stroke:none"
       id="rect4990"
       width="64"
       height="64"
       x="0"
       y="0"
       transform="translate(0,988.36218)"
       ry="4" />
    <path
       style="fill:#334751;fill-opacity:1;fill-rule:evenodd;stroke:none;stroke-width:1px;stroke-linecap:butt;stroke-linejoin:miter;stroke-opacity:1"
       d="m 11,1037.3622 c 0,0 -2,0 0,-2 l 4,-4 c 0,0 1,-1 2,-1 l 29,0 c 0,0 0.913571,0.095 2,1 l 6,5 c 0,0 1,1 -1,1 z"
       id="path3344"
       inkscape:connector-curvature="0"
       sodipodi:nodetypes="cscscscsc" />
    <path
       style="fill:#f4e3d7;fill-opacity:1;fill-rule:evenodd;stroke:none;stroke-width:1px;stroke-linecap:butt;stroke-linejoin:miter;stroke-opacity:1"
       d="m 17.875,1033.3622 c 0,0 -0.875,0 -0.875,-0.875 0,-0.875 0,-5.25 0,-5.25 0,0 0,-0.875 0.875,-0.875 0.875,0 4.375,0 4.375,0 l 0.875,0 c 0,0 0.875,0 0.875,0.875 0,0.875 0,5.25 0,5.25 0,0 0,0.875 -0.875,0.875 -0.875,0 -5.25,0 -5.25,0 z"
       id="path4146"
       inkscape:connector-curvature="0" />
    <path
       style="fill:#f4e3d7;fill-opacity:1;fill-rule:evenodd;stroke:none;stroke-width:1px;stroke-linecap:butt;stroke-linejoin:miter;stroke-opacity:1"
       d="m 28.875,1033.3622 c 0,0 -0.875,0 -0.875,-0.875 0,-0.875 0,-5.25 0,-5.25 0,0 0,-0.875 0.875,-0.875 0.875,0 4.375,0 4.375,0 l 0.875,0 c 0,0 0.875,0 0.875,0.875 0,0.875 0,5.25 0,5.25 0,0 0,0.875 -0.875,0.875 -0.875,0 -5.25,0 -5.25,0 z"
       id="path4146-2"
       inkscape:connector-curvature="0" />
    <path
       style="fill:#f4e3d7;fill-opacity:1;fill-rule:evenodd;stroke:none;stroke-width:1px;stroke-linecap:butt;stroke-linejoin:miter;stroke-opacity:1"
       d="m 39.875,1033.3622 c 0,0 -0.875,0 -0.875,-0.875 0,-0.875 0,-5.25 0,-5.25 0,0 0,-0.875 0.875,-0.875 0.875,0 4.375,0 4.375,0 l 0.875,0 c 0,0 0.875,0 0.875,0.875 0,0.875 0,5.25 0,5.25 0,0 0,0.875 -0.875,0.875 -0.875,0 -5.25,0 -5.25,0 z"
       id="path4146-8"
       inkscape:connector-curvature="0" />
  </g>
</svg>
