<?xml version="1.0" encoding="UTF-8" standalone="no"?>
<!-- Created with Inkscape (http://www.inkscape.org/) -->

<svg
   xmlns:dc="http://purl.org/dc/elements/1.1/"
   xmlns:cc="http://creativecommons.org/ns#"
   xmlns:rdf="http://www.w3.org/1999/02/22-rdf-syntax-ns#"
   xmlns:svg="http://www.w3.org/2000/svg"
   xmlns="http://www.w3.org/2000/svg"
   xmlns:sodipodi="http://sodipodi.sourceforge.net/DTD/sodipodi-0.dtd"
   xmlns:inkscape="http://www.inkscape.org/namespaces/inkscape"
   width="64"
   height="64"
   id="svg2"
   version="1.1"
   inkscape:version="0.91 r13725"
   sodipodi:docname="avidemux.svg">
  <defs
     id="defs4" />
  <sodipodi:namedview
     id="base"
     pagecolor="#ffffff"
     bordercolor="#666666"
     borderopacity="1.0"
     inkscape:pageopacity="0.0"
     inkscape:pageshadow="2"
     inkscape:zoom="61.084807"
     inkscape:cx="53.615777"
     inkscape:cy="13.090147"
     inkscape:document-units="px"
     inkscape:current-layer="layer1"
     showgrid="true"
     inkscape:object-paths="true"
     inkscape:snap-object-midpoints="true"
     inkscape:snap-center="true"
     inkscape:snap-bbox="true"
     inkscape:bbox-paths="true"
     inkscape:bbox-nodes="true"
     inkscape:snap-bbox-edge-midpoints="true"
     inkscape:snap-bbox-midpoints="true"
     inkscape:snap-intersection-paths="true"
     inkscape:object-nodes="true"
     inkscape:snap-smooth-nodes="true"
     inkscape:snap-midpoints="true"
     inkscape:snap-page="true"
     inkscape:window-width="696"
     inkscape:window-height="664"
     inkscape:window-x="392"
     inkscape:window-y="27"
     inkscape:window-maximized="0"
     inkscape:snap-global="true">
    <inkscape:grid
       empspacing="2"
       visible="true"
       enabled="true"
       snapvisiblegridlinesonly="true"
       type="xygrid"
       id="grid2987" />
  </sodipodi:namedview>
  <metadata
     id="metadata7">
    <rdf:RDF>
      <cc:Work
         rdf:about="">
        <dc:format>image/svg+xml</dc:format>
        <dc:type
           rdf:resource="http://purl.org/dc/dcmitype/StillImage" />
        <dc:title />
      </cc:Work>
    </rdf:RDF>
  </metadata>
  <g
     inkscape:label="Layer 1"
     inkscape:groupmode="layer"
     id="layer1"
     transform="translate(0,-988.36218)">
    <rect
       style="fill:#536c67;fill-opacity:1;stroke:none"
       id="rect4990"
       width="64"
       height="64"
       x="0"
       y="0"
       transform="translate(0,988.36218)"
       ry="4" />
    <path
       style="fill:#f4e3d7;fill-rule:evenodd;stroke:none;stroke-width:1px;stroke-linecap:butt;stroke-linejoin:miter;stroke-opacity:1;fill-opacity:1"
       d="m 10,1002.7622 c 0,0 0,-4.40002 4.4,-4.40002 4.4,0 35.2,0 35.2,0 0,0 4.4,0 4.4,4.40002 0,4.4 0,35.2 0,35.2 0,0 0,4.4 -4.4,4.4 -4.4,0 -35.2,0 -35.2,0 0,0 -4.4,0 -4.4,-4.4 0,-4.4 0,-35.2 0,-35.2 z"
       id="path3340"
       inkscape:connector-curvature="0" />
    <path
       style="fill:#334751;fill-opacity:1;fill-rule:evenodd;stroke:none;stroke-width:1px;stroke-linecap:butt;stroke-linejoin:miter;stroke-opacity:1"
       d="m 10,1006.3622 43,0 1,0 0,-5 c 0,0 0,-3.00002 -3,-3.00002 l -38,0 c 0,0 -3,0 -3,3.00002 z"
       id="path3372"
       inkscape:connector-curvature="0"
       sodipodi:nodetypes="ccccscsc" />
    <path
       style="fill:#f4e3d7;fill-opacity:1;fill-rule:evenodd;stroke:none;stroke-width:1px;stroke-linecap:butt;stroke-linejoin:miter;stroke-opacity:1"
       d="m 28,998.36218 -3,3.00002 c 0,0 -1,1 0,2 1,1 3,3 3,3 l 4,0 -3,-3 c 0,0 -1,-1 0,-2 1,-1 3,-3.00002 3,-3.00002 z"
       id="path3344"
       inkscape:connector-curvature="0" />
    <path
       style="fill:#f4e3d7;fill-opacity:1;fill-rule:evenodd;stroke:none;stroke-width:1px;stroke-linecap:butt;stroke-linejoin:miter;stroke-opacity:1"
       d="m 36,998.36218 -3,3.00002 c 0,0 -1,1 0,2 1,1 3,3 3,3 l 4,0 -3,-3 c 0,0 -1,-1 0,-2 1,-1 3,-3.00002 3,-3.00002 z"
       id="path3344-6"
       inkscape:connector-curvature="0" />
    <path
       style="fill:#f4e3d7;fill-opacity:1;fill-rule:evenodd;stroke:none;stroke-width:1px;stroke-linecap:butt;stroke-linejoin:miter;stroke-opacity:1"
       d="m 44,998.36218 -3,3.00002 c 0,0 -1,1 0,2 1,1 3,3 3,3 l 4,0 -3,-3 c 0,0 -1,-1 0,-2 1,-1 3,-3.00002 3,-3.00002 z"
       id="path3344-9"
       inkscape:connector-curvature="0" />
    <path
       style="fill:#f4e3d7;fill-opacity:1;fill-rule:evenodd;stroke:none;stroke-width:1px;stroke-linecap:butt;stroke-linejoin:miter;stroke-opacity:1"
       d="m 20,998.36218 -3,3.00002 c 0,0 -1,1 0,2 1,1 3,3 3,3 l 4,0 -3,-3 c 0,0 -1,-1 0,-2 1,-1 3,-3.00002 3,-3.00002 z"
       id="path3344-3"
       inkscape:connector-curvature="0" />
    <path
       style="fill:#334751;fill-opacity:1;fill-rule:evenodd;stroke:none;stroke-width:1px;stroke-linecap:butt;stroke-linejoin:miter;stroke-opacity:1"
       d="m 54,1034.3622 -43,0 -1,0 0,5 c 0,0 0,3 3,3 l 38,0 c 0,0 3,0 3,-3 z"
       id="path3372-5"
       inkscape:connector-curvature="0"
       sodipodi:nodetypes="ccccscsc" />
    <path
       style="fill:#f4e3d7;fill-opacity:1;fill-rule:evenodd;stroke:none;stroke-width:1px;stroke-linecap:butt;stroke-linejoin:miter;stroke-opacity:1"
       d="m 36,1042.3622 3,-3 c 0,0 1,-1 0,-2 -1,-1 -3,-3 -3,-3 l -4,0 3,3 c 0,0 1,1 0,2 -1,1 -3,3 -3,3 z"
       id="path3344-1"
       inkscape:connector-curvature="0" />
    <path
       style="fill:#f4e3d7;fill-opacity:1;fill-rule:evenodd;stroke:none;stroke-width:1px;stroke-linecap:butt;stroke-linejoin:miter;stroke-opacity:1"
       d="m 28,1042.3622 3,-3 c 0,0 1,-1 0,-2 -1,-1 -3,-3 -3,-3 l -4,0 3,3 c 0,0 1,1 0,2 -1,1 -3,3 -3,3 z"
       id="path3344-6-0"
       inkscape:connector-curvature="0" />
    <path
       style="fill:#f4e3d7;fill-opacity:1;fill-rule:evenodd;stroke:none;stroke-width:1px;stroke-linecap:butt;stroke-linejoin:miter;stroke-opacity:1"
       d="m 20,1042.3622 3,-3 c 0,0 1,-1 0,-2 -1,-1 -3,-3 -3,-3 l -4,0 3,3 c 0,0 1,1 0,2 -1,1 -3,3 -3,3 z"
       id="path3344-9-6"
       inkscape:connector-curvature="0" />
    <path
       style="fill:#f4e3d7;fill-opacity:1;fill-rule:evenodd;stroke:none;stroke-width:1px;stroke-linecap:butt;stroke-linejoin:miter;stroke-opacity:1"
       d="m 44,1042.3622 3,-3 c 0,0 1,-1 0,-2 -1,-1 -3,-3 -3,-3 l -4,0 3,3 c 0,0 1,1 0,2 -1,1 -3,3 -3,3 z"
       id="path3344-3-6"
       inkscape:connector-curvature="0" />
    <path
       style="fill:none;fill-rule:evenodd;stroke:none;stroke-width:1px;stroke-linecap:butt;stroke-linejoin:miter;stroke-opacity:1"
       d="m 32,987.36218 0,71.00002"
       id="path3396"
       inkscape:connector-curvature="0" />
    <path
       style="fill:#334751;fill-rule:evenodd;stroke:none;stroke-width:1px;stroke-linecap:butt;stroke-linejoin:miter;stroke-opacity:1;fill-opacity:1"
       d="m 32,1016.3622 10,-8 c 0,0 3,4 0,6 -3,2 -10,6 -10,6 0,0 -7,-4 -10,-6 -3,-2 0,-6 0,-6 z"
       id="path4217"
       inkscape:connector-curvature="0" />
    <rect
       style="fill:#334751;fill-opacity:1;stroke:none;stroke-opacity:1"
       id="rect4223"
       width="11"
       height="10.999997"
       x="34.5"
       y="1019.3622"
       ry="5.4999986" />
    <rect
       style="fill:#334751;fill-opacity:1;stroke:none;stroke-opacity:1"
       id="rect4223-0"
       width="11"
       height="10.999997"
       x="18.5"
       y="1019.3622"
       ry="5.4999986" />
    <rect
       style="fill:#f4e3d7;fill-opacity:1;stroke:none;stroke-opacity:1"
       id="rect4223-3"
       width="6"
       height="5.9999976"
       x="21.5"
       y="1021.8622"
       ry="2.9999988" />
    <rect
       style="fill:#f4e3d7;fill-opacity:1;stroke:none;stroke-opacity:1"
       id="rect4223-3-3"
       width="6"
       height="5.9999976"
       x="36.5"
       y="1021.8622"
       ry="2.9999988" />
    <path
       style="fill:#334751;fill-rule:evenodd;stroke:none;stroke-width:1px;stroke-linecap:butt;stroke-linejoin:miter;stroke-opacity:1;fill-opacity:1"
       d="m 42,1008.3622 -16,13 2,1 1,0 13,-8 z"
       id="path3352"
       inkscape:connector-curvature="0" />
    <path
       style="fill:#334751;fill-opacity:1;fill-rule:evenodd;stroke:none;stroke-width:1px;stroke-linecap:butt;stroke-linejoin:miter;stroke-opacity:1"
       d="m 22,1008.3622 16,13 -2,1 -1,0 -13,-8 z"
       id="path3352-1"
       inkscape:connector-curvature="0" />
  </g>
</svg>
