<?xml version="1.0" encoding="UTF-8" standalone="no"?>
<!-- Created with Inkscape (http://www.inkscape.org/) -->

<svg
   xmlns:dc="http://purl.org/dc/elements/1.1/"
   xmlns:cc="http://creativecommons.org/ns#"
   xmlns:rdf="http://www.w3.org/1999/02/22-rdf-syntax-ns#"
   xmlns:svg="http://www.w3.org/2000/svg"
   xmlns="http://www.w3.org/2000/svg"
   xmlns:sodipodi="http://sodipodi.sourceforge.net/DTD/sodipodi-0.dtd"
   xmlns:inkscape="http://www.inkscape.org/namespaces/inkscape"
   width="64"
   height="64"
   id="svg2"
   version="1.1"
   inkscape:version="0.91 r13725"
   sodipodi:docname="blender.svg">
  <defs
     id="defs4">
    <clipPath
       id="clipPath-417240221">
      <g
         transform="translate(0,-1004.3622)"
         id="g17">
        <path
           style="fill:#1890d0"
           inkscape:connector-curvature="0"
           d="m -24,13 c 0,1.105 -0.672,2 -1.5,2 -0.828,0 -1.5,-0.895 -1.5,-2 0,-1.105 0.672,-2 1.5,-2 0.828,0 1.5,0.895 1.5,2 z"
           transform="matrix(15.333333,0,0,11.5,414.99999,878.8622)"
           id="path19" />
      </g>
    </clipPath>
    <linearGradient
       id="linear0"
       gradientUnits="userSpaceOnUse"
       x1="7.823"
       y1="10.169"
       x2="7.7709999"
       y2="3.03"
       gradientTransform="scale(3.543307,3.543307)">
      <stop
         stop-color="#f48537"
         stop-opacity="1"
         id="stop22" />
      <stop
         offset="1"
         stop-color="#fbb270"
         stop-opacity="1"
         id="stop24" />
    </linearGradient>
  </defs>
  <sodipodi:namedview
     id="base"
     pagecolor="#ffffff"
     bordercolor="#666666"
     borderopacity="1.0"
     inkscape:pageopacity="0.0"
     inkscape:pageshadow="2"
     inkscape:zoom="6.2230902"
     inkscape:cx="34.163388"
     inkscape:cy="32.411715"
     inkscape:document-units="px"
     inkscape:current-layer="layer1"
     showgrid="true"
     inkscape:object-paths="true"
     inkscape:snap-object-midpoints="true"
     inkscape:snap-center="true"
     inkscape:snap-bbox="true"
     inkscape:bbox-paths="true"
     inkscape:bbox-nodes="true"
     inkscape:snap-bbox-edge-midpoints="true"
     inkscape:snap-bbox-midpoints="true"
     inkscape:snap-intersection-paths="true"
     inkscape:object-nodes="true"
     inkscape:snap-smooth-nodes="true"
     inkscape:snap-midpoints="true"
     inkscape:snap-page="true"
     inkscape:window-width="696"
     inkscape:window-height="663"
     inkscape:window-x="619"
     inkscape:window-y="92"
     inkscape:window-maximized="0"
     inkscape:snap-global="false">
    <inkscape:grid
       empspacing="2"
       visible="true"
       enabled="true"
       snapvisiblegridlinesonly="true"
       type="xygrid"
       id="grid2987" />
  </sodipodi:namedview>
  <metadata
     id="metadata7">
    <rdf:RDF>
      <cc:Work
         rdf:about="">
        <dc:format>image/svg+xml</dc:format>
        <dc:type
           rdf:resource="http://purl.org/dc/dcmitype/StillImage" />
        <dc:title></dc:title>
      </cc:Work>
    </rdf:RDF>
  </metadata>
  <g
     inkscape:label="Layer 1"
     inkscape:groupmode="layer"
     id="layer1"
     transform="translate(0,-988.36218)">
    <rect
       style="fill:#3b80ac;fill-opacity:1;stroke:none"
       id="rect4990"
       width="64"
       height="64"
       x="0"
       y="0"
       transform="translate(0,988.36218)"
       ry="4" />
    <path
       style="fill:#ff9d3b;fill-opacity:1;fill-rule:evenodd;stroke:none;stroke-width:1px;stroke-linecap:butt;stroke-linejoin:miter;stroke-opacity:1"
       d="M 48.503387,1012.5624 34.68197,1000.2948 c -1.786331,-1.29042 -3.06925,-1.04662 -4.131896,-0.093 -1.480197,1.3283 -1.510453,3.3536 1.105905,5.4908 l 2.698857,2.2899 -14.393903,0.3271 c 0,0 -4.53497,-0.3286 -4.661661,3.1896 -0.120499,3.3463 3.271341,3.6802 3.271341,3.6802 l 6.624466,-0.082 -14.148551,11.9404 c 0,0 -3.082,2.6428 -0.817836,5.643 1.333543,1.7671 3.598033,1.5606 5.07058,0.3272 0.45208,-0.3787 7.524085,-7.0334 7.524085,-7.0334 l 20.036966,0 5.806631,-0.2454 z"
       id="path3374"
       inkscape:connector-curvature="0"
       sodipodi:nodetypes="ccscccscccsscccc" />
    <rect
       style="fill:#ff9d3b;fill-opacity:1;stroke:none;stroke-opacity:1"
       id="rect3384"
       width="31"
       height="32.000004"
       x="22.678616"
       y="1008.7552"
       ry="16.000002" />
    <rect
       style="fill:#f4e3d7;fill-opacity:1;stroke:none;stroke-opacity:1"
       id="rect4186"
       width="23"
       height="23.000004"
       x="26.678616"
       y="1013.7552"
       ry="11.5" />
    <rect
       style="fill:#3b80ac;fill-opacity:1;stroke:none;stroke-opacity:1"
       id="rect4188"
       width="13"
       height="12.999997"
       x="31.678616"
       y="1018.7552"
       ry="6.4999986" />
  </g>
</svg>
