<?xml version="1.0" encoding="UTF-8" standalone="no"?>
<!-- Created with Inkscape (http://www.inkscape.org/) -->

<svg
   xmlns:dc="http://purl.org/dc/elements/1.1/"
   xmlns:cc="http://creativecommons.org/ns#"
   xmlns:rdf="http://www.w3.org/1999/02/22-rdf-syntax-ns#"
   xmlns:svg="http://www.w3.org/2000/svg"
   xmlns="http://www.w3.org/2000/svg"
   xmlns:sodipodi="http://sodipodi.sourceforge.net/DTD/sodipodi-0.dtd"
   xmlns:inkscape="http://www.inkscape.org/namespaces/inkscape"
   width="64"
   height="64"
   id="svg2"
   version="1.1"
   inkscape:version="0.91 r13725"
   sodipodi:docname="bovo.svg">
  <defs
     id="defs4" />
  <sodipodi:namedview
     id="base"
     pagecolor="#ffffff"
     bordercolor="#666666"
     borderopacity="1.0"
     inkscape:pageopacity="0.0"
     inkscape:pageshadow="2"
     inkscape:zoom="4.4003893"
     inkscape:cx="33.201262"
     inkscape:cy="42.371023"
     inkscape:document-units="px"
     inkscape:current-layer="layer1"
     showgrid="true"
     inkscape:object-paths="true"
     inkscape:snap-object-midpoints="true"
     inkscape:snap-center="true"
     inkscape:snap-bbox="true"
     inkscape:bbox-paths="true"
     inkscape:bbox-nodes="true"
     inkscape:snap-bbox-edge-midpoints="true"
     inkscape:snap-bbox-midpoints="true"
     inkscape:snap-intersection-paths="true"
     inkscape:object-nodes="true"
     inkscape:snap-smooth-nodes="true"
     inkscape:snap-midpoints="true"
     inkscape:snap-page="true"
     inkscape:window-width="696"
     inkscape:window-height="653"
     inkscape:window-x="467"
     inkscape:window-y="41"
     inkscape:window-maximized="0">
    <inkscape:grid
       empspacing="2"
       visible="true"
       enabled="true"
       snapvisiblegridlinesonly="true"
       type="xygrid"
       id="grid2987" />
  </sodipodi:namedview>
  <metadata
     id="metadata7">
    <rdf:RDF>
      <cc:Work
         rdf:about="">
        <dc:format>image/svg+xml</dc:format>
        <dc:type
           rdf:resource="http://purl.org/dc/dcmitype/StillImage" />
        <dc:title></dc:title>
      </cc:Work>
    </rdf:RDF>
  </metadata>
  <g
     inkscape:label="Layer 1"
     inkscape:groupmode="layer"
     id="layer1"
     transform="translate(0,-988.36218)">
    <rect
       style="fill:#334751;fill-opacity:1;stroke:none"
       id="rect4990"
       width="64"
       height="64"
       x="0"
       y="0"
       transform="translate(0,988.36218)"
       ry="4" />
    <path
       style="fill:#4bbadc;fill-opacity:1;fill-rule:evenodd;stroke:none;stroke-width:1px;stroke-linecap:butt;stroke-linejoin:miter;stroke-opacity:1"
       d="m 12,1018.3622 c 0,0 -2,0 -2,2 0,2 2,2 2,2 l 40,0 c 0,0 2,0 2,-2 0,-2 -2,-2 -2,-2 z"
       id="path3344"
       inkscape:connector-curvature="0"
       sodipodi:nodetypes="csccscc" />
    <path
       style="fill:#4bbadc;fill-rule:evenodd;stroke:none;stroke-width:1px;stroke-linecap:butt;stroke-linejoin:miter;stroke-opacity:1;fill-opacity:1"
       d="m 34,1000.3622 c 0,0 0,-2.00002 -2,-2.00002 -2,0 -2,2.00002 -2,2.00002 l 0,40 c 0,0 0,2 2,2 2,0 2,-2 2,-2 z"
       id="path3344-5"
       inkscape:connector-curvature="0"
       sodipodi:nodetypes="csccscc" />
    <path
       style="fill:#4bbadc;fill-rule:evenodd;stroke:none;stroke-width:1px;stroke-linecap:butt;stroke-linejoin:miter;stroke-opacity:1;fill-opacity:1"
       d="m 12.635902,1003.8876 c 0,0 -1.463003,-1.4756 0.04915,-2.9031 1.512148,-1.4277 2.975153,0.048 2.975153,0.048 l 11.703904,11.8043 c 0,0 1.462986,1.4755 -0.04916,2.9029 -1.512149,1.4277 -2.975137,-0.048 -2.975137,-0.048 z"
       id="path4165"
       inkscape:connector-curvature="0" />
    <path
       style="fill:#4bbadc;fill-rule:evenodd;stroke:none;stroke-width:1px;stroke-linecap:butt;stroke-linejoin:miter;stroke-opacity:1;fill-opacity:1"
       d="m 27.364099,1003.8875 c 0,0 1.463001,-1.4756 -0.04915,-2.903 -1.512148,-1.42783 -2.975151,0.049 -2.975151,0.049 l -11.7039,11.8038 c 0,0 -1.462987,1.4756 0.04916,2.9031 1.512148,1.4275 2.975135,-0.049 2.975135,-0.049 z"
       id="path4165-3"
       inkscape:connector-curvature="0" />
    <rect
       style="fill:#ff8080;fill-opacity:1;stroke:none;stroke-opacity:1"
       id="rect4197"
       width="16"
       height="16"
       x="36"
       y="1000.3622"
       ry="8" />
    <rect
       style="fill:#334751;fill-opacity:1;stroke:none;stroke-opacity:1"
       id="rect4201"
       width="10"
       height="10.000003"
       x="39"
       y="1003.3622"
       ry="5.0000014" />
    <path
       style="fill:#4bbadc;fill-rule:evenodd;stroke:none;stroke-width:1px;stroke-linecap:butt;stroke-linejoin:miter;stroke-opacity:1;fill-opacity:1"
       d="m 36.635902,1027.8876 c 0,0 -1.463003,-1.4756 0.04915,-2.9031 1.512148,-1.4277 2.975153,0.048 2.975153,0.048 l 11.703902,11.8042 c 0,0 1.462986,1.4755 -0.04916,2.9029 -1.512148,1.4277 -2.975136,-0.048 -2.975136,-0.048 z"
       id="path4165-8"
       inkscape:connector-curvature="0" />
    <path
       style="fill:#4bbadc;fill-rule:evenodd;stroke:none;stroke-width:1px;stroke-linecap:butt;stroke-linejoin:miter;stroke-opacity:1;fill-opacity:1"
       d="m 51.364097,1027.8875 c 0,0 1.463,-1.4756 -0.04915,-2.903 -1.512147,-1.4278 -2.97515,0.049 -2.97515,0.049 l -11.703898,11.8037 c 0,0 -1.462987,1.4756 0.04916,2.9031 1.512148,1.4275 2.975135,-0.049 2.975135,-0.049 z"
       id="path4165-3-7"
       inkscape:connector-curvature="0" />
    <rect
       style="fill:#ff8080;fill-opacity:1;stroke:none;stroke-opacity:1"
       id="rect4197-1"
       width="16"
       height="16"
       x="12"
       y="1024.3622"
       ry="8" />
    <rect
       style="fill:#334751;fill-opacity:1;stroke:none;stroke-opacity:1"
       id="rect4201-5"
       width="10"
       height="10.000003"
       x="15"
       y="1027.3622"
       ry="5.0000014" />
  </g>
</svg>
