<?xml version="1.0" encoding="UTF-8" standalone="no"?>
<!-- Created with Inkscape (http://www.inkscape.org/) -->

<svg
   xmlns:dc="http://purl.org/dc/elements/1.1/"
   xmlns:cc="http://creativecommons.org/ns#"
   xmlns:rdf="http://www.w3.org/1999/02/22-rdf-syntax-ns#"
   xmlns:svg="http://www.w3.org/2000/svg"
   xmlns="http://www.w3.org/2000/svg"
   xmlns:sodipodi="http://sodipodi.sourceforge.net/DTD/sodipodi-0.dtd"
   xmlns:inkscape="http://www.inkscape.org/namespaces/inkscape"
   width="64"
   height="64"
   id="svg2"
   version="1.1"
   inkscape:version="0.91 r13725"
   sodipodi:docname="caja-actions.svg">
  <defs
     id="defs4" />
  <sodipodi:namedview
     id="base"
     pagecolor="#ffffff"
     bordercolor="#666666"
     borderopacity="1.0"
     inkscape:pageopacity="0.0"
     inkscape:pageshadow="2"
     inkscape:zoom="12.835123"
     inkscape:cx="8.5159242"
     inkscape:cy="20.11443"
     inkscape:document-units="px"
     inkscape:current-layer="layer1"
     showgrid="true"
     inkscape:object-paths="true"
     inkscape:snap-object-midpoints="true"
     inkscape:snap-center="true"
     inkscape:snap-bbox="true"
     inkscape:bbox-paths="true"
     inkscape:bbox-nodes="true"
     inkscape:snap-bbox-edge-midpoints="true"
     inkscape:snap-bbox-midpoints="true"
     inkscape:snap-intersection-paths="true"
     inkscape:object-nodes="true"
     inkscape:snap-smooth-nodes="true"
     inkscape:snap-midpoints="true"
     inkscape:snap-page="true"
     inkscape:window-width="705"
     inkscape:window-height="714"
     inkscape:window-x="207"
     inkscape:window-y="27"
     inkscape:window-maximized="0"
     inkscape:snap-global="true">
    <inkscape:grid
       empspacing="2"
       visible="true"
       enabled="true"
       snapvisiblegridlinesonly="true"
       type="xygrid"
       id="grid2987" />
  </sodipodi:namedview>
  <metadata
     id="metadata7">
    <rdf:RDF>
      <cc:Work
         rdf:about="">
        <dc:format>image/svg+xml</dc:format>
        <dc:type
           rdf:resource="http://purl.org/dc/dcmitype/StillImage" />
        <dc:title />
      </cc:Work>
    </rdf:RDF>
  </metadata>
  <g
     inkscape:label="Layer 1"
     inkscape:groupmode="layer"
     id="layer1"
     transform="translate(0,-988.36218)">
    <rect
       style="fill:#8e5f91;fill-opacity:1;stroke:none"
       id="rect4990"
       width="64"
       height="64"
       x="0"
       y="0"
       transform="translate(0,988.36218)"
       ry="4" />
    <rect
       style="fill:#eed7f4;fill-opacity:1;stroke:none"
       id="rect2996-9"
       width="31.999998"
       height="31.999971"
       x="23"
       y="1007.3622"
       ry="1.5999986" />
    <rect
       style="fill:#eed7f4;fill-opacity:1;stroke:none"
       id="rect2996"
       width="19.166666"
       height="37.999981"
       x="9"
       y="1001.3622"
       ry="1.8999991" />
    <path
       style="fill:#eed7f4;fill-opacity:1;stroke:none"
       d="m 54,1006.3622 c 0,0 -1.875,-5 -3.791667,-5 -1.916666,0 -20.751285,0 -20.751285,0 0,0 -0.561253,-0.1876 0.542952,1 3.470949,3.7332 4.039578,3.9739 5,4 0.957984,0.026 19.000006,0 19,0 z"
       id="path3818"
       inkscape:connector-curvature="0"
       sodipodi:nodetypes="cscssc" />
    <path
       style="fill:#eed7f4;fill-opacity:1;stroke:none"
       d="m 26,13 c 0,0 1.041752,-0.04175 2.041752,0.958248 C 29.041752,14.958248 31,17 31,17 l 1,1 c 0,0 1,1 2,1 1,0 19,0 19,0 0,0 2,0 2,2 0,2 0,26 0,26 l -32,0 0,-34 z"
       id="path2993"
       inkscape:connector-curvature="0"
       transform="translate(0,988.36218)"
       sodipodi:nodetypes="csccscscccc" />
  </g>
</svg>
