<?xml version="1.0" encoding="UTF-8" standalone="no"?>
<!-- Created with Inkscape (http://www.inkscape.org/) -->

<svg
   xmlns:dc="http://purl.org/dc/elements/1.1/"
   xmlns:cc="http://creativecommons.org/ns#"
   xmlns:rdf="http://www.w3.org/1999/02/22-rdf-syntax-ns#"
   xmlns:svg="http://www.w3.org/2000/svg"
   xmlns="http://www.w3.org/2000/svg"
   xmlns:sodipodi="http://sodipodi.sourceforge.net/DTD/sodipodi-0.dtd"
   xmlns:inkscape="http://www.inkscape.org/namespaces/inkscape"
   width="64"
   height="64"
   id="svg2"
   version="1.1"
   inkscape:version="0.91 r13725"
   sodipodi:docname="celestia.svg">
  <defs
     id="defs4" />
  <sodipodi:namedview
     id="base"
     pagecolor="#ffffff"
     bordercolor="#666666"
     borderopacity="1.0"
     inkscape:pageopacity="0.0"
     inkscape:pageshadow="2"
     inkscape:zoom="5.6619961"
     inkscape:cx="29.572516"
     inkscape:cy="30.837454"
     inkscape:document-units="px"
     inkscape:current-layer="layer1"
     showgrid="true"
     inkscape:object-paths="true"
     inkscape:snap-object-midpoints="true"
     inkscape:snap-center="true"
     inkscape:snap-bbox="true"
     inkscape:bbox-paths="true"
     inkscape:bbox-nodes="true"
     inkscape:snap-bbox-edge-midpoints="true"
     inkscape:snap-bbox-midpoints="true"
     inkscape:snap-intersection-paths="true"
     inkscape:object-nodes="true"
     inkscape:snap-smooth-nodes="true"
     inkscape:snap-midpoints="true"
     inkscape:snap-page="true"
     inkscape:window-width="696"
     inkscape:window-height="664"
     inkscape:window-x="159"
     inkscape:window-y="27"
     inkscape:window-maximized="0"
     inkscape:snap-global="false">
    <inkscape:grid
       empspacing="2"
       visible="true"
       enabled="true"
       snapvisiblegridlinesonly="true"
       type="xygrid"
       id="grid2987" />
  </sodipodi:namedview>
  <metadata
     id="metadata7">
    <rdf:RDF>
      <cc:Work
         rdf:about="">
        <dc:format>image/svg+xml</dc:format>
        <dc:type
           rdf:resource="http://purl.org/dc/dcmitype/StillImage" />
        <dc:title />
      </cc:Work>
    </rdf:RDF>
  </metadata>
  <g
     inkscape:label="Layer 1"
     inkscape:groupmode="layer"
     id="layer1"
     transform="translate(0,-988.36218)">
    <rect
       style="fill:#4283b2;fill-opacity:1;stroke:none"
       id="rect4990"
       width="64"
       height="64"
       x="0"
       y="0"
       transform="translate(0,988.36218)"
       ry="4" />
    <path
       sodipodi:type="star"
       style="fill:#f4e3d7;fill-opacity:1;stroke:none;stroke-opacity:1"
       id="path3344"
       sodipodi:sides="5"
       sodipodi:cx="16"
       sodipodi:cy="1004.3622"
       sodipodi:r1="6.0000024"
       sodipodi:r2="3.6055534"
       sodipodi:arg1="-1.5707963"
       sodipodi:arg2="-0.98279413"
       inkscape:flatsided="false"
       inkscape:rounded="0"
       inkscape:randomized="0"
       d="m 16,998.36218 2,3.00002 3.706341,1.1459 -2.235135,2.8291 0.05551,3.8791 -3.38139,-1.2515 -3.672036,1.2515 0.145322,-3.6026 -2.32495,-3.1056 3.471203,-0.9751 z"
       inkscape:transform-center-x="-0.044906896"
       inkscape:transform-center-y="-0.30131074" />
    <path
       sodipodi:type="star"
       style="fill:#f4e3d7;fill-opacity:1;stroke:none;stroke-opacity:1"
       id="path3344-1"
       sodipodi:sides="5"
       sodipodi:cx="29"
       sodipodi:cy="1013.8622"
       sodipodi:r1="6.0000024"
       sodipodi:r2="3.6055534"
       sodipodi:arg1="-1.5707963"
       sodipodi:arg2="-0.98279413"
       inkscape:flatsided="false"
       inkscape:rounded="0"
       inkscape:randomized="0"
       d="m 29,1007.8622 2,3 3.706341,1.1459 -2.235135,2.8291 0.05551,3.8791 -3.38139,-1.2515 -3.672036,1.2515 0.145322,-3.6026 -2.32495,-3.1056 3.471203,-0.9751 z"
       inkscape:transform-center-x="-0.044906896"
       inkscape:transform-center-y="-0.30131074" />
    <path
       sodipodi:type="star"
       style="fill:#f4e3d7;fill-opacity:1;stroke:none;stroke-opacity:1"
       id="path3344-9"
       sodipodi:sides="5"
       sodipodi:cx="16"
       sodipodi:cy="1018.3622"
       sodipodi:r1="6.0000024"
       sodipodi:r2="3.6055534"
       sodipodi:arg1="-1.5707963"
       sodipodi:arg2="-0.98279413"
       inkscape:flatsided="false"
       inkscape:rounded="0"
       inkscape:randomized="0"
       d="m 16,1012.3622 2,3 3.706341,1.1459 -2.235135,2.8291 0.05551,3.8791 -3.38139,-1.2515 -3.672036,1.2515 0.145322,-3.6026 -2.32495,-3.1056 3.471203,-0.9751 z"
       inkscape:transform-center-x="-0.044906896"
       inkscape:transform-center-y="-0.30131074" />
    <path
       style="fill:#f4e3d7;fill-opacity:1;fill-rule:evenodd;stroke:none;stroke-width:1px;stroke-linecap:butt;stroke-linejoin:miter;stroke-opacity:1"
       d="m 39,998.36218 c 0,0 11.937863,15.71722 -2,26.00002 -4.673669,3.4481 -12,4 -12,4 0,0 22.590211,6.7817 28,-8 6.731721,-18.3937 -14,-22.00002 -14,-22.00002 z"
       id="path3367"
       inkscape:connector-curvature="0"
       sodipodi:nodetypes="cscsc" />
    <path
       style="fill:#334751;fill-opacity:1;fill-rule:evenodd;stroke:none;stroke-width:1px;stroke-linecap:butt;stroke-linejoin:miter;stroke-opacity:1"
       d="m 64,1038.3622 -38,0 c 0,0 -2,0 -2,-2 0,-2 -2,-2 -2,-2 l -20,0 c 0,0 -2,0 -2,-2 l 0,-2 0,18 c 0,0 0,4 4,4 l 56,0 c 0,0 4,0 4,-4 l 0,-12 c 0,0 0,2 -2,2 z"
       id="path4179"
       inkscape:connector-curvature="0"
       sodipodi:nodetypes="ccsccsccscsccc" />
  </g>
</svg>
