<?xml version="1.0" encoding="UTF-8" standalone="no"?>
<!-- Created with Inkscape (http://www.inkscape.org/) -->

<svg
   xmlns:dc="http://purl.org/dc/elements/1.1/"
   xmlns:cc="http://creativecommons.org/ns#"
   xmlns:rdf="http://www.w3.org/1999/02/22-rdf-syntax-ns#"
   xmlns:svg="http://www.w3.org/2000/svg"
   xmlns="http://www.w3.org/2000/svg"
   xmlns:sodipodi="http://sodipodi.sourceforge.net/DTD/sodipodi-0.dtd"
   xmlns:inkscape="http://www.inkscape.org/namespaces/inkscape"
   width="64"
   height="64"
   id="svg2"
   version="1.1"
   inkscape:version="0.91 r13725"
   sodipodi:docname="distributor-logo-debian.svg">
  <defs
     id="defs4">
    <clipPath
       id="clipPath-386450974">
      <g
         transform="translate(0,-1004.3622)"
         id="g17">
        <path
           style="fill:#1890d0"
           inkscape:connector-curvature="0"
           d="m -24,13 c 0,1.105 -0.672,2 -1.5,2 -0.828,0 -1.5,-0.895 -1.5,-2 0,-1.105 0.672,-2 1.5,-2 0.828,0 1.5,0.895 1.5,2 z"
           transform="matrix(15.333333,0,0,11.5,414.99999,878.8622)"
           id="path19" />
      </g>
    </clipPath>
  </defs>
  <sodipodi:namedview
     id="base"
     pagecolor="#ffffff"
     bordercolor="#666666"
     borderopacity="1.0"
     inkscape:pageopacity="0.0"
     inkscape:pageshadow="2"
     inkscape:zoom="10.094708"
     inkscape:cx="21.918018"
     inkscape:cy="13.707824"
     inkscape:document-units="px"
     inkscape:current-layer="layer1"
     showgrid="true"
     inkscape:object-paths="true"
     inkscape:snap-object-midpoints="true"
     inkscape:snap-center="true"
     inkscape:snap-bbox="true"
     inkscape:bbox-paths="true"
     inkscape:bbox-nodes="true"
     inkscape:snap-bbox-edge-midpoints="true"
     inkscape:snap-bbox-midpoints="true"
     inkscape:snap-intersection-paths="true"
     inkscape:object-nodes="true"
     inkscape:snap-smooth-nodes="true"
     inkscape:snap-midpoints="true"
     inkscape:snap-page="true"
     inkscape:window-width="696"
     inkscape:window-height="651"
     inkscape:window-x="609"
     inkscape:window-y="68"
     inkscape:window-maximized="0"
     inkscape:snap-global="false">
    <inkscape:grid
       empspacing="2"
       visible="true"
       enabled="true"
       snapvisiblegridlinesonly="true"
       type="xygrid"
       id="grid2987" />
  </sodipodi:namedview>
  <metadata
     id="metadata7">
    <rdf:RDF>
      <cc:Work
         rdf:about="">
        <dc:format>image/svg+xml</dc:format>
        <dc:type
           rdf:resource="http://purl.org/dc/dcmitype/StillImage" />
        <dc:title />
      </cc:Work>
    </rdf:RDF>
  </metadata>
  <g
     inkscape:label="Layer 1"
     inkscape:groupmode="layer"
     id="layer1"
     transform="translate(0,-988.36218)">
    <rect
       style="fill:#c92d64;fill-opacity:1;stroke:none"
       id="rect4990"
       width="64"
       height="64"
       x="0"
       y="0"
       transform="translate(0,988.36218)"
       ry="4" />
    <path
       style="fill:#f4e3d7;fill-opacity:1;fill-rule:evenodd;stroke:none;stroke-width:1px;stroke-linecap:butt;stroke-linejoin:miter;stroke-opacity:1"
       d="m 35.732562,1021.6095 c 0,0 5.154575,0.7863 5.24194,-5.1546 0.08737,-5.9409 -5.504037,-6.2903 -5.940866,-6.2903 -0.436828,0 -5.303717,0.1129 -6.788934,4.8306 -1.485216,4.7178 -0.05118,7.8683 1.197531,9.4973 2.036424,2.5816 7.176033,4.9458 13.629045,1.7474 5.002032,-2.4793 9.134077,-10.1212 6.290329,-18.1721 -1.902739,-5.3868 -7.950276,-11.09546 -18.696255,-9.43551 -10.745978,1.65991 -15.51868,11.34251 -16.686844,15.46371 -1.240714,4.3771 -1.293632,17.0719 8.299739,23.5887 7.611573,5.1706 12.056464,4.7178 12.14383,4.7178 0.08736,0 -4.018821,-1.7473 -5.504038,-2.621 -1.632925,-1.5559 -7.057399,-3.4264 -9.959687,-12.4059 -2.96001,-9.1581 0.649283,-16.7934 4.549224,-20.1091 2.902447,-2.4676 9.51665,-6.2902 17.292195,-1.9944 6.453063,3.5652 4.78605,12.3261 3.494627,14.7211 -2.607132,4.8351 -5.143429,5.8828 -10.047053,4.8488 -5.067209,-1.9221 -4.670959,-6.4469 -4.234131,-8.4563 0.385333,-2.0537 3.330774,-5.2705 5.909068,-4.3706 2.969047,1.3075 3.57386,2.7233 3.705547,5.6245 -0.528643,2.3134 -0.729512,2.6046 -1.689927,3.4562 -0.873657,0.3495 -2.20534,0.5137 -2.20534,0.5137 z"
       id="path3386"
       inkscape:connector-curvature="0"
       sodipodi:nodetypes="cssscsssssscsssscccccc" />
  </g>
</svg>
