<?xml version="1.0" encoding="UTF-8" standalone="no"?>
<!-- Created with Inkscape (http://www.inkscape.org/) -->

<svg
   xmlns:dc="http://purl.org/dc/elements/1.1/"
   xmlns:cc="http://creativecommons.org/ns#"
   xmlns:rdf="http://www.w3.org/1999/02/22-rdf-syntax-ns#"
   xmlns:svg="http://www.w3.org/2000/svg"
   xmlns="http://www.w3.org/2000/svg"
   xmlns:sodipodi="http://sodipodi.sourceforge.net/DTD/sodipodi-0.dtd"
   xmlns:inkscape="http://www.inkscape.org/namespaces/inkscape"
   width="64"
   height="64"
   id="svg2"
   version="1.1"
   inkscape:version="0.91 r13725"
   sodipodi:docname="config-users.svg">
  <defs
     id="defs4" />
  <sodipodi:namedview
     id="base"
     pagecolor="#ffffff"
     bordercolor="#666666"
     borderopacity="1.0"
     inkscape:pageopacity="0.0"
     inkscape:pageshadow="2"
     inkscape:zoom="3.1476276"
     inkscape:cx="11.00185"
     inkscape:cy="54.369368"
     inkscape:document-units="px"
     inkscape:current-layer="layer1"
     showgrid="true"
     inkscape:object-paths="true"
     inkscape:snap-object-midpoints="true"
     inkscape:snap-center="true"
     inkscape:snap-bbox="true"
     inkscape:bbox-paths="true"
     inkscape:bbox-nodes="true"
     inkscape:snap-bbox-edge-midpoints="true"
     inkscape:snap-bbox-midpoints="true"
     inkscape:snap-intersection-paths="true"
     inkscape:object-nodes="true"
     inkscape:snap-smooth-nodes="true"
     inkscape:snap-midpoints="true"
     inkscape:snap-page="true"
     inkscape:window-width="696"
     inkscape:window-height="651"
     inkscape:window-x="219"
     inkscape:window-y="27"
     inkscape:window-maximized="0"
     showguides="false">
    <inkscape:grid
       empspacing="2"
       visible="true"
       enabled="true"
       snapvisiblegridlinesonly="true"
       type="xygrid"
       id="grid2987" />
  </sodipodi:namedview>
  <metadata
     id="metadata7">
    <rdf:RDF>
      <cc:Work
         rdf:about="">
        <dc:format>image/svg+xml</dc:format>
        <dc:type
           rdf:resource="http://purl.org/dc/dcmitype/StillImage" />
        <dc:title />
      </cc:Work>
    </rdf:RDF>
  </metadata>
  <g
     inkscape:label="Layer 1"
     inkscape:groupmode="layer"
     id="layer1"
     transform="translate(0,-988.36218)">
    <rect
       style="fill:#2097be;fill-opacity:1;stroke:none"
       id="rect4990"
       width="64"
       height="64"
       x="0"
       y="0"
       transform="translate(0,988.36218)"
       ry="4" />
    <rect
       style="fill:#5fbcd3;fill-opacity:1;stroke:none;stroke-opacity:1"
       id="rect3344-0"
       width="16"
       height="15.999997"
       x="12"
       y="998.36218"
       ry="7.9999986" />
    <path
       style="fill:#5fbcd3;fill-rule:evenodd;stroke:none;stroke-width:1px;stroke-linecap:butt;stroke-linejoin:miter;stroke-opacity:1;fill-opacity:1"
       d="m 18,1012.3622 0,4 c 0,0 0,2 -2,2 -2,0 -6,1 -6,8 l 0,2 c 0,0 0,2 2,2 l 16,0 c 0,0 2,0 2,-2 0,-2 1,-10 -6,-10 -1.850478,-0.3095 -2,-0.2929 -2,-2 l 0,-4 z"
       id="path3348-2"
       inkscape:connector-curvature="0"
       sodipodi:nodetypes="ccsscscscccc" />
    <rect
       style="fill:#d5ffe6;fill-opacity:1;stroke:none;stroke-opacity:1"
       id="rect3344-5"
       width="16"
       height="15.999997"
       x="24"
       y="1004.3622"
       ry="7.9999986" />
    <rect
       style="fill:#5fbcd3;fill-opacity:1;stroke:none;stroke-opacity:1"
       id="rect3344"
       width="16"
       height="15.999997"
       x="36"
       y="1010.3622"
       ry="7.9999986" />
    <path
       style="fill:#d5ffe6;fill-rule:evenodd;stroke:none;stroke-width:1px;stroke-linecap:butt;stroke-linejoin:miter;stroke-opacity:1;fill-opacity:1"
       d="m 30,1018.3622 0,4 c 0,0 0,2 -2,2 -2,0 -6,1 -6,8 l 0,2 c 0,0 0,2 2,2 l 16,0 c 0,0 2,0 2,-2 0,-2 1,-10 -6,-10 -1.850478,-0.3095 -2,-0.2929 -2,-2 l 0,-4 z"
       id="path3348-3"
       inkscape:connector-curvature="0"
       sodipodi:nodetypes="ccsscscscccc" />
    <path
       style="fill:#5fbcd3;fill-rule:evenodd;stroke:none;stroke-width:1px;stroke-linecap:butt;stroke-linejoin:miter;stroke-opacity:1;fill-opacity:1"
       d="m 42,1024.3622 0,4 c 0,0 0,2 -2,2 -2,0 -6,1 -6,8 l 0,2 c 0,0 0,2 2,2 l 16,0 c 0,0 2,0 2,-2 0,-2 1,-10 -6,-10 -1.850478,-0.3095 -2,-0.2929 -2,-2 l 0,-4 z"
       id="path3348"
       inkscape:connector-curvature="0"
       sodipodi:nodetypes="ccsscscscccc" />
  </g>
</svg>
