<?xml version="1.0" encoding="UTF-8" standalone="no"?>
<!-- Created with Inkscape (http://www.inkscape.org/) -->

<svg
   xmlns:dc="http://purl.org/dc/elements/1.1/"
   xmlns:cc="http://creativecommons.org/ns#"
   xmlns:rdf="http://www.w3.org/1999/02/22-rdf-syntax-ns#"
   xmlns:svg="http://www.w3.org/2000/svg"
   xmlns="http://www.w3.org/2000/svg"
   xmlns:sodipodi="http://sodipodi.sourceforge.net/DTD/sodipodi-0.dtd"
   xmlns:inkscape="http://www.inkscape.org/namespaces/inkscape"
   width="64"
   height="64"
   id="svg2"
   version="1.1"
   inkscape:version="0.91 r13725"
   sodipodi:docname="conky.svg">
  <defs
     id="defs4" />
  <sodipodi:namedview
     id="base"
     pagecolor="#ffffff"
     bordercolor="#666666"
     borderopacity="1.0"
     inkscape:pageopacity="0.0"
     inkscape:pageshadow="2"
     inkscape:zoom="3.8597743"
     inkscape:cx="59.659429"
     inkscape:cy="15.053131"
     inkscape:document-units="px"
     inkscape:current-layer="layer1"
     showgrid="true"
     inkscape:object-paths="true"
     inkscape:snap-object-midpoints="true"
     inkscape:snap-center="true"
     inkscape:snap-bbox="true"
     inkscape:bbox-paths="true"
     inkscape:bbox-nodes="true"
     inkscape:snap-bbox-edge-midpoints="true"
     inkscape:snap-bbox-midpoints="true"
     inkscape:snap-intersection-paths="true"
     inkscape:object-nodes="true"
     inkscape:snap-smooth-nodes="true"
     inkscape:snap-midpoints="true"
     inkscape:snap-page="true"
     inkscape:window-width="697"
     inkscape:window-height="657"
     inkscape:window-x="520"
     inkscape:window-y="27"
     inkscape:window-maximized="0">
    <inkscape:grid
       empspacing="2"
       visible="true"
       enabled="true"
       snapvisiblegridlinesonly="true"
       type="xygrid"
       id="grid2987" />
  </sodipodi:namedview>
  <metadata
     id="metadata7">
    <rdf:RDF>
      <cc:Work
         rdf:about="">
        <dc:format>image/svg+xml</dc:format>
        <dc:type
           rdf:resource="http://purl.org/dc/dcmitype/StillImage" />
        <dc:title />
      </cc:Work>
    </rdf:RDF>
  </metadata>
  <g
     inkscape:label="Layer 1"
     inkscape:groupmode="layer"
     id="layer1"
     transform="translate(0,-988.36218)">
    <rect
       style="fill:#f4d7d7;fill-opacity:1;stroke:none"
       id="rect4990"
       width="64"
       height="64"
       x="0"
       y="0"
       transform="translate(0,988.36218)"
       ry="4" />
    <rect
       style="fill:#2ca089;fill-opacity:1;stroke:none;stroke-opacity:1"
       id="rect3344-3"
       width="8"
       height="8"
       x="10"
       y="1009.3622"
       ry="4" />
    <rect
       style="fill:#09a35c;fill-opacity:1;stroke:none;stroke-opacity:1"
       id="rect3344-1"
       width="8"
       height="8"
       x="10"
       y="1023.3622"
       ry="4" />
    <rect
       style="fill:#eb5b5c;fill-opacity:1;stroke:none;stroke-opacity:1"
       id="rect3344-3-1"
       width="8"
       height="8"
       x="46"
       y="1009.3622"
       ry="4" />
    <rect
       style="fill:#ba619e;fill-opacity:1;stroke:none;stroke-opacity:1"
       id="rect3344-1-7"
       width="8"
       height="8"
       x="46"
       y="1023.3622"
       ry="4" />
    <rect
       style="fill:#709ec7;fill-opacity:1;stroke:none;stroke-opacity:1"
       id="rect3344-3-3"
       width="8"
       height="8"
       x="21"
       y="1034.3622"
       ry="4" />
    <rect
       style="fill:#892ca0;fill-opacity:1;stroke:none;stroke-opacity:1"
       id="rect3344-3-6"
       width="8"
       height="8"
       x="35"
       y="1034.3622"
       ry="4" />
    <rect
       style="fill:#e29251;fill-opacity:1;stroke:none;stroke-opacity:1"
       id="rect3344-3-3-1"
       width="8"
       height="8"
       x="21"
       y="998.36218"
       ry="4" />
    <rect
       style="fill:#f1423f;fill-opacity:1;stroke:none;stroke-opacity:1"
       id="rect3344-3-6-3"
       width="8"
       height="8"
       x="35"
       y="998.36218"
       ry="4" />
    <path
       style="fill:#6f918a;fill-opacity:1;fill-rule:evenodd;stroke:none;stroke-width:1px;stroke-linecap:butt;stroke-linejoin:miter;stroke-opacity:1"
       d="m 22,1012.3622 c 0,0 0,-2 2,-2 l 16,0 c 0,0 2,0 2,2 l 0,2 c 0,0 0,2 -2,2 l -16,0 c 0,0 -2,0 -2,-2 z"
       id="path3454"
       inkscape:connector-curvature="0"
       sodipodi:nodetypes="cscscscsc" />
    <path
       style="fill:#6f918a;fill-opacity:1;fill-rule:evenodd;stroke:none;stroke-width:1px;stroke-linecap:butt;stroke-linejoin:miter;stroke-opacity:1"
       d="m 22,1026.3622 c 0,0 0,-2 2,-2 l 16,0 c 0,0 2,0 2,2 l 0,2 c 0,0 0,2 -2,2 l -16,0 c 0,0 -2,0 -2,-2 z"
       id="path3454-0"
       inkscape:connector-curvature="0"
       sodipodi:nodetypes="cscscscsc" />
    <path
       style="fill:#6f918a;fill-opacity:1;fill-rule:evenodd;stroke:none;stroke-width:1px;stroke-linecap:butt;stroke-linejoin:miter;stroke-opacity:1"
       d="m 24,1010.3622 c 0,0 -2,0 -2,2 l 0,16 c 0,0 0,2 2,2 l 2,0 c 0,0 2,0 2,-2 l 0,-16 c 0,0 0,-2 -2,-2 z"
       id="path3454-1"
       inkscape:connector-curvature="0"
       sodipodi:nodetypes="cscscscsc" />
  </g>
</svg>
