<?xml version="1.0" encoding="UTF-8" standalone="no"?>
<!-- Created with Inkscape (http://www.inkscape.org/) -->

<svg
   xmlns:dc="http://purl.org/dc/elements/1.1/"
   xmlns:cc="http://creativecommons.org/ns#"
   xmlns:rdf="http://www.w3.org/1999/02/22-rdf-syntax-ns#"
   xmlns:svg="http://www.w3.org/2000/svg"
   xmlns="http://www.w3.org/2000/svg"
   xmlns:sodipodi="http://sodipodi.sourceforge.net/DTD/sodipodi-0.dtd"
   xmlns:inkscape="http://www.inkscape.org/namespaces/inkscape"
   width="64"
   height="64"
   id="svg2"
   version="1.1"
   inkscape:version="0.91 r13725"
   sodipodi:docname="gnoome-network-properties.svg">
  <defs
     id="defs4" />
  <sodipodi:namedview
     id="base"
     pagecolor="#ffffff"
     bordercolor="#666666"
     borderopacity="1.0"
     inkscape:pageopacity="0.0"
     inkscape:pageshadow="2"
     inkscape:zoom="7.6730456"
     inkscape:cx="31.084243"
     inkscape:cy="26.378846"
     inkscape:document-units="px"
     inkscape:current-layer="layer1"
     showgrid="true"
     inkscape:object-paths="true"
     inkscape:snap-object-midpoints="true"
     inkscape:snap-center="true"
     inkscape:snap-bbox="true"
     inkscape:bbox-paths="true"
     inkscape:bbox-nodes="true"
     inkscape:snap-bbox-edge-midpoints="true"
     inkscape:snap-bbox-midpoints="true"
     inkscape:snap-intersection-paths="true"
     inkscape:object-nodes="true"
     inkscape:snap-smooth-nodes="true"
     inkscape:snap-midpoints="true"
     inkscape:snap-page="true"
     inkscape:window-width="702"
     inkscape:window-height="656"
     inkscape:window-x="403"
     inkscape:window-y="61"
     inkscape:window-maximized="0"
     showguides="false">
    <inkscape:grid
       empspacing="2"
       visible="true"
       enabled="true"
       snapvisiblegridlinesonly="true"
       type="xygrid"
       id="grid2987" />
  </sodipodi:namedview>
  <metadata
     id="metadata7">
    <rdf:RDF>
      <cc:Work
         rdf:about="">
        <dc:format>image/svg+xml</dc:format>
        <dc:type
           rdf:resource="http://purl.org/dc/dcmitype/StillImage" />
        <dc:title />
      </cc:Work>
    </rdf:RDF>
  </metadata>
  <g
     inkscape:label="Layer 1"
     inkscape:groupmode="layer"
     id="layer1"
     transform="translate(0,-988.36218)">
    <rect
       style="fill:#3b80ac;fill-opacity:1;stroke:none"
       id="rect4990"
       width="64"
       height="64"
       x="0"
       y="0"
       transform="translate(0,988.36218)"
       ry="4" />
    <path
       style="fill:#7abae2;fill-opacity:1;stroke:none;stroke-opacity:1"
       id="path3350-4"
       sodipodi:type="arc"
       sodipodi:cx="31.999956"
       sodipodi:cy="-1020.3243"
       sodipodi:rx="16"
       sodipodi:ry="16.000002"
       sodipodi:start="3.1439588"
       sodipodi:end="0.012873678"
       d="m 16.000001,-1020.3621 a 16,16.000002 0 0 1 8.081411,-13.8653 16,16.000002 0 0 1 16.048042,0.1223 16,16.000002 0 0 1 7.869176,13.9868"
       sodipodi:open="true"
       transform="scale(1,-1)" />
    <ellipse
       style="fill:#cde3f6;fill-opacity:1;stroke:none;stroke-opacity:1"
       id="path3346"
       cx="32"
       cy="1020.3622"
       rx="22"
       ry="12.000003" />
    <ellipse
       style="fill:#7abae2;fill-opacity:1;stroke:none;stroke-opacity:1"
       id="path3344"
       cx="32"
       cy="1020.3622"
       rx="16"
       ry="8.0000029" />
    <path
       style="fill:#7abae2;fill-opacity:1;stroke:none;stroke-opacity:1"
       id="path3344-5"
       ry="6.0000024"
       rx="16"
       cy="1020.3622"
       cx="32" />
    <path
       style="fill:#7abae2;fill-opacity:1;stroke:none;stroke-opacity:1"
       id="path3350"
       sodipodi:type="arc"
       sodipodi:cx="32"
       sodipodi:cy="1020.3622"
       sodipodi:rx="16"
       sodipodi:ry="16.000002"
       sodipodi:start="3.1439588"
       sodipodi:end="0.012873678"
       d="m 16.000045,1020.3243 a 16,16.000002 0 0 1 8.081411,-13.8652 16,16.000002 0 0 1 16.048042,0.1223 16,16.000002 0 0 1 7.869176,13.9868"
       sodipodi:open="true" />
    <path
       style="fill:#cde3f6;fill-opacity:1;fill-rule:evenodd;stroke:none;stroke-width:1px;stroke-linecap:butt;stroke-linejoin:miter;stroke-opacity:1"
       d="m 45.720973,1006.5754 c 0,0 -3.928072,-1.2531 -6.557615,2.9996 -2.629545,4.2527 0.246709,7.2069 0.246709,7.2069 l 6.804328,4.2073 c 0,0 3.725493,1.5807 6.557617,-2.9997 1.577726,-2.5516 1.779003,-4.7786 -0.246711,-7.2068 0,0 -2.103635,3.4021 -3.155453,5.1032 -1.051818,1.7011 -2.7529,0.6493 -2.7529,0.6493 0,0 -1.701081,-1.0518 -3.402163,-2.1037 -1.701082,-1.0518 -0.649265,-2.7529 -0.649265,-2.7529 z"
       id="path4239"
       inkscape:connector-curvature="0"
       sodipodi:nodetypes="csccsc" />
    <path
       style="fill:#cde3f6;fill-opacity:1;fill-rule:evenodd;stroke:none;stroke-width:1px;stroke-linecap:butt;stroke-linejoin:miter;stroke-opacity:1"
       d="M 40.523563,1016.8825 28.42766,1036.445 c 0,0 -1.051818,1.701 0.649264,2.7529 1.701082,1.0518 1.701082,1.0518 1.701082,1.0518 0,0 1.701082,1.0518 2.752899,-0.6493 1.051818,-1.7011 12.095904,-19.5624 12.095904,-19.5624 l -5.103245,-3.1555 z"
       id="path4243"
       inkscape:connector-curvature="0" />
  </g>
</svg>
