<?xml version="1.0" encoding="UTF-8" standalone="no"?>
<!-- Created with Inkscape (http://www.inkscape.org/) -->

<svg
   xmlns:dc="http://purl.org/dc/elements/1.1/"
   xmlns:cc="http://creativecommons.org/ns#"
   xmlns:rdf="http://www.w3.org/1999/02/22-rdf-syntax-ns#"
   xmlns:svg="http://www.w3.org/2000/svg"
   xmlns="http://www.w3.org/2000/svg"
   xmlns:sodipodi="http://sodipodi.sourceforge.net/DTD/sodipodi-0.dtd"
   xmlns:inkscape="http://www.inkscape.org/namespaces/inkscape"
   width="64"
   height="64"
   id="svg2"
   version="1.1"
   inkscape:version="0.91 r13725"
   sodipodi:docname="cs-screensaver.svg">
  <defs
     id="defs4" />
  <sodipodi:namedview
     id="base"
     pagecolor="#ffffff"
     bordercolor="#666666"
     borderopacity="1.0"
     inkscape:pageopacity="0.0"
     inkscape:pageshadow="2"
     inkscape:zoom="13.053294"
     inkscape:cx="34.418529"
     inkscape:cy="28.852743"
     inkscape:document-units="px"
     inkscape:current-layer="layer1"
     showgrid="true"
     inkscape:object-paths="true"
     inkscape:snap-object-midpoints="true"
     inkscape:snap-center="true"
     inkscape:snap-bbox="true"
     inkscape:bbox-paths="true"
     inkscape:bbox-nodes="true"
     inkscape:snap-bbox-edge-midpoints="true"
     inkscape:snap-bbox-midpoints="true"
     inkscape:snap-intersection-paths="true"
     inkscape:object-nodes="true"
     inkscape:snap-smooth-nodes="true"
     inkscape:snap-midpoints="true"
     inkscape:snap-page="true"
     inkscape:window-width="697"
     inkscape:window-height="714"
     inkscape:window-x="656"
     inkscape:window-y="27"
     inkscape:window-maximized="0">
    <inkscape:grid
       empspacing="2"
       visible="true"
       enabled="true"
       snapvisiblegridlinesonly="true"
       type="xygrid"
       id="grid2987" />
  </sodipodi:namedview>
  <metadata
     id="metadata7">
    <rdf:RDF>
      <cc:Work
         rdf:about="">
        <dc:format>image/svg+xml</dc:format>
        <dc:type
           rdf:resource="http://purl.org/dc/dcmitype/StillImage" />
        <dc:title />
      </cc:Work>
    </rdf:RDF>
  </metadata>
  <g
     inkscape:label="Layer 1"
     inkscape:groupmode="layer"
     id="layer1"
     transform="translate(0,-988.36218)">
    <rect
       style="fill:#eab84e;fill-opacity:1;stroke:none"
       id="rect4990"
       width="64"
       height="64"
       x="0"
       y="0"
       transform="translate(0,988.36218)"
       ry="4" />
    <path
       style="fill:#334751;fill-opacity:1;fill-rule:evenodd;stroke:none;stroke-width:1px;stroke-linecap:butt;stroke-linejoin:miter;stroke-opacity:1"
       d="m 10,1004.255 0,-3.5356 c 0,0 0,-2.35722 2.095238,-2.35722 l 39.809524,0 c 0,0 2.095238,-2e-5 2.095238,2.35722 l 0,28.2856 c 0,0 0,2.3572 -2.095238,2.3572 l -39.809524,0 c 0,0 -2.095238,0 -2.095238,-2.3572 z"
       id="path4146"
       inkscape:connector-curvature="0"
       sodipodi:nodetypes="ccscscscsc" />
    <path
       style="fill:#334751;fill-opacity:1;fill-rule:evenodd;stroke:none;stroke-width:1px;stroke-linecap:butt;stroke-linejoin:miter;stroke-opacity:1"
       d="m 28,1029.3622 0,9 -8,0 c 0,0 -2,0 -2,2 0,2 2,2 2,2 l 24,0 c 0,0 2,0 2,-2 0,-2 -2,-2 -2,-2 l -8,0 0,-9 c 0,-9 0,0 0,0 l -2,-1 -4,0 z"
       id="path4148"
       inkscape:connector-curvature="0"
       sodipodi:nodetypes="cccsccsccscccc" />
    <path
       style="fill:#f1423f;fill-opacity:1;fill-rule:evenodd;stroke:none;stroke-width:1px;stroke-linecap:butt;stroke-linejoin:miter;stroke-opacity:1"
       d="m 15.375,1001.3622 c 0,0 -2.375,0 -2.375,2.7 0,2.7 0,20.25 0,20.25 l 0,1.35 c 0,0 0,2.7 2.375,2.7 2.375,0 33.25,0 33.25,0 0,0 2.375,0 2.375,-2.7 0,-2.7 0,-21.6 0,-21.6 0,0 0,-2.7 -2.375,-2.7 -2.375,0 -33.25,0 -33.25,0 z"
       id="path4144"
       inkscape:connector-curvature="0" />
    <path
       style="fill:#f4e3d7;fill-opacity:1;fill-rule:evenodd;stroke:none;stroke-width:1px;stroke-linecap:butt;stroke-linejoin:miter;stroke-opacity:1"
       d="m 24.545454,1011.8663 c 0,0 0,-7.5041 7.454546,-7.5041 7.454545,0 7.454545,7.5041 7.454545,7.5041 l 0,0.9381 -14.909091,0 z"
       id="path3346"
       inkscape:connector-curvature="0"
       sodipodi:nodetypes="cscccc" />
    <path
       style="fill:#f1423f;fill-opacity:1;fill-rule:evenodd;stroke:none;stroke-width:1px;stroke-linecap:butt;stroke-linejoin:miter;stroke-opacity:1"
       d="m 26.409091,1011.8663 c 0,0 0,-5.6281 5.590909,-5.6281 5.590909,0 5.590909,5.6281 5.590909,5.6281 l 0,1.8761 -11.181818,0 z"
       id="path3348"
       inkscape:connector-curvature="0"
       sodipodi:nodetypes="cscccc" />
    <path
       style="fill:#f2be44;fill-opacity:1;fill-rule:evenodd;stroke:none;stroke-width:1px;stroke-linecap:butt;stroke-linejoin:miter;stroke-opacity:1"
       d="m 21.75,1012.8044 c 0,0 0,-0.9381 0.931818,-0.9381 0.931818,0 18.636364,0 18.636364,0 0,0 0.931818,0 0.931818,0.9381 0,0.938 0,11.2562 0,11.2562 0,0 0,0.938 -0.931818,0.938 -0.931818,0 -18.636364,0 -18.636364,0 0,0 -0.931818,0 -0.931818,-0.938 0,-0.938 0,-11.2562 0,-11.2562 z"
       id="path3344"
       inkscape:connector-curvature="0" />
    <rect
       style="fill:#f1423f;fill-opacity:1;stroke:none;stroke-opacity:1"
       id="rect4150"
       width="5.590909"
       height="5.6281238"
       x="29.204546"
       y="1015.6182"
       ry="2.8140619" />
    <path
       style="fill:#f2be44;fill-opacity:1;fill-rule:evenodd;stroke:none;stroke-width:1px;stroke-linecap:butt;stroke-linejoin:miter;stroke-opacity:1"
       d="m 31.534091,1017.0254 c 0,0 0,-0.469 0.465909,-0.469 0.465909,0 0.465909,0.469 0.465909,0.469 l 0,2.8141 c 0,0 0,0.469 -0.465909,0.469 -0.465909,0 -0.465909,-0.469 -0.465909,-0.469 z"
       id="path4152"
       inkscape:connector-curvature="0" />
  </g>
</svg>
