<?xml version="1.0" encoding="UTF-8" standalone="no"?>
<!-- Created with Inkscape (http://www.inkscape.org/) -->

<svg
   xmlns:dc="http://purl.org/dc/elements/1.1/"
   xmlns:cc="http://creativecommons.org/ns#"
   xmlns:rdf="http://www.w3.org/1999/02/22-rdf-syntax-ns#"
   xmlns:svg="http://www.w3.org/2000/svg"
   xmlns="http://www.w3.org/2000/svg"
   xmlns:sodipodi="http://sodipodi.sourceforge.net/DTD/sodipodi-0.dtd"
   xmlns:inkscape="http://www.inkscape.org/namespaces/inkscape"
   width="64"
   height="64"
   id="svg2"
   version="1.1"
   inkscape:version="0.91 r13725"
   sodipodi:docname="deepin-software-center.svg">
  <defs
     id="defs4" />
  <sodipodi:namedview
     id="base"
     pagecolor="#ffffff"
     bordercolor="#666666"
     borderopacity="1.0"
     inkscape:pageopacity="0.0"
     inkscape:pageshadow="2"
     inkscape:zoom="15.282687"
     inkscape:cx="39.363383"
     inkscape:cy="11.357464"
     inkscape:document-units="px"
     inkscape:current-layer="layer1"
     showgrid="true"
     inkscape:object-paths="true"
     inkscape:snap-object-midpoints="true"
     inkscape:snap-center="true"
     inkscape:snap-bbox="true"
     inkscape:bbox-paths="true"
     inkscape:bbox-nodes="true"
     inkscape:snap-bbox-edge-midpoints="true"
     inkscape:snap-bbox-midpoints="true"
     inkscape:snap-intersection-paths="true"
     inkscape:object-nodes="true"
     inkscape:snap-smooth-nodes="true"
     inkscape:snap-midpoints="true"
     inkscape:snap-page="true"
     inkscape:window-width="697"
     inkscape:window-height="714"
     inkscape:window-x="624"
     inkscape:window-y="27"
     inkscape:window-maximized="0"
     showguides="true"
     inkscape:snap-global="false">
    <inkscape:grid
       empspacing="2"
       visible="true"
       enabled="true"
       snapvisiblegridlinesonly="true"
       type="xygrid"
       id="grid2987" />
  </sodipodi:namedview>
  <metadata
     id="metadata7">
    <rdf:RDF>
      <cc:Work
         rdf:about="">
        <dc:format>image/svg+xml</dc:format>
        <dc:type
           rdf:resource="http://purl.org/dc/dcmitype/StillImage" />
        <dc:title />
      </cc:Work>
    </rdf:RDF>
  </metadata>
  <g
     inkscape:label="Layer 1"
     inkscape:groupmode="layer"
     id="layer1"
     transform="translate(0,-988.36218)">
    <rect
       style="fill:#00aad4;fill-opacity:1;stroke:none"
       id="rect4990"
       width="64"
       height="64"
       x="0"
       y="0"
       ry="4"
       transform="translate(0,988.36218)" />
    <path
       style="fill:#d7eef4;fill-opacity:1;fill-rule:evenodd;stroke:none;stroke-width:1px;stroke-linecap:butt;stroke-linejoin:miter;stroke-opacity:1"
       d="m 13.111111,1000.3622 c 0,0 -2.111111,0 -2.111111,2.1111 l 0,14.7778 c 0,0 0,2.1111 2.111111,2.1111 l 14.777778,0 c 0,0 2.111111,0 2.111111,-2.1111 l 0,-14.7778 c 0,0 0,-2.1111 -2.111111,-2.1111 z"
       id="path4144"
       inkscape:connector-curvature="0"
       sodipodi:nodetypes="cscscscsc" />
    <path
       style="fill:#d7eef4;fill-opacity:1;fill-rule:evenodd;stroke:none;stroke-width:1px;stroke-linecap:butt;stroke-linejoin:miter;stroke-opacity:1"
       d="m 34.111111,1000.3622 c 0,0 -2.111111,0 -2.111111,2.1112 l 0,14.7777 c 0,0 0,2.1111 2.111111,2.1111 l 14.777778,0 c 0,0 2.111111,0 2.111111,-2.1111 l 0,-14.7777 c 0,0 0,-2.1112 -2.111111,-2.1112 z"
       id="path4144-2"
       inkscape:connector-curvature="0"
       sodipodi:nodetypes="cscscscsc" />
    <path
       style="fill:#d7eef4;fill-opacity:1;fill-rule:evenodd;stroke:none;stroke-width:1px;stroke-linecap:butt;stroke-linejoin:miter;stroke-opacity:1"
       d="m 13.111111,1021.3622 c 0,0 -2.111111,0 -2.111111,2.1111 l 0,14.7778 c 0,0 0,2.1111 2.111111,2.1111 l 14.777778,0 c 0,0 2.111111,0 2.111111,-2.1111 l 0,-14.7778 c 0,0 0,-2.1111 -2.111111,-2.1111 z"
       id="path4144-5"
       inkscape:connector-curvature="0"
       sodipodi:nodetypes="cscscscsc" />
    <path
       style="fill:#d7eef4;fill-opacity:1;fill-rule:evenodd;stroke:none;stroke-width:1px;stroke-linecap:butt;stroke-linejoin:miter;stroke-opacity:1"
       d="m 35.222222,1022.3622 c 0,0 -2.222222,0 -2.222222,2.2222 l 0,15.5556 c 0,0 0,2.2222 2.222222,2.2222 l 15.555556,0 c 0,0 2.222222,0 2.222222,-2.2222 l 0,-15.5556 c 0,0 0,-2.2222 -2.222222,-2.2222 z"
       id="path4144-1"
       inkscape:connector-curvature="0"
       sodipodi:nodetypes="cscscscsc" />
    <path
       style="fill:#00aad4;fill-opacity:1;fill-rule:evenodd;stroke:none;stroke-width:1px;stroke-linecap:butt;stroke-linejoin:miter;stroke-opacity:1"
       d="m 36.777778,1024.3622 c 0,0 -1.777778,0 -1.777778,1.8272 l 0,12.79 c 0,0 0,1.8272 1.777778,1.8272 l 12.444444,0 c 0,0 1.777778,0 1.777778,-1.8272 l 0,-12.79 c 0,0 0,-1.8272 -1.777778,-1.8272 z"
       id="path4144-9"
       inkscape:connector-curvature="0"
       sodipodi:nodetypes="cscscscsc" />
    <text
       xml:space="preserve"
       style="font-style:normal;font-weight:normal;font-size:10.91716766px;line-height:125%;font-family:sans-serif;letter-spacing:0px;word-spacing:0px;fill:#d7eef4;fill-opacity:1;stroke:none;stroke-width:1px;stroke-linecap:butt;stroke-linejoin:miter;stroke-opacity:1"
       x="46.598213"
       y="791.20886"
       id="text3352"
       sodipodi:linespacing="125%"
       transform="scale(0.76299888,1.3106179)"><tspan
         sodipodi:role="line"
         id="tspan3354"
         x="46.598213"
         y="791.20886"
         style="font-style:normal;font-variant:normal;font-weight:normal;font-stretch:normal;font-family:'方正隶书_GBK';-inkscape-font-specification:'方正隶书_GBK';fill:#d7eef4;fill-opacity:1">Toy</tspan></text>
  </g>
</svg>
