<?xml version="1.0" encoding="UTF-8" standalone="no"?>
<!-- Created with Inkscape (http://www.inkscape.org/) -->

<svg
   xmlns:dc="http://purl.org/dc/elements/1.1/"
   xmlns:cc="http://creativecommons.org/ns#"
   xmlns:rdf="http://www.w3.org/1999/02/22-rdf-syntax-ns#"
   xmlns:svg="http://www.w3.org/2000/svg"
   xmlns="http://www.w3.org/2000/svg"
   xmlns:sodipodi="http://sodipodi.sourceforge.net/DTD/sodipodi-0.dtd"
   xmlns:inkscape="http://www.inkscape.org/namespaces/inkscape"
   width="64"
   height="64"
   id="svg2"
   version="1.1"
   inkscape:version="0.91 r13725"
   sodipodi:docname="deepin-music-player.svg">
  <defs
     id="defs4" />
  <sodipodi:namedview
     id="base"
     pagecolor="#ffffff"
     bordercolor="#666666"
     borderopacity="1.0"
     inkscape:pageopacity="0.0"
     inkscape:pageshadow="2"
     inkscape:zoom="16.385892"
     inkscape:cx="42.698393"
     inkscape:cy="28.880744"
     inkscape:document-units="px"
     inkscape:current-layer="layer1"
     showgrid="true"
     inkscape:object-paths="true"
     inkscape:snap-object-midpoints="true"
     inkscape:snap-center="true"
     inkscape:snap-bbox="true"
     inkscape:bbox-paths="true"
     inkscape:bbox-nodes="true"
     inkscape:snap-bbox-edge-midpoints="true"
     inkscape:snap-bbox-midpoints="true"
     inkscape:snap-intersection-paths="true"
     inkscape:object-nodes="true"
     inkscape:snap-smooth-nodes="true"
     inkscape:snap-midpoints="true"
     inkscape:snap-page="true"
     inkscape:window-width="633"
     inkscape:window-height="613"
     inkscape:window-x="673"
     inkscape:window-y="85"
     inkscape:window-maximized="0"
     showguides="false"
     inkscape:snap-global="false">
    <inkscape:grid
       empspacing="2"
       visible="true"
       enabled="true"
       snapvisiblegridlinesonly="true"
       type="xygrid"
       id="grid2987" />
  </sodipodi:namedview>
  <metadata
     id="metadata7">
    <rdf:RDF>
      <cc:Work
         rdf:about="">
        <dc:format>image/svg+xml</dc:format>
        <dc:type
           rdf:resource="http://purl.org/dc/dcmitype/StillImage" />
        <dc:title />
      </cc:Work>
    </rdf:RDF>
  </metadata>
  <g
     inkscape:label="Layer 1"
     inkscape:groupmode="layer"
     id="layer1"
     transform="translate(0,-988.36218)">
    <rect
       style="fill:#00aad4;fill-opacity:1;stroke:none"
       id="rect4990"
       width="64"
       height="64"
       x="0"
       y="0"
       transform="translate(0,988.36218)"
       ry="4" />
    <path
       style="fill:#d7eef4;fill-rule:evenodd;stroke:none;stroke-width:1px;stroke-linecap:butt;stroke-linejoin:miter;stroke-opacity:1;fill-opacity:1"
       d="m 20.878789,1011.84 0,17.0443 c 0,0 -0.137885,2.0847 -2.137885,2.0847 -4.123106,0 -6.692077,1.2811 -8,4 -1.862115,3.871 1,7 5,7 8,0 10.121202,-4.0907 10,-6 l 0,-3 0.137885,-21.129 z"
       id="path3339"
       inkscape:connector-curvature="0"
       sodipodi:nodetypes="ccssssccc" />
    <path
       style="fill:#d7eef4;fill-opacity:1;fill-rule:evenodd;stroke:none;stroke-width:1px;stroke-linecap:butt;stroke-linejoin:miter;stroke-opacity:1"
       d="m 20.878789,1012.2511 c 0,0 0,-3.1111 1.878789,-3.8889 1.878786,-0.7778 27.242422,-7 27.242422,-7 0,0 1.878789,0 1.878789,1.5556 0,1.5555 0,3.8889 0,3.8889 l -25.363636,7 c 0,0 -0.939394,0 -0.939394,0.7778 0,0.7777 -1.878788,0.7777 -1.878788,0.7777 z"
       id="path4179"
       inkscape:connector-curvature="0" />
    <path
       style="fill:#d7eef4;fill-rule:evenodd;stroke:none;stroke-width:1px;stroke-linecap:butt;stroke-linejoin:miter;stroke-opacity:1;fill-opacity:1"
       d="m 47.223503,1004.3622 0,20.0887 c 0,0 -0.137885,2.0847 -2.137885,2.0847 -4.123106,0 -6.692077,1.2811 -8,4 -1.862115,3.871 1,7 5,7 8,0 10.121202,-4.0907 10,-6 l 0,-3 -0.206829,-24.1734 z"
       id="path3339-36"
       inkscape:connector-curvature="0"
       sodipodi:nodetypes="ccssssccc" />
    <text
       xml:space="preserve"
       style="font-style:normal;font-weight:normal;font-size:10.91716766px;line-height:125%;font-family:sans-serif;letter-spacing:0px;word-spacing:0px;fill:#d7eef4;fill-opacity:1;stroke:none;stroke-width:1px;stroke-linecap:butt;stroke-linejoin:miter;stroke-opacity:1"
       x="37.885288"
       y="780.73779"
       id="text3352"
       sodipodi:linespacing="125%"
       transform="scale(0.76299888,1.3106179)"><tspan
         sodipodi:role="line"
         id="tspan3354"
         x="37.885288"
         y="780.73779"
         style="font-style:normal;font-variant:normal;font-weight:normal;font-stretch:normal;font-family:'方正隶书_GBK';-inkscape-font-specification:'方正隶书_GBK';fill:#d7eef4;fill-opacity:1">Toy</tspan></text>
  </g>
</svg>
