<?xml version="1.0" encoding="UTF-8" standalone="no"?>
<!-- Created with Inkscape (http://www.inkscape.org/) -->

<svg
   xmlns:dc="http://purl.org/dc/elements/1.1/"
   xmlns:cc="http://creativecommons.org/ns#"
   xmlns:rdf="http://www.w3.org/1999/02/22-rdf-syntax-ns#"
   xmlns:svg="http://www.w3.org/2000/svg"
   xmlns="http://www.w3.org/2000/svg"
   xmlns:sodipodi="http://sodipodi.sourceforge.net/DTD/sodipodi-0.dtd"
   xmlns:inkscape="http://www.inkscape.org/namespaces/inkscape"
   width="64"
   height="64"
   id="svg2"
   version="1.1"
   inkscape:version="0.91 r13725"
   sodipodi:docname="desktop-environment-lxde.svg">
  <defs
     id="defs4">
    <clipPath
       id="clipPath-535095259">
      <g
         transform="translate(0,-1004.3622)"
         id="g17">
        <path
           style="fill:#1890d0"
           inkscape:connector-curvature="0"
           d="m -24,13 c 0,1.105 -0.672,2 -1.5,2 -0.828,0 -1.5,-0.895 -1.5,-2 0,-1.105 0.672,-2 1.5,-2 0.828,0 1.5,0.895 1.5,2 z"
           transform="matrix(15.333333,0,0,11.5,414.99999,878.8622)"
           id="path19" />
      </g>
    </clipPath>
  </defs>
  <sodipodi:namedview
     id="base"
     pagecolor="#ffffff"
     bordercolor="#666666"
     borderopacity="1.0"
     inkscape:pageopacity="0.0"
     inkscape:pageshadow="2"
     inkscape:zoom="3.5451264"
     inkscape:cx="-4.7737384"
     inkscape:cy="8.1512559"
     inkscape:document-units="px"
     inkscape:current-layer="layer1"
     showgrid="true"
     inkscape:object-paths="true"
     inkscape:snap-object-midpoints="true"
     inkscape:snap-center="true"
     inkscape:snap-bbox="true"
     inkscape:bbox-paths="true"
     inkscape:bbox-nodes="true"
     inkscape:snap-bbox-edge-midpoints="true"
     inkscape:snap-bbox-midpoints="true"
     inkscape:snap-intersection-paths="true"
     inkscape:object-nodes="true"
     inkscape:snap-smooth-nodes="true"
     inkscape:snap-midpoints="true"
     inkscape:snap-page="true"
     inkscape:window-width="696"
     inkscape:window-height="651"
     inkscape:window-x="574"
     inkscape:window-y="71"
     inkscape:window-maximized="0"
     inkscape:snap-global="false">
    <inkscape:grid
       empspacing="2"
       visible="true"
       enabled="true"
       snapvisiblegridlinesonly="true"
       type="xygrid"
       id="grid2987" />
  </sodipodi:namedview>
  <metadata
     id="metadata7">
    <rdf:RDF>
      <cc:Work
         rdf:about="">
        <dc:format>image/svg+xml</dc:format>
        <dc:type
           rdf:resource="http://purl.org/dc/dcmitype/StillImage" />
        <dc:title></dc:title>
      </cc:Work>
    </rdf:RDF>
  </metadata>
  <g
     inkscape:label="Layer 1"
     inkscape:groupmode="layer"
     id="layer1"
     transform="translate(0,-988.36218)">
    <rect
       style="fill:#3b80ac;fill-opacity:1;stroke:none"
       id="rect4990"
       width="64"
       height="64"
       x="0"
       y="0"
       ry="4"
       transform="translate(0,988.36218)" />
    <path
       style="fill:#d7eef4;fill-rule:evenodd;stroke:none;stroke-width:1px;stroke-linecap:butt;stroke-linejoin:miter;stroke-opacity:1;fill-opacity:1"
       d="m 44.527344,998.38952 c 0,0 -0.136719,-0.043 -0.269532,-0.0195 -0.132812,0.0234 -1.230468,0.39844 -1.886718,0.70703 -0.65625,0.3086 -1.878182,0.80458 -2.088105,0.93715 -0.209922,0.1326 -0.861786,0.5414 -0.961223,0.5856 -0.09944,0.044 -0.331456,0.1878 -0.508233,0.1878 -0.176777,0 -0.629767,0.077 -1.21534,0.4198 -0.585572,0.3425 -2.397534,1.2485 -3.358757,1.8451 -0.961223,0.5967 -3.369806,2.0882 -4.032718,2.5412 -0.662913,0.453 -7.048971,4.7398 -7.380427,4.9608 -0.331457,0.221 -3.778602,2.6074 -3.778602,2.6074 0,0 -5.413786,3.8449 -5.944116,4.2316 -0.530331,0.3867 -3.093593,2.2318 -3.093593,2.276 0,0.044 0.110486,0.033 0.176777,0 0.06629,-0.033 6.408155,-2.6958 7.424621,-3.0494 1.016466,-0.3535 3.436097,-1.2484 4.143204,-1.4363 0.707107,-0.1878 1.557845,-0.464 1.811961,-0.5192 0.254117,-0.055 1.126952,-0.3094 1.303728,-0.2652 0.176777,0.044 0.563476,-0.044 0.696059,0.3646 0.132582,0.4088 -0.09944,0.9833 -0.475088,1.6573 -0.37565,0.6739 -0.696058,1.2264 -2.585359,3.9553 -1.889301,2.729 -3.535534,5.5575 -4.09901,6.3309 -0.563475,0.7734 -1.646233,2.6627 -2.364388,3.7675 -0.718155,1.1049 -1.358971,2.2871 -1.557845,2.6517 -0.198873,0.3646 -0.281515,0.6027 -0.29714,0.6574 -0.01563,0.055 0.1875,-0.043 0.636719,-0.543 0.449219,-0.5 1.261719,-1.4492 1.679687,-1.9883 0.417969,-0.5391 1.242188,-1.5586 1.390625,-1.7578 0.148438,-0.1992 1.101563,-1.418 1.207032,-1.5586 0.105468,-0.1406 1.304687,-1.6797 1.359375,-1.75 0.05469,-0.07 0.890625,-1.1602 1.09375,-1.4219 0.203125,-0.2617 1.421875,-1.8203 1.664062,-2.1289 0.242188,-0.3086 1.289063,-1.6289 1.382813,-1.7344 0.09375,-0.1054 0.859375,-1.0586 0.960937,-1.1679 0.101563,-0.1094 1.015625,-1.1485 1.292969,-1.4024 0.277344,-0.2539 1.171875,-1.1133 1.460937,-1.2812 0.289063,-0.168 0.472657,-0.3438 0.765625,-0.3711 0.292969,-0.027 0.253907,0.012 0.253907,0.012 0,0 0.05859,-0.01 -0.02344,0.1641 -0.08203,0.1718 -0.546875,1.0429 -0.976562,1.707 -0.429688,0.6641 -0.597657,1.0469 -0.992188,1.6641 -0.394531,0.6172 -1.046875,1.8086 -1.191406,1.9922 -0.144531,0.1835 -0.609375,1.0351 -0.796875,1.3359 -0.1875,0.3008 -1.246094,2.0898 -1.273438,2.1289 -0.02734,0.039 -0.636718,1.0664 -0.726562,1.207 -0.08984,0.1407 -1.074219,1.8125 -1.199219,2 -0.125,0.1875 -0.832031,1.4141 -0.945312,1.5938 -0.113282,0.1797 -0.863282,1.4609 -1.019532,1.7109 -0.15625,0.25 -0.695312,1.1758 -0.855468,1.418 -0.160157,0.2422 -0.488282,0.8828 -0.800782,1.4101 -0.3125,0.5274 -0.675781,1.1641 -0.816406,1.4024 -0.140625,0.2383 -1.011719,1.8125 -1.171875,2.0976 -0.160156,0.2852 -0.726562,1.3594 -0.941406,1.8164 -0.214844,0.4571 -0.253906,0.6211 -0.296875,0.7383 -0.04297,0.1172 -0.01172,0.1289 -0.01172,0.1289 0,0 0.15625,-0.1289 0.183594,-0.1406 0.02734,-0.012 0.3125,-0.2773 0.429687,-0.4062 0.117188,-0.1289 0.792969,-0.9532 0.925782,-1.1172 0.132812,-0.1641 1,-1.2891 1.113281,-1.4336 0.113281,-0.1446 1.097656,-1.4649 1.195312,-1.6016 0.09766,-0.1367 1.339844,-1.8203 1.449219,-1.957 0.109375,-0.1367 0.921875,-1.2695 1.058594,-1.4531 0.136719,-0.1836 1.308594,-1.7891 1.390625,-1.9219 0.08203,-0.1328 1.382812,-1.9063 1.480469,-2.043 0.09766,-0.1367 1.066406,-1.4726 1.136718,-1.5859 0.07031,-0.1133 0.40625,-0.5625 0.449219,-0.6211 0.04297,-0.059 1.179688,-1.6406 1.230469,-1.7149 0.05078,-0.074 1.417969,-1.9961 1.507812,-2.1211 0.08984,-0.125 1.261719,-1.7421 1.355469,-1.8906 0.09375,-0.1484 1.207031,-1.7109 1.359375,-1.9101 0.152344,-0.1993 1.34375,-1.9141 1.425781,-2.0196 0.08203,-0.1054 1.644532,-2.4023 1.832032,-2.5976 0.1875,-0.1953 0.183593,-0.2578 0.355468,-0.4297 0.171875,-0.1719 0.410157,-0.5586 0.976563,-1.0117 0.566406,-0.4532 0.835937,-0.6641 1.589844,-0.9219 0.753906,-0.2578 1.664062,0.043 1.773437,0.098 0.109375,0.055 0.800781,0.2851 1.636719,1.0468 0.835937,0.7617 1.757812,1.8125 1.839844,1.9219 0.08203,0.1094 1.082031,1.3672 1.378906,1.9023 0.296875,0.5352 0.652344,1.0235 1.230469,2.1602 0.578125,1.1367 1.226562,2.4922 1.285156,2.6406 0.05859,0.1485 0.230469,0.4844 0.261719,0.5742 0.03125,0.09 0.917968,2.1524 1.007812,2.3946 0.08984,0.2422 0.789063,1.9179 0.914063,2.3242 0.125,0.4062 0.421875,1.1836 0.660156,1.8203 0.238281,0.6367 0.46875,1.293 0.5625,1.5586 0.09375,0.2656 0.585937,1.6719 0.652344,1.9219 0.06641,0.25 0.578125,1.6836 0.742187,2.2344 0.164063,0.5507 0.605469,1.8906 0.667969,2.0625 0.0625,0.1718 0.492187,1.6562 0.550781,1.8437 0.05859,0.1875 0.308594,0.9844 0.328125,1.082 0.01953,0.098 0.460938,1.4336 0.460938,1.5274 0,0.094 0.304687,0.914 0.304687,0.9492 0,0.035 -0.07422,-0.7578 -0.08594,-0.832 -0.01172,-0.074 -0.257813,-1.7305 -0.269532,-1.793 -0.01172,-0.062 -0.199218,-1.207 -0.199218,-1.207 l -0.222651,-1.4063 -0.320312,-2.082 c 0,0 -0.277344,-1.7696 -0.28125,-1.8164 -0.0039,-0.047 -0.277344,-1.6797 -0.28125,-1.7305 -0.0039,-0.051 -0.246094,-1.5664 -0.296875,-1.7969 -0.05078,-0.2304 -0.265625,-1.5976 -0.273438,-1.6367 -0.0078,-0.039 -0.457031,-2.4648 -0.46875,-2.5078 -0.01172,-0.043 -0.289062,-1.5234 -0.308593,-1.5859 -0.01953,-0.062 -0.296875,-1.4414 -0.304688,-1.4766 -0.0078,-0.035 -0.785156,-3.4258 -0.949219,-3.9883 -0.164062,-0.5625 -0.617187,-2.2344 -0.730468,-2.6015 -0.113282,-0.3672 -0.722657,-2.2188 -0.964844,-2.875 -0.242188,-0.6563 -1.015625,-2.6329 -1.46875,-3.4727 -0.453125,-0.8398 -0.980469,-1.8125 -1.183594,-2.1289 -0.203125,-0.3164 -0.46875,-0.6524 -0.660156,-0.9414 -0.191406,-0.2891 -0.503906,-0.6797 -0.652344,-0.8516 -0.148437,-0.1719 -0.957031,-1.0117 -1.125,-1.1523 -0.167969,-0.1406 -0.8125,-0.6406 -0.855469,-0.668 -0.04297,-0.027 -0.04297,-0.035 -0.04297,-0.035 0,0 0.08984,-0.1446 0.113281,-0.1954 0.02344,-0.051 0.273437,-0.7148 0.359375,-1.1484 0.08594,-0.4336 0.179687,-1.1172 0.183594,-1.4062 0.0039,-0.2891 0.128906,-0.4532 0.160156,-0.504 0.03125,-0.051 0.421875,-0.57805 0.582031,-0.73821 0.160156,-0.16015 0.890625,-1.1289 0.910157,-1.16796 0.01953,-0.0391 0.124999,-0.10154 0.164062,-0.23438 z"
       id="path3362"
       inkscape:connector-curvature="0"
       sodipodi:nodetypes="cccscsccsscssscccccccscscsssscssccsccccsscsccsssscsccsccscccsssccccccccsscsssscsccccsscccccssccccccccccccsccsscsscccscccccc" />
  </g>
</svg>
