<?xml version="1.0" encoding="UTF-8" standalone="no"?>
<!-- Created with Inkscape (http://www.inkscape.org/) -->

<svg
   xmlns:dc="http://purl.org/dc/elements/1.1/"
   xmlns:cc="http://creativecommons.org/ns#"
   xmlns:rdf="http://www.w3.org/1999/02/22-rdf-syntax-ns#"
   xmlns:svg="http://www.w3.org/2000/svg"
   xmlns="http://www.w3.org/2000/svg"
   xmlns:sodipodi="http://sodipodi.sourceforge.net/DTD/sodipodi-0.dtd"
   xmlns:inkscape="http://www.inkscape.org/namespaces/inkscape"
   width="64"
   height="64"
   id="svg2"
   version="1.1"
   inkscape:version="0.91 r13725"
   sodipodi:docname="desktop-environment-kde.svg">
  <defs
     id="defs4">
    <clipPath
       id="clipPath-121880098">
      <g
         transform="translate(0,-1004.3622)"
         id="g17">
        <path
           style="fill:#1890d0"
           inkscape:connector-curvature="0"
           d="m -24,13 c 0,1.105 -0.672,2 -1.5,2 -0.828,0 -1.5,-0.895 -1.5,-2 0,-1.105 0.672,-2 1.5,-2 0.828,0 1.5,0.895 1.5,2 z"
           transform="matrix(15.333333,0,0,11.5,414.99999,878.8622)"
           id="path19" />
      </g>
    </clipPath>
  </defs>
  <sodipodi:namedview
     id="base"
     pagecolor="#ffffff"
     bordercolor="#666666"
     borderopacity="1.0"
     inkscape:pageopacity="0.0"
     inkscape:pageshadow="2"
     inkscape:zoom="4.6107312"
     inkscape:cx="23.826865"
     inkscape:cy="44.312472"
     inkscape:document-units="px"
     inkscape:current-layer="layer1"
     showgrid="true"
     inkscape:object-paths="true"
     inkscape:snap-object-midpoints="true"
     inkscape:snap-center="true"
     inkscape:snap-bbox="true"
     inkscape:bbox-paths="true"
     inkscape:bbox-nodes="true"
     inkscape:snap-bbox-edge-midpoints="true"
     inkscape:snap-bbox-midpoints="true"
     inkscape:snap-intersection-paths="true"
     inkscape:object-nodes="true"
     inkscape:snap-smooth-nodes="true"
     inkscape:snap-midpoints="true"
     inkscape:snap-page="true"
     inkscape:window-width="696"
     inkscape:window-height="651"
     inkscape:window-x="593"
     inkscape:window-y="27"
     inkscape:window-maximized="0"
     inkscape:snap-global="false">
    <inkscape:grid
       empspacing="2"
       visible="true"
       enabled="true"
       snapvisiblegridlinesonly="true"
       type="xygrid"
       id="grid2987" />
  </sodipodi:namedview>
  <metadata
     id="metadata7">
    <rdf:RDF>
      <cc:Work
         rdf:about="">
        <dc:format>image/svg+xml</dc:format>
        <dc:type
           rdf:resource="http://purl.org/dc/dcmitype/StillImage" />
        <dc:title />
      </cc:Work>
    </rdf:RDF>
  </metadata>
  <g
     inkscape:label="Layer 1"
     inkscape:groupmode="layer"
     id="layer1"
     transform="translate(0,-988.36218)">
    <rect
       style="fill:#47a6ca;fill-opacity:1;stroke:none"
       id="rect4990"
       width="64"
       height="64"
       x="0"
       y="0"
       transform="translate(0,988.36218)"
       ry="4" />
    <path
       style="fill:#f4eef0;fill-rule:evenodd;stroke:none;stroke-width:1px;stroke-linecap:butt;stroke-linejoin:miter;stroke-opacity:1;fill-opacity:1"
       d="m 35.602347,998.95866 -7.254818,0.60457 0,29.82537 7.321993,-1.0076 z"
       id="path3362"
       inkscape:connector-curvature="0" />
    <path
       style="fill:#f4eef0;fill-rule:evenodd;stroke:none;stroke-width:1px;stroke-linecap:butt;stroke-linejoin:miter;stroke-opacity:1;fill-opacity:1"
       d="m 35.266476,1012.3935 c 0,0 9.874614,-13.09897 10.210485,-13.16614 0.335871,-0.0672 7.859386,1.81374 7.859386,1.81374 0,0 -9.941788,11.957 -10.008962,12.7631 -0.06717,0.8061 9.740265,13.5692 9.740265,13.5692 l -7.456341,2.2839 c 0,0 -9.135696,-11.8899 -10.546356,-15.2486 -1.410659,-3.3587 -1.612181,-1.6121 -1.612181,-1.6121 z"
       id="path3364"
       inkscape:connector-curvature="0" />
    <path
       style="fill:#f4eef0;fill-rule:evenodd;stroke:none;stroke-width:1px;stroke-linecap:butt;stroke-linejoin:miter;stroke-opacity:1;fill-opacity:1"
       d="m 26.768935,1007.5402 c 0,0 -1.377072,0.6381 -1.662563,0.6381 -0.28549,0 -0.319077,0.3023 -1.897672,-0.403 -1.578595,-0.7054 -3.039634,-2.032 -3.039634,-2.032 0,0 -0.688536,-0.4535 -0.957233,-0.5206 -0.268697,-0.067 -0.503807,0.1007 -0.75571,0.3694 -0.251904,0.2687 -2.233544,2.2504 -2.317512,2.2839 -0.08397,0.034 -0.319077,0.4367 0.134349,1.0412 0.453426,0.6046 3.274744,4.5343 3.274744,4.6183 0,0.084 -0.01679,0.1847 -0.218316,0.487 -0.201523,0.3023 -1.108375,2.1831 -1.192343,2.4686 -0.08397,0.2855 -0.537394,1.0076 -1.007614,1.1588 -0.470219,0.1511 -1.595388,0.6381 -1.914466,0.6214 -0.319077,-0.017 -1.528214,0.2686 -2.166369,0.3694 -0.638155,0.1008 -1.091581,0.2519 -1.192343,0.2855 -0.100761,0.034 -0.638155,0.05 -0.537393,1.1252 0.100761,1.0748 -0.01679,2.8381 -0.03359,2.9388 -0.01679,0.1008 0.05038,0.4871 0.688536,0.6214 0.638156,0.1344 5.273178,0.9572 5.37394,0.9908 0.100761,0.034 0.251903,0.05 0.251903,0.05 0,0 0.167936,0 0.201523,0.2015 0.03359,0.2016 0.806091,2.7206 1.141962,3.3084 0.335871,0.5877 -0.537394,2.4014 -0.738917,2.5862 -0.201523,0.1847 -1.796911,2.7709 -1.964846,2.9053 -0.167936,0.1343 -0.285491,0.5961 -0.285491,0.5961 0,0 -0.05878,0.2267 0.285491,0.5206 0.344268,0.2939 2.275527,2.3763 2.367892,2.4267 0.09236,0.05 0.218316,0.2939 0.688536,0.092 0.470219,-0.2016 4.668609,-3.2832 4.786164,-3.2832 0.117555,0 0.142709,-0.1278 0.142709,-0.1278 0,0 0.106874,-0.089 0.225622,-0.018 0.118748,0.071 1.341857,0.76 1.341857,0.76 0,0 0.914363,0.4631 1.116235,0.5106 0.201872,0.047 1.294358,0.4869 1.508105,0.855 0.213747,0.3681 0.664991,1.0568 0.985611,2.7431 0.320621,1.6862 0.510619,2.5531 0.510619,2.5531 0,0 0.106873,0.4037 0.178122,0.4868 0.07125,0.083 0.05937,0.3444 0.641242,0.3325 0.581867,-0.012 3.455578,-0.012 3.455578,-0.012 0,0 0.415619,-0.012 0.510618,-0.5106 0.095,-0.4987 0.213747,-1.1993 0.237497,-1.2825 0.02375,-0.083 0.688741,-4.1087 0.688741,-4.1087 l 0.03562,-0.4274 c 0,0 0.02375,-0.1544 0.166248,-0.1544 0.142498,0 3.016209,-0.8906 3.467453,-1.1281 0.451244,-0.2375 1.413106,0.1425 1.413106,0.1425 0,0 1.448731,0.6175 2.921211,1.7456 1.47248,1.1281 1.674352,1.0212 1.674352,1.0212 0,0 0.273122,0.1663 0.546243,-0.095 0.273121,-0.2612 2.339344,-2.3037 2.446217,-2.3631 0.106874,-0.059 0.379995,-0.4631 0.189998,-0.7956 -0.189998,-0.3325 -1.947474,-2.6956 -1.947474,-2.7787 0,-0.083 -1.211234,0.4631 -1.211234,0.4631 0,0 -0.332495,0.1188 -0.546242,-0.083 -0.213748,-0.2019 -2.683714,-3.3725 -2.683714,-3.4437 0,-0.071 -1.318108,1.9356 -3.253707,3.0874 -1.935599,1.1519 -3.051834,1.4963 -3.799948,1.6269 -0.748115,0.1306 -3.38433,0.9025 -7.255528,-0.475 -3.871198,-1.3775 -6.293665,-5.2843 -6.400539,-5.7593 -0.106873,-0.475 -1.08061,-2.1493 -1.12811,-3.1825 -0.0475,-1.0331 -0.32062,-1.5199 -0.201872,-3.2062 0.118749,-1.6862 0.73624,-3.788 1.116235,-4.2987 0.379995,-0.5106 1.757476,-3.1943 3.526828,-4.4293 1.769351,-1.235 2.078097,-1.2943 2.078097,-1.2943 z"
       id="path3366"
       inkscape:connector-curvature="0" />
    <path
       style="fill:#f4eef0;fill-rule:evenodd;stroke:none;stroke-width:1px;stroke-linecap:butt;stroke-linejoin:miter;stroke-opacity:1;fill-opacity:1"
       d="m 26.771827,1011.4652 0,1.6328 c 0,0 -1.006202,0.6079 -1.701515,1.2329 -0.695312,0.625 -0.882812,0.8633 -1.238281,1.2852 -0.355469,0.4219 -0.800781,1.1601 -1.109375,1.8555 -0.308594,0.6953 -0.519531,1.6523 -0.53125,1.707 -0.01172,0.055 -0.230469,1.4609 -0.1875,1.8008 0.04297,0.3398 -0.03516,0.7734 0.03516,1.125 0.07031,0.3515 0.152344,1.2422 0.273438,1.7109 0.121094,0.4688 0.464844,1.5547 0.859375,2.2344 0.394531,0.6797 0.9375,1.6289 1.449219,2.1211 0.511718,0.4922 0.820312,0.8515 1.863281,1.6836 1.042969,0.832 2.722656,1.4062 2.875,1.4492 0.152344,0.043 1.359375,0.4258 2.410156,0.4414 1.050781,0.016 2.09375,-0.1172 2.128906,-0.1328 0.03516,-0.016 1.691407,-0.3086 2.257813,-0.5313 0.566406,-0.2226 1.640625,-0.7461 1.75,-0.8203 0.109375,-0.074 1.140625,-0.7305 1.300781,-0.875 0.160156,-0.1445 0.683594,-0.5156 0.785156,-0.6445 0.101563,-0.1289 0.679688,-0.6133 0.921875,-0.8672 0.242188,-0.2539 0.503907,-0.5313 0.507813,-0.5508 0.0039,-0.02 0.117187,0.2266 0.117187,0.2266 0,0 -0.605468,0.9062 -1.371093,1.6406 -0.765625,0.7344 -1.59375,1.4063 -2.710938,1.9883 -1.117187,0.582 -1.90625,0.7812 -2.050781,0.8203 -0.144531,0.039 -1.65625,0.4727 -3.070313,0.4414 -1.414062,-0.031 -2.179687,-0.1992 -2.550781,-0.2812 -0.371094,-0.082 -1.460937,-0.4297 -1.675781,-0.5274 -0.214844,-0.098 -0.816406,-0.3437 -1.296875,-0.6289 -0.480469,-0.2852 -1.148438,-0.6914 -1.789063,-1.2422 -0.640625,-0.5508 -1.371093,-1.3515 -1.726562,-1.8242 -0.355469,-0.4727 -1.101563,-1.6992 -1.320313,-2.2695 -0.21875,-0.5703 -0.433593,-1.0977 -0.597656,-1.7618 -0.164062,-0.664 -0.304687,-1.7031 -0.308594,-2.1796 -0.0039,-0.4766 -0.0078,-1.2266 0.05469,-1.7227 0.0625,-0.4961 0.164062,-1.0781 0.238281,-1.3672 0.07422,-0.289 0.371094,-1.332 0.550781,-1.6797 0.179688,-0.3476 0.417969,-0.9726 0.765625,-1.5078 0.347657,-0.5351 0.894532,-1.3711 1.515625,-1.9765 0.621094,-0.6055 1.335938,-1.2344 1.71875,-1.4649 0.382813,-0.2305 0.527344,-0.3359 0.5625,-0.3633 0.03516,-0.027 0.295265,-0.1782 0.295265,-0.1782 z"
       id="path3368"
       inkscape:connector-curvature="0" />
  </g>
</svg>
