<?xml version="1.0" encoding="UTF-8" standalone="no"?>
<!-- Created with Inkscape (http://www.inkscape.org/) -->

<svg
   xmlns:dc="http://purl.org/dc/elements/1.1/"
   xmlns:cc="http://creativecommons.org/ns#"
   xmlns:rdf="http://www.w3.org/1999/02/22-rdf-syntax-ns#"
   xmlns:svg="http://www.w3.org/2000/svg"
   xmlns="http://www.w3.org/2000/svg"
   xmlns:sodipodi="http://sodipodi.sourceforge.net/DTD/sodipodi-0.dtd"
   xmlns:inkscape="http://www.inkscape.org/namespaces/inkscape"
   width="64"
   height="64"
   id="svg2"
   version="1.1"
   inkscape:version="0.91 r13725"
   sodipodi:docname="desktop-environment-xfce.svg">
  <defs
     id="defs4">
    <clipPath
       id="clipPath-033233189">
      <g
         transform="translate(0,-1004.3622)"
         id="g17">
        <path
           style="fill:#1890d0"
           inkscape:connector-curvature="0"
           d="m -24,13 c 0,1.105 -0.672,2 -1.5,2 -0.828,0 -1.5,-0.895 -1.5,-2 0,-1.105 0.672,-2 1.5,-2 0.828,0 1.5,0.895 1.5,2 z"
           transform="matrix(15.333333,0,0,11.5,414.99999,878.8622)"
           id="path19" />
      </g>
    </clipPath>
  </defs>
  <sodipodi:namedview
     id="base"
     pagecolor="#ffffff"
     bordercolor="#666666"
     borderopacity="1.0"
     inkscape:pageopacity="0.0"
     inkscape:pageshadow="2"
     inkscape:zoom="15.34375"
     inkscape:cx="9.3625031"
     inkscape:cy="45.935327"
     inkscape:document-units="px"
     inkscape:current-layer="layer1"
     showgrid="true"
     inkscape:object-paths="true"
     inkscape:snap-object-midpoints="true"
     inkscape:snap-center="true"
     inkscape:snap-bbox="true"
     inkscape:bbox-paths="true"
     inkscape:bbox-nodes="true"
     inkscape:snap-bbox-edge-midpoints="true"
     inkscape:snap-bbox-midpoints="true"
     inkscape:snap-intersection-paths="true"
     inkscape:object-nodes="true"
     inkscape:snap-smooth-nodes="true"
     inkscape:snap-midpoints="true"
     inkscape:snap-page="true"
     inkscape:window-width="696"
     inkscape:window-height="651"
     inkscape:window-x="218"
     inkscape:window-y="50"
     inkscape:window-maximized="0"
     inkscape:snap-global="false">
    <inkscape:grid
       empspacing="2"
       visible="true"
       enabled="true"
       snapvisiblegridlinesonly="true"
       type="xygrid"
       id="grid2987" />
  </sodipodi:namedview>
  <metadata
     id="metadata7">
    <rdf:RDF>
      <cc:Work
         rdf:about="">
        <dc:format>image/svg+xml</dc:format>
        <dc:type
           rdf:resource="http://purl.org/dc/dcmitype/StillImage" />
        <dc:title />
      </cc:Work>
    </rdf:RDF>
  </metadata>
  <g
     inkscape:label="Layer 1"
     inkscape:groupmode="layer"
     id="layer1"
     transform="translate(0,-988.36218)">
    <rect
       style="fill:#3e80ac;fill-opacity:1;stroke:none"
       id="rect4990"
       width="64"
       height="64"
       x="0"
       y="0"
       transform="translate(0,988.36218)"
       ry="4" />
    <path
       style="fill:#d7eef4;fill-opacity:1;fill-rule:evenodd;stroke:none;stroke-width:1px;stroke-linecap:butt;stroke-linejoin:miter;stroke-opacity:1"
       d="m 55.29541,1008.6918 c 0,0 -0.02251,-0.067 -0.324185,0.2973 -0.301673,0.3635 -0.846483,1.3308 -0.905017,1.4347 -0.05853,0.1035 -0.436749,0.8919 -0.607846,1.4582 -0.1711,0.5663 -0.126073,1.1043 -0.04503,1.1184 0.08104,0.015 0.184605,-0.071 0.364708,-0.3209 0.180103,-0.2502 0.562823,-0.9251 0.715909,-1.2318 0.153089,-0.3067 0.427745,-0.9672 0.499787,-1.1654 0.07204,-0.1984 0.234133,-0.675 0.292667,-0.9155 0.05852,-0.2407 0.05403,-0.5428 0.0089,-0.675 z"
       id="path4162"
       inkscape:connector-curvature="0" />
    <path
       style="fill:#d7eef4;fill-opacity:1;fill-rule:evenodd;stroke:none;stroke-width:1px;stroke-linecap:butt;stroke-linejoin:miter;stroke-opacity:1"
       d="m 52.895541,1008.135 c 0,0 -0.162095,0.1035 -0.378217,0.7126 -0.216124,0.6088 -0.292668,1.7743 -0.283663,1.9065 0.0089,0.1321 -0.05402,0.7315 0.0045,1.4204 0.05853,0.689 0.144082,0.5144 0.144082,0.5144 0,0 0.238636,-0.024 0.418739,-0.6889 0.180103,-0.6655 0.216124,-1.6518 0.229632,-1.949 0.01351,-0.2973 0.04503,-1.7036 -0.135077,-1.916 z"
       id="path4164"
       inkscape:connector-curvature="0" />
    <path
       style="fill:#d7eef4;fill-opacity:1;fill-rule:evenodd;stroke:none;stroke-width:1px;stroke-linecap:butt;stroke-linejoin:miter;stroke-opacity:1"
       d="m 42.764753,1004.7421 c -0.108058,0 -0.522298,0.074 -0.882503,0.1887 -0.360206,0.1136 -0.828475,0.6984 -0.900515,1.3213 -0.07205,0.6229 0.09005,1.9443 0.198113,2.3218 0.108058,0.3774 0.432247,1.7555 0.540308,2.2085 0.108058,0.4531 -0.03601,0.4719 -0.162092,0.4719 -0.126072,0 -0.504289,-0.1135 -0.774442,-0.6417 -0.270155,-0.5287 -0.648371,-1.8687 -1.13465,-2.7748 -0.486277,-0.906 -0.756431,-1.0571 -0.990565,-1.208 -0.234133,-0.1512 -0.324184,-0.094 -0.324184,-0.094 0,0 -0.936535,0.094 -1.458835,1.3779 -0.522296,1.2836 0.450258,4.2283 0.450258,4.2283 0,0 -0.288164,0.2266 -0.522299,0.5852 -0.234133,0.3586 -0.738422,2.3218 -1.098627,2.5483 -0.360205,0.2266 -1.27873,0.3588 -3.602056,0.039 -2.323328,-0.3209 -6.105488,-1.3024 -6.393653,-1.4156 -0.288165,-0.1136 -1.476844,-0.093 -2.467409,0.3963 -0.990565,0.4908 -1.206689,0.8871 -1.404803,0.7929 -0.198113,-0.094 -0.01802,0.1509 -0.702401,-0.6606 -0.684391,-0.8119 -3.11578,-3.2657 -5.907375,-5.0401 -2.791592,-1.7742 -3.367923,-1.8688 -4.520581,-2.2839 -1.1526581,-0.4154 -0.936535,-0.1698 -2.7555743,-1.0949 -1.819039,-0.9249 -2.9356769,-1.5479 -2.9356769,-1.5479 l -0.3421954,0.623 3.8542025,2.2274 c 0,0 1.8415701,1.0371 2.5547391,1.4776 0.713173,0.4404 3.400299,2.0554 4.444583,2.9764 1.044289,0.9209 3.285682,2.8697 3.884237,3.5103 0.598552,0.6408 1.197108,1.3615 1.222578,1.4549 0.02548,0.092 -0.331115,0.2004 -1.337195,3.1366 -1.006081,2.9365 -0.611291,6.26 -0.611291,7.2879 0,1.0277 -0.356584,0.8809 -1.362665,2.3758 -1.00608,1.4949 -0.636759,1.8019 -0.636759,1.8019 0,0 0.101879,0.3737 0.878729,0.2402 0.776845,-0.1336 1.298988,-0.4405 1.298988,-0.4405 0,0 0.509409,-0.4137 0.598555,-0.3603 0.08915,0.053 0.07641,0.3205 0.01273,0.5206 -0.06367,0.2002 -0.598554,2.1623 -0.687701,2.4693 -0.08915,0.3069 -0.216497,1.4681 0.08915,1.6551 0.305644,0.1868 0.674966,0.1196 0.840524,0.041 0.165557,-0.079 2.699861,-2.963 3.081916,-3.3501 0.382057,-0.3871 0.662231,-0.7209 0.802318,-0.7608 0.140087,-0.041 1.884809,0.5205 3.374827,0.7074 1.490017,0.1869 3.655001,0.3871 4.63561,0.3871 0.980612,0 4.037059,-0.1601 4.737495,-0.267 0.700435,-0.1057 2.050366,-0.3604 2.215924,-0.5205 0.165557,-0.1602 1.120697,0.4271 1.362665,0.5472 0.241969,0.1197 1.553695,0.921 1.833869,1.0811 0.280175,0.1602 2.126776,1.2146 2.699861,1.2814 0.573084,0.066 1.146168,0.2937 1.337196,-0.534 0.191028,-0.8274 -0.929669,-2.2156 -1.61737,-3.3367 -0.6877,-1.1212 -0.573083,-0.9343 -0.534879,-1.0145 0.03821,-0.079 0.394792,-0.1057 0.58582,-0.054 0.191028,0.054 0.63676,0.1469 0.853258,0.2537 0.216499,0.1067 2.152248,1.001 2.62345,0.9609 0.471202,-0.041 0.802319,0.054 0.942405,-0.427 0.140087,-0.4806 -0.585819,-1.6017 -0.776848,-1.8687 -0.191027,-0.2669 -0.827787,-1.1479 -1.260784,-1.5883 -0.432997,-0.4406 -1.05702,-1.268 -0.63676,-2.0289 0.420262,-0.7607 0.369321,-0.5072 1.426342,-1.2012 1.057021,-0.6941 3.947911,-2.5094 3.947911,-2.5094 0,0 2.94183,-2.0021 3.171064,-2.4292 0.229233,-0.427 0.764113,-1.0277 0.496673,-2.4558 -0.26744,-1.4283 -1.719251,-2.5495 -2.419688,-2.9099 -0.700435,-0.3603 -2.368746,-1.3881 -4.686551,-1.8819 -2.317806,-0.4938 -2.534306,-0.267 -2.967302,-0.3872 -0.432996,-0.1196 -0.254703,-0.6941 -0.280173,-1.6551 -0.02548,-0.961 -0.140087,-2.9497 -0.522144,-3.6437 -0.382055,-0.6941 -0.603261,-1.0286 -1.377754,-1.1083 z"
       id="path4166"
       inkscape:connector-curvature="0" />
    <path
       style="fill:#3b80ac;fill-opacity:1;fill-rule:evenodd;stroke:none;stroke-width:1px;stroke-linecap:butt;stroke-linejoin:miter;stroke-opacity:1"
       d="m 43.747716,1014.4862 c 0,0 0.02548,-0.2002 0.11462,-0.1601 0.08915,0.041 0.26744,1.041 0.700436,1.428 0.432997,0.3871 1.464548,0.614 1.604636,0.6807 0.140086,0.066 -0.292911,0.2537 -0.636761,0.3204 -0.34385,0.066 -0.700435,0.2269 -1.248049,-0.16 -0.547613,-0.3872 -0.547613,-1.9355 -0.534878,-2.109 z"
       id="path4168"
       inkscape:connector-curvature="0" />
    <path
       style="fill:#3b80ac;fill-opacity:1;fill-rule:evenodd;stroke:none;stroke-width:1px;stroke-linecap:butt;stroke-linejoin:miter;stroke-opacity:1"
       d="m 48.612561,1018.9709 c 0,0 0.02548,0.2269 -1.375401,0.9476 -1.400872,0.721 -1.681045,0.7876 -1.782928,0.7743 -0.101879,-0.013 -0.101879,0.041 -0.11462,-0.041 -0.01273,-0.079 0,-0.1196 0.280174,-0.347 0.280174,-0.227 1.782928,-1.2414 2.381482,-1.3348 0.598555,-0.092 0.598555,-0.092 0.61129,0 z"
       id="path4170"
       inkscape:connector-curvature="0" />
    <path
       style="fill:#3b80ac;fill-opacity:1;fill-rule:evenodd;stroke:none;stroke-width:1px;stroke-linecap:butt;stroke-linejoin:miter;stroke-opacity:1"
       d="m 47.339042,1022.2143 c 0,0 -0.407527,0.4271 -0.471203,0.2536 -0.06367,-0.1735 0.356587,-0.7341 0.356587,-0.7341 0,0 0.776846,-1.0277 1.08249,-1.2012 0.305645,-0.1735 0.598555,-0.4672 0.738642,-0.4005 0.140086,0.066 0.127352,0.1869 -0.07641,0.3871 -0.203763,0.2003 -1.171638,1.4949 -1.630104,1.6951 z"
       id="path4174"
       inkscape:connector-curvature="0" />
  </g>
</svg>
