<?xml version="1.0" encoding="UTF-8" standalone="no"?>
<!-- Created with Inkscape (http://www.inkscape.org/) -->

<svg
   xmlns:dc="http://purl.org/dc/elements/1.1/"
   xmlns:cc="http://creativecommons.org/ns#"
   xmlns:rdf="http://www.w3.org/1999/02/22-rdf-syntax-ns#"
   xmlns:svg="http://www.w3.org/2000/svg"
   xmlns="http://www.w3.org/2000/svg"
   xmlns:sodipodi="http://sodipodi.sourceforge.net/DTD/sodipodi-0.dtd"
   xmlns:inkscape="http://www.inkscape.org/namespaces/inkscape"
   width="64"
   height="64"
   id="svg2"
   version="1.1"
   inkscape:version="0.91 r13725"
   sodipodi:docname="distributor-logo.svg">
  <defs
     id="defs4">
    <clipPath
       id="clipPath-152140831">
      <g
         transform="translate(0,-1004.3622)"
         id="g17">
        <path
           style="fill:#1890d0"
           inkscape:connector-curvature="0"
           d="m -24,13 c 0,1.105 -0.672,2 -1.5,2 -0.828,0 -1.5,-0.895 -1.5,-2 0,-1.105 0.672,-2 1.5,-2 0.828,0 1.5,0.895 1.5,2 z"
           transform="matrix(15.333333,0,0,11.5,414.99999,878.8622)"
           id="path19" />
      </g>
    </clipPath>
  </defs>
  <sodipodi:namedview
     id="base"
     pagecolor="#ffffff"
     bordercolor="#666666"
     borderopacity="1.0"
     inkscape:pageopacity="0.0"
     inkscape:pageshadow="2"
     inkscape:zoom="7.671875"
     inkscape:cx="31.388547"
     inkscape:cy="7.3038596"
     inkscape:document-units="px"
     inkscape:current-layer="layer1"
     showgrid="true"
     inkscape:object-paths="true"
     inkscape:snap-object-midpoints="true"
     inkscape:snap-center="true"
     inkscape:snap-bbox="true"
     inkscape:bbox-paths="true"
     inkscape:bbox-nodes="true"
     inkscape:snap-bbox-edge-midpoints="true"
     inkscape:snap-bbox-midpoints="true"
     inkscape:snap-intersection-paths="true"
     inkscape:object-nodes="true"
     inkscape:snap-smooth-nodes="true"
     inkscape:snap-midpoints="true"
     inkscape:snap-page="true"
     inkscape:window-width="696"
     inkscape:window-height="651"
     inkscape:window-x="606"
     inkscape:window-y="27"
     inkscape:window-maximized="0"
     inkscape:snap-global="true">
    <inkscape:grid
       empspacing="2"
       visible="true"
       enabled="true"
       snapvisiblegridlinesonly="true"
       type="xygrid"
       id="grid2987" />
  </sodipodi:namedview>
  <metadata
     id="metadata7">
    <rdf:RDF>
      <cc:Work
         rdf:about="">
        <dc:format>image/svg+xml</dc:format>
        <dc:type
           rdf:resource="http://purl.org/dc/dcmitype/StillImage" />
        <dc:title />
      </cc:Work>
    </rdf:RDF>
  </metadata>
  <g
     inkscape:label="Layer 1"
     inkscape:groupmode="layer"
     id="layer1"
     transform="translate(0,-988.36218)">
    <rect
       style="fill:#d65823;fill-opacity:1;stroke:none"
       id="rect4990"
       width="64"
       height="64"
       x="0"
       y="0"
       ry="4"
       transform="translate(0,988.36218)" />
    <rect
       style="fill:#f4e3d7;fill-opacity:1;stroke:none;stroke-opacity:1"
       id="rect4166"
       width="7.4909129"
       height="7.468811"
       x="8.9802952"
       y="1016.5995"
       ry="3.7344055"
       rx="3.7454565" />
    <rect
       style="fill:#f4e3d7;fill-opacity:1;stroke:none;stroke-opacity:1"
       id="rect4166-2"
       width="7.4909129"
       height="7.468811"
       x="37.562866"
       y="1000.0881"
       ry="3.7344055"
       rx="3.7454565" />
    <rect
       style="fill:#f4e3d7;fill-opacity:1;stroke:none;stroke-opacity:1"
       id="rect4166-7"
       width="7.4909129"
       height="7.468811"
       x="37.567577"
       y="1033.0801"
       ry="3.7344055"
       rx="3.7454565" />
    <path
       style="fill:#f4e3d7;fill-rule:evenodd;stroke:none;stroke-width:1px;stroke-linecap:butt;stroke-linejoin:miter;stroke-opacity:1;fill-opacity:1"
       d="m 16.050511,1016.2602 c 0,0 0.398437,-1.418 0.542968,-1.7149 0.144532,-0.2968 0.261719,-0.6718 0.453125,-1.0586 0.191407,-0.3867 0.554688,-1.1484 0.964844,-1.7734 0.410156,-0.625 0.710938,-1.0898 1.226563,-1.707 0.515625,-0.6172 0.769531,-0.8907 1.03125,-1.1524 0.261718,-0.2617 0.691406,-0.6679 1.035156,-0.9453 0.34375,-0.2773 0.738281,-0.5976 1.050781,-0.8125 0.3125,-0.2148 0.410156,-0.2851 0.410156,-0.2851 l 2.738282,4.5703 c 0,0 -0.839844,0.6289 -1.074219,0.8711 -0.234375,0.2422 -0.484375,0.4414 -0.953125,0.9765 -0.46875,0.5352 -0.730469,0.9727 -0.929688,1.2578 -0.199218,0.2852 -0.476562,0.8321 -0.566406,1.0079 -0.08984,0.1757 -0.335937,0.6601 -0.636719,1.5781 -0.300781,0.9179 -0.4375,2.0234 -0.453125,2.3476 -0.01563,0.3243 -0.04687,0.5703 -0.03906,1.2227 0.0078,0.6523 0.140625,1.4648 0.191406,1.7148 0.05078,0.25 0.144531,0.7422 0.359375,1.3985 0.214844,0.6562 0.546875,1.3242 0.558594,1.3476 0.01172,0.024 0.09766,0.2657 0.59375,1.0586 0.496094,0.793 1.128906,1.4844 1.128906,1.4844 0,0 0.65625,0.6875 0.929688,0.9141 0.273437,0.2265 0.859375,0.6836 0.894531,0.707 0.03516,0.023 0,0 0,0 l -2.746094,4.582 c 0,0 -0.757812,-0.5156 -1.332031,-1.0039 -0.574221,-0.4883 -0.878908,-0.7578 -1.402346,-1.2969 -0.523437,-0.539 -1.316406,-1.5703 -1.410156,-1.7031 -0.09375,-0.1328 -0.648438,-0.9414 -0.855469,-1.3125 -0.207031,-0.3711 -0.496094,-0.8789 -0.605469,-1.1328 -0.109375,-0.2539 -0.417968,-0.8711 -0.613281,-1.4453 -0.195312,-0.5742 -0.359375,-1.0703 -0.390625,-1.1914 -0.03125,-0.1211 -0.101562,-0.3789 -0.101562,-0.3789 0,0 0.148437,-0.1055 0.273437,-0.2266 0.125,-0.1211 0.390625,-0.3945 0.464844,-0.4844 0.07422,-0.09 0.542969,-0.746 0.675781,-1.0507 0.132813,-0.3047 0.21875,-0.5039 0.285156,-0.7344 0.06641,-0.2305 0.148438,-0.4805 0.203125,-0.9766 0.05469,-0.4961 0.03516,-0.8359 0.01172,-1.0898 -0.02344,-0.2539 -0.132813,-0.9531 -0.343751,-1.4492 -0.210937,-0.4961 -0.53125,-1.0039 -0.691406,-1.211 -0.160156,-0.207 -0.445313,-0.5547 -0.878906,-0.9062 z"
       id="path4189"
       inkscape:connector-curvature="0" />
    <path
       style="fill:#f4e3d7;fill-rule:evenodd;stroke:none;stroke-width:1px;stroke-linecap:butt;stroke-linejoin:miter;stroke-opacity:1;fill-opacity:1"
       d="m 43.171839,1008.7367 c 0,0 1.028805,1.054 1.213663,1.3276 0.18477,0.2736 0.450936,0.5626 0.690212,0.9218 0.239188,0.3591 0.717199,1.0545 1.053387,1.7222 0.336188,0.6677 0.588326,1.1606 0.865024,1.9158 0.276699,0.7551 0.386604,1.1118 0.482383,1.4693 0.09578,0.3575 0.232715,0.9327 0.301076,1.3691 0.06827,0.4363 0.148396,0.9382 0.178255,1.3162 0.02977,0.3781 0.04183,0.4978 0.04183,0.4978 l -5.327137,0.086 c 0,0 -0.124722,-1.0418 -0.217285,-1.3659 -0.09256,-0.3241 -0.140077,-0.6402 -0.369112,-1.3137 -0.229122,-0.6735 -0.477148,-1.1189 -0.624442,-1.434 -0.147382,-0.3151 -0.482339,-0.8288 -0.589664,-0.9945 -0.107241,-0.1656 -0.403695,-0.621 -1.048316,-1.3404 -0.644534,-0.7195 -1.533565,-1.3906 -1.806518,-1.5663 -0.273037,-0.1756 -0.47046,-0.3257 -1.03936,-0.6451 -0.568808,-0.3194 -1.338866,-0.6106 -1.580763,-0.6917 -0.241896,-0.081 -0.71503,-0.2459 -1.390824,-0.388 -0.675708,-0.142 -1.420228,-0.1885 -1.446353,-0.19 -0.02664,0 -0.278933,-0.048 -1.213649,-0.015 -0.934806,0.033 -1.849982,0.2354 -1.849982,0.2354 0,0 -0.923517,0.2246 -1.256477,0.3481 -0.332874,0.1236 -1.021703,0.4025 -1.059546,0.4212 -0.0375,0.019 0,0 0,0 l -2.595081,-4.6692 c 0,0 0.825429,-0.3985 1.535418,-0.6516 0.709991,-0.2532 1.095728,-0.3823 1.824322,-0.566 0.728506,-0.1838 2.018122,-0.3549 2.180005,-0.3697 0.161884,-0.015 1.139496,-0.091 1.564393,-0.085 0.424898,0.01 1.009197,0.01 1.283768,0.042 0.274572,0.032 0.963379,0.074 1.558307,0.1916 0.594928,0.1179 1.106595,0.2239 1.227096,0.2574 0.1205,0.034 0.378918,0.1015 0.378918,0.1015 0,0 0.01715,0.1813 0.05952,0.3501 0.04238,0.1688 0.146335,0.5355 0.187081,0.6447 0.04083,0.1093 0.374571,0.8433 0.572042,1.1106 0.197472,0.2674 0.327016,0.4414 0.493432,0.6142 0.166413,0.1727 0.341906,0.3688 0.744197,0.6642 0.402291,0.2954 0.706331,0.4484 0.937935,0.555 0.231604,0.1067 0.891815,0.3616 1.426919,0.4269 0.535104,0.065 1.135028,0.042 1.39446,0.01 0.259345,-0.035 0.703041,-0.1083 1.224245,-0.3081 z"
       id="path4189-6"
       inkscape:connector-curvature="0" />
    <path
       style="fill:#f4e3d7;fill-rule:evenodd;stroke:none;stroke-width:1px;stroke-linecap:butt;stroke-linejoin:miter;stroke-opacity:1;fill-opacity:1"
       d="m 36.122256,1035.9689 c 0,0 -1.427251,0.364 -1.75664,0.3873 -0.329302,0.023 -0.712655,0.1092 -1.143337,0.1368 -0.430595,0.028 -1.271887,0.094 -2.018231,0.051 -0.746344,-0.043 -1.299264,-0.071 -2.091587,-0.2088 -0.792323,-0.1379 -1.156134,-0.2211 -1.513633,-0.3169 -0.357498,-0.096 -0.924121,-0.2648 -1.336232,-0.4238 -0.412023,-0.159 -0.886677,-0.3406 -1.229036,-0.5037 -0.342272,-0.1633 -0.451982,-0.2127 -0.451982,-0.2127 l 2.588855,-4.6566 c 0,0 0.964566,0.4129 1.291505,0.4948 0.326938,0.082 0.624451,0.1988 1.322236,0.3372 0.697872,0.1383 1.207617,0.1462 1.554131,0.1762 0.346599,0.03 0.958909,0 1.156078,-0.013 0.197081,-0.01 0.739632,-0.039 1.685035,-0.2377 0.945315,-0.1984 1.971065,-0.6328 2.259643,-0.7814 0.288667,-0.1486 0.51733,-0.2445 1.07842,-0.5775 0.561008,-0.3329 1.198241,-0.8542 1.389357,-1.0231 0.191116,-0.169 0.570498,-0.4963 1.031449,-1.0105 0.460864,-0.5142 0.873353,-1.1357 0.887759,-1.1576 0.01492,-0.022 0.181273,-0.2174 0.619899,-1.0435 0.438711,-0.8261 0.721075,-1.7198 0.721075,-1.7198 0,0 0.267268,-0.9121 0.32679,-1.2622 0.05944,-0.3501 0.162328,-1.0861 0.165015,-1.1282 0.0023,-0.042 0,0 0,0 L 48,1021.3622 c 0,0 -0.06762,0.9141 -0.203387,1.6555 -0.13577,0.7414 -0.21682,1.1401 -0.421976,1.8629 -0.205069,0.7228 -0.701716,1.9252 -0.76985,2.0728 -0.06813,0.1476 -0.491057,1.0323 -0.708923,1.3971 -0.217867,0.3649 -0.513103,0.8691 -0.6783,1.0908 -0.165196,0.2216 -0.54541,0.7975 -0.945026,1.2537 -0.399615,0.4563 -0.747219,0.8464 -0.83647,0.934 -0.08925,0.088 -0.277356,0.2774 -0.277356,0.2774 0,0 -0.165584,-0.076 -0.33296,-0.1235 -0.167375,-0.048 -0.536959,-0.141 -0.651924,-0.1603 -0.115053,-0.019 -0.91754,-0.097 -1.247824,-0.06 -0.330284,0.037 -0.545765,0.062 -0.778587,0.1202 -0.232824,0.058 -0.490344,0.1117 -0.947323,0.3124 -0.45698,0.2007 -0.74149,0.3875 -0.949654,0.5347 -0.208164,0.1473 -0.759002,0.5916 -1.083169,1.0223 -0.324166,0.4308 -0.603778,0.9621 -0.703053,1.2043 -0.09919,0.2422 -0.257728,0.663 -0.34534,1.2143 z"
       id="path4189-3"
       inkscape:connector-curvature="0" />
  </g>
</svg>
