<?xml version="1.0" encoding="UTF-8" standalone="no"?>
<!-- Created with Inkscape (http://www.inkscape.org/) -->

<svg
   xmlns:dc="http://purl.org/dc/elements/1.1/"
   xmlns:cc="http://creativecommons.org/ns#"
   xmlns:rdf="http://www.w3.org/1999/02/22-rdf-syntax-ns#"
   xmlns:svg="http://www.w3.org/2000/svg"
   xmlns="http://www.w3.org/2000/svg"
   xmlns:sodipodi="http://sodipodi.sourceforge.net/DTD/sodipodi-0.dtd"
   xmlns:inkscape="http://www.inkscape.org/namespaces/inkscape"
   width="64"
   height="64"
   id="svg2"
   version="1.1"
   inkscape:version="0.91 r13725"
   sodipodi:docname="distributor-logo-mint.svg">
  <defs
     id="defs4">
    <clipPath
       id="clipPath-004379514">
      <g
         transform="translate(0,-1004.3622)"
         id="g17">
        <path
           style="fill:#1890d0"
           inkscape:connector-curvature="0"
           d="m -24,13 c 0,1.105 -0.672,2 -1.5,2 -0.828,0 -1.5,-0.895 -1.5,-2 0,-1.105 0.672,-2 1.5,-2 0.828,0 1.5,0.895 1.5,2 z"
           transform="matrix(15.333333,0,0,11.5,414.99999,878.8622)"
           id="path19" />
      </g>
    </clipPath>
  </defs>
  <sodipodi:namedview
     id="base"
     pagecolor="#ffffff"
     bordercolor="#666666"
     borderopacity="1.0"
     inkscape:pageopacity="0.0"
     inkscape:pageshadow="2"
     inkscape:zoom="6.228593"
     inkscape:cx="28.08056"
     inkscape:cy="27.85645"
     inkscape:document-units="px"
     inkscape:current-layer="layer1"
     showgrid="true"
     inkscape:object-paths="true"
     inkscape:snap-object-midpoints="true"
     inkscape:snap-center="true"
     inkscape:snap-bbox="true"
     inkscape:bbox-paths="true"
     inkscape:bbox-nodes="true"
     inkscape:snap-bbox-edge-midpoints="true"
     inkscape:snap-bbox-midpoints="true"
     inkscape:snap-intersection-paths="true"
     inkscape:object-nodes="true"
     inkscape:snap-smooth-nodes="true"
     inkscape:snap-midpoints="true"
     inkscape:snap-page="true"
     inkscape:window-width="696"
     inkscape:window-height="651"
     inkscape:window-x="668"
     inkscape:window-y="27"
     inkscape:window-maximized="0"
     inkscape:snap-global="false">
    <inkscape:grid
       empspacing="2"
       visible="true"
       enabled="true"
       snapvisiblegridlinesonly="true"
       type="xygrid"
       id="grid2987" />
  </sodipodi:namedview>
  <metadata
     id="metadata7">
    <rdf:RDF>
      <cc:Work
         rdf:about="">
        <dc:format>image/svg+xml</dc:format>
        <dc:type
           rdf:resource="http://purl.org/dc/dcmitype/StillImage" />
        <dc:title />
      </cc:Work>
    </rdf:RDF>
  </metadata>
  <g
     inkscape:label="Layer 1"
     inkscape:groupmode="layer"
     id="layer1"
     transform="translate(0,-988.36218)">
    <rect
       style="fill:#58ba39;fill-opacity:1;stroke:none"
       id="rect4990"
       width="64"
       height="64"
       x="0"
       y="0"
       transform="translate(0,988.36218)"
       ry="4" />
    <path
       style="fill:#e3f4d7;fill-rule:evenodd;stroke:none;stroke-width:1px;stroke-linecap:butt;stroke-linejoin:miter;stroke-opacity:1;fill-opacity:1"
       d="m 9.9877052,1001.3502 29.2421908,0.1315 c 0,0 1.25241,0 2.589015,0.2842 1.336606,0.2841 1.389228,0.3052 2.631113,0.7314 1.241886,0.4263 2.073317,0.9314 2.557442,1.1998 0.484125,0.2684 1.262934,0.7999 1.778633,1.2103 0.515698,0.4105 1.252963,1.0954 1.553745,1.4118 0.300781,0.3164 0.6875,0.7774 0.90625,1.0469 0.21875,0.2695 0.773437,1.0898 1.09375,1.6562 0.320312,0.5664 0.601562,1.1368 0.785156,1.6407 0.183594,0.5039 0.300781,0.8046 0.484375,1.4961 0.183594,0.6914 0.257812,1.2539 0.257812,1.2539 0,0 0.08984,0.7226 0.113282,1.2265 0.02344,0.5039 0.01953,1.1992 0.01953,1.1992 l 0,1.6368 0,21.8711 -23.992156,0.022 c 0,0 -2.320194,0.011 -5.027087,-0.9281 -2.706893,-0.9391 -3.844893,-1.9666 -4.938699,-2.7953 -1.093806,-0.8286 -2.706893,-2.8063 -3.314563,-4.0216 -0.60767,-1.2154 -0.950175,-2.0772 -1.314777,-3.7455 -0.364602,-1.6683 -0.232019,-4.1984 -0.232019,-4.7951 0,-0.5966 0.0068,-9.5768 0.0068,-9.5768 l -5.183594,0.012 z"
       id="path4166"
       inkscape:connector-curvature="0" />
    <path
       style="fill:#58ba39;fill-rule:evenodd;stroke:none;stroke-width:1px;stroke-linecap:butt;stroke-linejoin:miter;stroke-opacity:1;fill-opacity:1"
       d="m 13.341116,1010.2838 0,-5.69 25.56904,0.1004 c 0,0 1.109375,0.027 1.816407,0.1484 0.707031,0.1211 1.601562,0.3086 2.445312,0.6172 0.84375,0.3086 1.324219,0.5586 1.324219,0.5586 0,0 1.050781,0.5391 1.804687,1.0821 0.753907,0.5429 1.617188,1.4296 1.785157,1.6367 0.167968,0.207 0.570312,0.5937 1.070312,1.414 0.5,0.8204 0.855469,1.6016 1,2.0938 0.144531,0.4922 0.292969,0.9258 0.394531,1.6172 0.101563,0.6914 0.117188,1.3203 0.117188,1.3203 0,0 -0.0104,-0.2252 -0.0049,0.377 0.0055,0.6021 0,3.0825 0,3.0825 l -0.0068,14.2671 c 0,0 0.164063,1.2812 -1.074219,2.2695 -1.238281,0.9883 -2.390625,0.9258 -2.867187,0.9492 -0.476563,0.023 -6.847657,0 -6.847657,0 l -9.65625,0.01 c 0,0 -2.265625,0.01 -4.609375,-0.9375 -2.34375,-0.9453 -3.84375,-2.4297 -4.296875,-2.9219 -0.453125,-0.4922 -1.492187,-1.7656 -1.992187,-3.0625 -0.5,-1.2968 -0.664063,-2.3593 -0.664063,-2.3593 0,0 -0.07584,-0.5226 -0.08136,-1.0474 -0.0055,-0.5248 -0.03867,-12.286 -0.03867,-12.286 0,0 0.04419,-0.6187 -0.232019,-1.2209 -0.276214,-0.6021 -0.64634,-1.0938 -1.187718,-1.4307 -0.541379,-0.337 -0.905981,-0.442 -0.905981,-0.442 0,0 -0.248592,-0.094 -0.546903,-0.1215 -0.298311,-0.028 -2.31467,-0.022 -2.31467,-0.022 z"
       id="path4168"
       inkscape:connector-curvature="0" />
    <path
       style="fill:#e3f4d7;fill-rule:evenodd;stroke:none;stroke-width:1px;stroke-linecap:butt;stroke-linejoin:miter;stroke-opacity:1"
       d="m 21.707031,1008.1981 3.40625,-0 5.8e-5,16.8118 c 0,0 -0.02762,0.6519 0.265165,1.5634 0.292787,0.9115 1.187719,1.6959 1.187719,1.6959 0,0 0.546903,0.3922 0.850738,0.5193 0.303835,0.1271 0.745776,0.2044 0.883883,0.2099 0.138107,0.01 0.138107,0.01 0.138107,0.01 l 3.999573,0.01 0.0221,3.4251 -4.51333,0.022 c 0,0 -0.281738,-0.01 -1.149049,-0.2155 -0.867311,-0.2099 -2.358864,-1.0883 -2.944437,-1.718 -0.585572,-0.6298 -0.94465,-0.8839 -1.557844,-2.1158 -0.613194,-1.2319 -0.596622,-2.7124 -0.596622,-2.7124 0,0 0,-0.2542 0.0055,-0.8453 0.0055,-0.5911 0.0022,-16.6476 0.0022,-16.6476 z"
       id="path4170"
       inkscape:connector-curvature="0" />
    <path
       style="fill:#e3f4d7;fill-rule:evenodd;stroke:none;stroke-width:1px;stroke-linecap:butt;stroke-linejoin:miter;stroke-opacity:1;fill-opacity:1"
       d="m 31.775611,1029.0056 6.054602,0.022 2.485922,0.011 c 0,0 1.458408,-0.066 2.143417,-0.5193 0.68501,-0.453 0.585573,-0.2651 1.336874,-1.0827 0.751301,-0.8176 0.696058,-1.9998 0.696058,-1.9998 l 0.01105,-1.2485 3.56868,0.011 0.01105,1.9225 c 0,0 0.04419,1.602 -1.403165,3.4803 -1.447359,1.8782 -3.215126,2.3865 -3.712311,2.5191 -0.497184,0.1325 -0.839689,0.232 -1.336873,0.2762 -0.497185,0.044 -0.541379,0.033 -0.541379,0.033 l -9.324971,-0.011 z"
       id="path4172"
       inkscape:connector-curvature="0" />
    <path
       style="fill:#e3f4d7;fill-rule:evenodd;stroke:none;stroke-width:1px;stroke-linecap:butt;stroke-linejoin:miter;stroke-opacity:1;fill-opacity:1"
       d="m 44.4375,1024.5497 0,-8.2656 c 0,0 -0.04687,-0.5391 -0.472656,-0.9844 -0.425781,-0.4453 -0.753906,-0.6406 -1.191406,-0.7227 -0.4375,-0.082 -1.042969,-0.082 -1.65625,0.3555 -0.613282,0.4375 -0.789063,1.1094 -0.789063,1.1094 0,0 -0.08203,0.2968 -0.08203,0.5937 0,0.2969 0,0.2969 0,0.2969 l 0.0039,7.3164 -3.601562,-0 0.0051,-7.7022 c 0,0 -0.04419,-0.569 -0.220971,-0.8397 -0.176777,-0.2707 -0.303835,-0.5358 -0.729204,-0.801 -0.425369,-0.2652 -0.535854,-0.3204 -0.972272,-0.3536 -0.436417,-0.033 -0.767873,0.055 -0.767873,0.055 0,0 -0.546903,0.1933 -0.883884,0.5524 -0.33698,0.3591 -0.436417,0.5248 -0.524806,0.8066 -0.08839,0.2817 -0.09391,0.4253 -0.09391,0.4253 0,0 -0.0055,0.1326 -0.01105,0.6408 -0.0055,0.5083 0.0075,7.22 0.0075,7.22 l -3.609375,0.01 -0.0039,-7.7461 c 0,0 0.03516,-1.2891 0.46875,-2.1172 0.433594,-0.8281 0.546875,-1.0664 1.519531,-2 0.972657,-0.9336 2.558594,-1.2539 3.011719,-1.3047 0.453125,-0.051 1.480469,-0.078 2.542969,0.2657 1.0625,0.3437 2.039062,1.207 2.046875,1.2461 0.0078,0.039 0.0039,-0 0.0039,-0 0,0 0.898438,-0.875 2.046875,-1.2422 1.148438,-0.3672 1.90625,-0.2969 2.363281,-0.2735 0.457032,0.024 1.101563,0.1446 1.683594,0.375 0.582031,0.2305 1.269531,0.7149 1.390625,0.8164 0.121094,0.1016 0.605469,0.5 0.894531,0.8789 0.289063,0.3789 0.644532,0.8438 0.878907,1.4727 0.234375,0.6289 0.304687,1.1406 0.316406,1.2773 0.01172,0.1368 0.04687,0.5469 0.04297,0.7539 -0.0039,0.2071 -0.03906,7.9415 -0.03906,7.9415 z"
       id="path4174"
       inkscape:connector-curvature="0" />
  </g>
</svg>
