<?xml version="1.0" encoding="UTF-8" standalone="no"?>
<!-- Created with Inkscape (http://www.inkscape.org/) -->

<svg
   xmlns:dc="http://purl.org/dc/elements/1.1/"
   xmlns:cc="http://creativecommons.org/ns#"
   xmlns:rdf="http://www.w3.org/1999/02/22-rdf-syntax-ns#"
   xmlns:svg="http://www.w3.org/2000/svg"
   xmlns="http://www.w3.org/2000/svg"
   xmlns:sodipodi="http://sodipodi.sourceforge.net/DTD/sodipodi-0.dtd"
   xmlns:inkscape="http://www.inkscape.org/namespaces/inkscape"
   width="64"
   height="64"
   id="svg2"
   version="1.1"
   inkscape:version="0.91 r13725"
   sodipodi:docname="distributor-logo-eos.svg">
  <defs
     id="defs4" />
  <sodipodi:namedview
     id="base"
     pagecolor="#ffffff"
     bordercolor="#666666"
     borderopacity="1.0"
     inkscape:pageopacity="0.0"
     inkscape:pageshadow="2"
     inkscape:zoom="7.4433294"
     inkscape:cx="37.903342"
     inkscape:cy="33.84273"
     inkscape:document-units="px"
     inkscape:current-layer="layer1"
     showgrid="true"
     inkscape:object-paths="true"
     inkscape:snap-object-midpoints="true"
     inkscape:snap-center="true"
     inkscape:snap-bbox="true"
     inkscape:bbox-paths="true"
     inkscape:bbox-nodes="true"
     inkscape:snap-bbox-edge-midpoints="true"
     inkscape:snap-bbox-midpoints="true"
     inkscape:snap-intersection-paths="true"
     inkscape:object-nodes="true"
     inkscape:snap-smooth-nodes="true"
     inkscape:snap-midpoints="true"
     inkscape:snap-page="true"
     inkscape:window-width="696"
     inkscape:window-height="651"
     inkscape:window-x="476"
     inkscape:window-y="27"
     inkscape:window-maximized="0"
     inkscape:snap-global="false">
    <inkscape:grid
       empspacing="2"
       visible="true"
       enabled="true"
       snapvisiblegridlinesonly="true"
       type="xygrid"
       id="grid2987" />
  </sodipodi:namedview>
  <metadata
     id="metadata7">
    <rdf:RDF>
      <cc:Work
         rdf:about="">
        <dc:format>image/svg+xml</dc:format>
        <dc:type
           rdf:resource="http://purl.org/dc/dcmitype/StillImage" />
        <dc:title></dc:title>
      </cc:Work>
    </rdf:RDF>
  </metadata>
  <g
     inkscape:label="Layer 1"
     inkscape:groupmode="layer"
     id="layer1"
     transform="translate(0,-988.36218)">
    <rect
       style="fill:#b7c4c8;fill-opacity:1;stroke:none"
       id="rect4990"
       width="64"
       height="64"
       x="0"
       y="0"
       transform="translate(0,988.36218)"
       ry="4" />
    <path
       style="fill:#334751;fill-rule:evenodd;stroke:none;stroke-width:1px;stroke-linecap:butt;stroke-linejoin:miter;stroke-opacity:1;fill-opacity:1"
       d="m 14.344807,1033.4931 c 0,0 -1.134047,-1.5616 -1.442793,-2.2088 -0.308746,-0.6471 -0.483176,-0.7957 -1.129728,-2.2484 -0.646552,-1.4526 -0.999217,-2.8129 -1.125169,-3.3335 -0.125952,-0.5206 -0.419839,-1.8557 -0.5206,-2.9473 -0.100762,-1.0915 -0.1427455,-1.5618 -0.1343487,-2.4938 0.0084,-0.9321 0.075571,-1.6122 0.1175547,-2.1664 0.04198,-0.5542 0.218316,-1.587 0.319078,-2.0824 0.100761,-0.4954 0.5206,-2.1412 0.696933,-2.6282 0.176332,-0.487 0.386251,-1.0832 0.713726,-1.8389 0.327474,-0.7557 0.982423,-1.9816 1.133565,-2.2251 0.151142,-0.2435 0.428236,-0.7893 1.309898,-2.0068 0.881662,-1.2176 2.124385,-2.5359 2.754144,-3.0901 0.629758,-0.5541 1.385468,-1.2763 3.081618,-2.3846 1.69615,-1.1084 3.518251,-1.83894 4.080835,-2.04886 0,0 1.612182,-0.56258 2.199957,-0.70533 0.587774,-0.14274 2.107591,-0.49541 3.75336,-0.66335 1.645769,-0.16793 3.459474,-0.0672 5.382336,0.22672 1.922863,0.29389 3.585425,0.88166 3.585425,0.88166 0,0 1.393866,0.48706 1.964847,0.78086 0.570981,0.2939 1.444246,0.6886 2.082401,1.0832 0.638156,0.3947 1.545008,0.9824 1.990037,1.3267 0.445029,0.3443 1.444246,1.0916 2.695367,2.3931 1.25112,1.3015 2.065607,2.4854 2.065607,2.4854 0,0 1.041201,1.4443 1.67096,2.7374 0.629758,1.2931 1.200739,2.687 1.654165,4.232 0.453426,1.545 0.604569,3.174 0.671743,3.9045 0.06717,0.7305 0.125951,1.8389 0.02519,3.535 -0.100761,1.6962 -0.503807,3.3335 -0.503807,3.3335 0,0 -0.2603,1.3351 -0.864868,2.8466 -0.604568,1.5114 -0.722123,1.7633 -1.679356,3.4342 -0.957233,1.671 -1.242724,1.8725 -2.292321,3.1992 -1.049598,1.3267 -2.863302,2.8717 -4.089232,3.6526 -1.22593,0.7809 -1.95645,1.4526 -4.475484,2.3679 -2.519034,0.9152 -3.686186,1.0916 -3.686186,1.0916 0,0 -1.22593,0.2855 -2.880096,0.3862 -1.654165,0.1008 -2.24194,0.017 -3.560234,-0.042 -1.318295,-0.059 -4.089232,-0.7389 -4.777768,-0.9992 -0.688536,-0.2603 -2.065608,-0.7557 -2.846509,-1.1587 -0.7809,-0.4031 -1.48623,-0.7473 -3.098412,-1.8557 -1.612181,-1.1084 -3.383902,-2.9725 -3.770154,-3.4343 -0.386252,-0.4618 -0.900639,-1.0862 -1.071681,-1.3366 z"
       id="path4152"
       inkscape:connector-curvature="0" />
    <path
       style="fill:#b7c4c8;fill-rule:evenodd;stroke:none;stroke-width:1px;stroke-linecap:butt;stroke-linejoin:miter;stroke-opacity:1;fill-opacity:1"
       d="m 27.359632,1000.7422 c 0,0 2.184971,-0.5343 4.322442,-0.5581 2.137471,-0.024 4.939933,0.3919 6.293665,0.9025 1.353732,0.5106 1.8406,0.6175 3.681201,1.5675 1.8406,0.95 3.360579,2.1256 5.023057,3.8712 1.662478,1.7456 2.861836,3.8593 2.956835,4.0374 0.095,0.1782 0.878738,1.7456 1.175609,2.4463 0.296871,0.7006 0.617492,1.8643 0.617492,1.8643 0,0 -0.75999,1.6387 -2.054347,3.5981 -1.294358,1.9593 -1.460606,2.1731 -2.671839,3.6337 -1.211234,1.4606 -2.517466,2.7668 -2.564966,2.7668 -0.0475,0 -0.178122,0.3444 -1.876225,1.6506 -1.698102,1.3063 -2.351218,1.8763 -4.251192,2.85 -1.899975,0.9737 -2.99246,1.2825 -4.607438,1.5556 -1.614979,0.2731 -2.96871,0.2137 -3.75245,0.071 -0.783739,-0.1425 -1.8406,-0.3206 -2.754963,-0.7481 -0.914363,-0.4275 -1.021236,-0.4987 -1.116235,-0.5581 -0.095,-0.059 -0.02375,0.012 -0.02375,0.012 0,0 2.173096,-1.2469 3.170583,-1.9356 0.997486,-0.6888 2.719338,-1.9356 4.037445,-3.1469 1.318108,-1.2112 2.814338,-2.8499 3.538703,-3.7168 0.724365,-0.8668 2.125596,-2.8024 2.814337,-4.2393 0.688741,-1.4368 1.329982,-3.2418 1.365607,-5.3793 0.03562,-2.1375 -0.712491,-3.9662 -1.555604,-5.1774 -0.843114,-1.2113 -2.458092,-2.2325 -3.491203,-2.6481 -1.033112,-0.4156 -2.220596,-0.5344 -2.220596,-0.5344 0,0 -1.42498,-0.1187 -2.778712,0.095 -1.353732,0.2138 -2.885586,0.9025 -3.645576,1.3063 -0.75999,0.4037 -2.351219,1.4962 -3.099333,2.2087 -0.748115,0.7125 -2.006848,2.0187 -2.612465,2.9449 -0.605617,0.9263 -1.567479,2.3156 -2.042473,3.5387 -0.474993,1.2231 -0.949987,2.375 -1.199359,3.7762 -0.249371,1.4013 -0.284996,2.1256 -0.273121,3.1112 0.01187,0.9857 0.166248,2.3631 0.558117,3.9662 0.39187,1.6031 1.781227,4.0612 2.27997,4.6194 0.498743,0.5581 0.700615,0.8549 0.73624,0.8787 0.03562,0.024 0,0.012 0,0.012 0,0 -0.938112,0.3681 -1.460605,0.4868 -0.522493,0.1188 -0.771865,0.285 -1.306233,0.38 -0.534368,0.095 -3.218082,0.7006 -3.693075,0.7125 -0.474994,0.012 -0.02375,-0.024 -0.02375,-0.024 0,0 -0.926237,-1.3894 -1.733727,-3.42 -0.807489,-2.0306 -1.246858,-4.6074 -1.270607,-6.6261 -0.02375,-2.0188 0.095,-5.035 1.614978,-8.5262 1.519979,-3.4912 4.156194,-6.5311 5.818672,-7.6474 1.662477,-1.1162 3.182457,-2.7074 8.074891,-3.978 z"
       id="path4154"
       inkscape:connector-curvature="0" />
    <path
       style="fill:#b7c4c8;fill-rule:evenodd;stroke:none;stroke-width:1px;stroke-linecap:butt;stroke-linejoin:miter;stroke-opacity:1;fill-opacity:1"
       d="m 51.967672,1017.6667 c 0,0 0.13015,0.6423 0.172134,1.5618 0.04198,0.9194 0.01259,1.8179 0.01259,1.8179 0,0 -0.03779,1.1042 -0.07977,1.2847 -0.04198,0.1805 -0.03779,0.5122 -0.159539,1.2847 -0.121754,0.7725 -0.319078,1.5324 -0.319078,1.5324 0,0 -0.205721,0.8859 -0.453426,1.5786 -0.247705,0.6927 -0.516402,1.3939 -0.650751,1.7046 -0.134348,0.3106 0.117555,0.059 -1.066391,2.0908 -1.183946,2.032 -2.510637,3.409 -2.510637,3.409 0,0 -0.310681,0.4619 -1.830498,1.7802 -1.519817,1.3183 -2.896889,2.0572 -3.669393,2.477 -0.772504,0.4199 -1.461039,0.7977 -3.224363,1.3687 -1.763324,0.571 -2.829715,0.7137 -2.880096,0.7053 -0.05038,-0.01 -1.939656,0.3275 -3.350315,0.2687 -1.410659,-0.059 -1.914466,-0.017 -3.367109,-0.2939 -1.452643,-0.2771 -2.770937,-0.6129 -3.593822,-0.9488 -0.822884,-0.3359 -2.183163,-0.9237 -2.728953,-1.2679 -0.545791,-0.3443 -1.754927,-0.9573 -2.97246,-1.9985 -1.217534,-1.0412 -2.519034,-2.2839 -2.838112,-2.8045 -0.319078,-0.5206 0,-0.01 0,-0.01 0,0 3.165586,-0.7725 4.441897,-1.3099 1.27631,-0.5374 2.199956,-0.8732 2.216749,-0.8984 0.01679,-0.025 0.789298,0.6801 1.95645,1.2259 1.167153,0.5458 2.678573,1.1252 4.584642,1.2931 1.906069,0.1679 3.341919,-0.092 4.710594,-0.3695 1.368675,-0.2771 3.44268,-1.0999 4.618229,-1.7549 1.175549,-0.6549 3.23276,-1.9648 4.408309,-3.0312 1.17555,-1.0664 2.208353,-1.9649 2.896889,-2.7626 0.688536,-0.7977 1.377072,-1.461 2.258734,-2.6282 0.881662,-1.1671 1.746531,-2.3846 2.45186,-3.6022 0.70533,-1.2175 0.478617,-0.7809 0.96563,-1.7045 z"
       id="path4156"
       inkscape:connector-curvature="0" />
    <path
       style="fill:#b7c4c8;fill-rule:evenodd;stroke:none;stroke-width:1px;stroke-linecap:butt;stroke-linejoin:miter;stroke-opacity:1;fill-opacity:1"
       d="m 25.364659,1007.5109 c 0,0 1.246858,-1.4012 2.55309,-2.0781 1.306233,-0.6769 2.374968,-0.9737 2.659965,-1.0094 0.284996,-0.036 1.187484,-0.2612 2.541215,-0.071 1.353732,0.19 2.220596,0.6887 2.99246,1.2112 0.771865,0.5225 1.614978,1.6506 1.994973,2.5294 0.379995,0.8787 0.593742,1.9474 0.617492,2.4224 0.02375,0.475 0.07125,1.5794 -0.07125,2.2444 -0.142498,0.665 -0.249372,1.6387 -1.329982,3.8949 -1.080611,2.2563 -4.203694,5.605 -4.844935,6.1037 -0.641241,0.4987 -2.743088,2.4581 -4.061195,3.1825 -1.318108,0.7243 -2.137472,1.4131 -4.037446,2.2443 -1.899974,0.8312 -0.463119,0.2019 -0.463119,0.2019 0,0 -0.748115,-0.4988 -1.543729,-1.6269 -0.795614,-1.1281 -1.793101,-3.0281 -2.042473,-5.4505 -0.249371,-2.4225 0.213748,-4.2512 0.427495,-5.0943 0.213747,-0.8431 0.558117,-2.1375 1.484355,-4.0612 0.926237,-1.9238 2.137471,-3.7287 3.123083,-4.6431 z"
       id="path4158"
       inkscape:connector-curvature="0" />
  </g>
</svg>
