<?xml version="1.0" encoding="UTF-8" standalone="no"?>
<!-- Created with Inkscape (http://www.inkscape.org/) -->

<svg
   xmlns:dc="http://purl.org/dc/elements/1.1/"
   xmlns:cc="http://creativecommons.org/ns#"
   xmlns:rdf="http://www.w3.org/1999/02/22-rdf-syntax-ns#"
   xmlns:svg="http://www.w3.org/2000/svg"
   xmlns="http://www.w3.org/2000/svg"
   xmlns:sodipodi="http://sodipodi.sourceforge.net/DTD/sodipodi-0.dtd"
   xmlns:inkscape="http://www.inkscape.org/namespaces/inkscape"
   width="64"
   height="64"
   id="svg2"
   version="1.1"
   inkscape:version="0.91 r13725"
   sodipodi:docname="distributor-logo-gentoo.svg">
  <defs
     id="defs4">
    <clipPath
       id="clipPath-777376520">
      <g
         transform="translate(0,-1004.3622)"
         id="g17">
        <path
           style="fill:#1890d0"
           inkscape:connector-curvature="0"
           d="m -24,13 c 0,1.105 -0.672,2 -1.5,2 -0.828,0 -1.5,-0.895 -1.5,-2 0,-1.105 0.672,-2 1.5,-2 0.828,0 1.5,0.895 1.5,2 z"
           transform="matrix(15.333333,0,0,11.5,414.99999,878.8622)"
           id="path19" />
      </g>
    </clipPath>
  </defs>
  <sodipodi:namedview
     id="base"
     pagecolor="#ffffff"
     bordercolor="#666666"
     borderopacity="1.0"
     inkscape:pageopacity="0.0"
     inkscape:pageshadow="2"
     inkscape:zoom="7.055448"
     inkscape:cx="19.769875"
     inkscape:cy="36.270241"
     inkscape:document-units="px"
     inkscape:current-layer="layer1"
     showgrid="true"
     inkscape:object-paths="true"
     inkscape:snap-object-midpoints="true"
     inkscape:snap-center="true"
     inkscape:snap-bbox="true"
     inkscape:bbox-paths="true"
     inkscape:bbox-nodes="true"
     inkscape:snap-bbox-edge-midpoints="true"
     inkscape:snap-bbox-midpoints="true"
     inkscape:snap-intersection-paths="true"
     inkscape:object-nodes="true"
     inkscape:snap-smooth-nodes="true"
     inkscape:snap-midpoints="true"
     inkscape:snap-page="true"
     inkscape:window-width="696"
     inkscape:window-height="651"
     inkscape:window-x="559"
     inkscape:window-y="76"
     inkscape:window-maximized="0"
     inkscape:snap-global="false">
    <inkscape:grid
       empspacing="2"
       visible="true"
       enabled="true"
       snapvisiblegridlinesonly="true"
       type="xygrid"
       id="grid2987" />
  </sodipodi:namedview>
  <metadata
     id="metadata7">
    <rdf:RDF>
      <cc:Work
         rdf:about="">
        <dc:format>image/svg+xml</dc:format>
        <dc:type
           rdf:resource="http://purl.org/dc/dcmitype/StillImage" />
        <dc:title />
      </cc:Work>
    </rdf:RDF>
  </metadata>
  <g
     inkscape:label="Layer 1"
     inkscape:groupmode="layer"
     id="layer1"
     transform="translate(0,-988.36218)">
    <rect
       style="fill:#8088b1;fill-opacity:1;stroke:none"
       id="rect4990"
       width="64"
       height="64"
       x="0"
       y="0"
       transform="translate(0,988.36218)"
       ry="4" />
    <path
       style="fill:#e5f3fa;fill-rule:evenodd;stroke:none;stroke-width:1px;stroke-linecap:butt;stroke-linejoin:miter;stroke-opacity:1;fill-opacity:1"
       d="m 22.562196,999.32914 c 0,0 1.686228,-0.49874 2.541216,-0.66499 0.854989,-0.16625 1.318463,-0.20431 1.705182,-0.24338 0.386718,-0.0391 0.828125,-0.0586 0.992187,-0.0586 0.164063,0 0.71875,0.004 0.921875,0.0156 0.203125,0.0117 1.003906,0.0703 1.273438,0.11328 0.269531,0.043 0.347656,0.043 0.996093,0.16797 0.648438,0.125 1.617188,0.4375 1.902344,0.53516 0.285156,0.0977 1.074219,0.40234 1.523438,0.63281 0.449218,0.23051 0.894531,0.43361 1.261718,0.64071 0.367188,0.207 0.664063,0.3632 1.285157,0.7343 0.621093,0.3711 1.242187,0.7461 1.503906,0.918 0.261719,0.1719 1.285156,0.8398 1.546875,1.0234 0.261719,0.1836 0.921875,0.6328 1.429687,1.0078 0.507813,0.375 1.109375,0.8008 1.292969,0.9454 0.183594,0.1445 1.425781,1.1054 1.425781,1.1054 0,0 1.027344,0.836 1.203125,0.9766 0.175782,0.1406 1.175782,0.9961 1.445313,1.2305 0.269531,0.2343 1.25,1.1289 1.585937,1.4453 0.335938,0.3164 0.726563,0.6875 1.34375,1.3359 0.617188,0.6484 1.058594,1.1289 1.46875,1.6016 0.410157,0.4726 0.949219,1.1601 1.296875,1.6562 0.347657,0.4961 0.71875,1.1094 0.941407,1.5469 0.222656,0.4375 0.398437,0.9766 0.398437,0.9766 0,0 0.356498,0.8749 -0.0081,1.9908 -0.364602,1.1159 -0.552427,1.359 -1.314776,2.5854 -0.76235,1.2264 -1.657282,2.1655 -2.684797,3.2814 -1.027514,1.1159 -2.839475,2.7069 -2.839475,2.7069 0,0 -1.679379,1.5137 -2.496971,2.1103 -0.817592,0.5966 -1.878252,1.4805 -3.016252,2.287 -1.138,0.8066 -2.419631,1.6684 -2.839476,1.9556 -0.419845,0.2873 -2.055029,1.3479 -2.441728,1.5579 -0.386699,0.2099 -2.861573,1.6904 -3.900136,2.2097 -1.038563,0.5193 -2.740039,1.4031 -3.977476,1.9224 -1.237436,0.5193 -2.132368,0.906 -3.557631,1.3479 -1.425262,0.442 -3.25932,0.9171 -4.419417,1.1049 -1.160097,0.1878 -1.889301,0.2652 -2.684796,0.3204 -0.795495,0.055 -1.635184,0 -2.474874,-0.1436 -0.839693,-0.1437 -1.602043,-0.5083 -1.800916,-0.6187 -0.198874,-0.1105 -1.038563,-0.5414 -1.856156,-1.6352 -0.817592,-1.0938 -1.284679,-2.4831 -1.409679,-3.2253 -0.125,-0.7422 -0.109375,-0.6875 -0.117188,-0.9532 -0.0078,-0.2656 -0.023437,-0.7812 0.08594,-1.3281 0.109375,-0.5469 0.3125,-1.164 0.484375,-1.5156 0.171875,-0.3516 0.6875,-1.375 1.3125,-2.125 0.625,-0.75 0.8125,-1.0234 1.398437,-1.6328 0.585938,-0.6094 1.484375,-1.4766 1.890625,-1.8828 0.40625,-0.4063 2.085938,-1.9063 2.085938,-1.9063 0,0 1.1875,-1.0469 1.492187,-1.3281 0.304688,-0.2813 1.898438,-1.6406 1.898438,-1.6406 l 2.023437,-1.7032 c 0,0 0.0078,-0.023 -0.01563,-0.031 -0.02344,-0.01 -1,-0.4375 -1,-0.4375 0,0 -1.875,-0.7891 -3.015625,-1.3594 -1.140625,-0.5703 -1.484375,-0.7422 -1.484375,-0.7422 l 0,0 c 0,0 -1,-0.5468 -1.65625,-0.9531 -0.65625,-0.4062 -1.429687,-0.9531 -1.929687,-1.3359 -0.5,-0.3828 -1.28125,-1.0078 -2.101563,-2.1719 -0.820312,-1.1641 -0.609375,-2.3906 -0.445312,-3.1875 0.164062,-0.7969 0.663602,-1.9534 0.898437,-2.375 0.6875,-1.2344 1.414063,-2.1484 1.414063,-2.1484 0,0 1.078128,-1.4299 2.52344,-2.6956 1.445313,-1.2656 2.890625,-2.1406 3.609375,-2.539 0.71875,-0.3985 2.374393,-1.1911 3.085634,-1.40806 z"
       id="path4162"
       inkscape:connector-curvature="0"
       sodipodi:nodetypes="cscsccccccssssccscsscsscssscscccsscscccsscsssscccccccscccsssscccc" />
    <path
       style="fill:#8088b1;fill-rule:evenodd;stroke:none;stroke-width:1px;stroke-linecap:butt;stroke-linejoin:miter;stroke-opacity:1;fill-opacity:1"
       d="m 26.703125,1008.1512 c 0.01172,-0.019 0.289063,-0.4648 0.636719,-0.7461 0.347656,-0.2812 0.589844,-0.4492 1.171875,-0.6679 0.582031,-0.2188 1.515625,-0.2031 1.71875,-0.1953 0.203125,0.01 0.867187,0.098 1.082031,0.1601 0.214844,0.062 0.839844,0.2071 1.160156,0.3516 0.320313,0.1445 0.492188,0.1719 1.152344,0.5 0.660156,0.3281 0.972656,0.5547 1.171875,0.6953 0.199219,0.1406 0.515625,0.3672 0.867188,0.6758 0.351562,0.3086 0.839843,0.8242 1.125,1.2734 0.285156,0.4492 0.441406,0.7305 0.601562,1.375 0.160156,0.6445 -0.01172,1.1563 -0.08594,1.3985 -0.07422,0.2421 -0.277344,0.6679 -0.683594,1.0781 -0.40625,0.4101 -0.742188,0.6679 -1.089844,0.875 -0.347656,0.207 -0.804687,0.4414 -1.003906,0.5312 -0.199219,0.09 -0.941406,0.3907 -1.050781,0.418 -0.109375,0.027 -0.28125,0.086 -0.507813,0.094 -0.226562,0.01 -0.535156,0.012 -0.765625,-0.016 -0.230469,-0.027 -1.078125,-0.164 -1.652344,-0.3594 -0.574218,-0.1953 -1.417968,-0.539 -1.753906,-0.7421 -0.335937,-0.2032 -0.660156,-0.3399 -1.289062,-0.8243 -0.628907,-0.4843 -1.230469,-1.2226 -1.402344,-1.6562 -0.171875,-0.4336 -0.277344,-0.6719 -0.246094,-1.4024 0.03125,-0.7304 0.308056,-1.7386 0.394531,-1.9296 0.09375,-0.207 0.167969,-0.461 0.449219,-0.8868 z"
       id="path4164"
       inkscape:connector-curvature="0"
       sodipodi:nodetypes="cccccssssssccccccccccssscc" />
  </g>
</svg>
