<?xml version="1.0" encoding="UTF-8" standalone="no"?>
<!-- Created with Inkscape (http://www.inkscape.org/) -->

<svg
   xmlns:dc="http://purl.org/dc/elements/1.1/"
   xmlns:cc="http://creativecommons.org/ns#"
   xmlns:rdf="http://www.w3.org/1999/02/22-rdf-syntax-ns#"
   xmlns:svg="http://www.w3.org/2000/svg"
   xmlns="http://www.w3.org/2000/svg"
   xmlns:sodipodi="http://sodipodi.sourceforge.net/DTD/sodipodi-0.dtd"
   xmlns:inkscape="http://www.inkscape.org/namespaces/inkscape"
   width="64"
   height="64"
   id="svg2"
   version="1.1"
   inkscape:version="0.91 r13725"
   sodipodi:docname="fedorautils.svg">
  <defs
     id="defs4">
    <clipPath
       id="clipPath-191109045">
      <g
         transform="translate(0,-1004.3622)"
         id="g17">
        <path
           style="fill:#1890d0"
           inkscape:connector-curvature="0"
           d="m -24,13 c 0,1.105 -0.672,2 -1.5,2 -0.828,0 -1.5,-0.895 -1.5,-2 0,-1.105 0.672,-2 1.5,-2 0.828,0 1.5,0.895 1.5,2 z"
           transform="matrix(15.333333,0,0,11.5,414.99999,878.8622)"
           id="path19" />
      </g>
    </clipPath>
  </defs>
  <sodipodi:namedview
     id="base"
     pagecolor="#ffffff"
     bordercolor="#666666"
     borderopacity="1.0"
     inkscape:pageopacity="0.0"
     inkscape:pageshadow="2"
     inkscape:zoom="2.7465945"
     inkscape:cx="22.312924"
     inkscape:cy="10.376663"
     inkscape:document-units="px"
     inkscape:current-layer="layer1"
     showgrid="true"
     inkscape:object-paths="true"
     inkscape:snap-object-midpoints="true"
     inkscape:snap-center="true"
     inkscape:snap-bbox="true"
     inkscape:bbox-paths="true"
     inkscape:bbox-nodes="true"
     inkscape:snap-bbox-edge-midpoints="true"
     inkscape:snap-bbox-midpoints="true"
     inkscape:snap-intersection-paths="true"
     inkscape:object-nodes="true"
     inkscape:snap-smooth-nodes="true"
     inkscape:snap-midpoints="true"
     inkscape:snap-page="true"
     inkscape:window-width="696"
     inkscape:window-height="651"
     inkscape:window-x="668"
     inkscape:window-y="75"
     inkscape:window-maximized="0"
     inkscape:snap-global="true">
    <inkscape:grid
       empspacing="2"
       visible="true"
       enabled="true"
       snapvisiblegridlinesonly="true"
       type="xygrid"
       id="grid2987" />
  </sodipodi:namedview>
  <metadata
     id="metadata7">
    <rdf:RDF>
      <cc:Work
         rdf:about="">
        <dc:format>image/svg+xml</dc:format>
        <dc:type
           rdf:resource="http://purl.org/dc/dcmitype/StillImage" />
        <dc:title />
      </cc:Work>
    </rdf:RDF>
  </metadata>
  <g
     inkscape:label="Layer 1"
     inkscape:groupmode="layer"
     id="layer1"
     transform="translate(0,-988.36218)">
    <rect
       style="fill:#4e6da4;fill-opacity:1;stroke:none"
       id="rect4990"
       width="64"
       height="64"
       x="0"
       y="0"
       transform="translate(0,988.36218)"
       ry="4" />
    <path
       inkscape:connector-curvature="0"
       id="path4166"
       d="m 36.956657,999.27511 c 0,0 1.145374,-0.45681 1.774441,-0.56364 0.629064,-0.10685 1.151307,-0.23736 2.029624,-0.27894 0.878319,-0.0419 1.175049,-0.0479 2.077104,0.036 0.902055,0.083 1.916868,0.40946 2.183925,0.55187 0.267057,0.1424 0.664673,0.35606 1.038552,0.74763 0.373877,0.39171 0.581589,0.71211 0.735888,1.22231 0.154299,0.5104 0.07121,1.1928 -0.05935,1.5902 -0.130561,0.3977 -0.397617,0.9554 -0.979206,1.3233 -0.58159,0.3679 -1.002945,0.4391 -1.169112,0.4806 -0.166168,0.042 -0.676541,0.065 -0.937664,0.042 -0.261121,-0.024 -0.417026,-0.018 -0.569296,-0.049 -0.152272,-0.031 -0.637406,-0.077 -0.98527,-0.094 -0.347862,-0.016 -0.900025,-0.022 -1.347276,0.039 -0.447253,0.061 -0.657075,0.1105 -0.916591,0.1767 -0.259516,0.066 -1.176107,0.3588 -1.888397,0.8556 -0.71229,0.497 -1.18715,0.8669 -1.822138,1.7723 -0.634988,0.9054 -0.971806,2.0481 -1.021501,2.4347 -0.0497,0.3864 -0.04417,0.2319 -0.09939,0.6901 -0.05522,0.4583 -0.02761,1.0765 -0.02761,1.0765 0,0 0,1.2919 0.0055,1.5072 0.0055,0.2153 0,1.6839 0,1.6839 l 0.0055,1.8604 c 0,0 -0.149084,1.1207 1.04911,1.1043 1.198194,-0.017 2.513796,-0.017 2.513796,-0.017 l 1.610033,0 c 0,0 0.641078,0.015 0.89555,0.1075 0.254473,0.093 0.68512,0.2545 1.120662,0.6166 0.43554,0.362 0.920018,1.1449 0.959169,1.8789 0.03915,0.7339 -0.05872,0.9981 -0.151706,1.2722 -0.09298,0.2739 -0.26426,0.6018 -0.484478,0.8612 -0.220217,0.2593 -0.557884,0.5283 -0.694908,0.6165 -0.137024,0.088 -0.577458,0.3326 -1.076619,0.4109 -0.499159,0.078 -0.616607,0.034 -0.616607,0.034 l -2.025999,0 -3.112406,0 0.0098,2.5444 0,4.2374 c 0,0 0.0049,0.6457 -0.05872,1.0911 -0.06362,0.4452 -0.04404,0.7975 -0.269154,1.6147 -0.225111,0.817 -0.11745,0.5138 -0.32788,1.1205 -0.21043,0.6067 -0.386603,0.9883 -0.386603,0.9883 0,0 -0.102768,0.2594 -0.557884,1.1108 -0.455116,0.8513 -1.081511,1.6343 -1.081511,1.6343 0,0 -0.494267,0.6165 -1.154919,1.2574 -0.660652,0.641 -1.130448,0.9738 -1.644289,1.3358 -0.513839,0.3621 -1.438752,0.8514 -1.575775,0.9101 -0.137025,0.059 -0.988532,0.4649 -1.952594,0.7389 -0.964063,0.274 -1.331092,0.3229 -2.021105,0.4061 -0.690016,0.083 -1.663865,0.1027 -2.353879,0.054 -0.690015,-0.049 -1.967275,-0.3132 -2.466434,-0.5628 -0.49916,-0.2494 -1.164706,-0.5578 -1.683439,-1.5657 -0.518735,-1.0079 -0.09788,-2.0403 -0.02937,-2.2361 0.06851,-0.1957 0.308304,-0.5383 0.367028,-0.6068 0.05872,-0.069 0.362135,-0.4745 0.954275,-0.7387 0.592141,-0.2642 1.115768,-0.2838 1.115768,-0.2838 0,0 0.200643,-0.069 1.022787,0.024 0.822144,0.093 1.228324,0.1614 2.099405,0.1027 0.871081,-0.059 1.614927,-0.3131 1.614927,-0.3131 0,0 0.699802,-0.1713 1.859612,-0.9689 1.159812,-0.7975 1.903658,-2.1676 1.991744,-2.4122 0.08809,-0.2447 0.440434,-0.9932 0.572565,-1.7959 0.132131,-0.8023 0.0783,-2.2311 0.08319,-2.603 0.0049,-0.3718 0,-2.8135 0,-2.8135 l 0,-1.2378 c 0,0 0.05872,-1.0325 -1.003213,-1.0325 -1.061936,0 -3.264109,0 -3.264109,0 l -1.081513,0 c 0,0 -0.59214,0.01 -1.247897,-0.318 -0.655759,-0.3278 -1.101087,-0.9151 -1.238111,-1.2038 -0.137024,-0.2886 -0.406178,-0.7877 -0.318092,-1.7369 0.08809,-0.9492 0.680227,-1.5511 0.846613,-1.7027 0.166387,-0.1518 0.215324,-0.2398 0.611715,-0.465 0.396391,-0.2249 0.944487,-0.362 1.370241,-0.3766 0.425754,-0.015 0.504053,0 0.504053,0 l 3.269004,0 1.541522,0.01 0.0049,-6.7475 c 0,0 0.01957,-0.778 0.08809,-1.3358 0.06851,-0.5578 0.220217,-1.4434 0.425753,-2.0991 0.205536,-0.6557 0.464903,-1.3259 0.709589,-1.83 0.244686,-0.5038 0.699802,-1.3944 1.424072,-2.2947 0.724271,-0.9004 1.05215,-1.1842 1.619822,-1.7028 0.567671,-0.5187 1.6345,-1.2526 2.221747,-1.55602 0.587246,-0.30329 0.743385,-0.38903 1.374905,-0.64457 z"
       style="fill:#f7fcf1;fill-opacity:1;fill-rule:evenodd;stroke:none;stroke-width:1px;stroke-linecap:butt;stroke-linejoin:miter;stroke-opacity:1" />
    <path
       inkscape:connector-curvature="0"
       id="path4170"
       d="m 29.047756,1017.4642 -5.246067,0 c 0,0 -1.124419,0.026 -1.733504,0.5725 -0.609083,0.5466 -0.776969,0.699 -1.058085,1.4641 -0.281116,0.7651 -0.03514,1.7645 0.12494,2.0573 0.16008,0.2928 0.230356,0.5191 0.65203,0.9096 0.421673,0.3904 0.843347,0.5972 1.151792,0.6753 0.308447,0.078 0.476336,0.1211 0.577849,0.1171 0.101514,0 0.04295,0 0.12494,0.01 0.08199,0 4.575936,0.01 4.575936,0.01 l -4.48223,0 -1.530518,0.01 c 0,0 -0.979998,0.035 -1.659362,0.2731 -0.679362,0.2382 -1.097131,0.367 -1.674979,0.7691 -0.577848,0.4021 -0.581752,0.3552 -1.218167,1.0072 -0.636415,0.6518 -1.058086,1.4405 -1.198644,1.7411 -0.140559,0.3006 -0.421674,1.179 -0.534902,1.7294 -0.113226,0.5504 -0.07809,1.3429 -0.07809,1.3429 0,0 0.02343,0.527 0.05856,0.6715 0.03514,0.1444 0.07809,0.5152 0.18741,0.8978 0.109323,0.3826 0.238167,0.894 0.745737,1.7059 0.507569,0.812 1.058087,1.3117 1.214262,1.4485 0.156175,0.1366 0.745736,0.6363 1.421195,0.9602 0.675456,0.3241 1.257715,0.4902 1.34606,0.5012 0.08834,0.011 0.01104,0.01 0.01104,0.01 0,0 -0.657073,-0.099 -1.181628,-0.011 -0.524554,0.088 -0.839287,0.1987 -1.08776,0.3367 -0.248473,0.1381 -0.657076,0.4251 -0.922114,0.7949 -0.265038,0.3701 -0.496946,1.038 -0.474859,1.684 0.02209,0.6459 0.193257,0.9385 0.33682,1.1924 0.143562,0.254 0.530076,0.8392 1.043588,1.1152 0.513511,0.2761 0.552162,0.3699 1.717225,0.6625 1.165065,0.2926 2.788037,0.2733 4.22485,0.07 1.436812,-0.2029 3.217209,-0.968 3.217209,-0.968 0,0 -1.120557,0.4294 -1.214263,0.4606 -0.09371,0.031 -0.952668,0.3162 -1.475855,0.4139 -0.523187,0.098 -1.569562,0.2537 -2.315298,0.2537 -0.745736,0 -0.851155,0.082 -2.701833,-0.2304 -1.850676,-0.3123 -3.818484,-1.3585 -4.903902,-2.2017 -1.085409,-0.8432 -1.819433,-1.5224 -2.865808,-2.9278 -1.046374,-1.4053 -1.725738,-3.4977 -1.920957,-4.3411 -0.195219,-0.8431 -0.3435845,-2.0064 -0.288924,-3.2635 0.05466,-1.257 0.25769,-2.1159 0.437291,-2.7952 0.179601,-0.6793 0.773068,-2.2797 1.405577,-3.1933 0.632512,-0.9135 1.288447,-1.8113 1.819443,-2.2876 0.530995,-0.4763 1.085416,-1.0618 2.170836,-1.7411 1.085417,-0.6792 2.163026,-1.1555 3.201592,-1.4443 1.038565,-0.2889 2.241114,-0.4608 3.365576,-0.4763 1.124461,-0.016 2.373865,0.01 2.373865,0.01 l 4.287009,0.031 z"
       style="fill:#4b80f3;fill-opacity:1;fill-rule:evenodd;stroke:none;stroke-width:1px;stroke-linecap:butt;stroke-linejoin:miter;stroke-opacity:1" />
    <path
       inkscape:connector-curvature="0"
       id="path4170-3"
       d="m 34.952249,1023.2604 5.246066,0 c 0,0 1.12442,-0.026 1.733503,-0.5726 0.609084,-0.5466 0.776972,-0.6988 1.058088,-1.4638 0.281115,-0.7653 0.03514,-1.7647 -0.124941,-2.0574 -0.160079,-0.2929 -0.230359,-0.5193 -0.652031,-0.9096 -0.421674,-0.3904 -0.843346,-0.5972 -1.151793,-0.6754 -0.308446,-0.078 -0.476334,-0.1211 -0.577848,-0.1172 -0.101514,0 -0.04296,0 -0.124941,-0.01 -0.08198,0 -4.575934,-0.01 -4.575934,-0.01 l 4.482229,0 1.530517,-0.01 c 0,0 0.98,-0.035 1.659363,-0.2731 0.679362,-0.2382 1.097131,-0.367 1.67498,-0.7691 0.577848,-0.4021 0.581752,-0.3553 1.218166,-1.0071 0.636415,-0.652 1.058088,-1.4405 1.198646,-1.7412 0.140558,-0.3006 0.421673,-1.179 0.5349,-1.7294 0.113227,-0.5505 0.07809,-1.3428 0.07809,-1.3428 0,0 -0.02342,-0.5271 -0.05856,-0.6715 -0.03514,-0.1445 -0.07809,-0.5153 -0.18741,-0.898 -0.109323,-0.3826 -0.238168,-0.8938 -0.745737,-1.7059 -0.50757,-0.812 -1.058088,-1.3116 -1.214263,-1.4483 -0.156176,-0.1367 -0.745737,-0.6363 -1.421194,-0.9603 -0.675459,-0.3241 -1.257716,-0.4901 -1.346061,-0.5012 -0.08835,-0.011 -0.01104,-0.01 -0.01104,-0.01 0,0 0.657074,0.1 1.181628,0.011 0.524556,-0.088 0.839288,-0.1988 1.087761,-0.3367 0.248472,-0.1381 0.657074,-0.4252 0.922112,-0.7951 0.265038,-0.3698 0.496947,-1.0379 0.47486,-1.6839 -0.02209,-0.6459 -0.193256,-0.9385 -0.33682,-1.1925 -0.143562,-0.2539 -0.530076,-0.83905 -1.043586,-1.11519 -0.513512,-0.27601 -0.552164,-0.36986 -1.717228,-0.66248 -1.165063,-0.29262 -2.788036,-0.27302 -4.224847,-0.0699 -1.436813,0.20297 -3.217212,0.96819 -3.217212,0.96819 0,0 1.120558,-0.42943 1.214263,-0.46071 0.09371,-0.0311 0.95267,-0.31621 1.475856,-0.41375 0.523188,-0.0979 1.569562,-0.25374 2.315298,-0.25374 0.745737,0 0.851156,-0.082 2.701833,0.23026 1.850676,0.3123 3.818484,1.35853 4.903903,2.20185 1.085411,0.8431 1.819434,1.5224 2.865808,2.9278 1.046375,1.4052 1.725736,3.4978 1.920956,4.3409 0.195218,0.8433 0.343585,2.0065 0.288923,3.2636 -0.05466,1.257 -0.257688,2.1158 -0.43729,2.7952 -0.179601,0.6792 -0.773067,2.2798 -1.405578,3.1933 -0.632508,0.9135 -1.288445,1.8113 -1.819441,2.2876 -0.530995,0.4762 -1.085418,1.0619 -2.170836,1.7412 -1.085419,0.6792 -2.163027,1.1553 -3.201592,1.4443 -1.038566,0.2888 -2.241116,0.4606 -3.365578,0.4762 -1.124461,0.016 -2.373863,-0.01 -2.373863,-0.01 l -4.287011,-0.031 z"
       style="fill:#4b80f3;fill-opacity:1;fill-rule:evenodd;stroke:none;stroke-width:1px;stroke-linecap:butt;stroke-linejoin:miter;stroke-opacity:1" />
  </g>
</svg>
