<?xml version="1.0" encoding="UTF-8" standalone="no"?>
<!-- Created with Inkscape (http://www.inkscape.org/) -->

<svg
   xmlns:dc="http://purl.org/dc/elements/1.1/"
   xmlns:cc="http://creativecommons.org/ns#"
   xmlns:rdf="http://www.w3.org/1999/02/22-rdf-syntax-ns#"
   xmlns:svg="http://www.w3.org/2000/svg"
   xmlns="http://www.w3.org/2000/svg"
   xmlns:sodipodi="http://sodipodi.sourceforge.net/DTD/sodipodi-0.dtd"
   xmlns:inkscape="http://www.inkscape.org/namespaces/inkscape"
   width="64"
   height="64"
   id="svg2"
   version="1.1"
   inkscape:version="0.91 r13725"
   sodipodi:docname="gnome-system-log.svg">
  <defs
     id="defs4" />
  <sodipodi:namedview
     id="base"
     pagecolor="#ffffff"
     bordercolor="#666666"
     borderopacity="1.0"
     inkscape:pageopacity="0.0"
     inkscape:pageshadow="2"
     inkscape:zoom="9.8028298"
     inkscape:cx="16.590695"
     inkscape:cy="21.624704"
     inkscape:document-units="px"
     inkscape:current-layer="layer1"
     showgrid="true"
     inkscape:object-paths="true"
     inkscape:snap-object-midpoints="true"
     inkscape:snap-center="true"
     inkscape:snap-bbox="true"
     inkscape:bbox-paths="true"
     inkscape:bbox-nodes="true"
     inkscape:snap-bbox-edge-midpoints="true"
     inkscape:snap-bbox-midpoints="true"
     inkscape:snap-intersection-paths="true"
     inkscape:object-nodes="true"
     inkscape:snap-smooth-nodes="true"
     inkscape:snap-midpoints="true"
     inkscape:snap-page="true"
     inkscape:window-width="696"
     inkscape:window-height="651"
     inkscape:window-x="250"
     inkscape:window-y="90"
     inkscape:window-maximized="0">
    <inkscape:grid
       empspacing="2"
       visible="true"
       enabled="true"
       snapvisiblegridlinesonly="true"
       type="xygrid"
       id="grid2987" />
  </sodipodi:namedview>
  <metadata
     id="metadata7">
    <rdf:RDF>
      <cc:Work
         rdf:about="">
        <dc:format>image/svg+xml</dc:format>
        <dc:type
           rdf:resource="http://purl.org/dc/dcmitype/StillImage" />
        <dc:title />
      </cc:Work>
    </rdf:RDF>
  </metadata>
  <g
     inkscape:label="Layer 1"
     inkscape:groupmode="layer"
     id="layer1"
     transform="translate(0,-988.36218)">
    <rect
       style="fill:#867753;fill-opacity:1;stroke:none"
       id="rect4990"
       width="64"
       height="64"
       x="0"
       y="0"
       transform="translate(0,988.36218)"
       ry="4" />
    <path
       style="fill:#f4e3d7;fill-rule:evenodd;stroke:none;stroke-width:1px;stroke-linecap:butt;stroke-linejoin:miter;stroke-opacity:1"
       d="m 10,1002.3622 c 0,0 0,-4.00002 4,-4.00002 l 36,0 c 0,0 4,0 4,4.00002 l 0,36 c 0,0 0,4 -4,4 l -36,0 c 0,0 -4,0 -4,-4 z"
       id="path3340"
       inkscape:connector-curvature="0"
       sodipodi:nodetypes="cscscscsc" />
    <path
       style="fill:#9b6b4b;fill-opacity:1;fill-rule:evenodd;stroke:none;stroke-width:1px;stroke-linecap:butt;stroke-linejoin:miter;stroke-opacity:1"
       d="m 19.166667,1010.3622 c 0,0 -1.166667,0 -1.166667,1 0,1 0,1 0,1 0,0 0,1 1.166667,1 1.166666,0 25.666666,0 25.666666,0 0,0 1.166667,0 1.166667,-1 0,-1 0,-1 0,-1 0,0 0,-1 -1.166667,-1 -1.166666,0 -25.666666,0 -25.666666,0 z"
       id="path3344"
       inkscape:connector-curvature="0" />
    <path
       style="fill:#9b6b4b;fill-opacity:1;fill-rule:evenodd;stroke:none;stroke-width:1px;stroke-linecap:butt;stroke-linejoin:miter;stroke-opacity:1"
       d="m 19,1015.3622 c 0,0 -1,0 -1,1 0,1 0,1 0,1 0,0 0,1 1,1 1,0 26,0 26,0 0,0 1,0 1,-1 0,-1 0,-1 0,-1 0,0 0,-1 -1,-1 -1,0 -26,0 -26,0 z"
       id="path3346"
       inkscape:connector-curvature="0" />
    <path
       style="fill:#9b6b4b;fill-opacity:1;fill-rule:evenodd;stroke:none;stroke-width:1px;stroke-linecap:butt;stroke-linejoin:miter;stroke-opacity:1"
       d="m 19,1020.3622 c 0,0 -1,0 -1,1 0,1 0,1 0,1 0,0 0,1 1,1 1,0 22,0 22,0 0,0 1,0 1,-1 0,-1 0,-1 0,-1 0,0 0,-1 -1,-1 -1,0 -22,0 -22,0 z"
       id="path3348"
       inkscape:connector-curvature="0" />
    <path
       style="fill:#9b6b4b;fill-opacity:1;fill-rule:evenodd;stroke:none;stroke-width:1px;stroke-linecap:butt;stroke-linejoin:miter;stroke-opacity:1"
       d="m 19,1025.3622 c 0,0 -1,0 -1,1 0,1 0,1 0,1 0,0 0,1 1,1 1,0 26,0 26,0 0,0 1,0 1,-1 0,-1 0,-1 0,-1 0,0 0,-1 -1,-1 -1,0 -26,0 -26,0 z"
       id="path3351"
       inkscape:connector-curvature="0" />
    <path
       style="fill:#9b6b4b;fill-opacity:1;fill-rule:evenodd;stroke:none;stroke-width:1px;stroke-linecap:butt;stroke-linejoin:miter;stroke-opacity:1"
       d="m 19.006944,1030.3622 c 0,0 -1.173611,0 -1.173611,1 0,1 0,1 0,1 0,0 0,1 1.173611,1 1.173611,0 25.819445,0 25.819445,0 0,0 1.173611,0 1.173611,-1 0,-1 0,-1 0,-1 0,0 0,-1 -1.173611,-1 -1.173611,0 -25.819445,0 -25.819445,0 z"
       id="path3344-5"
       inkscape:connector-curvature="0" />
    <path
       style="fill:#867753;fill-opacity:1;fill-rule:evenodd;stroke:none;stroke-width:1px;stroke-linecap:butt;stroke-linejoin:miter;stroke-opacity:1"
       d="m 36.636,1022.8653 -15.019,15.019 c 0,0 -1.4303,1.4304 0,2.8608 1.4304,1.4304 2.8608,0 2.8608,0 l 15.019,-15.019 z"
       id="path4166"
       inkscape:connector-curvature="0"
       sodipodi:nodetypes="ccsccc" />
    <rect
       style="fill:#867753;fill-opacity:1;stroke:none;stroke-opacity:1"
       id="rect4156"
       width="20.740505"
       height="20.740509"
       x="1009.9919"
       y="-52.370232"
       ry="10.370255"
       transform="matrix(0,1,-1,0,0,0)" />
    <rect
       style="fill:#a1c1cd;fill-opacity:1;stroke:none;stroke-opacity:1"
       id="rect4156-3"
       width="15.018988"
       height="15.01899"
       x="1012.8527"
       y="-49.509392"
       ry="7.1681547"
       transform="matrix(0,1,-1,0,0,0)" />
    <path
       style="fill:#9b6b4b;fill-opacity:1;fill-rule:evenodd;stroke:none;stroke-width:1px;stroke-linecap:butt;stroke-linejoin:miter;stroke-opacity:1"
       d="m 19.166667,1005.3622 c 0,0 -1.166667,0 -1.166667,1 0,1 0,1 0,1 0,0 0,1 1.166667,1 1.166666,0 25.666666,0 25.666666,0 0,0 1.166667,0 1.166667,-1 0,-1 0,-1 0,-1 0,0 0,-1 -1.166667,-1 -1.166666,0 -25.666666,0 -25.666666,0 z"
       id="path3344-0"
       inkscape:connector-curvature="0" />
  </g>
</svg>
