<?xml version="1.0" encoding="UTF-8" standalone="no"?>
<!-- Created with Inkscape (http://www.inkscape.org/) -->

<svg
   xmlns:dc="http://purl.org/dc/elements/1.1/"
   xmlns:cc="http://creativecommons.org/ns#"
   xmlns:rdf="http://www.w3.org/1999/02/22-rdf-syntax-ns#"
   xmlns:svg="http://www.w3.org/2000/svg"
   xmlns="http://www.w3.org/2000/svg"
   xmlns:sodipodi="http://sodipodi.sourceforge.net/DTD/sodipodi-0.dtd"
   xmlns:inkscape="http://www.inkscape.org/namespaces/inkscape"
   width="64"
   height="64"
   id="svg2"
   version="1.1"
   inkscape:version="0.91 r13725"
   sodipodi:docname="docky.svg">
  <defs
     id="defs4">
    <clipPath
       id="clipPath-934514917">
      <g
         transform="translate(0,-1004.3622)"
         id="g17">
        <path
           style="fill:#1890d0"
           inkscape:connector-curvature="0"
           d="m -24,13 c 0,1.105 -0.672,2 -1.5,2 -0.828,0 -1.5,-0.895 -1.5,-2 0,-1.105 0.672,-2 1.5,-2 0.828,0 1.5,0.895 1.5,2 z"
           transform="matrix(15.333333,0,0,11.5,414.99999,878.8622)"
           id="path19" />
      </g>
    </clipPath>
  </defs>
  <sodipodi:namedview
     id="base"
     pagecolor="#ffffff"
     bordercolor="#666666"
     borderopacity="1.0"
     inkscape:pageopacity="0.0"
     inkscape:pageshadow="2"
     inkscape:zoom="13.041117"
     inkscape:cx="22.601284"
     inkscape:cy="35.811607"
     inkscape:document-units="px"
     inkscape:current-layer="layer1"
     showgrid="true"
     inkscape:object-paths="true"
     inkscape:snap-object-midpoints="true"
     inkscape:snap-center="true"
     inkscape:snap-bbox="true"
     inkscape:bbox-paths="true"
     inkscape:bbox-nodes="true"
     inkscape:snap-bbox-edge-midpoints="true"
     inkscape:snap-bbox-midpoints="true"
     inkscape:snap-intersection-paths="true"
     inkscape:object-nodes="true"
     inkscape:snap-smooth-nodes="true"
     inkscape:snap-midpoints="true"
     inkscape:snap-page="true"
     inkscape:window-width="696"
     inkscape:window-height="651"
     inkscape:window-x="536"
     inkscape:window-y="55"
     inkscape:window-maximized="0"
     inkscape:snap-global="false">
    <inkscape:grid
       empspacing="2"
       visible="true"
       enabled="true"
       snapvisiblegridlinesonly="true"
       type="xygrid"
       id="grid2987" />
  </sodipodi:namedview>
  <metadata
     id="metadata7">
    <rdf:RDF>
      <cc:Work
         rdf:about="">
        <dc:format>image/svg+xml</dc:format>
        <dc:type
           rdf:resource="http://purl.org/dc/dcmitype/StillImage" />
        <dc:title />
      </cc:Work>
    </rdf:RDF>
  </metadata>
  <g
     inkscape:label="Layer 1"
     inkscape:groupmode="layer"
     id="layer1"
     transform="translate(0,-988.36218)">
    <rect
       style="fill:#709ec7;fill-opacity:1;stroke:none"
       id="rect4990"
       width="64"
       height="64"
       x="0"
       y="0"
       transform="translate(0,988.36218)"
       ry="4" />
    <g
       transform="matrix(1.5835935,0,0,1.6920473,-6.0041213,979.74966)"
       id="g47"
       style="stroke:none">
      <g
         clip-path="url(#clipPath-934514917)"
         id="g49"
         style="stroke:none">
        <!-- color: #70bdea -->
        <g
           id="g51"
           style="stroke:none">
          <path
             style="fill:#3d6275;fill-opacity:1;fill-rule:nonzero;stroke:none"
             inkscape:connector-curvature="0"
             d="m 24,11 c -1.66,0 -3,1.293 -3,2.887 0,1.203 0.914,2.195 2,2.629 l 0,2.48 -4.629,0 c -0.199,0 -0.375,0.254 -0.375,0.457 l 0,1.082 c 0,0.207 0.168,0.504 0.375,0.457 l 4.629,0 0,11.668 c 0,0.375 -0.77,0.379 -1.133,0.418 -0.535,0 -0.863,-0.133 -1.371,-0.266 -1.156,-0.328 -2.258,-0.777 -3.316,-1.324 -0.449,-0.238 -0.883,-0.469 -1.281,-0.777 -0.168,-0.145 -0.367,-0.344 -0.352,-0.574 0.023,-0.18 0.117,-0.363 0.316,-0.395 0.18,-0.027 0.344,0.066 0.504,0.125 0.137,0.055 0.234,-0.105 0.211,-0.215 -0.02,-0.289 -0.121,-0.559 -0.277,-0.809 -0.328,-0.52 -0.832,-0.902 -1.352,-1.23 -0.555,-0.34 -1.148,-0.715 -1.504,-1.266 -0.07,-0.098 -0.148,-0.27 -0.305,-0.215 -0.219,0.066 -0.34,0.273 -0.445,0.449 -0.301,0.547 -0.449,1.145 -0.586,1.75 -0.109,0.48 -0.129,0.988 -0.09,1.477 0.039,0.488 0.074,0.984 0.277,1.445 0.133,0.301 0.359,0.543 0.586,0.781 0.145,-0.148 0.297,-0.309 0.445,-0.449 0.191,-0.188 0.434,-0.309 0.719,-0.27 0.383,0.047 0.73,0.273 1.031,0.484 0.426,0.313 0.82,0.645 1.254,0.961 0.684,0.504 1.438,0.871 2.215,1.227 0.645,0.289 1.309,0.574 1.98,0.813 0.121,0.051 0.25,0.047 0.375,0.09 1.207,0.477 2.227,1.047 3.063,2.055 0,0.016 0,0.043 0,0.059 0.008,-0.012 0.023,-0.027 0.035,-0.035 0.008,0.012 0.023,0.027 0.035,0.035 0.008,-0.031 -0.008,-0.066 0,-0.094 0.832,-0.996 1.859,-1.539 3.059,-2.02 0.125,-0.043 0.258,-0.039 0.379,-0.09 0.668,-0.234 1.336,-0.523 1.98,-0.813 0.773,-0.355 1.531,-0.727 2.215,-1.227 0.43,-0.316 0.828,-0.648 1.254,-0.961 0.301,-0.211 0.648,-0.441 1.031,-0.484 0.281,-0.035 0.52,0.086 0.715,0.27 0.148,0.145 0.301,0.305 0.445,0.449 0.227,-0.234 0.457,-0.48 0.586,-0.781 0.207,-0.457 0.242,-0.953 0.281,-1.445 0.039,-0.488 0.016,-1 -0.094,-1.477 -0.133,-0.605 -0.289,-1.199 -0.586,-1.75 -0.105,-0.176 -0.23,-0.383 -0.445,-0.449 -0.156,-0.055 -0.234,0.113 -0.305,0.215 -0.355,0.547 -0.945,0.922 -1.504,1.266 -0.523,0.328 -1.023,0.711 -1.355,1.23 -0.156,0.25 -0.258,0.52 -0.281,0.809 -0.02,0.109 0.074,0.273 0.223,0.219 0.148,-0.059 0.313,-0.152 0.5,-0.125 0.203,0.031 0.297,0.219 0.313,0.395 0.023,0.23 -0.18,0.434 -0.352,0.574 -0.398,0.305 -0.832,0.539 -1.277,0.777 -1.059,0.547 -2.16,0.996 -3.313,1.32 -0.52,0.137 -0.844,0.27 -1.371,0.27 -0.461,0.078 -1.145,-0.16 -1.145,-0.418 l 0,-11.668 4.629,0 c 0.184,0 0.375,-0.238 0.375,-0.457 l 0,-1.082 c 0,-0.211 -0.18,-0.414 -0.375,-0.457 l -4.629,0 0,-2.48 c 1.102,-0.434 2,-1.426 2,-2.629 0,-1.598 -1.344,-2.891 -3,-2.891 m -0.063,1.41 c 0.805,0 1.469,0.609 1.469,1.387 0,0.773 -0.66,1.41 -1.469,1.41 -0.805,0 -1.477,-0.637 -1.477,-1.41 0,-0.773 0.668,-1.387 1.477,-1.387 m 0,0"
             id="path53" />
        </g>
      </g>
    </g>
    <path
       style="fill:#e2e8d8;fill-opacity:1;fill-rule:evenodd;stroke:none;stroke-width:1px;stroke-linecap:butt;stroke-linejoin:miter;stroke-opacity:1"
       d="m 31.988281,998.36609 c 0,0 0.582032,0.004 1.035157,0.10937 0.453125,0.10547 0.875,0.26563 1.367187,0.55859 0.492188,0.29297 0.910156,0.70313 1.175781,1.00395 0.265625,0.3007 0.535157,0.7539 0.679688,1.0507 0.144531,0.2969 0.332031,0.7735 0.429687,1.3907 0.09766,0.6172 0.06641,1.332 -0.08594,1.875 -0.152344,0.5429 -0.351563,0.9297 -0.527344,1.2304 -0.175781,0.3008 -0.480469,0.711 -0.851562,1.0469 -0.371094,0.3359 -0.914063,0.7266 -1.210938,0.8633 -0.296875,0.1367 -0.417969,0.1992 -0.429687,0.2031 -0.01172,0 -10e-7,4.2031 -10e-7,4.2031 l 7.28125,0.01 c 0,0 0.632813,-0.1015 0.640625,0.6563 0.0078,0.7578 -0.01563,1.9141 -0.01563,1.9141 0,0 0.09671,0.8988 -0.476554,0.8806 -2.261279,-0.017 -4.739634,-0.054 -7,4e-4 l 0,19 0,0.9996 c 0,0.3337 0.476559,0.3563 0.851559,0.3876 0.375,0.031 0.96875,-0.016 1.328125,-0.094 0.359375,-0.078 1.914063,-0.539 2.429688,-0.7265 0.515625,-0.1875 1.476562,-0.5235 2.695312,-1.1172 1.21875,-0.5938 2.21875,-1.1563 3.117188,-1.7891 0.898437,-0.6328 0.929687,-0.9531 0.953125,-1.2031 0.02344,-0.25 -0.164063,-0.6094 -0.289063,-0.6641 -0.125,-0.055 -0.257812,-0.1328 -0.578125,-0.031 -0.320309,0.1016 -0.570309,0.3203 -0.726559,0.062 -0.15625,-0.2578 0.09375,-1.0547 0.28125,-1.4219 0.1875,-0.3672 0.6875,-1.0937 1.34375,-1.6015 0.65625,-0.5079 2.046875,-1.4297 2.460937,-1.8282 0.414063,-0.3984 0.6875,-0.7265 0.828125,-0.9765 0.140625,-0.25 0.296875,-0.5469 0.59375,-0.3438 0.296875,0.2031 0.476563,0.4531 0.617188,0.711 0.140625,0.2578 0.539062,1.2109 0.789062,2.3437 0.25,1.1328 0.3125,1.6875 0.304688,2.5469 -0.0078,0.8594 -0.15625,2.0703 -0.351563,2.6875 -0.195312,0.6172 -0.585937,1.1328 -0.796875,1.3828 -0.210937,0.25 -0.25,0.2812 -0.25,0.2812 l -0.757812,-0.8125 c 0,0 -0.375,-0.4531 -1.007813,-0.4218 -0.632812,0.031 -1.210937,0.4765 -1.210937,0.4765 0,0 -0.960938,0.6953 -1.3125,1.0078 -0.351563,0.3125 -1.328125,1.1094 -1.609375,1.2969 -0.28125,0.1875 -0.867188,0.6172 -1.820313,1.1094 -0.953125,0.4922 -2.132812,1.0937 -3.328125,1.5859 -1.195312,0.4922 -1.1875,0.4844 -1.398437,0.5157 -0.210938,0.031 -0.296875,0.078 -0.476563,0.164 -0.179687,0.086 -1.09375,0.4688 -1.507812,0.7188 -0.414063,0.25 -1.390625,0.8359 -1.875,1.289 -0.484375,0.4532 -1.046875,0.9922 -1.1875,1.2422 -0.140625,0.25 -0.164063,0.1328 -0.382813,-0.1328 -0.21875,-0.2656 -0.65625,-0.7344 -0.867187,-0.9141 -0.210938,-0.1796 -0.515625,-0.4921 -1.046875,-0.8437 -0.53125,-0.3516 -1,-0.6719 -1.5,-0.8906 -0.5,-0.2188 -0.875,-0.5 -1.21875,-0.5703 -0.34375,-0.07 -0.34375,-0.062 -0.546875,-0.125 -0.203125,-0.062 -2.515625,-1.0782 -3.054688,-1.336 -0.539062,-0.2578 -2.625,-1.2969 -3.929687,-2.3515 -1.304688,-1.0547 -0.71875,-0.6407 -1.367188,-1.1563 -0.648437,-0.5156 -1.296875,-1.0234 -1.953125,-1.0781 -0.65625,-0.055 -0.914062,0.2031 -1.273437,0.5937 -0.359375,0.3907 -0.570313,0.625 -0.570313,0.625 0,0 -0.703125,-0.664 -1.039062,-1.5781 -0.335938,-0.9141 -0.359375,-2.5937 -0.328125,-3.6094 0.03125,-1.0156 0.34375,-2.0156 0.34375,-2.0156 0,0 0.195312,-0.8672 0.570312,-1.6953 0.375,-0.8281 0.664063,-0.9922 0.664063,-0.9922 0,0 0.257812,-0.1875 0.414062,-0.086 0.15625,0.1015 0.179688,0.25 0.296875,0.3906 0.117188,0.1406 0.296875,0.5859 0.976563,1.1094 0.679687,0.5234 0.101562,0.1406 0.898437,0.6718 0.796875,0.5313 1.625,1.1641 1.875,1.4375 0.25,0.2735 0.75,0.8594 1,1.4766 0.25,0.6172 0.210938,1.0391 0.117188,1.1406 -0.09375,0.1016 -0.140625,0.1485 -0.375,0.047 -0.234375,-0.1016 -0.578125,-0.2969 -0.859375,-0.125 -0.28125,0.1719 -0.304688,0.4844 -0.304688,0.4844 0,0 -0.148437,0.2344 0.179688,0.7265 0.328125,0.4922 1.46875,1.1719 1.523437,1.1954 0.05469,0.023 1.546875,0.9218 2.460938,1.3281 0.914062,0.4062 1.851562,0.8125 2.234375,0.9453 0.382812,0.1328 2.445312,0.8203 2.890625,0.8594 0.445312,0.039 0.585937,0.086 1.101562,0.023 0.531731,-0.01 0.793147,-0.078 0.960938,-0.332 -0.04687,-0.1289 -0.02343,0.1289 5e-6,0 0.02344,-0.1332 0,0.016 0,-1 l 0,-19 -7,0 c 0,0 -0.515615,-0.012 -0.515615,-0.9262 l 0,-1.7969 c 0,0 -0.0625,-0.75 0.726562,-0.75 0.789063,0 7.210938,0.016 7.210938,0.016 l -0.0078,-4.2188 c 0,0 -1.078125,-0.362 -2.132812,-1.5574 -0.905141,-1.0754 -0.849667,-1.3826 -0.849667,-1.3826 0,0 -0.332494,-0.7771 -0.189419,-1.8138 0.08471,-0.6138 -0.130039,-1.0533 0.640419,-2.2853 0.453125,-0.70309 1.070519,-1.24596 1.797081,-1.66783 0.726563,-0.42188 1.75,-0.64843 2.308589,-0.61328 z"
       id="path4166"
       inkscape:connector-curvature="0"
       sodipodi:nodetypes="cccccsccssccccccccscsscsscccsccsscscssccccsssscsscsscscccscscccsscscsscccsccsccccsccccsccscsccccscsc" />
    <path
       style="fill:#709ec7;fill-rule:evenodd;stroke:none;stroke-width:1px;stroke-linecap:butt;stroke-linejoin:miter;stroke-opacity:1;fill-opacity:1"
       d="m 32.035156,1000.7567 c 0,0 0.496094,0 0.980469,0.2891 0.484375,0.289 0.699219,0.5508 0.902344,0.914 0.203125,0.3633 0.300781,0.7969 0.285156,1.1328 -0.01563,0.336 0.0078,0.5508 -0.296875,1.1797 -0.304688,0.6289 -0.886719,0.8828 -1.097656,1.0039 -0.210938,0.1211 -0.707032,0.2461 -1.179688,0.1875 -0.472656,-0.058 -0.652344,-0.164 -0.945312,-0.3281 -0.292969,-0.164 -0.703125,-0.5586 -0.902344,-0.9961 -0.199219,-0.4375 -0.269531,-0.7656 -0.222656,-1.3281 0.04687,-0.5625 0.414062,-1.1563 0.667968,-1.3789 0.253907,-0.2227 0.351563,-0.3086 0.5625,-0.4102 0.210938,-0.1015 0.359375,-0.1757 0.546875,-0.2109 0.1875,-0.035 0.402344,-0.074 0.699219,-0.055 z"
       id="path4164"
       inkscape:connector-curvature="0" />
  </g>
</svg>
