<?xml version="1.0" encoding="UTF-8" standalone="no"?>
<!-- Created with Inkscape (http://www.inkscape.org/) -->

<svg
   xmlns:dc="http://purl.org/dc/elements/1.1/"
   xmlns:cc="http://creativecommons.org/ns#"
   xmlns:rdf="http://www.w3.org/1999/02/22-rdf-syntax-ns#"
   xmlns:svg="http://www.w3.org/2000/svg"
   xmlns="http://www.w3.org/2000/svg"
   xmlns:sodipodi="http://sodipodi.sourceforge.net/DTD/sodipodi-0.dtd"
   xmlns:inkscape="http://www.inkscape.org/namespaces/inkscape"
   width="64"
   height="64"
   id="svg2"
   version="1.1"
   inkscape:version="0.91 r13725"
   sodipodi:docname="dolphin.svg">
  <defs
     id="defs4" />
  <sodipodi:namedview
     id="base"
     pagecolor="#ffffff"
     bordercolor="#666666"
     borderopacity="1.0"
     inkscape:pageopacity="0.0"
     inkscape:pageshadow="2"
     inkscape:zoom="8"
     inkscape:cx="36.276264"
     inkscape:cy="30.601723"
     inkscape:document-units="px"
     inkscape:current-layer="layer1"
     showgrid="true"
     inkscape:object-paths="true"
     inkscape:snap-object-midpoints="true"
     inkscape:snap-center="true"
     inkscape:snap-bbox="true"
     inkscape:bbox-paths="true"
     inkscape:bbox-nodes="true"
     inkscape:snap-bbox-edge-midpoints="true"
     inkscape:snap-bbox-midpoints="true"
     inkscape:snap-intersection-paths="true"
     inkscape:object-nodes="true"
     inkscape:snap-smooth-nodes="true"
     inkscape:snap-midpoints="true"
     inkscape:snap-page="true"
     inkscape:window-width="705"
     inkscape:window-height="714"
     inkscape:window-x="587"
     inkscape:window-y="27"
     inkscape:window-maximized="0"
     inkscape:snap-global="false">
    <inkscape:grid
       empspacing="2"
       visible="true"
       enabled="true"
       snapvisiblegridlinesonly="true"
       type="xygrid"
       id="grid2987" />
  </sodipodi:namedview>
  <metadata
     id="metadata7">
    <rdf:RDF>
      <cc:Work
         rdf:about="">
        <dc:format>image/svg+xml</dc:format>
        <dc:type
           rdf:resource="http://purl.org/dc/dcmitype/StillImage" />
        <dc:title />
      </cc:Work>
    </rdf:RDF>
  </metadata>
  <g
     inkscape:label="Layer 1"
     inkscape:groupmode="layer"
     id="layer1"
     transform="translate(0,-988.36218)">
    <rect
       style="fill:#7d86ae;fill-opacity:1;stroke:none"
       id="rect4990"
       width="64"
       height="64"
       x="0"
       y="0"
       transform="translate(0,988.36218)"
       ry="4" />
    <rect
       style="fill:#eed7f4;fill-opacity:1;stroke:none"
       id="rect2996-9"
       width="31.999998"
       height="31.999971"
       x="23"
       y="1007.3622"
       ry="1.5999986" />
    <rect
       style="fill:#eed7f4;fill-opacity:1;stroke:none"
       id="rect2996"
       width="19.166666"
       height="37.999981"
       x="9"
       y="1001.3622"
       ry="1.8999991" />
    <path
       style="fill:#eed7f4;fill-opacity:1;stroke:none"
       d="m 54,1006.3622 c 0,0 -1.875,-5 -3.791667,-5 -1.916666,0 -20.751285,0 -20.751285,0 0,0 -0.561253,-0.1876 0.542952,1 3.470949,3.7332 4.039578,3.9739 5,4 0.957984,0.026 19.000006,0 19,0 z"
       id="path3818"
       inkscape:connector-curvature="0"
       sodipodi:nodetypes="cscssc" />
    <path
       style="fill:#eed7f4;fill-opacity:1;stroke:none"
       d="m 26,13 c 0,0 1.041752,-0.04175 2.041752,0.958248 C 29.041752,14.958248 31,17 31,17 l 1,1 c 0,0 1,1 2,1 1,0 19,0 19,0 0,0 2,0 2,2 0,2 0,26 0,26 l -32,0 0,-34 z"
       id="path2993"
       inkscape:connector-curvature="0"
       transform="translate(0,988.36218)"
       sodipodi:nodetypes="csccscscccc" />
    <path
       style="fill:#7d86ae;fill-rule:evenodd;stroke:none;stroke-width:1px;stroke-linecap:butt;stroke-linejoin:miter;stroke-opacity:1;fill-opacity:1"
       d="m 20.765625,1028.6591 c -0.04687,0.031 -0.109375,0.3359 -0.742188,0.4062 -0.632812,0.07 0.28125,-3.2031 0.65625,-3.8828 0.375,-0.6797 0.546875,-1.3281 1.617188,-3.0625 1.070312,-1.7344 2.265625,-3.1328 2.265625,-3.1328 0,0 0.789062,-0.875 2.078125,-1.4531 1.289062,-0.5782 2.523437,-0.875 3.085937,-1 0.5625,-0.125 1.601563,-0.211 2.226563,-0.2422 0.625,-0.031 1.609375,0.1562 1.898437,0.1797 0.289063,0.023 1.054688,0.1171 1.414063,0.055 0.359375,-0.062 0.46875,-0.047 0.671875,-0.414 0.203125,-0.3672 0.3125,-0.6563 0.273437,-1.3438 -0.03906,-0.6875 -0.148437,-1.1015 -0.0625,-1.414 0.08594,-0.3125 0.296875,-0.25 0.515625,-0.125 0.21875,0.125 0.515625,0.4297 0.710938,0.6484 0.195312,0.2188 0.8125,0.9766 1.164062,1.6719 0.351563,0.6953 0.585938,1.3828 0.6875,1.7812 0.101563,0.3985 0.15625,0.625 0.15625,0.625 0,0 0.53125,0.5 0.84375,0.7969 0.3125,0.2969 1.1875,1.1953 2.070313,2.2891 0.882812,1.0937 1.273437,1.7187 1.726562,2.5078 0.453125,0.789 0.601563,1.1953 0.820313,1.9375 0.21875,0.7422 0.257812,1.0859 0.320312,1.789 0.0625,0.7032 -0.03125,1.7891 -0.234375,2.6641 -0.203125,0.875 -0.273437,0.7266 -0.273437,0.7266 0,0 0.414062,0.8828 0.609375,2.1015 0.195312,1.2188 -1.664063,0.9375 -2.164063,0.5625 -0.5,-0.375 -2.007812,-1.8984 -2.453125,-2.3906 -0.445312,-0.4922 -2.289062,-2.5078 -2.539062,-2.7734 -0.25,-0.2657 -1.21875,-1.336 -1.21875,-1.336 0,0 -1.226563,0.094 -2.25,0.1094 -1.023438,0.016 -1.71875,-0.039 -2.390625,-0.2969 -0.671875,-0.2578 -1.414063,-0.8281 -1.507813,-0.914 -0.09375,-0.086 -0.05469,-0.055 -0.05469,-0.055 0,0 1.023437,0.1875 2.703125,-0.4375 1.679687,-0.625 -0.867188,-2.0391 -2.054688,-1.8985 -1.1875,0.1407 -0.789062,0.01 -2.9375,0.6875 -2.148437,0.6797 -3.984375,2.6172 -4.484375,3.1954 -0.5,0.5781 -1.34375,1.539 -1.59375,1.9609 -0.25,0.4219 -0.53125,0.5391 -0.585937,0.4922 -0.05469,-0.047 -0.1875,-0.375 -0.125,-0.6094 0.0625,-0.2344 0.390625,-1.0078 1.882812,-2.4766 1.492188,-1.4687 1.835938,-1.75 2.460938,-2.3125 0.625,-0.5625 1.867187,-1.1171 2.53125,-1.2656 0.664062,-0.1484 1.203125,-0.2734 1.648437,-0.2812 0.445313,-0.01 0.304688,-0.086 0.765625,-0.055 0.460938,0.031 0.835938,0.07 0.835938,0.07 0,0 -0.304688,-0.3672 -1.460938,-0.6016 -1.15625,-0.2344 -2.546875,0.1719 -3.375,0.5078 -0.828125,0.336 -2.238088,1.0676 -3.01701,1.7968 -0.778923,0.7292 -0.425369,0.3646 -1.242961,1.2596 -0.817593,0.8949 -1.519175,2.3478 -1.519175,2.3478 0,0 -0.259641,0.4474 -0.298311,0.5137 -0.03867,0.066 -0.05535,0.09 -0.05535,0.09 z"
       id="path4151"
       inkscape:connector-curvature="0" />
    <path
       style="fill:#7d86ae;fill-rule:evenodd;stroke:none;stroke-width:1px;stroke-linecap:butt;stroke-linejoin:miter;stroke-opacity:1;fill-opacity:1"
       d="m 19.495521,1030.3256 c 0,0 -0.07575,0.8883 -0.199707,1.2877 -0.123956,0.3994 -0.01377,0.2066 -0.282344,0.8264 -0.268571,0.6198 -0.8126,0.8057 -1.081172,0.8608 -0.268571,0.055 -0.516483,0.055 -0.853919,-0.076 -0.337435,-0.1309 -0.557802,-0.5992 -0.468278,-1.095 0.08952,-0.4958 0.433846,-0.8264 0.743736,-1.0261 0.30989,-0.1997 0.729963,-0.4132 1.088058,-0.5165 0.358095,-0.1032 0.709304,-0.1928 0.881465,-0.2341 0.172161,-0.041 0.172161,-0.028 0.172161,-0.028 z"
       id="path4147"
       inkscape:connector-curvature="0" />
    <path
       style="fill:#7d86ae;fill-rule:evenodd;stroke:none;stroke-width:1px;stroke-linecap:butt;stroke-linejoin:miter;stroke-opacity:1;fill-opacity:1"
       d="m 19.378906,1029.827 c 0,0 -1.230469,0.4258 -1.949219,0.4688 -0.71875,0.043 -0.828125,0.047 -1.300781,-0.293 -0.472656,-0.3398 -0.429687,-1.0664 -0.25,-1.3164 0.179688,-0.25 0.320313,-0.4648 0.738281,-0.6641 0.417969,-0.1992 0.992188,0.059 1.191407,0.1875 0.199218,0.1289 0.585937,0.3907 0.847656,0.7032 0.261719,0.3125 0.480469,0.5586 0.597656,0.7343 0.117188,0.1758 0.125,0.1797 0.125,0.1797 z"
       id="path4149"
       inkscape:connector-curvature="0" />
  </g>
</svg>
