<?xml version="1.0" encoding="UTF-8" standalone="no"?>
<!-- Created with Inkscape (http://www.inkscape.org/) -->

<svg
   xmlns:dc="http://purl.org/dc/elements/1.1/"
   xmlns:cc="http://creativecommons.org/ns#"
   xmlns:rdf="http://www.w3.org/1999/02/22-rdf-syntax-ns#"
   xmlns:svg="http://www.w3.org/2000/svg"
   xmlns="http://www.w3.org/2000/svg"
   xmlns:sodipodi="http://sodipodi.sourceforge.net/DTD/sodipodi-0.dtd"
   xmlns:inkscape="http://www.inkscape.org/namespaces/inkscape"
   width="64"
   height="64"
   id="svg2"
   version="1.1"
   inkscape:version="0.91 r13725"
   sodipodi:docname="dosbox.svg">
  <defs
     id="defs4" />
  <sodipodi:namedview
     id="base"
     pagecolor="#ffffff"
     bordercolor="#666666"
     borderopacity="1.0"
     inkscape:pageopacity="0.0"
     inkscape:pageshadow="2"
     inkscape:zoom="9.6806671"
     inkscape:cx="27.536391"
     inkscape:cy="31.273406"
     inkscape:document-units="px"
     inkscape:current-layer="layer1"
     showgrid="true"
     inkscape:object-paths="true"
     inkscape:snap-object-midpoints="true"
     inkscape:snap-center="true"
     inkscape:snap-bbox="true"
     inkscape:bbox-paths="true"
     inkscape:bbox-nodes="true"
     inkscape:snap-bbox-edge-midpoints="true"
     inkscape:snap-bbox-midpoints="true"
     inkscape:snap-intersection-paths="true"
     inkscape:object-nodes="true"
     inkscape:snap-smooth-nodes="true"
     inkscape:snap-midpoints="true"
     inkscape:snap-page="true"
     inkscape:window-width="696"
     inkscape:window-height="651"
     inkscape:window-x="656"
     inkscape:window-y="90"
     inkscape:window-maximized="0"
     inkscape:snap-global="true">
    <inkscape:grid
       empspacing="2"
       visible="true"
       enabled="true"
       snapvisiblegridlinesonly="true"
       type="xygrid"
       id="grid2987" />
  </sodipodi:namedview>
  <metadata
     id="metadata7">
    <rdf:RDF>
      <cc:Work
         rdf:about="">
        <dc:format>image/svg+xml</dc:format>
        <dc:type
           rdf:resource="http://purl.org/dc/dcmitype/StillImage" />
        <dc:title />
      </cc:Work>
    </rdf:RDF>
  </metadata>
  <g
     inkscape:label="Layer 1"
     inkscape:groupmode="layer"
     id="layer1"
     transform="translate(0,-988.36218)">
    <rect
       style="fill:#6c5353;fill-opacity:1;stroke:none"
       id="rect4990"
       width="64"
       height="64"
       x="0"
       y="0"
       transform="translate(0,988.36218)"
       ry="4" />
    <path
       style="fill:#e2e3db;fill-rule:evenodd;stroke:none;stroke-width:1px;stroke-linecap:butt;stroke-linejoin:miter;stroke-opacity:1;fill-opacity:1"
       d="m 22,1031.3622 c 0,0 0,2 -2,2 -2,0 -2,-2 -2,-2 0,0 0,-2 -2,-2 -2,0 -2,2 -2,2 l 0,4 0,2 c 0,0 0,2 2,2 2,0 2,-2 2,-2 0,0 0,-2 2,-2 2,0 2,2 2,2 l 0,3 c 0,0 0,2 -2,2 l -8,0 c 0,0 -2,0 -2,-2 l 0,-12 c 0,0 0,-2 2,-2 l 8,0 c 0,0 2,0 2,2 z"
       id="path3344"
       inkscape:connector-curvature="0"
       sodipodi:nodetypes="cscscccscsccscscscsc" />
    <rect
       style="fill:#e2e3db;fill-opacity:1;stroke:none;stroke-opacity:1"
       id="rect4146"
       width="4"
       height="4"
       x="24"
       y="1029.3622"
       ry="2" />
    <rect
       style="fill:#e2e3db;fill-opacity:1;stroke:none;stroke-opacity:1"
       id="rect4148"
       width="4"
       height="4"
       x="24"
       y="1035.3622"
       ry="2" />
    <path
       style="fill:#e2e3db;fill-rule:evenodd;stroke:none;stroke-width:1px;stroke-linecap:butt;stroke-linejoin:miter;stroke-opacity:1;fill-opacity:1"
       d="m 30.43893,1029.6175 c 0,0 -1.16096,-1.9275 0.55225,-2.9593 1.713191,-1.032 2.874148,0.8953 2.874148,0.8953 l 6.965756,11.5641 c 0,0 1.16096,1.9275 -0.55225,2.9593 -1.713191,1.0321 -2.874148,-0.8952 -2.874148,-0.8952 l -6.965756,-11.5642 z"
       id="path4150"
       inkscape:connector-curvature="0"
       inkscape:transform-center-x="0.2737011"
       inkscape:transform-center-y="-1.6122118" />
    <path
       style="fill:#e2e3db;fill-opacity:1;fill-rule:evenodd;stroke:none;stroke-width:1px;stroke-linecap:butt;stroke-linejoin:miter;stroke-opacity:1"
       d="m 22.000001,1012.3622 c 0,0 0,2 -2,2 -2,0 -2,-2 -2,-2 0,0 0,-2 -2,-2 -2,0 -2,2 -2,2 l 0,4 0,2 c 0,0 0,2 2,2 2,0 2,-2 2,-2 0,0 0,-2 2,-2 2,0 2,2 2,2 l 0,3 c 0,0 0,2 -2,2 l -8,0 c 0,0 -2.000001,0 -2.000001,-2 l 0,-12 c 0,0 0,-2 2.000001,-2 l 8,0 c 0,0 2,0 2,2 z"
       id="path3344-3"
       inkscape:connector-curvature="0"
       sodipodi:nodetypes="cscscccscsccscscscsc" />
    <rect
       style="fill:#e2e3db;fill-opacity:1;stroke:none;stroke-opacity:1"
       id="rect4146-5"
       width="4"
       height="4"
       x="24.000002"
       y="1010.3621"
       ry="2" />
    <rect
       style="fill:#e2e3db;fill-opacity:1;stroke:none;stroke-opacity:1"
       id="rect4148-7"
       width="4"
       height="4"
       x="24.000002"
       y="1016.3621"
       ry="2" />
    <path
       style="fill:#e2e3db;fill-opacity:1;fill-rule:evenodd;stroke:none;stroke-width:1px;stroke-linecap:butt;stroke-linejoin:miter;stroke-opacity:1"
       d="m 30.438931,1010.6175 c 0,0 -1.16096,-1.9275 0.55225,-2.9593 1.713191,-1.032 2.874148,0.8953 2.874148,0.8953 l 6.965756,11.5641 c 0,0 1.16096,1.9275 -0.55225,2.9593 -1.713191,1.0321 -2.874148,-0.8952 -2.874148,-0.8952 l -6.965756,-11.5642 z"
       id="path4150-8"
       inkscape:connector-curvature="0"
       inkscape:transform-center-x="0.2737011"
       inkscape:transform-center-y="-1.6122118" />
  </g>
</svg>
