<?xml version="1.0" encoding="UTF-8" standalone="no"?>
<!-- Created with Inkscape (http://www.inkscape.org/) -->

<svg
   xmlns:dc="http://purl.org/dc/elements/1.1/"
   xmlns:cc="http://creativecommons.org/ns#"
   xmlns:rdf="http://www.w3.org/1999/02/22-rdf-syntax-ns#"
   xmlns:svg="http://www.w3.org/2000/svg"
   xmlns="http://www.w3.org/2000/svg"
   xmlns:sodipodi="http://sodipodi.sourceforge.net/DTD/sodipodi-0.dtd"
   xmlns:inkscape="http://www.inkscape.org/namespaces/inkscape"
   width="64"
   height="64"
   id="svg2"
   version="1.1"
   inkscape:version="0.91 r13725"
   sodipodi:docname="dvdrip.svg">
  <defs
     id="defs4" />
  <sodipodi:namedview
     id="base"
     pagecolor="#ffffff"
     bordercolor="#666666"
     borderopacity="1.0"
     inkscape:pageopacity="0.0"
     inkscape:pageshadow="2"
     inkscape:zoom="11.634751"
     inkscape:cx="12.169492"
     inkscape:cy="26.112676"
     inkscape:document-units="px"
     inkscape:current-layer="layer1"
     showgrid="true"
     inkscape:object-paths="true"
     inkscape:snap-object-midpoints="true"
     inkscape:snap-center="true"
     inkscape:snap-bbox="true"
     inkscape:bbox-paths="true"
     inkscape:bbox-nodes="true"
     inkscape:snap-bbox-edge-midpoints="true"
     inkscape:snap-bbox-midpoints="true"
     inkscape:snap-intersection-paths="true"
     inkscape:object-nodes="true"
     inkscape:snap-smooth-nodes="true"
     inkscape:snap-midpoints="true"
     inkscape:snap-page="true"
     inkscape:window-width="1364"
     inkscape:window-height="714"
     inkscape:window-x="0"
     inkscape:window-y="27"
     inkscape:window-maximized="1"
     inkscape:snap-global="true"
     showguides="false">
    <inkscape:grid
       empspacing="2"
       visible="true"
       enabled="true"
       snapvisiblegridlinesonly="true"
       type="xygrid"
       id="grid2987" />
  </sodipodi:namedview>
  <metadata
     id="metadata7">
    <rdf:RDF>
      <cc:Work
         rdf:about="">
        <dc:format>image/svg+xml</dc:format>
        <dc:type
           rdf:resource="http://purl.org/dc/dcmitype/StillImage" />
        <dc:title />
      </cc:Work>
    </rdf:RDF>
  </metadata>
  <g
     inkscape:label="Layer 1"
     inkscape:groupmode="layer"
     id="layer1"
     transform="translate(0,-988.36218)">
    <rect
       style="fill:#536c67;fill-opacity:1;stroke:none"
       id="rect4990"
       width="64"
       height="64"
       x="0"
       y="0"
       ry="4"
       transform="translate(0,988.36218)" />
    <rect
       style="fill:#d7eef4;fill-opacity:1;stroke:none;stroke-opacity:1"
       id="rect3344"
       width="44"
       height="44"
       x="10"
       y="998.36218"
       ry="22" />
    <rect
       style="fill:#95a1a0;fill-opacity:1;stroke:none;stroke-opacity:1"
       id="rect3346"
       width="14"
       height="13.999997"
       x="25"
       y="1013.3622"
       ry="6.9999986" />
    <rect
       style="fill:#536c67;fill-opacity:1;stroke:none;stroke-opacity:1"
       id="rect3348"
       width="8"
       height="7.9999976"
       x="28"
       y="1016.3622"
       ry="3.9999988" />
    <path
       style="fill:#536c67;fill-rule:evenodd;stroke:none;stroke-width:1px;stroke-linecap:butt;stroke-linejoin:miter;stroke-opacity:1;fill-opacity:1"
       d="m 22,1029.3622 c 0,0 0,-1 1,-1 1,0 1,1 1,1 l 0,7 c 0,0 0,1 -1,1 -1,0 -1,-1 -1,-1 z"
       id="path4163"
       inkscape:connector-curvature="0"
       sodipodi:nodetypes="csccscc" />
    <path
       style="fill:#536c67;fill-rule:evenodd;stroke:none;stroke-width:1px;stroke-linecap:butt;stroke-linejoin:miter;stroke-opacity:1;fill-opacity:1"
       d="m 24,1031.3622 c 0,0 2,-2 4,-2 2,0 2,1 2,1 0,0 0,1 -1,1 -1,0 -1,-1 -3,0 -2,1 -2,1 -2,1 z"
       id="path4167"
       inkscape:connector-curvature="0" />
    <path
       style="fill:#536c67;fill-rule:evenodd;stroke:none;stroke-width:1px;stroke-linecap:butt;stroke-linejoin:miter;stroke-opacity:1;fill-opacity:1"
       d="m 31,1032.3622 c 0,0 0,-1 1,-1 1,0 1,1 1,1 l 0,4 c 0,0 0,1 -1,1 -1,0 -1,-1 -1,-1 l 0,-4 z"
       id="path4169"
       inkscape:connector-curvature="0" />
    <path
       style="fill:#536c67;fill-rule:evenodd;stroke:none;stroke-width:1px;stroke-linecap:butt;stroke-linejoin:miter;stroke-opacity:1;fill-opacity:1"
       d="m 31,1029.3622 c 0,0 0,-1 1,-1 1,0 1,1 1,1 0,0 0,1 -1,1 -1,0 -1,-1 -1,-1 z"
       id="path4171"
       inkscape:connector-curvature="0" />
    <path
       style="fill:#536c67;fill-rule:evenodd;stroke:none;stroke-width:1px;stroke-linecap:butt;stroke-linejoin:miter;stroke-opacity:1;fill-opacity:1"
       d="m 36,1029.3622 c 0,0 0,-1 1,-1 1,0 1,1 1,1 l 0,7 c 0,0 0,1 -1,1 -1,0 -1,-1 -1,-1 z"
       id="path4173"
       inkscape:connector-curvature="0" />
    <path
       style="fill:#536c67;fill-rule:evenodd;stroke:none;stroke-width:1px;stroke-linecap:butt;stroke-linejoin:miter;stroke-opacity:1;fill-opacity:1"
       d="m 37,1028.3622 5,0 c 0,0 2,0 2,2 0,2 0,2 0,2 0,0 0,2 -2,2 -2,0 -5,0 -5,0 z"
       id="path4175"
       inkscape:connector-curvature="0" />
    <path
       style="fill:#d7eef4;fill-rule:evenodd;stroke:none;stroke-width:1px;stroke-linecap:butt;stroke-linejoin:miter;stroke-opacity:1;fill-opacity:1"
       d="m 38,1030.3622 3.2,0 c 0,0 0.8,0 0.8,1 0,1 -0.8,1 -0.8,1 l -3.2,0 z"
       id="path4179"
       inkscape:connector-curvature="0" />
  </g>
</svg>
