<?xml version="1.0" encoding="UTF-8" standalone="no"?>
<!-- Created with Inkscape (http://www.inkscape.org/) -->

<svg
   xmlns:dc="http://purl.org/dc/elements/1.1/"
   xmlns:cc="http://creativecommons.org/ns#"
   xmlns:rdf="http://www.w3.org/1999/02/22-rdf-syntax-ns#"
   xmlns:svg="http://www.w3.org/2000/svg"
   xmlns="http://www.w3.org/2000/svg"
   xmlns:sodipodi="http://sodipodi.sourceforge.net/DTD/sodipodi-0.dtd"
   xmlns:inkscape="http://www.inkscape.org/namespaces/inkscape"
   width="64"
   height="64"
   id="svg2"
   version="1.1"
   inkscape:version="0.91 r13725"
   sodipodi:docname="eagle.svg">
  <defs
     id="defs4">
    <clipPath
       id="clipPath-188690824">
      <g
         transform="translate(0,-1004.3622)"
         id="g17">
        <path
           style="fill:#1890d0"
           inkscape:connector-curvature="0"
           d="m -24,13 c 0,1.105 -0.672,2 -1.5,2 -0.828,0 -1.5,-0.895 -1.5,-2 0,-1.105 0.672,-2 1.5,-2 0.828,0 1.5,0.895 1.5,2 z"
           transform="matrix(15.333333,0,0,11.5,414.99999,878.8622)"
           id="path19" />
      </g>
    </clipPath>
  </defs>
  <sodipodi:namedview
     id="base"
     pagecolor="#ffffff"
     bordercolor="#666666"
     borderopacity="1.0"
     inkscape:pageopacity="0.0"
     inkscape:pageshadow="2"
     inkscape:zoom="10.84967"
     inkscape:cx="21.494684"
     inkscape:cy="43.305571"
     inkscape:document-units="px"
     inkscape:current-layer="layer1"
     showgrid="true"
     inkscape:object-paths="true"
     inkscape:snap-object-midpoints="true"
     inkscape:snap-center="true"
     inkscape:snap-bbox="true"
     inkscape:bbox-paths="true"
     inkscape:bbox-nodes="true"
     inkscape:snap-bbox-edge-midpoints="true"
     inkscape:snap-bbox-midpoints="true"
     inkscape:snap-intersection-paths="true"
     inkscape:object-nodes="true"
     inkscape:snap-smooth-nodes="true"
     inkscape:snap-midpoints="true"
     inkscape:snap-page="true"
     inkscape:window-width="696"
     inkscape:window-height="651"
     inkscape:window-x="668"
     inkscape:window-y="56"
     inkscape:window-maximized="0"
     inkscape:snap-global="false">
    <inkscape:grid
       empspacing="2"
       visible="true"
       enabled="true"
       snapvisiblegridlinesonly="true"
       type="xygrid"
       id="grid2987" />
  </sodipodi:namedview>
  <metadata
     id="metadata7">
    <rdf:RDF>
      <cc:Work
         rdf:about="">
        <dc:format>image/svg+xml</dc:format>
        <dc:type
           rdf:resource="http://purl.org/dc/dcmitype/StillImage" />
        <dc:title />
      </cc:Work>
    </rdf:RDF>
  </metadata>
  <g
     inkscape:label="Layer 1"
     inkscape:groupmode="layer"
     id="layer1"
     transform="translate(0,-988.36218)">
    <rect
       style="fill:#334751;fill-opacity:1;stroke:none"
       id="rect4990"
       width="64"
       height="64"
       x="0"
       y="0"
       transform="translate(0,988.36218)"
       ry="4" />
    <path
       style="fill:#ee625e;fill-rule:evenodd;stroke:none;stroke-width:1px;stroke-linecap:butt;stroke-linejoin:miter;stroke-opacity:1;fill-opacity:1"
       d="m 14.053747,1004.2789 c 0,0 1.303728,-0.4198 1.568893,0.6629 0.265165,1.0828 0.662913,-0.8618 1.21534,-0.8176 0.552427,0.044 0.243068,1.6573 0.486136,1.8341 0.243068,0.1768 0.53033,-0.464 0.773398,-0.2431 0.243068,0.221 0.618719,1.348 0.486136,1.6573 -0.132582,0.3094 0.331456,0.1105 0.707107,0.1989 0.37565,0.088 -0.0221,1.0385 0.464039,0.9281 0.486136,-0.1105 0.618718,-0.4641 0.928077,-0.3094 0.30936,0.1547 0.220971,0.5745 0.486136,0.685 0.265165,0.1105 0.817592,0.088 0.972272,0.3094 0.15468,0.2209 -0.04419,1.5026 0.508233,1.6131 0.552427,0.1104 1.104854,0.066 1.392117,0.4198 0.287262,0.3536 0,0.906 0.464038,1.3037 0.464039,0.3978 0.773398,0.2431 1.016466,0.5967 0.243068,0.3535 0.441942,1.1932 0.441942,1.9666 0,0.7734 0.08839,0.8839 0.419845,1.149 0.331456,0.2652 0.397747,0.221 0.552427,0.5967 0.15468,0.3756 0.220971,1.6351 0.309359,1.9224 0.08839,0.2873 0.68501,0.685 0.287262,1.5247 -0.397747,0.8397 0.375651,1.9225 2.055029,0.442 1.679379,-1.4806 2.187612,-1.7015 3.049398,-2.0109 0.861787,-0.3093 3.425049,-3.0052 3.623923,-4.1321 0.198873,-1.127 1.281631,-3.8449 1.856155,-3.9333 0.574524,-0.088 -0.176777,1.2153 0.287262,0.8839 0.464039,-0.3315 0.883883,-0.8397 0.928078,-1.4143 0.04419,-0.5745 0.596621,-4.9939 0.574524,-6.1429 -0.0221,-1.1491 -0.53033,-3.0715 0.464039,-3.2483 0.994369,-0.1768 0.640815,3.0715 0.90598,3.425 0.265165,0.3536 0.596622,1.1712 0.83969,-0.1104 0.243068,-1.2817 0.441941,-3.1378 0.37565,-3.6461 -0.06629,-0.5082 -0.110485,-2.54113 0.751301,-1.76773 0.861786,0.77339 0.552427,2.85053 0.751301,3.11573 0.198874,0.2651 1.657282,-3.13783 2.099223,-3.04944 0.441942,0.0884 0.441942,1.67934 0.06629,3.11564 -0.37565,1.4364 -0.419844,2.033 -0.110485,1.5247 0.309359,-0.5082 0.994369,-1.3921 1.237437,-1.2595 0.243068,0.1326 -0.596621,1.9887 0.06629,1.9004 0.662913,-0.088 1.37002,-1.0165 1.74567,-0.8176 0.375651,0.1988 0.06629,1.5468 -0.08839,1.591 -0.15468,0.044 0.353553,0.5745 0.508233,0.5966 0.154679,0.022 -0.04419,1.7456 0.132582,1.7677 0.176777,0.022 -0.08839,1.4806 -0.662912,1.9446 -0.574525,0.464 0.464038,0.3756 0.552427,0.8397 0.08839,0.464 0.640815,2.3644 0.243068,3.4913 -0.397748,1.127 -1.065987,4.198 -2.128487,4.948 -1.0625,0.75 0.0625,1.4375 -0.15625,2.0313 -0.21875,0.5937 -0.9375,3.375 -2.03125,4.0937 -1.093746,0.7188 -1.218746,1.5313 -3.124996,1.7813 -1.90625,0.25 -2.71875,1.2812 -2.71875,1.2812 0,0 -0.53125,1.0313 -1.34375,0.75 -0.8125,-0.2812 -1.53125,0.5938 -1.53125,0.5938 0,0 -0.03125,0.375 -1,-0.7813 -0.96875,-1.1562 -1.03125,1.125 -1.03125,1.125 0,0 -0.4375,1 1.84375,2.1875 2.28125,1.1875 6.65625,3.4063 6.375,4.75 -0.28125,1.3438 -1.34375,3.0625 -2.28125,2.9063 -0.9375,-0.1563 -2.34375,-0.5 -2.4375,-0.062 -0.09375,0.4375 -0.4375,0.875 -0.84375,0.75 -0.40625,-0.125 -0.59375,0.9375 -1.34375,-0.1875 -0.75,-1.125 -0.1875,1.0625 -0.875,0.75 -0.6875,-0.3125 -0.9375,-0.6875 -1.5,-0.6875 -0.5625,0 -1.21875,0.1562 -1.4375,-0.6563 -0.21875,-0.8125 -1.625,-0.125 -1.625,-0.125 0,0 -0.09375,0.3438 -0.4375,-0.3437 -0.34375,-0.6875 -0.625,-1.9063 -0.9375,-1.5313 -0.3125,0.375 -0.15625,2.0625 -0.46875,2.0625 -0.3125,0 -0.5625,0.4063 -1.625,0.375 -1.0625,-0.031 -1.34375,-0.062 -1.34375,-0.062 0,0 -0.03125,1.5313 -0.25,1.4688 -0.21875,-0.062 -0.84375,-0.1563 -1.15625,0.094 -0.3125,0.25 -0.375,0.8125 -0.375,0.8125 0,0 -0.4375,0.5 -1.375,0.625 -0.9375,0.125 -0.1875,0.3125 0,0.031 0.1875,-0.2813 0.59375,-0.6563 0.75,-1.3438 0.15625,-0.6875 0.25,-0.5625 0.25,-0.5625 0,0 -1.5625,0.375 -1.9375,0.2813 -0.375,-0.094 -0.0625,-0.031 -0.0625,-0.031 l 0.09375,1.1563 c 0,0 -0.71875,0.062 -0.90625,-0.1875 -0.1875,-0.25 0.125,-1.5313 0.40625,-1.75 0.28125,-0.2188 0.09375,-0.25 0.59375,-0.2813 0.5,-0.031 -0.34375,-0.5 0.46875,-0.625 0.8125,-0.125 1.3125,0 2.125,-0.3437 0.8125,-0.3438 0.65625,-0.125 0.65625,-0.125 0,0 -0.125,-1.4375 0.40625,-2.5313 0.53125,-1.0937 0.78125,-1.625 0.59375,-1.7812 -0.1875,-0.1563 -0.5625,-0.6875 -1.5,0.5 -0.9375,1.1875 -2.875,1.0937 -2.875,1.0937 0,0 -0.53125,0 -0.34375,1.0625 0.1875,1.0625 -1.15625,1.625 -1.15625,1.625 0,0 -0.71875,0.1563 -1.03125,-0.5 -0.3125,-0.6562 0.03125,-0.062 0.03125,-0.062 0,0 1.0625,0.4063 1.28125,-0.375 0.21875,-0.7812 0.03125,-1.2812 -0.40625,-1.5625 -0.4375,-0.2812 -0.78125,0.4375 -0.78125,0.4375 0,0 -0.3125,0.5 -0.21875,0.6875 0.09375,0.1875 -0.0625,0.031 -0.0625,0.031 0,0 -0.59375,-0.4688 -0.46875,-1 0.125,-0.5313 0.1875,-0.4375 0.1875,-0.4375 0,0 -1,0 -1.25,-0.094 -0.25,-0.094 -0.5625,-0.2187 -0.5625,0.1563 0,0.375 0.1875,1 0.03125,1.0312 -0.15625,0.031 -0.78125,-1.2187 -0.75,-1.4062 0.03125,-0.1875 0.65625,-0.9688 1.28125,-1.0625 0.625,-0.094 2.8125,0.3437 3.5625,-0.062 0.75,-0.4063 0.40625,-1.1563 0.6875,-1.8438 0.28125,-0.6875 1.4375,-1.3125 1.78125,-2 0.34375,-0.6875 -0.375,-2.6562 -1.53125,-2.9375 -1.15625,-0.2812 -0.875,-0.25 -0.875,-0.25 0,0 -1.34375,1.25 -1.40625,1.5313 -0.0625,0.2812 0.125,1 -0.59375,0.6875 -0.71875,-0.3125 -0.28125,-2.2188 -0.3125,-3.1563 -0.03125,-0.9375 -0.34375,-1.5 -0.1875,-1.7187 0.15625,-0.2188 0.375,-0.9688 1.53125,-1.9688 1.15625,-1 1.6875,-0.2812 1.78125,-1 C 22,1020.9247 21.0625,1019.4872 21,1018.1122 c -0.0625,-1.375 -0.90625,-3.5 -1.65625,-4.0313 -0.75,-0.5312 -3.03125,-2 -3.53125,-2.7187 -0.5,-0.7188 -0.4375,-0.8125 -0.125,-1.0313 0.3125,-0.2187 -1.46875,-2.5937 -1.59375,-6.1875 -0.125,-3.5937 -0.04,0.1355 -0.04,0.1355 z"
       id="path3366"
       inkscape:connector-curvature="0" />
  </g>
</svg>
