<?xml version="1.0" encoding="UTF-8" standalone="no"?>
<!-- Created with Inkscape (http://www.inkscape.org/) -->

<svg
   xmlns:dc="http://purl.org/dc/elements/1.1/"
   xmlns:cc="http://creativecommons.org/ns#"
   xmlns:rdf="http://www.w3.org/1999/02/22-rdf-syntax-ns#"
   xmlns:svg="http://www.w3.org/2000/svg"
   xmlns="http://www.w3.org/2000/svg"
   xmlns:sodipodi="http://sodipodi.sourceforge.net/DTD/sodipodi-0.dtd"
   xmlns:inkscape="http://www.inkscape.org/namespaces/inkscape"
   width="64"
   height="64"
   id="svg2"
   version="1.1"
   inkscape:version="0.91 r13725"
   sodipodi:docname="easytag.svg">
  <defs
     id="defs4" />
  <sodipodi:namedview
     id="base"
     pagecolor="#ffffff"
     bordercolor="#666666"
     borderopacity="1.0"
     inkscape:pageopacity="0.0"
     inkscape:pageshadow="2"
     inkscape:zoom="31.406746"
     inkscape:cx="52.816052"
     inkscape:cy="13.776179"
     inkscape:document-units="px"
     inkscape:current-layer="layer1"
     showgrid="true"
     inkscape:object-paths="true"
     inkscape:snap-object-midpoints="true"
     inkscape:snap-center="true"
     inkscape:snap-bbox="true"
     inkscape:bbox-paths="true"
     inkscape:bbox-nodes="true"
     inkscape:snap-bbox-edge-midpoints="true"
     inkscape:snap-bbox-midpoints="true"
     inkscape:snap-intersection-paths="true"
     inkscape:object-nodes="true"
     inkscape:snap-smooth-nodes="true"
     inkscape:snap-midpoints="true"
     inkscape:snap-page="true"
     inkscape:window-width="696"
     inkscape:window-height="651"
     inkscape:window-x="465"
     inkscape:window-y="90"
     inkscape:window-maximized="0">
    <inkscape:grid
       empspacing="2"
       visible="true"
       enabled="true"
       snapvisiblegridlinesonly="true"
       type="xygrid"
       id="grid2987" />
  </sodipodi:namedview>
  <metadata
     id="metadata7">
    <rdf:RDF>
      <cc:Work
         rdf:about="">
        <dc:format>image/svg+xml</dc:format>
        <dc:type
           rdf:resource="http://purl.org/dc/dcmitype/StillImage" />
        <dc:title />
      </cc:Work>
    </rdf:RDF>
  </metadata>
  <g
     inkscape:label="Layer 1"
     inkscape:groupmode="layer"
     id="layer1"
     transform="translate(0,-988.36218)">
    <rect
       style="fill:#deaa87;fill-opacity:1;stroke:none"
       id="rect4990"
       width="64"
       height="64"
       x="0"
       y="0"
       transform="translate(0,988.36218)"
       ry="4" />
    <path
       style="fill:#f4e3d7;fill-rule:evenodd;stroke:none;stroke-width:1px;stroke-linecap:butt;stroke-linejoin:miter;stroke-opacity:1"
       d="m 10,1002.3622 c 0,0 0,-4.00002 4,-4.00002 l 36,0 c 0,0 4,0 4,4.00002 l 0,36 c 0,0 0,4 -4,4 l -36,0 c 0,0 -4,0 -4,-4 z"
       id="path3340"
       inkscape:connector-curvature="0"
       sodipodi:nodetypes="cscscscsc" />
    <path
       style="fill:#a9673e;fill-opacity:1;fill-rule:evenodd;stroke:none;stroke-width:1px;stroke-linecap:butt;stroke-linejoin:miter;stroke-opacity:1"
       d="m 10,1001.3622 c 0,0 0,-3.00002 3,-3.00002 l 38,0 c 0,0 3,0 3,3.00002 l 0,38 c 0,0 0,3 -3,3 l -38,0 c 0,0 -3,0 -3,-3 z"
       id="path3350"
       inkscape:connector-curvature="0"
       sodipodi:nodetypes="cscscscsc" />
    <path
       style="fill:#deaa87;fill-opacity:1;stroke:none;stroke-opacity:1"
       id="path3348"
       sodipodi:type="arc"
       sodipodi:cx="17"
       sodipodi:cy="1005.3622"
       sodipodi:rx="3"
       sodipodi:ry="3"
       sodipodi:start="2.3502778"
       sodipodi:end="2.3500858"
       d="m 14.891268,1007.496 a 3,3 0 0 1 -0.0252,-4.2424 3,3 0 0 1 4.242463,-0.025 3,3 0 0 1 0.02561,4.2425 3,3 0 0 1 -4.24246,0.026 L 17,1005.3622 Z" />
    <path
       style="fill:#edd8a1;fill-opacity:1;fill-rule:evenodd;stroke:none;stroke-width:1px;stroke-linecap:butt;stroke-linejoin:miter;stroke-opacity:1"
       d="m 24,1004.3622 c 0,0 0,8 -8,8 l 0,0 c 0,0 -2,0 -2,2 l 0,22 c 0,0 0,2 2,2 l 32,0 c 0,0 2,0 2,-2 l 0,-32 c 0,0 -1.7e-5,-2 -2,-2 l -22,0 c 0,0 -2,0 -2,2 z"
       id="path3368"
       inkscape:connector-curvature="0"
       sodipodi:nodetypes="cccscscscscc" />
    <path
       style="fill:#a05a2c;fill-opacity:1;fill-rule:evenodd;stroke:none;stroke-width:1px;stroke-linecap:butt;stroke-linejoin:miter;stroke-opacity:1"
       d="m 20,1019.3622 c 0,0 -2,0 -2,-2 0,-2 2,-2 2,-2 l 24,0 c 0,0 2,0 2,2 0,2 -2,2 -2,2 z"
       id="path3343"
       inkscape:connector-curvature="0"
       sodipodi:nodetypes="csccscc" />
    <path
       style="fill:#a05a2c;fill-opacity:1;fill-rule:evenodd;stroke:none;stroke-width:1px;stroke-linecap:butt;stroke-linejoin:miter;stroke-opacity:1"
       d="m 20,1025.3622 c 0,0 -2,0 -2,-2 0,-2 2,-2 2,-2 l 24,0 c 0,0 2,0 2,2 0,2 -2,2 -2,2 z"
       id="path3343-8"
       inkscape:connector-curvature="0"
       sodipodi:nodetypes="csccscc" />
    <path
       style="fill:#a05a2c;fill-opacity:1;fill-rule:evenodd;stroke:none;stroke-width:1px;stroke-linecap:butt;stroke-linejoin:miter;stroke-opacity:1"
       d="m 20,1031.3622 c 0,0 -2,0 -2,-2 0,-2 2,-2 2,-2 l 24,0 c 0,0 2,0 2,2 0,2 -2,2 -2,2 z"
       id="path3343-1"
       inkscape:connector-curvature="0"
       sodipodi:nodetypes="csccscc" />
  </g>
</svg>
