<?xml version="1.0" encoding="UTF-8" standalone="no"?>
<!-- Created with Inkscape (http://www.inkscape.org/) -->

<svg
   xmlns:dc="http://purl.org/dc/elements/1.1/"
   xmlns:cc="http://creativecommons.org/ns#"
   xmlns:rdf="http://www.w3.org/1999/02/22-rdf-syntax-ns#"
   xmlns:svg="http://www.w3.org/2000/svg"
   xmlns="http://www.w3.org/2000/svg"
   xmlns:sodipodi="http://sodipodi.sourceforge.net/DTD/sodipodi-0.dtd"
   xmlns:inkscape="http://www.inkscape.org/namespaces/inkscape"
   width="64"
   height="64"
   id="svg2"
   version="1.1"
   inkscape:version="0.91 r13725"
   sodipodi:docname="easylife.svg">
  <defs
     id="defs4" />
  <sodipodi:namedview
     id="base"
     pagecolor="#ffffff"
     bordercolor="#666666"
     borderopacity="1.0"
     inkscape:pageopacity="0.0"
     inkscape:pageshadow="2"
     inkscape:zoom="6.6530999"
     inkscape:cx="6.9273047"
     inkscape:cy="26.906088"
     inkscape:document-units="px"
     inkscape:current-layer="layer1"
     showgrid="true"
     inkscape:object-paths="true"
     inkscape:snap-object-midpoints="true"
     inkscape:snap-center="true"
     inkscape:snap-bbox="true"
     inkscape:bbox-paths="true"
     inkscape:bbox-nodes="true"
     inkscape:snap-bbox-edge-midpoints="true"
     inkscape:snap-bbox-midpoints="true"
     inkscape:snap-intersection-paths="true"
     inkscape:object-nodes="true"
     inkscape:snap-smooth-nodes="true"
     inkscape:snap-midpoints="true"
     inkscape:snap-page="true"
     inkscape:window-width="697"
     inkscape:window-height="657"
     inkscape:window-x="667"
     inkscape:window-y="61"
     inkscape:window-maximized="0"
     inkscape:snap-global="false">
    <inkscape:grid
       empspacing="2"
       visible="true"
       enabled="true"
       snapvisiblegridlinesonly="true"
       type="xygrid"
       id="grid2987" />
  </sodipodi:namedview>
  <metadata
     id="metadata7">
    <rdf:RDF>
      <cc:Work
         rdf:about="">
        <dc:format>image/svg+xml</dc:format>
        <dc:type
           rdf:resource="http://purl.org/dc/dcmitype/StillImage" />
        <dc:title />
      </cc:Work>
    </rdf:RDF>
  </metadata>
  <g
     inkscape:label="Layer 1"
     inkscape:groupmode="layer"
     id="layer1"
     transform="translate(0,-988.36218)">
    <rect
       style="fill:#edc9ae;fill-opacity:1;stroke:none"
       id="rect4990"
       width="64"
       height="64"
       x="0"
       y="0"
       transform="translate(0,988.36218)"
       ry="4" />
    <rect
       style="fill:#2ca089;fill-opacity:1;stroke:none;stroke-opacity:1"
       id="rect3344-3"
       width="8"
       height="8"
       x="10"
       y="1009.3622"
       ry="4" />
    <rect
       style="fill:#09a35c;fill-opacity:1;stroke:none;stroke-opacity:1"
       id="rect3344-1"
       width="8"
       height="8"
       x="10"
       y="1023.3622"
       ry="4" />
    <rect
       style="fill:#eb5b5c;fill-opacity:1;stroke:none;stroke-opacity:1"
       id="rect3344-3-1"
       width="8"
       height="8"
       x="46"
       y="1009.3622"
       ry="4" />
    <rect
       style="fill:#ba619e;fill-opacity:1;stroke:none;stroke-opacity:1"
       id="rect3344-1-7"
       width="8"
       height="8"
       x="46"
       y="1023.3622"
       ry="4" />
    <rect
       style="fill:#709ec7;fill-opacity:1;stroke:none;stroke-opacity:1"
       id="rect3344-3-3"
       width="8"
       height="8"
       x="21"
       y="1034.3622"
       ry="4" />
    <rect
       style="fill:#892ca0;fill-opacity:1;stroke:none;stroke-opacity:1"
       id="rect3344-3-6"
       width="8"
       height="8"
       x="35"
       y="1034.3622"
       ry="4" />
    <rect
       style="fill:#e29251;fill-opacity:1;stroke:none;stroke-opacity:1"
       id="rect3344-3-3-1"
       width="8"
       height="8"
       x="21"
       y="998.36218"
       ry="4" />
    <rect
       style="fill:#f1423f;fill-opacity:1;stroke:none;stroke-opacity:1"
       id="rect3344-3-6-3"
       width="8"
       height="8"
       x="35"
       y="998.36218"
       ry="4" />
    <path
       inkscape:connector-curvature="0"
       id="path4166"
       d="m 35.323313,1008.8702 c 0,0 0.694419,-0.2495 1.075811,-0.3077 0.381391,-0.059 0.698017,-0.1297 1.230524,-0.1524 0.532509,-0.024 0.712411,-0.026 1.259311,0.018 0.546899,0.045 1.162164,0.2238 1.324075,0.3016 0.161911,0.077 0.402979,0.1946 0.629655,0.4084 0.226675,0.2139 0.352607,0.3889 0.446155,0.6676 0.09355,0.279 0.04318,0.6515 -0.03598,0.8687 -0.07915,0.2173 -0.241069,0.5219 -0.593675,0.7229 -0.352608,0.201 -0.608067,0.2397 -0.708813,0.2624 -0.100743,0.024 -0.410173,0.036 -0.568487,0.024 -0.158314,-0.013 -0.252835,-0.01 -0.345155,-0.026 -0.09232,-0.016 -0.386448,-0.041 -0.59735,-0.051 -0.210904,-0.01 -0.545669,-0.012 -0.81683,0.022 -0.271161,0.034 -0.398373,0.061 -0.555712,0.096 -0.157341,0.036 -0.713053,0.196 -1.144901,0.4674 -0.43185,0.2714 -0.719748,0.4736 -1.10473,0.9681 -0.384982,0.4946 -0.589189,1.1188 -0.619317,1.33 -0.03014,0.2111 -0.02678,0.1268 -0.06026,0.3769 -0.03349,0.2504 -0.01673,0.5881 -0.01673,0.5881 0,0 0,0.7058 0.0034,0.8233 0.0034,0.1177 0,0.92 0,0.92 l 0.0034,1.0163 c 0,0 -0.09039,0.6121 0.636058,0.6031 0.726443,-0.01 1.524068,-0.01 1.524068,-0.01 l 0.976134,0 c 0,0 0.388676,0.01 0.542955,0.059 0.154284,0.05 0.415377,0.1391 0.679438,0.3369 0.26406,0.1977 0.55779,0.6254 0.581527,1.0263 0.02374,0.4009 -0.03561,0.5453 -0.09197,0.6949 -0.05636,0.1497 -0.160216,0.3288 -0.293731,0.4705 -0.133513,0.1416 -0.338234,0.2886 -0.42131,0.3368 -0.08306,0.048 -0.350102,0.1816 -0.652733,0.2245 -0.302631,0.043 -0.373838,0.019 -0.373838,0.019 l -1.228327,0 -1.886996,0 0.006,1.3899 0,2.3148 c 0,0 0.0029,0.3527 -0.03561,0.5959 -0.03858,0.2433 -0.0267,0.4357 -0.163184,0.8821 -0.136479,0.4463 -0.07121,0.2806 -0.198785,0.6121 -0.127581,0.3313 -0.234391,0.5398 -0.234391,0.5398 0,0 -0.06231,0.1416 -0.338236,0.6067 -0.275928,0.4651 -0.655701,0.8928 -0.655701,0.8928 0,0 -0.299664,0.3367 -0.700206,0.6868 -0.400542,0.3503 -0.68537,0.532 -0.996902,0.7298 -0.311531,0.1978 -0.87229,0.4652 -0.955364,0.4972 -0.08307,0.033 -0.599329,0.254 -1.183824,0.4036 -0.584493,0.1497 -0.807017,0.1764 -1.225359,0.2218 -0.418343,0.045 -1.008771,0.056 -1.427114,0.03 -0.418343,-0.026 -1.192723,-0.1711 -1.495354,-0.3075 -0.302632,-0.1363 -0.706139,-0.3047 -1.020639,-0.8552 -0.314499,-0.5508 -0.05934,-1.1147 -0.01779,-1.2216 0.04154,-0.1069 0.18692,-0.2941 0.222523,-0.3314 0.03561,-0.037 0.219556,-0.2593 0.578559,-0.4036 0.359005,-0.1443 0.676471,-0.155 0.676471,-0.155 0,0 0.121646,-0.037 0.620096,0.013 0.498452,0.05 0.744712,0.088 1.272833,0.056 0.52812,-0.033 0.979099,-0.1711 0.979099,-0.1711 0,0 0.424278,-0.093 1.127452,-0.5291 0.703171,-0.4358 1.15415,-1.1841 1.207557,-1.3178 0.0534,-0.1337 0.267027,-0.5426 0.347135,-0.981 0.0801,-0.4382 0.04747,-1.2188 0.05044,-1.422 0.0029,-0.203 0,-1.5369 0,-1.5369 l 0,-0.6761 c 0,0 0.03561,-0.564 -0.608231,-0.564 -0.643832,0 -1.97897,0 -1.97897,0 l -0.655702,0 c 0,0 -0.359004,0.01 -0.756577,-0.1738 -0.397574,-0.179 -0.667569,-0.4998 -0.750644,-0.6576 -0.08307,-0.1576 -0.246259,-0.4302 -0.192853,-0.9488 0.05341,-0.5184 0.412409,-0.8473 0.513285,-0.93 0.100877,-0.083 0.130548,-0.1309 0.370872,-0.2541 0.240326,-0.1227 0.572627,-0.1976 0.830753,-0.2056 0.258126,-0.01 0.305598,0 0.305598,0 l 1.981938,0 0.934597,0.01 0.0029,-3.686 c 0,0 0.01186,-0.4249 0.05341,-0.7297 0.04154,-0.3047 0.133513,-0.7885 0.258127,-1.1466 0.124613,-0.3583 0.281861,-0.7243 0.430211,-0.9997 0.148347,-0.2753 0.424277,-0.7617 0.863389,-1.2536 0.439112,-0.4918 0.637899,-0.6467 0.982068,-0.9301 0.34417,-0.2833 0.990968,-0.6842 1.347004,-0.8499 0.356038,-0.1658 0.450701,-0.2125 0.833582,-0.352 z"
       style="fill:#4b80f3;fill-opacity:1;fill-rule:evenodd;stroke:none;stroke-width:1px;stroke-linecap:butt;stroke-linejoin:miter;stroke-opacity:1" />
  </g>
</svg>
