<?xml version="1.0" encoding="UTF-8" standalone="no"?>
<!-- Created with Inkscape (http://www.inkscape.org/) -->

<svg
   xmlns:dc="http://purl.org/dc/elements/1.1/"
   xmlns:cc="http://creativecommons.org/ns#"
   xmlns:rdf="http://www.w3.org/1999/02/22-rdf-syntax-ns#"
   xmlns:svg="http://www.w3.org/2000/svg"
   xmlns="http://www.w3.org/2000/svg"
   xmlns:sodipodi="http://sodipodi.sourceforge.net/DTD/sodipodi-0.dtd"
   xmlns:inkscape="http://www.inkscape.org/namespaces/inkscape"
   width="64"
   height="64"
   id="svg2"
   version="1.1"
   inkscape:version="0.91 r13725"
   sodipodi:docname="eclipse.svg">
  <defs
     id="defs4" />
  <sodipodi:namedview
     id="base"
     pagecolor="#ffffff"
     bordercolor="#666666"
     borderopacity="1.0"
     inkscape:pageopacity="0.0"
     inkscape:pageshadow="2"
     inkscape:zoom="28.248143"
     inkscape:cx="54.806329"
     inkscape:cy="13.992596"
     inkscape:document-units="px"
     inkscape:current-layer="layer1"
     showgrid="true"
     inkscape:object-paths="true"
     inkscape:snap-object-midpoints="true"
     inkscape:snap-center="true"
     inkscape:snap-bbox="true"
     inkscape:bbox-paths="true"
     inkscape:bbox-nodes="true"
     inkscape:snap-bbox-edge-midpoints="true"
     inkscape:snap-bbox-midpoints="true"
     inkscape:snap-intersection-paths="true"
     inkscape:object-nodes="true"
     inkscape:snap-smooth-nodes="true"
     inkscape:snap-midpoints="true"
     inkscape:snap-page="true"
     inkscape:window-width="697"
     inkscape:window-height="714"
     inkscape:window-x="154"
     inkscape:window-y="27"
     inkscape:window-maximized="0">
    <inkscape:grid
       empspacing="2"
       visible="true"
       enabled="true"
       snapvisiblegridlinesonly="true"
       type="xygrid"
       id="grid2987" />
  </sodipodi:namedview>
  <metadata
     id="metadata7">
    <rdf:RDF>
      <cc:Work
         rdf:about="">
        <dc:format>image/svg+xml</dc:format>
        <dc:type
           rdf:resource="http://purl.org/dc/dcmitype/StillImage" />
        <dc:title />
      </cc:Work>
    </rdf:RDF>
  </metadata>
  <g
     inkscape:label="Layer 1"
     inkscape:groupmode="layer"
     id="layer1"
     transform="translate(0,-988.36218)">
    <rect
       style="fill:#e29251;fill-opacity:1;stroke:none"
       id="rect4990"
       width="64"
       height="64"
       x="0"
       y="0"
       ry="4"
       transform="translate(0,988.36218)" />
    <path
       style="fill:#fae4af;fill-opacity:1;fill-rule:evenodd;stroke:none;stroke-width:1px;stroke-linecap:butt;stroke-linejoin:miter;stroke-opacity:1"
       d="m 10,1001.3622 c 0,0 0,-3.00002 3,-3.00002 l 38,0 c 0,0 3,0 3,3.00002 l 0,38 c 0,0 0,3 -3,3 l -38,0 c 0,0 -3,0 -3,-3 z"
       id="path3340"
       inkscape:connector-curvature="0"
       sodipodi:nodetypes="cscscscsc" />
    <path
       style="fill:#e29251;fill-rule:evenodd;stroke:none;stroke-width:1px;stroke-linecap:butt;stroke-linejoin:miter;stroke-opacity:1;fill-opacity:1"
       d="m 14,1036.3622 c 0,0 -1,0 -1,1 0,1 1,1 1,1 l 36,0 c 0,0 1,0 1,-1 0,-1 -1,-1 -1,-1 z"
       id="path3346"
       inkscape:connector-curvature="0" />
    <path
       style="fill:#e29251;fill-rule:evenodd;stroke:none;stroke-width:1px;stroke-linecap:butt;stroke-linejoin:miter;stroke-opacity:1;fill-opacity:1"
       d="m 18,1028.3622 c 0,0 -1,0 -1,1 0,1 0,4 0,4 0,0 0,1 1,1 1,0 4,0 4,0 0,0 1,0 1,-1 0,-1 0,-4 0,-4 0,0 0,-1 -1,-1 -1,0 -4,0 -4,0 z"
       id="path3354"
       inkscape:connector-curvature="0" />
    <path
       style="fill:#e29251;fill-rule:evenodd;stroke:none;stroke-width:1px;stroke-linecap:butt;stroke-linejoin:miter;stroke-opacity:1;fill-opacity:1"
       d="m 14,1024.3622 c 0,0 -1,0 -1,1 0,1 1,1 1,1 l 36,0 c 0,0 1,0 1,-1 0,-1 -1,-1 -1,-1 z"
       id="path3346-9"
       inkscape:connector-curvature="0" />
    <path
       style="fill:#e29251;fill-rule:evenodd;stroke:none;stroke-width:1px;stroke-linecap:butt;stroke-linejoin:miter;stroke-opacity:1;fill-opacity:1"
       d="m 26,1028.3622 c 0,0 -1,0 -1,1 0,1 0,4 0,4 0,0 0,1 1,1 1,0 4,0 4,0 0,0 1,0 1,-1 0,-1 0,-4 0,-4 0,0 0,-1 -1,-1 -1,0 -4,0 -4,0 z"
       id="path3354-1"
       inkscape:connector-curvature="0" />
    <path
       style="fill:#e29251;fill-rule:evenodd;stroke:none;stroke-width:1px;stroke-linecap:butt;stroke-linejoin:miter;stroke-opacity:1;fill-opacity:1"
       d="m 34,1028.3622 c 0,0 -1,0 -1,1 0,1 0,4 0,4 0,0 0,1 1,1 1,0 4,0 4,0 0,0 1,0 1,-1 0,-1 0,-4 0,-4 0,0 0,-1 -1,-1 -1,0 -4,0 -4,0 z"
       id="path3354-5"
       inkscape:connector-curvature="0" />
    <path
       style="fill:#e29251;fill-rule:evenodd;stroke:none;stroke-width:1px;stroke-linecap:butt;stroke-linejoin:miter;stroke-opacity:1;fill-opacity:1"
       d="m 42,1028.3622 c 0,0 -1,0 -1,1 0,1 0,4 0,4 0,0 0,1 1,1 1,0 4,0 4,0 0,0 1,0 1,-1 0,-1 0,-4 0,-4 0,0 0,-1 -1,-1 -1,0 -4,0 -4,0 z"
       id="path3354-7"
       inkscape:connector-curvature="0" />
    <path
       style="fill:#e29251;fill-rule:evenodd;stroke:none;stroke-width:1px;stroke-linecap:butt;stroke-linejoin:miter;stroke-opacity:1;fill-opacity:1"
       d="m 18,1016.3622 c 0,0 -1,0 -1,1 0,1 0,4 0,4 0,0 0,1 1,1 1,0 4,0 4,0 0,0 1,0 1,-1 0,-1 0,-4 0,-4 0,0 0,-1 -1,-1 -1,0 -4,0 -4,0 z"
       id="path3354-4"
       inkscape:connector-curvature="0" />
    <path
       style="fill:#e29251;fill-rule:evenodd;stroke:none;stroke-width:1px;stroke-linecap:butt;stroke-linejoin:miter;stroke-opacity:1;fill-opacity:1"
       d="m 26,1016.3622 c 0,0 -1,0 -1,1 0,1 0,4 0,4 0,0 0,1 1,1 1,0 4,0 4,0 0,0 1,0 1,-1 0,-1 0,-4 0,-4 0,0 0,-1 -1,-1 -1,0 -4,0 -4,0 z"
       id="path3354-1-9"
       inkscape:connector-curvature="0" />
    <path
       style="fill:#e29251;fill-rule:evenodd;stroke:none;stroke-width:1px;stroke-linecap:butt;stroke-linejoin:miter;stroke-opacity:1;fill-opacity:1"
       d="m 34,1016.3622 c 0,0 -1,0 -1,1 0,1 0,4 0,4 0,0 0,1 1,1 1,0 4,0 4,0 0,0 1,0 1,-1 0,-1 0,-4 0,-4 0,0 0,-1 -1,-1 -1,0 -4,0 -4,0 z"
       id="path3354-5-8"
       inkscape:connector-curvature="0" />
    <path
       style="fill:#e29251;fill-rule:evenodd;stroke:none;stroke-width:1px;stroke-linecap:butt;stroke-linejoin:miter;stroke-opacity:1;fill-opacity:1"
       d="m 42,1016.3622 c 0,0 -1,0 -1,1 0,1 0,4 0,4 0,0 0,1 1,1 1,0 4,0 4,0 0,0 1,0 1,-1 0,-1 0,-4 0,-4 0,0 0,-1 -1,-1 -1,0 -4,0 -4,0 z"
       id="path3354-7-1"
       inkscape:connector-curvature="0" />
    <path
       style="fill:#e29251;fill-rule:evenodd;stroke:none;stroke-width:1px;stroke-linecap:butt;stroke-linejoin:miter;stroke-opacity:1;fill-opacity:1"
       d="m 14,1012.3622 c 0,0 -1,0 -1,1 0,1 1,1 1,1 l 36,0 c 0,0 1,0 1,-1 0,-1 -1,-1 -1,-1 z"
       id="path3346-9-2"
       inkscape:connector-curvature="0" />
    <path
       style="fill:#e29251;fill-rule:evenodd;stroke:none;stroke-width:1px;stroke-linecap:butt;stroke-linejoin:miter;stroke-opacity:1;fill-opacity:1"
       d="m 18,1004.3622 c 0,0 -1,0 -1,1 0,1 0,4 0,4 0,0 0,1 1,1 1,0 4,0 4,0 0,0 1,0 1,-1 0,-1 0,-4 0,-4 0,0 0,-1 -1,-1 -1,0 -4,0 -4,0 z"
       id="path3354-4-6"
       inkscape:connector-curvature="0" />
    <path
       style="fill:#e29251;fill-rule:evenodd;stroke:none;stroke-width:1px;stroke-linecap:butt;stroke-linejoin:miter;stroke-opacity:1;fill-opacity:1"
       d="m 26,1004.3622 c 0,0 -1,0 -1,1 0,1 0,4 0,4 0,0 0,1 1,1 1,0 4,0 4,0 0,0 1,0 1,-1 0,-1 0,-4 0,-4 0,0 0,-1 -1,-1 -1,0 -4,0 -4,0 z"
       id="path3354-1-9-0"
       inkscape:connector-curvature="0" />
    <path
       style="fill:#e29251;fill-rule:evenodd;stroke:none;stroke-width:1px;stroke-linecap:butt;stroke-linejoin:miter;stroke-opacity:1;fill-opacity:1"
       d="m 34,1004.3622 c 0,0 -1,0 -1,1 0,1 0,4 0,4 0,0 0,1 1,1 1,0 4,0 4,0 0,0 1,0 1,-1 0,-1 0,-4 0,-4 0,0 0,-1 -1,-1 -1,0 -4,0 -4,0 z"
       id="path3354-5-8-2"
       inkscape:connector-curvature="0" />
    <path
       style="fill:#e29251;fill-rule:evenodd;stroke:none;stroke-width:1px;stroke-linecap:butt;stroke-linejoin:miter;stroke-opacity:1;fill-opacity:1"
       d="m 42,1004.3622 c 0,0 -1,0 -1,1 0,1 0,4 0,4 0,0 0,1 1,1 1,0 4,0 4,0 0,0 1,0 1,-1 0,-1 0,-4 0,-4 0,0 0,-1 -1,-1 -1,0 -4,0 -4,0 z"
       id="path3354-7-1-3"
       inkscape:connector-curvature="0" />
  </g>
</svg>
