<?xml version="1.0" encoding="UTF-8" standalone="no"?>
<!-- Created with Inkscape (http://www.inkscape.org/) -->

<svg
   xmlns:dc="http://purl.org/dc/elements/1.1/"
   xmlns:cc="http://creativecommons.org/ns#"
   xmlns:rdf="http://www.w3.org/1999/02/22-rdf-syntax-ns#"
   xmlns:svg="http://www.w3.org/2000/svg"
   xmlns="http://www.w3.org/2000/svg"
   xmlns:sodipodi="http://sodipodi.sourceforge.net/DTD/sodipodi-0.dtd"
   xmlns:inkscape="http://www.inkscape.org/namespaces/inkscape"
   width="64"
   height="64"
   id="svg2"
   version="1.1"
   inkscape:version="0.91 r13725"
   sodipodi:docname="efax-gtk.svg">
  <defs
     id="defs4" />
  <sodipodi:namedview
     id="base"
     pagecolor="#ffffff"
     bordercolor="#666666"
     borderopacity="1.0"
     inkscape:pageopacity="0.0"
     inkscape:pageshadow="2"
     inkscape:zoom="6.2952552"
     inkscape:cx="23.981831"
     inkscape:cy="51.544649"
     inkscape:document-units="px"
     inkscape:current-layer="layer1"
     showgrid="true"
     inkscape:object-paths="true"
     inkscape:snap-object-midpoints="true"
     inkscape:snap-center="true"
     inkscape:snap-bbox="true"
     inkscape:bbox-paths="true"
     inkscape:bbox-nodes="true"
     inkscape:snap-bbox-edge-midpoints="true"
     inkscape:snap-bbox-midpoints="true"
     inkscape:snap-intersection-paths="true"
     inkscape:object-nodes="true"
     inkscape:snap-smooth-nodes="true"
     inkscape:snap-midpoints="true"
     inkscape:snap-page="true"
     inkscape:window-width="696"
     inkscape:window-height="651"
     inkscape:window-x="622"
     inkscape:window-y="27"
     inkscape:window-maximized="0">
    <inkscape:grid
       empspacing="2"
       visible="true"
       enabled="true"
       snapvisiblegridlinesonly="true"
       type="xygrid"
       id="grid2987" />
  </sodipodi:namedview>
  <metadata
     id="metadata7">
    <rdf:RDF>
      <cc:Work
         rdf:about="">
        <dc:format>image/svg+xml</dc:format>
        <dc:type
           rdf:resource="http://purl.org/dc/dcmitype/StillImage" />
        <dc:title />
      </cc:Work>
    </rdf:RDF>
  </metadata>
  <g
     inkscape:label="Layer 1"
     inkscape:groupmode="layer"
     id="layer1"
     transform="translate(0,-988.36218)">
    <rect
       style="fill:#475071;fill-opacity:1;stroke:none"
       id="rect4990"
       width="64"
       height="64"
       x="0"
       y="0"
       ry="4"
       transform="translate(0,988.36218)" />
    <path
       style="fill:#b7c4c8;fill-rule:evenodd;stroke:none;stroke-width:1px;stroke-linecap:butt;stroke-linejoin:miter;stroke-opacity:1;fill-opacity:1"
       d="m 10,1010.3622 c 0,0 0,-2 2,-2 2,0 40,0 40,0 0,0 2,0 2,2 0,2 0,20 0,20 0,0 0,2 -2,2 -2,0 -40,0 -40,0 0,0 -2,0 -2,-2 0,-2 0,-20 0,-20 z"
       id="path3344"
       inkscape:connector-curvature="0" />
    <path
       style="fill:#334751;fill-rule:evenodd;stroke:none;stroke-width:1px;stroke-linecap:butt;stroke-linejoin:miter;stroke-opacity:1;fill-opacity:1"
       d="m 18,1008.3622 0,4 c 0,0 0,2 2,2 l 24,0 c 0,0 2,0 2,-2 l 0,-4 z"
       id="path3346"
       inkscape:connector-curvature="0"
       sodipodi:nodetypes="ccscscc" />
    <path
       style="fill:#334751;fill-rule:evenodd;stroke:none;stroke-width:1px;stroke-linecap:butt;stroke-linejoin:miter;stroke-opacity:1;fill-opacity:1"
       d="m 18,1031.3622 0,-3 c 0,0 0,-2 2,-2 2,0 24,0 24,0 0,0 2,0 2,2 0,2 0,4 0,4 l -28,0 z"
       id="path3348"
       inkscape:connector-curvature="0" />
    <path
       style="fill:#f4e3d7;fill-opacity:1;fill-rule:evenodd;stroke:none;stroke-width:1px;stroke-linecap:butt;stroke-linejoin:miter;stroke-opacity:1"
       d="m 21,1011.4872 0,-11.375 c 0,0 0,-1.75002 2,-1.75002 2,0 18,0 18,0 0,0 2,0 2,1.75002 0,1.75 0,12.25 0,12.25 l -22,0 z"
       id="path3350"
       inkscape:connector-curvature="0" />
    <path
       style="fill:#f4e3d7;fill-opacity:1;fill-rule:evenodd;stroke:none;stroke-width:1px;stroke-linecap:butt;stroke-linejoin:miter;stroke-opacity:1"
       d="m 21,1029.2372 0,11.375 c 0,0 0,1.75 2,1.75 2,0 18,0 18,0 0,0 2,0 2,-1.75 0,-1.75 0,-12.25 0,-12.25 l -22,0 z"
       id="path3350-5"
       inkscape:connector-curvature="0" />
    <path
       style="fill:#ac9d93;fill-rule:evenodd;stroke:none;stroke-width:1px;stroke-linecap:butt;stroke-linejoin:miter;stroke-opacity:1;fill-opacity:1"
       d="m 23,1032.3622 0,-1 c 0,0 0,-1 1,-1 1,0 16,0 16,0 0,0 1,0 1,1 0,1 0,2 -1,2 -1,0 -16,0 -16,0 0,0 -1,0 -1,-1 z"
       id="path3367"
       inkscape:connector-curvature="0" />
    <path
       style="fill:#6f918a;fill-rule:evenodd;stroke:none;stroke-width:1px;stroke-linecap:butt;stroke-linejoin:miter;stroke-opacity:1;fill-opacity:1"
       d="m 10,1020.3622 44,0 0,10 c 0,0 0,2 -2,2 -2,0 -6,0 -6,0 l 0,-4 c 0,0 0,-2 -2,-2 -2,0 -24,0 -24,0 0,0 -2,0 -2,2 0,2 0,4 0,4 l -6,0 c 0,0 -2,0 -2,-2 0,-2 0,-10 0,-10 z"
       id="path4169"
       inkscape:connector-curvature="0" />
    <path
       style="fill:#ac9d93;fill-opacity:1;fill-rule:evenodd;stroke:none;stroke-width:1px;stroke-linecap:butt;stroke-linejoin:miter;stroke-opacity:1"
       d="m 23,1038.3622 0,-1 c 0,0 0,-1 1,-1 1,0 16,0 16,0 0,0 1,0 1,1 0,1 0,2 -1,2 -1,0 -16,0 -16,0 0,0 -1,0 -1,-1 z"
       id="path3367-8"
       inkscape:connector-curvature="0" />
    <path
       style="fill:#ac9d93;fill-rule:evenodd;stroke:none;stroke-width:1px;stroke-linecap:butt;stroke-linejoin:miter;stroke-opacity:1;fill-opacity:1"
       d="m 24,1002.3622 c 0,0 0,-2 2,-2 2,0 12,0 12,0 0,0 2,0 2,2 0,2 0,4 0,4 l 0,2 c 0,0 0,2 -2,2 -2,0 -12,0 -12,0 0,0 -2,0 -2,-2 0,-2 0,-6 0,-6 z"
       id="path3345"
       inkscape:connector-curvature="0" />
  </g>
</svg>
