<?xml version="1.0" encoding="UTF-8" standalone="no"?>
<!-- Created with Inkscape (http://www.inkscape.org/) -->

<svg
   xmlns:dc="http://purl.org/dc/elements/1.1/"
   xmlns:cc="http://creativecommons.org/ns#"
   xmlns:rdf="http://www.w3.org/1999/02/22-rdf-syntax-ns#"
   xmlns:svg="http://www.w3.org/2000/svg"
   xmlns="http://www.w3.org/2000/svg"
   xmlns:sodipodi="http://sodipodi.sourceforge.net/DTD/sodipodi-0.dtd"
   xmlns:inkscape="http://www.inkscape.org/namespaces/inkscape"
   width="64"
   height="64"
   id="svg2"
   version="1.1"
   inkscape:version="0.91 r13725"
   sodipodi:docname="ejecter.svg">
  <defs
     id="defs4" />
  <sodipodi:namedview
     id="base"
     pagecolor="#ffffff"
     bordercolor="#666666"
     borderopacity="1.0"
     inkscape:pageopacity="0.0"
     inkscape:pageshadow="2"
     inkscape:zoom="30.118577"
     inkscape:cx="-3.5778219"
     inkscape:cy="27.900385"
     inkscape:document-units="px"
     inkscape:current-layer="layer1"
     showgrid="true"
     inkscape:object-paths="true"
     inkscape:snap-object-midpoints="true"
     inkscape:snap-center="true"
     inkscape:snap-bbox="true"
     inkscape:bbox-paths="true"
     inkscape:bbox-nodes="true"
     inkscape:snap-bbox-edge-midpoints="true"
     inkscape:snap-bbox-midpoints="true"
     inkscape:snap-intersection-paths="true"
     inkscape:object-nodes="true"
     inkscape:snap-smooth-nodes="true"
     inkscape:snap-midpoints="true"
     inkscape:snap-page="true"
     inkscape:window-width="696"
     inkscape:window-height="651"
     inkscape:window-x="529"
     inkscape:window-y="90"
     inkscape:window-maximized="0"
     inkscape:snap-global="true">
    <inkscape:grid
       empspacing="2"
       visible="true"
       enabled="true"
       snapvisiblegridlinesonly="true"
       type="xygrid"
       id="grid2987" />
  </sodipodi:namedview>
  <metadata
     id="metadata7">
    <rdf:RDF>
      <cc:Work
         rdf:about="">
        <dc:format>image/svg+xml</dc:format>
        <dc:type
           rdf:resource="http://purl.org/dc/dcmitype/StillImage" />
        <dc:title />
      </cc:Work>
    </rdf:RDF>
  </metadata>
  <g
     inkscape:label="Layer 1"
     inkscape:groupmode="layer"
     id="layer1"
     transform="translate(0,-988.36218)">
    <rect
       style="fill:#384850;fill-opacity:1;stroke:none"
       id="rect4990"
       width="64"
       height="64"
       x="0.13434848"
       y="987.724"
       ry="4" />
    <path
       style="fill:#e4e2e4;fill-opacity:1;fill-rule:evenodd;stroke:none;stroke-width:1px;stroke-linecap:butt;stroke-linejoin:miter;stroke-opacity:1"
       d="m 29.730023,1000.9616 c 0,0 2.112545,-3.55906 4.540254,-0.059 2.319205,3.3434 18.436898,26.4438 18.436898,26.4438 0,0 1.071886,1.7631 -0.885899,1.7631 l -39.481165,0 c 0,0 -2.4732101,-0.062 -0.699911,-2.4747 1.747887,-2.3783 18.089823,-25.6729 18.089823,-25.6729 z"
       id="path4156"
       inkscape:connector-curvature="0"
       sodipodi:nodetypes="cscscscc" />
    <path
       style="fill:#e4e2e4;fill-opacity:1;fill-rule:evenodd;stroke:none;stroke-width:1px;stroke-linecap:butt;stroke-linejoin:miter;stroke-opacity:1"
       d="m 11.045454,1034.1095 c 0,0 0,-1 0.954546,-1 0.954544,0 40.090908,0 40.090908,0 0,0 0.954546,0 0.954546,1 0,1 0,4 0,4 0,0 0,1 -0.954546,1 -0.954544,0 -40.090908,0 -40.090908,0 0,0 -0.954546,0 -0.954546,-1 0,-1 0,-4 0,-4 l 0,0 z"
       id="path4160"
       inkscape:connector-curvature="0" />
  </g>
</svg>
