<?xml version="1.0" encoding="UTF-8" standalone="no"?>
<!-- Created with Inkscape (http://www.inkscape.org/) -->

<svg
   xmlns:dc="http://purl.org/dc/elements/1.1/"
   xmlns:cc="http://creativecommons.org/ns#"
   xmlns:rdf="http://www.w3.org/1999/02/22-rdf-syntax-ns#"
   xmlns:svg="http://www.w3.org/2000/svg"
   xmlns="http://www.w3.org/2000/svg"
   xmlns:sodipodi="http://sodipodi.sourceforge.net/DTD/sodipodi-0.dtd"
   xmlns:inkscape="http://www.inkscape.org/namespaces/inkscape"
   width="64"
   height="64"
   id="svg2"
   version="1.1"
   inkscape:version="0.91 r13725"
   sodipodi:docname="ekiga.svg">
  <defs
     id="defs4" />
  <sodipodi:namedview
     id="base"
     pagecolor="#ffffff"
     bordercolor="#666666"
     borderopacity="1.0"
     inkscape:pageopacity="0.0"
     inkscape:pageshadow="2"
     inkscape:zoom="13.467156"
     inkscape:cx="10.094749"
     inkscape:cy="38.750907"
     inkscape:document-units="px"
     inkscape:current-layer="layer1"
     showgrid="true"
     inkscape:object-paths="true"
     inkscape:snap-object-midpoints="true"
     inkscape:snap-center="true"
     inkscape:snap-bbox="true"
     inkscape:bbox-paths="true"
     inkscape:bbox-nodes="true"
     inkscape:snap-bbox-edge-midpoints="true"
     inkscape:snap-bbox-midpoints="true"
     inkscape:snap-intersection-paths="true"
     inkscape:object-nodes="true"
     inkscape:snap-smooth-nodes="true"
     inkscape:snap-midpoints="true"
     inkscape:snap-page="true"
     inkscape:window-width="1364"
     inkscape:window-height="714"
     inkscape:window-x="0"
     inkscape:window-y="27"
     inkscape:window-maximized="1">
    <inkscape:grid
       empspacing="2"
       visible="true"
       enabled="true"
       snapvisiblegridlinesonly="true"
       type="xygrid"
       id="grid2987" />
  </sodipodi:namedview>
  <metadata
     id="metadata7">
    <rdf:RDF>
      <cc:Work
         rdf:about="">
        <dc:format>image/svg+xml</dc:format>
        <dc:type
           rdf:resource="http://purl.org/dc/dcmitype/StillImage" />
        <dc:title />
      </cc:Work>
    </rdf:RDF>
  </metadata>
  <g
     inkscape:label="Layer 1"
     inkscape:groupmode="layer"
     id="layer1"
     transform="translate(0,-988.36218)">
    <rect
       style="fill:#e46815;fill-opacity:1;stroke:none"
       id="rect4990"
       width="64"
       height="64"
       x="0"
       y="0"
       transform="translate(0,988.36218)"
       ry="4" />
    <path
       style="fill:#f1f4b5;fill-opacity:1;stroke:none"
       d="m 53.679036,1031.4798 c 0,0 0.722169,0.7781 0,1.9765 -2.97758,4.9413 -4.962652,7.9059 -4.962652,7.9059 0,0 -7.940309,10e-5 -21.835801,-13.8353 C 10.999998,1011.7149 11,1003.809 11,1003.809 l 8.932828,-4.94137 c 0,0 1.169208,-1.13727 1.985072,0 l 4.962683,6.91787 c 0,0 0.992542,0.9882 0,1.9765 -2.977627,2.9647 -2.97761,2.9647 -2.97761,2.9647 0,0 -0.992536,0.9882 0,1.9765 l 15.880583,15.8119 5.955218,-10e-5 -5.955218,10e-5 c 0,0 0.992536,0.9882 1.985073,0 4.963029,-4.9409 1.544255,-1.5377 1.985072,-1.9766 l 0.992537,-0.9882 c 0,0 0.919324,-0.9096 1.985073,0 6.947755,5.9294 6.947725,5.9295 6.947725,5.9295 z"
       id="path2997"
       inkscape:connector-curvature="0"
       sodipodi:nodetypes="cscsccscscscscsscsc" />
  </g>
</svg>
