<?xml version="1.0" encoding="UTF-8" standalone="no"?>
<!-- Created with Inkscape (http://www.inkscape.org/) -->

<svg
   xmlns:dc="http://purl.org/dc/elements/1.1/"
   xmlns:cc="http://creativecommons.org/ns#"
   xmlns:rdf="http://www.w3.org/1999/02/22-rdf-syntax-ns#"
   xmlns:svg="http://www.w3.org/2000/svg"
   xmlns="http://www.w3.org/2000/svg"
   xmlns:sodipodi="http://sodipodi.sourceforge.net/DTD/sodipodi-0.dtd"
   xmlns:inkscape="http://www.inkscape.org/namespaces/inkscape"
   width="64"
   height="64"
   id="svg2"
   version="1.1"
   inkscape:version="0.91 r13725"
   sodipodi:docname="emacs.svg">
  <defs
     id="defs4">
    <clipPath
       id="clipPath-610661211">
      <g
         transform="translate(0,-1004.3622)"
         id="g17">
        <path
           style="fill:#1890d0"
           inkscape:connector-curvature="0"
           d="m -24,13 c 0,1.105 -0.672,2 -1.5,2 -0.828,0 -1.5,-0.895 -1.5,-2 0,-1.105 0.672,-2 1.5,-2 0.828,0 1.5,0.895 1.5,2 z"
           transform="matrix(15.333333,0,0,11.5,414.99999,878.8622)"
           id="path19" />
      </g>
    </clipPath>
  </defs>
  <sodipodi:namedview
     id="base"
     pagecolor="#ffffff"
     bordercolor="#666666"
     borderopacity="1.0"
     inkscape:pageopacity="0.0"
     inkscape:pageshadow="2"
     inkscape:zoom="7.1380366"
     inkscape:cx="18.111626"
     inkscape:cy="47.850669"
     inkscape:document-units="px"
     inkscape:current-layer="layer1"
     showgrid="true"
     inkscape:object-paths="true"
     inkscape:snap-object-midpoints="true"
     inkscape:snap-center="true"
     inkscape:snap-bbox="true"
     inkscape:bbox-paths="true"
     inkscape:bbox-nodes="true"
     inkscape:snap-bbox-edge-midpoints="true"
     inkscape:snap-bbox-midpoints="true"
     inkscape:snap-intersection-paths="true"
     inkscape:object-nodes="true"
     inkscape:snap-smooth-nodes="true"
     inkscape:snap-midpoints="true"
     inkscape:snap-page="true"
     inkscape:window-width="696"
     inkscape:window-height="651"
     inkscape:window-x="668"
     inkscape:window-y="73"
     inkscape:window-maximized="0"
     inkscape:snap-global="false">
    <inkscape:grid
       empspacing="2"
       visible="true"
       enabled="true"
       snapvisiblegridlinesonly="true"
       type="xygrid"
       id="grid2987" />
  </sodipodi:namedview>
  <metadata
     id="metadata7">
    <rdf:RDF>
      <cc:Work
         rdf:about="">
        <dc:format>image/svg+xml</dc:format>
        <dc:type
           rdf:resource="http://purl.org/dc/dcmitype/StillImage" />
        <dc:title />
      </cc:Work>
    </rdf:RDF>
  </metadata>
  <g
     inkscape:label="Layer 1"
     inkscape:groupmode="layer"
     id="layer1"
     transform="translate(0,-988.36218)">
    <rect
       style="fill:#7380b7;fill-opacity:1;stroke:none"
       id="rect4990"
       width="64"
       height="64"
       x="0"
       y="0"
       transform="translate(0,988.36218)"
       ry="4" />
    <path
       style="fill:#e5e8e1;fill-rule:evenodd;stroke:none;stroke-width:1px;stroke-linecap:butt;stroke-linejoin:miter;stroke-opacity:1;fill-opacity:1"
       d="m 33.746659,998.8495 c 0,0 2.292321,-0.13435 2.964063,-0.19313 0.671743,-0.0588 3.451077,-0.18472 3.451077,-0.18472 l 2.636589,-0.10916 c 0,0 2.409876,-0.042 2.854905,0.0336 0.44503,0.0756 1.477833,0.13434 2.510637,0.65494 1.032804,0.52061 1.519818,0.83968 2.351099,1.65418 0.831281,0.8145 1.293104,2.1999 1.419056,2.8297 0.125951,0.6298 0.193126,2.0236 -0.49541,3.2999 -0.688536,1.2764 -1.906069,1.6206 -2.283925,1.755 -0.377855,0.1343 -1.444246,0.3442 -2.661779,0.2099 -1.217533,-0.1344 -3.451076,-0.655 -3.711377,-0.6466 -0.2603,0.01 -2.090798,-0.3358 -2.460256,-0.3358 -0.369458,0 -1.914466,-0.2519 -3.308332,-0.2855 -1.393865,-0.034 -2.47705,-0.092 -2.913682,-0.05 -0.436633,0.042 -1.335088,-0.059 -2.502241,0.3527 -1.167152,0.4114 -1.343484,1.1083 -1.351881,1.2259 -0.0084,0.1175 -0.01679,0.2939 0.07557,0.5542 0.09236,0.2603 0.159539,0.7221 0.999217,1.5366 0.839678,0.8145 0.344268,0.5038 2.569414,2.2083 2.225147,1.7046 3.535045,2.729 3.67779,2.8549 0.142745,0.126 2.68697,2.0908 2.68697,2.0908 l 2.418272,1.8977 2.099195,1.629 c 0,0 -4.013661,0.084 -5.407526,0.1511 -1.393866,0.067 -4.114422,0.1344 -5.357146,0.2519 -1.242723,0.1176 -3.677789,0.2519 -5.390733,0.739 -1.712943,0.487 -4.114422,1.3602 -5.155623,2.603 -1.0412,1.2427 -0.99082,1.8305 -0.923645,2.0824 0.06717,0.2519 0.218316,1.0915 1.293104,1.8305 1.074788,0.7389 1.880879,1.4274 4.416706,2.4014 2.535828,0.9741 5.172417,1.7466 7.12047,2.2168 1.948053,0.4702 5.407526,1.2427 5.407526,1.2427 0,0 4.19839,1.1756 5.239591,1.629 1.0412,0.4534 2.367892,1.1419 2.770937,1.9816 0.403046,0.8397 -0.722123,1.9145 -2.367892,2.4015 -1.645769,0.487 -4.618229,0.8061 -5.609049,0.8733 -0.99082,0.067 -5.827365,0.1175 -6.868566,0.1007 -1.041201,-0.017 -5.978507,-0.3694 -7.103676,-0.5206 -1.125168,-0.1511 -5.70981,-0.7893 -7.137263,-1.1755 -1.427453,-0.3863 -1.074788,-0.3023 -1.074788,-0.3023 0,0 4.14801,0.017 5.021275,-0.017 0.873265,-0.034 3.928046,-0.107 3.928046,-0.107 0,0 3.894948,-0.095 4.643063,-0.1662 0.748114,-0.071 2.92121,-0.1663 3.633701,-0.2375 0.71249,-0.071 2.374968,-0.2375 2.671839,-0.3563 0.296871,-0.1187 0.676866,-0.19 0.237497,-0.5343 -0.43937,-0.3444 -3.158708,-0.8194 -3.158708,-0.8194 l -3.883072,-0.5819 c 0,0 -1.353732,-0.2256 -2.60059,-0.4987 -1.246858,-0.2731 -3.621826,-0.7956 -5.830546,-1.9356 -2.208721,-1.14 -5.319929,-3.0162 -6.293666,-3.6693 -0.973737,-0.6532 -2.754963,-2.1494 -3.693075,-3.515 -0.938112,-1.3656 -1.211234,-2.2681 -1.318107,-3.4199 -0.106874,-1.1519 0.629366,-2.8144 2.101847,-3.99 1.47248,-1.1756 3.906822,-1.995 5.593049,-2.4225 1.686228,-0.4275 3.550577,-0.7243 5.319929,-0.7956 1.769351,-0.071 4.04932,0.036 5.474301,0.2494 1.424981,0.2137 4.346192,0.8431 4.643063,0.9619 0.296871,0.1187 -0.0475,-0.036 -0.0475,-0.036 0,0 -3.004334,-1.7218 -3.883073,-2.4106 -0.878738,-0.6887 -2.20872,-1.7099 -3.467453,-2.7905 -1.258733,-1.0806 -2.778713,-2.5769 -3.562452,-3.705 -0.783739,-1.1281 -1.068736,-1.6506 -1.769351,-2.8856 -0.700616,-1.235 -0.676866,-2.6718 -0.02375,-3.3131 0.653116,-0.6412 2.184971,-1.8287 5.711798,-1.2349 3.526828,0.5937 5.165556,0.7481 5.165556,0.7481 l 4.429315,0.4987 c 0,0 3.859323,0.4038 4.702437,0.3919 0.843114,-0.012 2.042472,-0.012 2.458092,-0.285 0.415619,-0.2731 0.890613,-0.475 0.284996,-1.3656 -0.605617,-0.8906 -4.215568,-1.6862 -4.215568,-1.6862 0,0 -3.419954,-0.84316 -4.48869,-1.02128 -1.068735,-0.17812 -2.661601,-0.53901 -2.661601,-0.53901 z"
       id="path3362"
       inkscape:connector-curvature="0" />
  </g>
</svg>
