<?xml version="1.0" encoding="UTF-8" standalone="no"?>
<!-- Created with Inkscape (http://www.inkscape.org/) -->

<svg
   xmlns:dc="http://purl.org/dc/elements/1.1/"
   xmlns:cc="http://creativecommons.org/ns#"
   xmlns:rdf="http://www.w3.org/1999/02/22-rdf-syntax-ns#"
   xmlns:svg="http://www.w3.org/2000/svg"
   xmlns="http://www.w3.org/2000/svg"
   xmlns:sodipodi="http://sodipodi.sourceforge.net/DTD/sodipodi-0.dtd"
   xmlns:inkscape="http://www.inkscape.org/namespaces/inkscape"
   width="64"
   height="64"
   id="svg2"
   version="1.1"
   inkscape:version="0.91 r13725"
   sodipodi:docname="epdfview.svg">
  <defs
     id="defs4">
    <clipPath
       id="clipPath-875711855">
      <g
         transform="translate(0,-1004.3622)"
         id="g17">
        <path
           style="fill:#1890d0"
           inkscape:connector-curvature="0"
           d="m -24,13 c 0,1.105 -0.672,2 -1.5,2 -0.828,0 -1.5,-0.895 -1.5,-2 0,-1.105 0.672,-2 1.5,-2 0.828,0 1.5,0.895 1.5,2 z"
           transform="matrix(15.333333,0,0,11.5,414.99999,878.8622)"
           id="path19" />
      </g>
    </clipPath>
  </defs>
  <sodipodi:namedview
     id="base"
     pagecolor="#ffffff"
     bordercolor="#666666"
     borderopacity="1.0"
     inkscape:pageopacity="0.0"
     inkscape:pageshadow="2"
     inkscape:zoom="3.2822513"
     inkscape:cx="5.6141906"
     inkscape:cy="38.480264"
     inkscape:document-units="px"
     inkscape:current-layer="layer1"
     showgrid="true"
     inkscape:object-paths="true"
     inkscape:snap-object-midpoints="true"
     inkscape:snap-center="true"
     inkscape:snap-bbox="true"
     inkscape:bbox-paths="true"
     inkscape:bbox-nodes="true"
     inkscape:snap-bbox-edge-midpoints="true"
     inkscape:snap-bbox-midpoints="true"
     inkscape:snap-intersection-paths="true"
     inkscape:object-nodes="true"
     inkscape:snap-smooth-nodes="true"
     inkscape:snap-midpoints="true"
     inkscape:snap-page="true"
     inkscape:window-width="696"
     inkscape:window-height="651"
     inkscape:window-x="609"
     inkscape:window-y="78"
     inkscape:window-maximized="0"
     inkscape:snap-global="true">
    <inkscape:grid
       empspacing="2"
       visible="true"
       enabled="true"
       snapvisiblegridlinesonly="true"
       type="xygrid"
       id="grid2987" />
  </sodipodi:namedview>
  <metadata
     id="metadata7">
    <rdf:RDF>
      <cc:Work
         rdf:about="">
        <dc:format>image/svg+xml</dc:format>
        <dc:type
           rdf:resource="http://purl.org/dc/dcmitype/StillImage" />
        <dc:title />
      </cc:Work>
    </rdf:RDF>
  </metadata>
  <g
     inkscape:label="Layer 1"
     inkscape:groupmode="layer"
     id="layer1"
     transform="translate(0,-988.36218)">
    <rect
       style="fill:#e46461;fill-opacity:1;stroke:none"
       id="rect4990"
       width="64"
       height="64"
       x="0"
       y="0"
       transform="translate(0,988.36218)"
       ry="4" />
    <path
       style="fill:#f4d7d7;fill-opacity:1;fill-rule:evenodd;stroke:none;stroke-width:1px;stroke-linecap:butt;stroke-linejoin:miter;stroke-opacity:1"
       d="m 27.903859,1001.3052 c 0,0 -0.130933,-1.81428 -1.047466,-2.53626 -0.916531,-0.72209 -1.159693,-0.31475 -1.533788,-0.0551 -0.374095,0.25918 -1.159692,1.77726 -1.253217,4.09136 -0.09352,2.3142 0.149638,4.1472 0.31798,5.0913 0.168343,0.9441 0.710781,2.9438 1.122284,4.4063 0.411505,1.4625 1.421561,4.036 1.926589,5.1837 0.505028,1.1479 2.09493,3.925 2.113635,3.9989 0.0187,0.075 -1.931264,4.0407 -2.244568,4.5961 -0.313304,0.5556 -0.837038,1.6016 -1.033437,1.8885 -0.1964,0.2869 -0.458266,0.8331 -0.617256,1.0829 -0.15899,0.25 -0.64999,1.1109 -1.000703,1.6987 -0.350715,0.5878 -1.019409,1.6754 -1.019409,1.6754 l -0.617257,0.9906 c 0,0 -0.654665,1.0413 -0.808979,1.2913 -0.154314,0.25 -0.780923,1.2173 -0.780923,1.2173 0,0 -0.205752,0.3564 -0.453589,0.6711 -0.247838,0.3147 -0.659342,0.847 -0.916533,1.1155 -0.257189,0.2684 -0.247837,0.273 -0.458266,0.4951 -0.210429,0.2223 -0.668694,0.6526 -0.939912,0.8979 -0.27122,0.2454 -0.921209,0.8192 -1.337389,1.1201 -0.416181,0.3008 -0.916532,0.6851 -1.314008,0.8655 -0.397476,0.1806 -0.776246,0.3657 -0.804304,-0.032 -0.02806,-0.398 0.252514,-0.8933 0.444237,-1.2172 0.191724,-0.324 1.061495,-1.5738 1.323362,-1.9764 0.261865,-0.4026 0.626607,-1.0043 0.874445,-1.2913 0.247837,-0.2871 0.6874,-0.7868 0.893151,-0.9767 0.205752,-0.1897 0.851066,-0.7914 1.094227,-0.9811 0.243163,-0.1899 0.977323,-0.773 1.220484,-0.9396 0.243162,-0.1666 0.96797,-0.6712 1.23919,-0.847 0.271217,-0.1759 0.247837,-0.1759 0.247837,-0.1759 0,0 -0.458266,0.011 -1.150342,0.3425 -0.692074,0.3332 -1.398178,0.7962 -1.398178,0.7962 0,0 -0.439561,0.2823 -0.776247,0.5323 -0.336685,0.2498 -0.944589,0.7172 -1.342065,1.0412 -0.397475,0.3241 -0.762219,0.6434 -1.122284,0.9814 -0.360067,0.3378 -0.804304,0.7867 -1.140989,1.1663 -0.336685,0.3794 -0.533084,0.6895 -0.743513,0.9903 -0.210427,0.3009 -0.369419,0.6574 -0.490999,1.0416 -0.121581,0.3841 -0.182371,0.6941 -0.0982,1.1709 0.08417,0.4768 0.266542,0.648 0.411503,0.8563 0.144963,0.2082 0.635962,0.5138 0.991352,0.6572 0.35539,0.1436 0.724809,0.1621 1.145665,0.093 0.420857,-0.069 0.813656,-0.2824 1.295303,-0.5601 0.481646,-0.2776 1.501054,-1.222 1.501054,-1.222 0,0 0.500353,-0.4952 0.804304,-0.8237 0.303952,-0.3287 0.953943,-1.1016 1.084875,-1.2636 0.130933,-0.162 0.201076,-0.2638 0.201076,-0.2638 l 1.028764,-0.2916 1.627313,-0.4258 c 0,0 1.033436,-0.2685 1.187751,-0.3054 0.154314,-0.037 1.426235,-0.3425 1.426235,-0.3425 0,0 1.239189,-0.2732 1.454293,-0.3194 0.215105,-0.045 1.519761,-0.3147 1.772274,-0.361 0.252515,-0.046 1.692779,-0.3147 2.183778,-0.3935 0.491,-0.079 1.67875,-0.2638 2.32874,-0.3471 0.64999,-0.084 1.795654,-0.213 2.085577,-0.2267 0.289924,-0.014 1.641341,-0.1621 2.029465,-0.1575 0.388123,0 0.77157,-0.069 1.515084,-0.097 0.743513,-0.027 1.34674,-0.041 1.683424,-0.051 0.336686,-0.011 2.426941,-0.019 2.871178,0.061 0.444238,0.079 0.509704,0 1.58055,0.1759 1.070846,0.1804 1.692779,0.4305 1.907884,0.5415 0.215104,0.1111 0.509703,0.2915 0.818332,0.7544 0.308628,0.4628 0.266542,0.7405 0.266542,0.7405 0,0 0.303952,-0.2684 0.462942,-0.7636 0.15899,-0.4953 0.08885,-0.8007 -0.210429,-1.2683 -0.299275,-0.4673 -0.490999,-0.7681 -1.510407,-1.0969 -1.019408,-0.3285 -2.632691,-0.3841 -2.899233,-0.3887 -0.266543,0 -0.420857,-0.027 -1.314008,-0.037 -0.893152,-0.011 -2.473701,0.027 -3.348147,0.074 -0.874447,0.045 -2.52514,0.1069 -2.52514,0.1069 0,0 -1.501054,0.097 -2.375501,0.2036 -0.874447,0.1069 -1.136313,0.1343 -2.230539,0.3193 -1.094228,0.1851 -1.879827,0.3519 -1.879827,0.3519 l -1.865798,0.3517 c 0,0 -1.360769,0.2531 -2.1791,0.4337 -0.818334,0.1804 -1.538466,0.3703 -1.98738,0.4998 -0.448912,0.1296 -1.435587,0.4536 -1.907882,0.6387 -0.472295,0.1851 -0.84639,0.3379 -0.996027,0.4074 -0.149639,0.069 -0.126257,0.06 -0.126257,0.06 0,0 0.823009,-1.1248 1.155018,-1.6199 0.332007,-0.4951 1.136311,-1.731 1.314006,-1.9948 0.177696,-0.2639 1.024086,-1.6662 1.024086,-1.6662 l 1.098902,-1.8468 c 0,0 1.674074,-2.8742 1.987379,-3.6008 0.313304,-0.7267 0.420856,-0.773 0.879122,-1.7496 0.458266,-0.9766 0.701428,-1.5182 0.701428,-1.5182 l 0.710779,0.7544 c 0,0 0.533086,0.5324 1.070846,0.9767 0.537761,0.4443 1.253218,1.0275 1.926588,1.4626 0.673371,0.435 1.416884,0.9349 1.748893,1.1062 0.33201,0.1713 1.332712,0.7406 1.823712,0.9858 0.490999,0.2453 2.430863,1.2829 4.732229,1.9375 2.301367,0.6546 4.205946,0.8379 5.343402,0.576 1.137459,-0.2617 1.83461,-0.7917 2.059066,-1.1619 0.224457,-0.3704 -0.05612,0.2405 -0.743514,0.2961 -0.687399,0.055 -1.608606,0.055 -2.356796,-0.075 -0.74819,-0.1295 -2.207159,-0.5368 -2.403559,-0.6063 -0.196399,-0.069 -1.758244,-0.5971 -2.202483,-0.7868 -0.444237,-0.1897 -1.524435,-0.6155 -1.945291,-0.8378 -0.420857,-0.222 -1.000703,-0.4488 -1.87515,-0.9257 -0.874446,-0.4766 -1.646016,-0.9302 -2.501759,-1.4857 -0.855741,-0.5554 -1.786302,-1.2912 -2.085578,-1.5226 -0.299276,-0.2316 -1.12696,-0.9349 -1.978026,-1.8005 -0.851065,-0.8656 -0.570493,-0.6388 -0.570493,-0.6388 0,0 0.897827,-2.2494 1.061492,-2.7724 0.163668,-0.5229 0.640639,-1.8606 0.748191,-2.2725 0.107549,-0.412 0.346037,-1.1432 0.346037,-1.1432 0,0 0.303952,-1.1154 0.434886,-1.6247 0.130933,-0.509 0.458265,-1.8744 0.593874,-2.6797 0.13561,-0.8055 0.350713,-1.8236 0.495677,-2.916 0.144961,-1.0921 0.243161,-2.2863 0.285246,-2.9946 0.04209,-0.7081 0.06547,-2.203 0.05144,-2.5919 -0.01403,-0.3887 -0.05612,-0.958 -0.05612,-0.958 0,0 -0.313304,1.4579 -0.448913,1.9902 -0.135611,0.5323 -0.420858,1.8605 -0.51438,2.1753 -0.09353,0.3148 -0.393831,1.7415 -0.578999,2.3501 -0.185167,0.6089 -0.548889,2.1208 -0.740669,2.7951 -0.19178,0.6741 -0.905998,3.2988 -1.183749,4.1563 -0.277751,0.8575 -0.773735,2.6182 -1.071326,3.3056 -0.297591,0.6874 -0.581954,1.656 -0.621634,1.6757 -0.03967,0.02 -0.01984,-0.011 -0.01984,-0.011 0,0 -1.249881,-1.9375 -1.593762,-2.6902 -0.343883,-0.7528 -0.826642,-1.6888 -1.243267,-2.9913 -0.416628,-1.3027 -0.806801,-2.736 -0.939064,-3.4168 -0.132262,-0.6807 -0.310817,-1.4729 -0.4034,-2.1537 -0.09258,-0.6805 -0.363722,-2.5592 -0.449693,-3.6457 -0.08597,-1.0866 -0.244685,-2.8997 -0.23146,-3.142 0.01322,-0.242 -0.0992,-1.4531 0.403401,-2.20575 0.502597,-0.75275 1.845488,0.48985 2.08004,1.76675 z"
       id="path4170"
       inkscape:connector-curvature="0" />
  </g>
</svg>
