<?xml version="1.0" encoding="UTF-8" standalone="no"?>
<!-- Created with Inkscape (http://www.inkscape.org/) -->

<svg
   xmlns:dc="http://purl.org/dc/elements/1.1/"
   xmlns:cc="http://creativecommons.org/ns#"
   xmlns:rdf="http://www.w3.org/1999/02/22-rdf-syntax-ns#"
   xmlns:svg="http://www.w3.org/2000/svg"
   xmlns="http://www.w3.org/2000/svg"
   xmlns:sodipodi="http://sodipodi.sourceforge.net/DTD/sodipodi-0.dtd"
   xmlns:inkscape="http://www.inkscape.org/namespaces/inkscape"
   width="64"
   height="64"
   id="svg2"
   version="1.1"
   inkscape:version="0.91 r13725"
   sodipodi:docname="ezame.svg">
  <defs
     id="defs4" />
  <sodipodi:namedview
     id="base"
     pagecolor="#ffffff"
     bordercolor="#666666"
     borderopacity="1.0"
     inkscape:pageopacity="0.0"
     inkscape:pageshadow="2"
     inkscape:zoom="8.187502"
     inkscape:cx="22.991496"
     inkscape:cy="35.606127"
     inkscape:document-units="px"
     inkscape:current-layer="layer1"
     showgrid="true"
     inkscape:object-paths="true"
     inkscape:snap-object-midpoints="true"
     inkscape:snap-center="true"
     inkscape:snap-bbox="true"
     inkscape:bbox-paths="true"
     inkscape:bbox-nodes="true"
     inkscape:snap-bbox-edge-midpoints="true"
     inkscape:snap-bbox-midpoints="true"
     inkscape:snap-intersection-paths="true"
     inkscape:object-nodes="true"
     inkscape:snap-smooth-nodes="true"
     inkscape:snap-midpoints="true"
     inkscape:snap-page="true"
     inkscape:window-width="696"
     inkscape:window-height="651"
     inkscape:window-x="627"
     inkscape:window-y="78"
     inkscape:window-maximized="0"
     showguides="false">
    <inkscape:grid
       empspacing="2"
       visible="true"
       enabled="true"
       snapvisiblegridlinesonly="true"
       type="xygrid"
       id="grid2987" />
  </sodipodi:namedview>
  <metadata
     id="metadata7">
    <rdf:RDF>
      <cc:Work
         rdf:about="">
        <dc:format>image/svg+xml</dc:format>
        <dc:type
           rdf:resource="http://purl.org/dc/dcmitype/StillImage" />
        <dc:title></dc:title>
      </cc:Work>
    </rdf:RDF>
  </metadata>
  <g
     inkscape:label="Layer 1"
     inkscape:groupmode="layer"
     id="layer1"
     transform="translate(0,-988.36218)">
    <rect
       style="fill:#707773;fill-opacity:1;stroke:none"
       id="rect4990"
       width="64"
       height="64"
       x="0"
       y="0"
       transform="translate(0,988.36218)"
       ry="4" />
    <path
       style="fill:#f4e3d7;fill-rule:evenodd;stroke:none;stroke-width:1px;stroke-linecap:butt;stroke-linejoin:miter;stroke-opacity:1"
       d="m 10,1000.3622 c 0,0 0,-2.00002 2,-2.00002 l 40,0 c 0,0 2,0 2,2.00002 l 0,40 c 0,0 0,2 -2,2 l -40,0 c 0,0 -2,0 -2,-2 z"
       id="path3340"
       inkscape:connector-curvature="0"
       sodipodi:nodetypes="cscscscsc" />
    <path
       style="fill:#707773;fill-opacity:1;fill-rule:evenodd;stroke:none;stroke-width:1px;stroke-linecap:butt;stroke-linejoin:miter;stroke-opacity:1"
       d="m 41,1002.3622 c 0,0 -4,1 -4,6 0,5 4,6 4,6 l 8,0 c 0,0 4,-0.6148 4,-6 0,-3 -1,-5 -4,-6 0,0 0,4 0,6 0,2 -2,2 -2,2 0,0 -2,0 -4,0 -2,0 -2,-2 -2,-2 z"
       id="path4239"
       inkscape:connector-curvature="0"
       sodipodi:nodetypes="csccsc" />
    <path
       style="fill:#707773;fill-opacity:1;fill-rule:evenodd;stroke:none;stroke-width:1px;stroke-linecap:butt;stroke-linejoin:miter;stroke-opacity:1"
       d="m 42,1013.8622 0,23 c 0,0 0,2 2,2 2,0 2,0 2,0 0,0 2,0 2,-2 0,-2 0,-23 0,-23 l -6,0 z"
       id="path4243"
       inkscape:connector-curvature="0" />
    <path
       style="fill:#707773;fill-rule:evenodd;stroke:none;stroke-width:1px;stroke-linecap:butt;stroke-linejoin:miter;stroke-opacity:1;fill-opacity:1"
       d="m 12,1004.3622 c 0,0 0,-2 2,-2 2,0 19,0 19,0 l 1,0 c 0,0 2,0 2,2 0,2 0,2 0,2 0,0 0,2 -2,2 -2,0 -20,0 -20,0 0,0 -2,0 -2,-2 0,-2 0,-2 0,-2 z"
       id="path4150"
       inkscape:connector-curvature="0" />
    <path
       style="fill:#707773;fill-opacity:1;fill-rule:evenodd;stroke:none;stroke-width:1px;stroke-linecap:butt;stroke-linejoin:miter;stroke-opacity:1"
       d="m 12,1014.3622 c 0,0 0,-2 2,-2 2,0 19,0 19,0 l 1,0 c 0,0 2,0 2,2 0,2 0,2 0,2 0,0 0,2 -2,2 -2,0 -20,0 -20,0 0,0 -2,0 -2,-2 0,-2 0,-2 0,-2 z"
       id="path4150-5"
       inkscape:connector-curvature="0" />
    <path
       style="fill:#707773;fill-rule:evenodd;stroke:none;stroke-width:1px;stroke-linecap:butt;stroke-linejoin:miter;stroke-opacity:1;fill-opacity:1"
       d="m 10,1022.3622 c 0,0 0,-2 2,-2 2,0 24,0 24,0 0,0 2,0 2,2 0,2 0,6 0,6 0,0 0,2 -2,2 -2,0 -24,0 -24,0 0,0 -2,0 -2,-2 0,-2 0,-6 0,-6 z"
       id="path4179"
       inkscape:connector-curvature="0" />
    <path
       style="fill:#f4e3d7;fill-opacity:1;fill-rule:evenodd;stroke:none;stroke-width:1px;stroke-linecap:butt;stroke-linejoin:miter;stroke-opacity:1"
       d="m 12,1024.3622 c 0,0 0,-2 2,-2 2,0 19,0 19,0 l 1,0 c 0,0 2,0 2,2 0,2 0,2 0,2 0,0 0,2 -2,2 -2,0 -20,0 -20,0 0,0 -2,0 -2,-2 0,-2 0,-2 0,-2 z"
       id="path4150-2"
       inkscape:connector-curvature="0" />
    <path
       style="fill:#707773;fill-opacity:1;fill-rule:evenodd;stroke:none;stroke-width:1px;stroke-linecap:butt;stroke-linejoin:miter;stroke-opacity:1"
       d="m 12,1034.3622 c 0,0 0,-2 2,-2 2,0 19,0 19,0 l 1,0 c 0,0 2,0 2,2 0,2 0,2 0,2 0,0 0,2 -2,2 -2,0 -20,0 -20,0 0,0 -2,0 -2,-2 0,-2 0,-2 0,-2 z"
       id="path4150-6"
       inkscape:connector-curvature="0" />
  </g>
</svg>
