<?xml version="1.0" encoding="UTF-8" standalone="no"?>
<!-- Created with Inkscape (http://www.inkscape.org/) -->

<svg
   xmlns:dc="http://purl.org/dc/elements/1.1/"
   xmlns:cc="http://creativecommons.org/ns#"
   xmlns:rdf="http://www.w3.org/1999/02/22-rdf-syntax-ns#"
   xmlns:svg="http://www.w3.org/2000/svg"
   xmlns="http://www.w3.org/2000/svg"
   xmlns:sodipodi="http://sodipodi.sourceforge.net/DTD/sodipodi-0.dtd"
   xmlns:inkscape="http://www.inkscape.org/namespaces/inkscape"
   width="64"
   height="64"
   id="svg2"
   version="1.1"
   inkscape:version="0.91 r13725"
   sodipodi:docname="fedorausb.svg">
  <defs
     id="defs4" />
  <sodipodi:namedview
     id="base"
     pagecolor="#ffffff"
     bordercolor="#666666"
     borderopacity="1.0"
     inkscape:pageopacity="0.0"
     inkscape:pageshadow="2"
     inkscape:zoom="8.9028356"
     inkscape:cx="8.3291716"
     inkscape:cy="21.201671"
     inkscape:document-units="px"
     inkscape:current-layer="layer1"
     showgrid="true"
     inkscape:object-paths="true"
     inkscape:snap-object-midpoints="true"
     inkscape:snap-center="true"
     inkscape:snap-bbox="true"
     inkscape:bbox-paths="true"
     inkscape:bbox-nodes="true"
     inkscape:snap-bbox-edge-midpoints="true"
     inkscape:snap-bbox-midpoints="true"
     inkscape:snap-intersection-paths="true"
     inkscape:object-nodes="true"
     inkscape:snap-smooth-nodes="true"
     inkscape:snap-midpoints="true"
     inkscape:snap-page="true"
     inkscape:window-width="696"
     inkscape:window-height="651"
     inkscape:window-x="638"
     inkscape:window-y="62"
     inkscape:window-maximized="0"
     inkscape:snap-global="true">
    <inkscape:grid
       empspacing="2"
       visible="true"
       enabled="true"
       snapvisiblegridlinesonly="true"
       type="xygrid"
       id="grid2987" />
  </sodipodi:namedview>
  <metadata
     id="metadata7">
    <rdf:RDF>
      <cc:Work
         rdf:about="">
        <dc:format>image/svg+xml</dc:format>
        <dc:type
           rdf:resource="http://purl.org/dc/dcmitype/StillImage" />
        <dc:title />
      </cc:Work>
    </rdf:RDF>
  </metadata>
  <g
     inkscape:label="Layer 1"
     inkscape:groupmode="layer"
     id="layer1"
     transform="translate(0,-988.36218)">
    <rect
       style="fill:#4e6da4;fill-opacity:1;stroke:none"
       id="rect4990"
       width="64"
       height="64"
       x="0"
       y="0"
       transform="translate(0,988.36218)"
       ry="4" />
    <path
       style="fill:#d5d2ed;fill-rule:evenodd;stroke:none;stroke-width:1px;stroke-linecap:butt;stroke-linejoin:miter;stroke-opacity:1;fill-opacity:1"
       d="m 20,1008.3622 0,-8 c 0,0 0,-2.00002 2,-2.00002 2,0 20,0 20,0 0,0 2,0 2,2.00002 0,2 0,10 0,10 l -24,0 z"
       id="path3346"
       inkscape:connector-curvature="0" />
    <path
       style="fill:#98acd6;fill-rule:evenodd;stroke:none;stroke-width:1px;stroke-linecap:butt;stroke-linejoin:miter;stroke-opacity:1;fill-opacity:1"
       d="m 14,1010.3622 c 0,0 0,-2 2,-2 2,0 32,0 32,0 0,0 2,0 2,2 0,2 0,30 0,30 0,0 0,2 -2,2 -2,0 -32,0 -32,0 0,0 -2,0 -2,-2 0,-2 0,-30 0,-30 z"
       id="path3344"
       inkscape:connector-curvature="0" />
    <rect
       style="fill:#d5d2ed;fill-opacity:1;stroke:none;stroke-opacity:1"
       id="rect3348"
       width="4"
       height="4"
       x="30"
       y="1034.3622"
       ry="2" />
    <path
       style="fill:#d5d2ed;fill-rule:evenodd;stroke:none;stroke-width:1px;stroke-linecap:butt;stroke-linejoin:miter;stroke-opacity:1;fill-opacity:1"
       d="m 31,1035.3622 0,-21 2,0 0,21 z"
       id="path3350"
       inkscape:connector-curvature="0" />
    <path
       style="fill:#d5d2ed;fill-opacity:1;fill-rule:evenodd;stroke:none;stroke-width:1px;stroke-linecap:butt;stroke-linejoin:miter;stroke-opacity:1"
       d="m 31.094999,1031.3859 c 0,0 -5.094999,-0.024 -5.094999,-5.0237 l 0,-4 2,0 0,4 c 0,0 0,3 3,3 3,0 0.118748,-0.024 0.118748,-0.024 z"
       id="path4154"
       inkscape:connector-curvature="0"
       sodipodi:nodetypes="cscccscc" />
    <path
       style="fill:#d5d2ed;fill-opacity:1;stroke:none;stroke-opacity:1"
       id="path4156"
       sodipodi:type="arc"
       sodipodi:cx="27"
       sodipodi:cy="1021.3622"
       sodipodi:rx="2"
       sodipodi:ry="2"
       sodipodi:start="2.3502778"
       sodipodi:end="2.3500858"
       d="m 25.594179,1022.7847 a 2,2 0 0 1 -0.0168,-2.8283 2,2 0 0 1 2.828309,-0.017 2,2 0 0 1 0.01707,2.8283 2,2 0 0 1 -2.828307,0.017 L 27,1021.3622 Z" />
    <path
       style="fill:#d5d2ed;fill-opacity:1;fill-rule:evenodd;stroke:none;stroke-width:1px;stroke-linecap:butt;stroke-linejoin:miter;stroke-opacity:1"
       d="m 32.914839,1028.5874 c -0.142948,0 5.085161,-0.1095 5.085161,-4.2252 l 0,-6 -2,0 0,5 c 0,0 0.36032,3.1204 -3.067174,3.1679 -1.848172,-0.2822 -0.340603,-0.7981 -0.01799,2.0573 z"
       id="path4158"
       inkscape:connector-curvature="0"
       sodipodi:nodetypes="csccccc" />
    <path
       style="fill:#d5d2ed;fill-rule:evenodd;stroke:none;stroke-width:1px;stroke-linecap:butt;stroke-linejoin:miter;stroke-opacity:1;fill-opacity:1"
       d="m 35,1019.3622 0,-2 c 0,0 0,-1 1,-1 1,0 2,0 2,0 0,0 1,0 1,1 0,1 0,2 0,2 0,0 0,1 -1,1 -1,0 -2,0 -2,0 0,0 -1,0 -1,-1 z"
       id="path4160"
       inkscape:connector-curvature="0" />
    <path
       style="fill:#d5d2ed;fill-opacity:1;fill-rule:evenodd;stroke:none;stroke-width:1px;stroke-linecap:butt;stroke-linejoin:miter;stroke-opacity:1"
       d="m 31.47022,1011.7576 c 0,0 0.267796,-0.3896 0.52978,-0.3954 0.305901,-0.01 0.52978,0.3955 0.52978,0.3955 1.983207,2.7892 -0.05558,2e-4 1.890842,2.6885 0.53672,0.8072 1.039753,1.1979 -0.437416,1.2015 l -4.030705,0.01 c -1.057621,-0 -1.266393,-0.1707 -0.33894,-1.413 z"
       id="path4164"
       inkscape:connector-curvature="0"
       sodipodi:nodetypes="csccscsc" />
    <path
       style="fill:#4e6da4;fill-opacity:1;fill-rule:evenodd;stroke:none;stroke-width:1px;stroke-linecap:butt;stroke-linejoin:miter;stroke-opacity:1"
       d="m 23,1003.3622 c 0,0 0,-1 1,-1 1,0 2,0 2,0 0,0 1,0 1,1 0,1 0,2 0,2 0,0 0,1 -1,1 -1,0 -2,0 -2,0 0,0 -1,0 -1,-1 0,-1 0,-2 0,-2 z"
       id="path4144"
       inkscape:connector-curvature="0" />
    <path
       style="fill:#4e6da4;fill-opacity:1;fill-rule:evenodd;stroke:none;stroke-width:1px;stroke-linecap:butt;stroke-linejoin:miter;stroke-opacity:1"
       d="m 37,1003.3622 c 0,0 0,-1 1,-1 1,0 2,0 2,0 0,0 1,0 1,1 0,1 0,2 0,2 0,0 0,1 -1,1 -1,0 -2,0 -2,0 0,0 -1,0 -1,-1 0,-1 0,-2 0,-2 z"
       id="path4144-2"
       inkscape:connector-curvature="0" />
  </g>
</svg>
