<?xml version="1.0" encoding="UTF-8" standalone="no"?>
<!-- Created with Inkscape (http://www.inkscape.org/) -->

<svg
   xmlns:dc="http://purl.org/dc/elements/1.1/"
   xmlns:cc="http://creativecommons.org/ns#"
   xmlns:rdf="http://www.w3.org/1999/02/22-rdf-syntax-ns#"
   xmlns:svg="http://www.w3.org/2000/svg"
   xmlns="http://www.w3.org/2000/svg"
   xmlns:sodipodi="http://sodipodi.sourceforge.net/DTD/sodipodi-0.dtd"
   xmlns:inkscape="http://www.inkscape.org/namespaces/inkscape"
   width="64"
   height="64"
   id="svg2"
   version="1.1"
   inkscape:version="0.91 r13725"
   sodipodi:docname="firefox.svg">
  <defs
     id="defs4">
    <linearGradient
       id="linearGradient3996"
       gradientUnits="userSpaceOnUse"
       gradientTransform="matrix(0,-1,1,0,6.905998,1045.7682)"
       x1="1"
       x2="47">
      <stop
         stop-color="#60c3e0"
         stop-opacity="1"
         id="stop19" />
      <stop
         offset="1"
         stop-color="#71cae3"
         stop-opacity="1"
         id="stop21" />
    </linearGradient>
  </defs>
  <sodipodi:namedview
     id="base"
     pagecolor="#ffffff"
     bordercolor="#666666"
     borderopacity="1.0"
     inkscape:pageopacity="0.0"
     inkscape:pageshadow="2"
     inkscape:zoom="6.2224181"
     inkscape:cx="11.301667"
     inkscape:cy="26.802708"
     inkscape:document-units="px"
     inkscape:current-layer="layer1"
     showgrid="true"
     inkscape:object-paths="true"
     inkscape:snap-object-midpoints="true"
     inkscape:snap-center="true"
     inkscape:snap-bbox="true"
     inkscape:bbox-paths="true"
     inkscape:bbox-nodes="true"
     inkscape:snap-bbox-edge-midpoints="true"
     inkscape:snap-bbox-midpoints="true"
     inkscape:snap-intersection-paths="true"
     inkscape:object-nodes="true"
     inkscape:snap-smooth-nodes="true"
     inkscape:snap-midpoints="true"
     inkscape:snap-page="true"
     inkscape:window-width="696"
     inkscape:window-height="651"
     inkscape:window-x="412"
     inkscape:window-y="27"
     inkscape:window-maximized="0"
     inkscape:snap-global="true">
    <inkscape:grid
       empspacing="2"
       visible="true"
       enabled="true"
       snapvisiblegridlinesonly="true"
       type="xygrid"
       id="grid2987" />
  </sodipodi:namedview>
  <metadata
     id="metadata7">
    <rdf:RDF>
      <cc:Work
         rdf:about="">
        <dc:format>image/svg+xml</dc:format>
        <dc:type
           rdf:resource="http://purl.org/dc/dcmitype/StillImage" />
        <dc:title />
      </cc:Work>
    </rdf:RDF>
  </metadata>
  <g
     inkscape:label="Layer 1"
     inkscape:groupmode="layer"
     id="layer1"
     transform="translate(0,-988.36218)">
    <rect
       style="fill:#c7530c;fill-opacity:1;stroke:none"
       id="rect4990"
       width="64"
       height="64"
       x="0"
       y="0"
       transform="translate(0,988.36218)"
       ry="4" />
    <path
       inkscape:connector-curvature="0"
       style="opacity:0.1;fill:#000000;fill-opacity:1;fill-rule:nonzero;stroke:none"
       d="m 56.373558,1014.8966 c 0.07366,0.1298 0.131283,0.2571 0.198263,0.3811 -0.0055,0.027 0.0052,0.056 0,0.073 -0.01608,-0.02 -0.04152,-0.051 -0.04152,-0.073 -0.05761,-0.1297 -0.09378,-0.2519 -0.156733,-0.3811 m 0,0"
       id="path33" />
    <path
       inkscape:connector-curvature="0"
       style="fill:#ec7f43;fill-opacity:1;fill-rule:nonzero;stroke:none"
       d="m 55.033956,1013.5783 c 0.07368,0.1296 0.131282,0.257 0.19826,0.3809 -0.0052,0.026 0.0055,0.056 0,0.073 -0.01608,-0.021 -0.04152,-0.051 -0.04152,-0.073 -0.05761,-0.1298 -0.09378,-0.2519 -0.156734,-0.3809 m 0,0"
       id="path45" />
    <path
       inkscape:connector-curvature="0"
       style="fill:#fbf4ce;fill-opacity:1;fill-rule:nonzero;stroke:none"
       d="m 35.687421,1033.0149 c 0.439389,-0.2428 0.999344,-0.1072 1.418639,0 0.413936,-0.037 1.219038,-0.2574 0.900213,-1.2831 -0.533162,-0.6183 -1.339602,-1.3539 -2.931048,-1.8958 m 0.612196,3.1775"
       id="path47" />
    <rect
       style="fill:#a6d2d5;fill-opacity:1;stroke:none;stroke-opacity:1"
       id="rect4143"
       width="52.141438"
       height="51.680557"
       x="5.8809595"
       y="994.36218"
       ry="24.665722" />
    <path
       style="fill:#c7530c;fill-opacity:1;fill-rule:evenodd;stroke:none;stroke-width:1px;stroke-linecap:butt;stroke-linejoin:miter;stroke-opacity:1"
       d="m 5.6037627,1009.5195 c 0,0 1.8695846,-2.747 2.7953914,-3.8808 0.9258068,-1.1338 0.9763401,-1.1071 0.9763401,-1.1071 0,0 0.3404149,2.348 0.5106223,2.9843 0.1702075,0.6362 0.3796935,0.9289 0.4582505,1.0499 0.07856,0.1208 0.333869,0.4071 0.497531,0.5026 0.163661,0.096 0.3666,0.2418 0.490982,0.2927 0.124383,0.051 0.13093,0.063 0.13093,0.063 0,0 1.414031,-0.4773 2.042489,-0.6044 0.628458,-0.1273 1.728261,-0.2928 2.402545,-0.28 0.674283,0.013 1.197999,0.038 1.793726,0.159 0.595725,0.121 1.02779,0.28 1.02779,0.28 0,0 0.988513,-0.9354 1.944294,-1.5462 0.955781,-0.6109 1.721714,-1.0499 2.389452,-1.3044 0.667737,-0.2546 0.968873,-0.4073 1.898468,-0.6682 0.929594,-0.2609 2.022851,-0.3945 2.022851,-0.3945 0,0 -0.648098,0.4009 -1.603879,1.1582 -0.95578,0.7571 -1.558053,1.5143 -1.702074,1.7625 -0.144022,0.2481 -0.484437,0.8845 -0.746295,1.4061 -0.261858,0.5218 -0.464798,1.0818 -0.523715,1.3617 -0.05892,0.28 -0.176754,0.8273 -0.176754,0.8273 l 0.445158,0.5727 0.530261,0.4517 1.774087,1.3235 c 0,0 0.438611,0.3946 0.549901,0.4773 0.111287,0.083 0.543354,0.3499 0.602273,0.3817 0.05892,0.032 0.340415,0.1527 0.399332,0.1591 0.05892,0.011 0.03928,0.013 0.03928,0.013 0,0 1.315834,0.1528 2.068676,0.1654 0.752841,0.013 0.942688,0.013 0.942688,0.013 0,0 0.157114,0.013 0.314229,0.3626 0.157114,0.3501 -0.03273,0.6236 -0.03273,0.6236 0,0 -0.124382,0.02 -0.144022,0.096 -0.01964,0.076 -0.07201,0.5281 -0.510622,0.8908 -0.438611,0.3628 -1.276556,0.7318 -2.153779,1.3744 -0.877224,0.6427 -1.171814,0.7763 -1.983572,1.4699 -0.811759,0.6936 -0.320776,0.28 -0.320776,0.28 l -0.05237,0.1654 c 0,0 0.477891,0.6808 0.733201,1.4189 0.255312,0.7382 0.412427,1.1582 0.451705,2.068 0.03928,0.91 -0.09165,1.2218 -0.09165,1.2218 0,0 -0.837944,-0.2737 -2.382904,-0.5664 -1.544962,-0.2927 -2.016305,-0.2672 -2.016305,-0.2672 0,0 -0.445159,0.045 -0.844491,0.28 -0.399334,0.2354 -0.582633,0.6426 -0.621912,0.7507 -0.03928,0.1083 -0.170208,0.3755 -0.216033,0.8082 -0.04583,0.4327 -0.01964,0.4136 -0.01964,0.4136 l 0.392786,0.6173 c 0,0 0.837945,0.9544 1.119442,1.2344 0.281498,0.2799 1.165267,1.088 1.387847,1.2534 0.222579,0.1655 1.034337,0.8527 1.800271,1.1836 0.765934,0.3308 0.97542,0.3881 2.02285,0.5218 1.047432,0.1336 2.186513,-0.3055 2.454917,-0.4264 0.268404,-0.1208 0.49753,-0.1972 0.739748,-0.3563 0.242218,-0.159 0.870677,-0.5472 1.309288,-0.7127 0.438611,-0.1654 0.851038,-0.3626 1.996665,-0.4263 1.145628,-0.063 2.153779,0.4136 2.153779,0.4136 0,0 1.276557,0.3627 2.323988,1.2599 1.04743,0.8971 0.674284,1.3108 0.543354,1.5462 -0.130928,0.2354 -0.837943,0.3882 -0.837943,0.3882 0,0 -0.445159,-0.121 -0.530262,-0.121 -0.08511,0 -0.523716,-0.1013 -0.88377,0.096 -0.360055,0.1972 -0.242219,0.14 -1.270011,0.7572 -1.02779,0.6172 -2.900073,1.7944 -2.900073,1.7944 0,0 -0.451705,0.2291 -1.58424,0.6427 -1.132534,0.4135 -1.806818,0.4835 -2.716774,0.6617 -0.909954,0.1782 -1.9312,0.1273 -2.670947,0.1591 -0.739749,0.032 -1.112896,-0.045 -1.112896,-0.045 0,0 0.700469,0.7126 1.289649,1.1327 0.58918,0.4199 0.864131,0.6998 2.258523,1.5016 1.394392,0.8017 2.932806,1.279 3.319046,1.368 0.38624,0.089 1.518774,0.4263 2.932806,0.5473 1.414032,0.1208 1.878829,0.1336 3.233943,-0.051 1.355114,-0.1845 2.422184,-0.6427 3.011363,-0.8782 0.589181,-0.2354 1.793726,-0.9098 2.37636,-1.3362 0.582633,-0.4263 1.322381,-0.9353 2.13414,-1.7371 0.811758,-0.8017 1.047431,-1.0116 2.049037,-2.2334 1.001605,-1.2217 1.224184,-1.6098 1.224184,-1.6098 0,0 0.130929,0.6108 -0.02619,1.9216 -0.157114,1.3108 -0.621911,2.7552 -0.621911,2.7552 0,0 0.792119,-0.7509 1.538413,-1.9725 0.746295,-1.2218 1.106349,-2.2908 1.335475,-3.0097 0.229125,-0.719 0.497529,-1.998 0.595727,-3.0034 0.09819,-1.0054 0.144022,-2.3862 0.130928,-2.8506 -0.01309,-0.4645 -0.06546,-1.8008 -0.157115,-2.558 -0.09165,-0.7572 -0.104745,-0.9608 -0.104745,-0.9608 0,0 0.399334,0.2099 0.929595,1.1963 0.530262,0.9863 0.708101,1.5572 0.8516,1.8856 0.143501,0.3285 0.231453,0.6615 0.231453,0.6615 0,0 0.33329,-0.9584 0.518451,-2.2092 0.185162,-1.2509 0.185162,-2.2407 0.175903,-2.9605 -0.0092,-0.7199 -0.09721,-1.6603 -0.18979,-2.4207 -0.09259,-0.7604 -0.245338,-1.6152 -0.416612,-2.4207 -0.171276,-0.8054 -0.462904,-1.9346 -0.462904,-1.9346 0,0 0.328661,0.059 0.972097,0.4003 0.643436,0.342 1.069307,0.8684 1.226693,1.035 0.157388,0.1664 0.310146,0.4093 0.310146,0.4093 0,0 0.08795,-0.7874 -0.02314,-1.4892 -0.111096,-0.7019 -0.212936,-1.1294 -0.555484,-1.8808 -0.342549,-0.7513 -0.745274,-1.2687 -1.092452,-1.7142 -0.347178,-0.4455 -1.036903,-1.1114 -1.277613,-1.3228 -0.24071,-0.2115 -1.00913,-0.8639 -1.509066,-1.1968 -0.499935,-0.333 -1.05079,-0.6974 -1.421112,-0.9179 -0.370323,-0.2204 -1.694227,-0.9719 -2.44876,-1.3048 -0.754532,-0.333 -0.398097,-0.2385 -1.939565,-0.8773 -1.541469,-0.639 -1.874759,-0.747 -1.874759,-0.747 0,0 0.490678,-0.216 1.472033,-0.351 0.981355,-0.1349 2.078436,0.028 2.078436,0.028 l 0.467532,0.081 c 0,0 -0.212935,-0.4814 -0.597145,-0.9044 -0.38421,-0.423 -0.870258,-0.9224 -2.046032,-1.5118 -1.175786,-0.5894 -2.416367,-0.8594 -2.879271,-0.9853 -0.462903,-0.126 -1.476662,-0.3195 -1.476662,-0.3195 0,0 1.541469,0.05 2.328405,0.1129 0.786936,0.063 1.620162,0.135 2.434872,0.2384 0.81471,0.1037 1.837726,0.279 2.333033,0.3824 0.495306,0.1037 1.138742,0.2386 1.712742,0.405 0.574,0.1665 0.754533,0.2115 1.384082,0.4454 0.629548,0.234 1.462774,0.5894 2.01363,0.9 0.550854,0.3104 1.411855,0.7963 1.916419,1.2057 0.504565,0.4095 1.277614,0.8775 2.481162,2.3712 1.203549,1.4938 1.684969,2.6636 1.684969,2.6636 0,0 0.273113,0.6299 0.342549,0.8549 0.06943,0.2249 0.291628,0.8369 0.291628,0.8369 0,0 -0.01389,-0.9539 -0.06018,-1.6064 -0.04629,-0.6524 -0.09259,-1.4082 -0.222193,-2.281 -0.129613,-0.8729 -0.217565,-1.3319 -0.217565,-1.3319 l 0.939148,0.9552 0.163372,37.9865 -52.9999999,-0.1014 z"
       id="path4218"
       inkscape:connector-curvature="0"
       sodipodi:nodetypes="cccscccccccccsscccccccccccccsccccscccccscscccccccccccscccsscsccccscccccccsccscsccsssscscccccccccccccscscccsccssccsccsscccccccsccccc" />
  </g>
</svg>
