<?xml version="1.0" encoding="UTF-8" standalone="no"?>
<!-- Created with Inkscape (http://www.inkscape.org/) -->

<svg
   xmlns:dc="http://purl.org/dc/elements/1.1/"
   xmlns:cc="http://creativecommons.org/ns#"
   xmlns:rdf="http://www.w3.org/1999/02/22-rdf-syntax-ns#"
   xmlns:svg="http://www.w3.org/2000/svg"
   xmlns="http://www.w3.org/2000/svg"
   xmlns:sodipodi="http://sodipodi.sourceforge.net/DTD/sodipodi-0.dtd"
   xmlns:inkscape="http://www.inkscape.org/namespaces/inkscape"
   width="64"
   height="64"
   id="svg2"
   version="1.1"
   inkscape:version="0.91 r13725"
   sodipodi:docname="fjt.svg">
  <defs
     id="defs4" />
  <sodipodi:namedview
     id="base"
     pagecolor="#ffffff"
     bordercolor="#666666"
     borderopacity="1.0"
     inkscape:pageopacity="0.0"
     inkscape:pageshadow="2"
     inkscape:zoom="4.0342442"
     inkscape:cx="8.8008914"
     inkscape:cy="16.286951"
     inkscape:document-units="px"
     inkscape:current-layer="layer1"
     showgrid="true"
     inkscape:object-paths="true"
     inkscape:snap-object-midpoints="true"
     inkscape:snap-center="true"
     inkscape:snap-bbox="true"
     inkscape:bbox-paths="true"
     inkscape:bbox-nodes="true"
     inkscape:snap-bbox-edge-midpoints="true"
     inkscape:snap-bbox-midpoints="true"
     inkscape:snap-intersection-paths="true"
     inkscape:object-nodes="true"
     inkscape:snap-smooth-nodes="true"
     inkscape:snap-midpoints="true"
     inkscape:snap-page="true"
     inkscape:window-width="684"
     inkscape:window-height="661"
     inkscape:window-x="647"
     inkscape:window-y="50"
     inkscape:window-maximized="0">
    <inkscape:grid
       empspacing="2"
       visible="true"
       enabled="true"
       snapvisiblegridlinesonly="true"
       type="xygrid"
       id="grid2987" />
  </sodipodi:namedview>
  <metadata
     id="metadata7">
    <rdf:RDF>
      <cc:Work
         rdf:about="">
        <dc:format>image/svg+xml</dc:format>
        <dc:type
           rdf:resource="http://purl.org/dc/dcmitype/StillImage" />
        <dc:title></dc:title>
      </cc:Work>
    </rdf:RDF>
  </metadata>
  <g
     inkscape:label="Layer 1"
     inkscape:groupmode="layer"
     id="layer1"
     transform="translate(0,-988.36218)">
    <rect
       style="fill:#24ab6e;fill-opacity:1;stroke:none"
       id="rect4990"
       width="64"
       height="64"
       x="0"
       y="0"
       transform="translate(0,988.36218)"
       ry="4" />
    <path
       style="fill:#f4e3d7;fill-opacity:1;fill-rule:evenodd;stroke:none;stroke-width:1px;stroke-linecap:butt;stroke-linejoin:miter;stroke-opacity:1"
       d="m 10.803789,1005.7021 c 0,0 8,-6.00004 18,-6.00004 12,0 18,10.00004 18,10.00004 0,0 0.757464,1.0298 1,2 1,4 -3,0 -3,0 0,0 -4,-7 -16,-6 -8.034403,0.6695 -13,9 -13,9 0,0 1,-3 0,-6 -0.707111,-2.1213 -5,-3 -5,-3 z"
       id="path3344"
       inkscape:connector-curvature="0"
       sodipodi:nodetypes="cscscscsc" />
    <path
       style="fill:#f4e3d7;fill-opacity:1;fill-rule:evenodd;stroke:none;stroke-width:1px;stroke-linecap:butt;stroke-linejoin:miter;stroke-opacity:1"
       d="m 47.803789,1002.0963 c 0,0 0.503412,10.0372 -10.483083,9.4923 -10.037535,-0.4977 11.424333,8.214 13.784668,4.6886 3.243999,-4.8452 -3.383888,-23.29133 -3.301585,-14.1809 z"
       id="path3352"
       inkscape:connector-curvature="0"
       sodipodi:nodetypes="cssc" />
    <path
       style="fill:#f4e3d7;fill-opacity:1;fill-rule:evenodd;stroke:none;stroke-width:1px;stroke-linecap:butt;stroke-linejoin:miter;stroke-opacity:1"
       d="m 53.196211,1033.8088 c 0,0 -8,6 -18,6 -12,0 -18,-10 -18,-10 0,0 -0.757464,-1.0298 -1,-2 -1,-4 3,0 3,0 0,0 4,7 16,6 8.034403,-0.6695 13,-9 13,-9 0,0 -1,3 0,6 0.707103,2.1213 5,3 5,3 z"
       id="path3344-0"
       inkscape:connector-curvature="0"
       sodipodi:nodetypes="cscscscsc" />
    <path
       style="fill:#f4e3d7;fill-opacity:1;fill-rule:evenodd;stroke:none;stroke-width:1px;stroke-linecap:butt;stroke-linejoin:miter;stroke-opacity:1"
       d="m 16.196211,1037.4146 c 0,0 -0.503412,-10.0372 10.483083,-9.4923 10.037535,0.4977 -11.424333,-8.214 -13.784668,-4.6886 -3.2439991,4.8452 3.383888,23.2913 3.301585,14.1809 z"
       id="path3352-7"
       inkscape:connector-curvature="0"
       sodipodi:nodetypes="cssc" />
  </g>
</svg>
