<?xml version="1.0" encoding="UTF-8" standalone="no"?>
<!-- Created with Inkscape (http://www.inkscape.org/) -->

<svg
   xmlns:dc="http://purl.org/dc/elements/1.1/"
   xmlns:cc="http://creativecommons.org/ns#"
   xmlns:rdf="http://www.w3.org/1999/02/22-rdf-syntax-ns#"
   xmlns:svg="http://www.w3.org/2000/svg"
   xmlns="http://www.w3.org/2000/svg"
   xmlns:sodipodi="http://sodipodi.sourceforge.net/DTD/sodipodi-0.dtd"
   xmlns:inkscape="http://www.inkscape.org/namespaces/inkscape"
   width="64"
   height="64"
   id="svg2"
   version="1.1"
   inkscape:version="0.91 r13725"
   sodipodi:docname="gajim.svg">
  <defs
     id="defs4" />
  <sodipodi:namedview
     id="base"
     pagecolor="#ffffff"
     bordercolor="#666666"
     borderopacity="1.0"
     inkscape:pageopacity="0.0"
     inkscape:pageshadow="2"
     inkscape:zoom="12.511924"
     inkscape:cx="33.580117"
     inkscape:cy="44.591515"
     inkscape:document-units="px"
     inkscape:current-layer="layer1"
     showgrid="true"
     inkscape:object-paths="true"
     inkscape:snap-object-midpoints="true"
     inkscape:snap-center="true"
     inkscape:snap-bbox="true"
     inkscape:bbox-paths="true"
     inkscape:bbox-nodes="true"
     inkscape:snap-bbox-edge-midpoints="true"
     inkscape:snap-bbox-midpoints="true"
     inkscape:snap-intersection-paths="true"
     inkscape:object-nodes="true"
     inkscape:snap-smooth-nodes="true"
     inkscape:snap-midpoints="true"
     inkscape:snap-page="true"
     inkscape:window-width="697"
     inkscape:window-height="714"
     inkscape:window-x="361"
     inkscape:window-y="27"
     inkscape:window-maximized="0"
     inkscape:snap-global="false">
    <inkscape:grid
       empspacing="2"
       visible="true"
       enabled="true"
       snapvisiblegridlinesonly="true"
       type="xygrid"
       id="grid2987" />
  </sodipodi:namedview>
  <metadata
     id="metadata7">
    <rdf:RDF>
      <cc:Work
         rdf:about="">
        <dc:format>image/svg+xml</dc:format>
        <dc:type
           rdf:resource="http://purl.org/dc/dcmitype/StillImage" />
        <dc:title />
      </cc:Work>
    </rdf:RDF>
  </metadata>
  <g
     inkscape:label="Layer 1"
     inkscape:groupmode="layer"
     id="layer1"
     transform="translate(0,-988.36218)">
    <rect
       style="fill:#09a35c;fill-opacity:1;stroke:none"
       id="rect4990"
       width="64"
       height="64"
       x="0"
       y="0"
       transform="translate(0,988.36218)"
       ry="4" />
    <path
       style="fill:#d5ffe6;fill-opacity:1;fill-rule:evenodd;stroke:none;stroke-width:1px;stroke-linecap:butt;stroke-linejoin:miter;stroke-opacity:1"
       d="m 10,1016.3622 c 0,0 -1,-18.00002 22,-18.00004 23,-2e-5 22,18.00004 22,18.00004 0,0 1,18 -22,18 -23,0 -22,-18 -22,-18 z"
       id="path4184"
       inkscape:connector-curvature="0"
       sodipodi:nodetypes="cscsc" />
    <path
       style="fill:#d5ffe6;fill-opacity:1;fill-rule:evenodd;stroke:none;stroke-width:1px;stroke-linecap:butt;stroke-linejoin:miter;stroke-opacity:1"
       d="m 17,1037.3622 c 0.08834,0.097 -4.70212,6.5665 2,4 2.801614,-1.0729 9,-4 9,-10 0,-6 -10,-4 -10,-4 0,0 2,4 -1,10 z"
       id="path3339"
       inkscape:connector-curvature="0"
       sodipodi:nodetypes="csscc" />
    <path
       style="fill:#09a35c;fill-opacity:1;fill-rule:evenodd;stroke:none;stroke-width:1px;stroke-linecap:butt;stroke-linejoin:miter;stroke-opacity:1"
       d="m 10.233764,1014.3737 8.004448,0.069 c 0,0 0.971638,0.069 1.642531,-1.041 0.670893,-1.1105 6.091456,-8.8428 6.091456,-8.8428 0,0 1.265233,-1.4514 1.982394,-0.087 0.717162,1.3649 9.456942,15.8899 9.456942,15.8899 0,0 0.439551,1.5781 1.110444,0.2595 0.670893,-1.3187 3.197488,-5.1612 3.197488,-5.1612 0,0 0.462685,-1.1104 1.665666,-1.0873 1.202981,0.023 10.84996,0.046 10.84996,0.046 l 0,4.0022 -8.050717,0 c 0,0 -0.879101,-0.1619 -1.503726,0.9948 -0.624624,1.1567 -5.53514,9.615 -5.53514,9.615 0,0 -1.10935,1.6888 -1.942183,0.092 -0.832833,-1.5962 -9.733459,-16.2528 -9.733459,-16.2528 0,0 -0.788499,-1.5409 -1.621332,-0.1527 -0.832833,1.3881 -3.020659,4.5266 -3.020659,4.5266 0,0 -0.930333,1.1105 -1.971374,1.1105 -1.041041,0 -10.692142,0.066 -10.692142,0.066 z"
       id="path4142"
       inkscape:connector-curvature="0"
       sodipodi:nodetypes="ccccscccccccscccccscc" />
  </g>
</svg>
