<?xml version="1.0" encoding="UTF-8" standalone="no"?>
<!-- Created with Inkscape (http://www.inkscape.org/) -->

<svg
   xmlns:dc="http://purl.org/dc/elements/1.1/"
   xmlns:cc="http://creativecommons.org/ns#"
   xmlns:rdf="http://www.w3.org/1999/02/22-rdf-syntax-ns#"
   xmlns:svg="http://www.w3.org/2000/svg"
   xmlns="http://www.w3.org/2000/svg"
   xmlns:sodipodi="http://sodipodi.sourceforge.net/DTD/sodipodi-0.dtd"
   xmlns:inkscape="http://www.inkscape.org/namespaces/inkscape"
   width="64"
   height="64"
   id="svg2"
   version="1.1"
   inkscape:version="0.91 r13725"
   sodipodi:docname="gnome-desktop-config.svg">
  <defs
     id="defs4" />
  <sodipodi:namedview
     id="base"
     pagecolor="#ffffff"
     bordercolor="#666666"
     borderopacity="1.0"
     inkscape:pageopacity="0.0"
     inkscape:pageshadow="2"
     inkscape:zoom="1.3879952"
     inkscape:cx="-60.415453"
     inkscape:cy="-31.934497"
     inkscape:document-units="px"
     inkscape:current-layer="layer1"
     showgrid="true"
     inkscape:object-paths="true"
     inkscape:snap-object-midpoints="true"
     inkscape:snap-center="true"
     inkscape:snap-bbox="true"
     inkscape:bbox-paths="true"
     inkscape:bbox-nodes="true"
     inkscape:snap-bbox-edge-midpoints="true"
     inkscape:snap-bbox-midpoints="true"
     inkscape:snap-intersection-paths="true"
     inkscape:object-nodes="true"
     inkscape:snap-smooth-nodes="true"
     inkscape:snap-midpoints="true"
     inkscape:snap-page="true"
     inkscape:window-width="696"
     inkscape:window-height="651"
     inkscape:window-x="217"
     inkscape:window-y="67"
     inkscape:window-maximized="0">
    <inkscape:grid
       empspacing="2"
       visible="true"
       enabled="true"
       snapvisiblegridlinesonly="true"
       type="xygrid"
       id="grid2987" />
  </sodipodi:namedview>
  <metadata
     id="metadata7">
    <rdf:RDF>
      <cc:Work
         rdf:about="">
        <dc:format>image/svg+xml</dc:format>
        <dc:type
           rdf:resource="http://purl.org/dc/dcmitype/StillImage" />
        <dc:title />
      </cc:Work>
    </rdf:RDF>
  </metadata>
  <g
     inkscape:label="Layer 1"
     inkscape:groupmode="layer"
     id="layer1"
     transform="translate(0,-988.36218)">
    <rect
       style="fill:#3f7685;fill-opacity:1;stroke:none"
       id="rect4990"
       width="64"
       height="64"
       x="0"
       y="0"
       transform="translate(0,988.36218)"
       ry="4" />
    <path
       style="fill:#d6eaf4;fill-rule:evenodd;stroke:none;stroke-width:1px;stroke-linecap:butt;stroke-linejoin:miter;stroke-opacity:1;fill-opacity:1"
       d="m 10,1024.3622 c 0,0 -1,0 -1,-1 l 0,-6 c 0,0 0,-1 1,-1 l 3,0 c 0,0 1,0 1,-1 l 0,-16.00002 c 0,0 0,-1 1,-1 l 2,0 c 0,0 1,0 1,1 l 0,16.00002 c 0,0 0,1 1,1 l 3,0 c 0,0 1,-0.014 1,1 l 0,6 c 0,0 0,1 -1,1 l -3,0 c 0,0 -1,0 -1,1 l 0,16 c 0,0 0,1 -1,1 l -2,0 c 0,0 -1,0 -1,-1 l 0,-16 c 0,0 0,-1 -1,-1 z"
       id="path4144"
       inkscape:connector-curvature="0"
       sodipodi:nodetypes="cscscscscscscscscscscsccc" />
    <path
       style="fill:#d6eaf4;fill-opacity:1;fill-rule:evenodd;stroke:none;stroke-width:1px;stroke-linecap:butt;stroke-linejoin:miter;stroke-opacity:1"
       d="m 26,1018.3622 c 0,0 -1,0 -1,-1 l 0,-6 c 0,0 2e-6,-1 1,-1 l 3,0 c 0,0 1,0 1,-1 l 0,-10.00002 c 0,0 0,-1 1,-1 l 2,0 c 0,0 1,0 1,1 l 0,10.00002 c 0,0 0,1 1,1 l 3,0 c 0,0 1,-0.014 1,1 l 0,6 c 0,0 -2e-6,1 -1,1 l -3,0 c 0,0 -1,0 -1,1 l 0,22 c 0,0 0,1 -1,1 l -2,0 c 0,0 -1,0 -1,-1 l 0,-22 c 0,0 0,-1 -1,-1 z"
       id="path4144-3"
       inkscape:connector-curvature="0"
       sodipodi:nodetypes="cscscscscscscscscscscsccc" />
    <path
       style="fill:#d6eaf4;fill-opacity:1;fill-rule:evenodd;stroke:none;stroke-width:1px;stroke-linecap:butt;stroke-linejoin:miter;stroke-opacity:1"
       d="m 42,1030.3622 c 0,0 -1,0 -1,-1 l 0,-6 c 0,0 0,-1 1,-1 l 3,0 c 0,0 1,0 1,-1 l 0,-22.00002 c 0,0 0,-1 1,-1 l 2,0 c 0,0 1,0 1,1 l 0,22.00002 c 0,0 0,1 1,1 l 3,0 c 0,0 1,-0.014 1,1 l 0,6 c 0,0 0,1 -1,1 l -3,0 c 0,0 -1,0 -1,1 l 0,10 c 0,0 0,1 -1,1 l -2,0 c 0,0 -1,0 -1,-1 l 0,-10 c 0,0 0,-1 -1,-1 z"
       id="path4144-9"
       inkscape:connector-curvature="0"
       sodipodi:nodetypes="cscscscscscscscscscscsccc" />
  </g>
</svg>
