<?xml version="1.0" encoding="UTF-8" standalone="no"?>
<!-- Created with Inkscape (http://www.inkscape.org/) -->

<svg
   xmlns:dc="http://purl.org/dc/elements/1.1/"
   xmlns:cc="http://creativecommons.org/ns#"
   xmlns:rdf="http://www.w3.org/1999/02/22-rdf-syntax-ns#"
   xmlns:svg="http://www.w3.org/2000/svg"
   xmlns="http://www.w3.org/2000/svg"
   xmlns:sodipodi="http://sodipodi.sourceforge.net/DTD/sodipodi-0.dtd"
   xmlns:inkscape="http://www.inkscape.org/namespaces/inkscape"
   width="64"
   height="64"
   id="svg2"
   version="1.1"
   inkscape:version="0.91 r13725"
   sodipodi:docname="gcstar.svg">
  <defs
     id="defs4">
    <clipPath
       id="clipPath-469401074">
      <g
         transform="translate(0,-1004.3622)"
         id="g17">
        <path
           style="fill:#1890d0"
           inkscape:connector-curvature="0"
           d="m -24,13 c 0,1.105 -0.672,2 -1.5,2 -0.828,0 -1.5,-0.895 -1.5,-2 0,-1.105 0.672,-2 1.5,-2 0.828,0 1.5,0.895 1.5,2 z"
           transform="matrix(15.333333,0,0,11.5,414.99999,878.8622)"
           id="path19" />
      </g>
    </clipPath>
  </defs>
  <sodipodi:namedview
     id="base"
     pagecolor="#ffffff"
     bordercolor="#666666"
     borderopacity="1.0"
     inkscape:pageopacity="0.0"
     inkscape:pageshadow="2"
     inkscape:zoom="7.1380367"
     inkscape:cx="33.383873"
     inkscape:cy="31.581349"
     inkscape:document-units="px"
     inkscape:current-layer="layer1"
     showgrid="true"
     inkscape:object-paths="true"
     inkscape:snap-object-midpoints="true"
     inkscape:snap-center="true"
     inkscape:snap-bbox="true"
     inkscape:bbox-paths="true"
     inkscape:bbox-nodes="true"
     inkscape:snap-bbox-edge-midpoints="true"
     inkscape:snap-bbox-midpoints="true"
     inkscape:snap-intersection-paths="true"
     inkscape:object-nodes="true"
     inkscape:snap-smooth-nodes="true"
     inkscape:snap-midpoints="true"
     inkscape:snap-page="true"
     inkscape:window-width="696"
     inkscape:window-height="651"
     inkscape:window-x="668"
     inkscape:window-y="27"
     inkscape:window-maximized="0"
     inkscape:snap-global="false"
     showguides="false">
    <inkscape:grid
       empspacing="2"
       visible="true"
       enabled="true"
       snapvisiblegridlinesonly="true"
       type="xygrid"
       id="grid2987" />
  </sodipodi:namedview>
  <metadata
     id="metadata7">
    <rdf:RDF>
      <cc:Work
         rdf:about="">
        <dc:format>image/svg+xml</dc:format>
        <dc:type
           rdf:resource="http://purl.org/dc/dcmitype/StillImage" />
        <dc:title></dc:title>
      </cc:Work>
    </rdf:RDF>
  </metadata>
  <g
     inkscape:label="Layer 1"
     inkscape:groupmode="layer"
     id="layer1"
     transform="translate(0,-988.36218)">
    <rect
       style="fill:#f6bb7a;fill-opacity:1;stroke:none"
       id="rect4990"
       width="64"
       height="64"
       x="0"
       y="0"
       transform="translate(0,988.36218)"
       ry="4" />
    <path
       style="fill:#4e8fc0;fill-rule:evenodd;stroke:none;stroke-width:1px;stroke-linecap:butt;stroke-linejoin:miter;stroke-opacity:1;fill-opacity:1"
       d="m 13.501612,1033.5895 4.500537,-3.765 3.064568,-3.2835 c 0,0 0.674205,-0.9807 0.96315,-1.7074 0.288945,-0.7267 0.394016,-1.077 0.420284,-1.795 0.02627,-0.7179 -0.122583,-1.3046 -0.122583,-1.3046 l -4.43049,1.3309 c 0,0 -0.315213,0.2452 -0.53411,0.2802 -0.218898,0.035 -0.402772,0 -0.560379,-0.1051 -0.157606,-0.105 -0.394015,-0.2451 -0.464063,-0.4728 -0.07005,-0.2276 -0.271433,-0.9019 -0.166362,-1.6461 0.105071,-0.7443 0.358992,-1.3922 0.77052,-1.5936 0.411528,-0.2014 1.794961,-0.753 3.388537,-0.7968 1.593575,-0.044 3.187151,0.096 3.187151,0.096 l 3.554899,-12.0482 c 0,0 0.358992,-1.217 0.831811,-1.9876 0.472819,-0.7705 1.260851,-1.83 1.856253,-2.4254 0.595402,-0.5954 2.153953,-1.9263 3.195907,-2.48663 1.041953,-0.56038 0.875591,-0.70923 2.679308,-1.24334 1.803717,-0.53411 4.929577,-0.18388 5.595026,-0.0963 0.665449,0.0876 3.003277,0.53411 4.062742,0.98066 1.059465,0.44655 2.11893,1.49723 2.661796,2.01383 0.542866,0.5166 1.330898,1.5586 1.593575,2.0051 0.262678,0.4466 0.761764,1.471 0.971906,2.2065 0.210142,0.7355 0.323969,1.5498 0.411528,2.4692 0.08756,0.9194 0.06129,2.548 0.06129,2.9945 0,0.4466 -0.14885,1.9526 -0.455307,3.2835 -0.306457,1.3309 -0.840567,2.6968 -1.576064,4.0364 -0.735496,1.3397 -1.83874,2.5918 -2.337827,3.0646 -0.499087,0.4728 -1.120757,1.1383 -2.469167,1.9088 -1.34841,0.7705 -2.871938,0.5604 -3.589922,0.5429 -0.717985,-0.017 -2.215245,-0.3415 -3.344758,-0.9019 -1.129512,-0.5604 -1.523528,-1.0507 -1.523528,-1.0507 l -2.451654,0.3065 1.313386,1.9087 c 0,0 0.858079,1.2084 1.19956,2.0402 0.34148,0.8318 0.595401,1.5498 0.595401,1.5498 0,0 -0.332724,0.6041 -0.744252,0.9193 -0.411528,0.3153 -0.980662,0.2452 -1.322142,0.1139 -0.341481,-0.1314 -0.665449,-0.4466 -0.665449,-0.4466 0,0 -0.01751,0.1051 -0.201386,-0.5253 -0.183874,-0.6305 -0.472819,-1.8475 -0.823056,-2.4079 -0.350236,-0.5604 -0.411527,-0.061 -0.411527,-0.061 0,0 -0.525355,1.9701 -0.779276,2.7056 -0.253922,0.7355 -0.779276,2.2853 -1.173292,3.3535 -0.394016,1.0682 -1.77745,4.3955 -2.180221,5.2623 -0.402772,0.8668 -0.866835,1.9876 -0.866835,1.9876 0,0 -0.481575,0.9018 -1.129513,1.6811 -0.647937,0.7793 -1.173291,1.2171 -1.943811,1.5848 -0.77052,0.3678 -1.313387,0.3065 -1.637355,0.254 -0.323969,-0.053 -1.514773,-0.359 -1.82123,-1.83 -0.306456,-1.471 0.910615,-2.0139 1.506017,-3.0471 0.595402,-1.0332 0.831811,-1.4535 0.840567,-1.7424 0.0088,-0.289 -0.271433,-0.3415 -0.271433,-0.3415 0,0 -0.306457,-0.1488 -1.716158,-1.0332 -1.409701,-0.8843 -1.602331,-1.0157 -1.602331,-1.0157 l -2.302804,2.3028 c 0,0 -0.910614,0.9194 -1.374677,1.1208 -0.464064,0.2014 -0.998174,0.4991 -1.786206,0.2364 -0.788032,-0.2627 -0.928126,-1.1908 -0.945638,-1.4973 -0.01751,-0.3064 -0.0088,-1.4272 0.499087,-1.8825 z"
       id="path3364"
       inkscape:connector-curvature="0" />
    <path
       style="fill:#ffd97c;fill-rule:evenodd;stroke:none;stroke-width:1px;stroke-linecap:butt;stroke-linejoin:miter;stroke-opacity:1;fill-opacity:1"
       d="m 37.309151,1005.6669 c 0,0 0.990618,-1.585 2.266039,-2.4146 1.275421,-0.8297 1.820261,-1.0154 3.380484,-0.9782 1.560224,0.037 2.959472,1.4859 3.293805,1.9812 0.334334,0.4953 1.163976,1.6221 1.671668,3.6653 0.507692,2.0431 0.309568,4.6187 0.06191,5.6341 -0.247655,1.0154 -0.02477,0.6935 -0.842026,2.9223 -0.81726,2.2289 -2.625137,3.9501 -3.529076,4.4702 -0.903939,0.5201 -2.464163,1.1145 -4.0863,0.4953 -1.622137,-0.6191 -3.108064,-2.1917 -3.813879,-4.7797 -0.705816,-2.588 -0.421013,-5.2503 -0.235272,-6.1295 0.185741,-0.8791 0.421013,-2.7365 1.832643,-4.8664 z"
       id="path3366"
       inkscape:connector-curvature="0" />
    <path
       style="fill:#4e8fc0;fill-rule:evenodd;stroke:none;stroke-width:1px;stroke-linecap:butt;stroke-linejoin:miter;stroke-opacity:1;fill-opacity:1"
       d="m 40.242158,1009.9135 c 0,-0.035 0.858079,-1.6461 1.812473,-1.4009 0.954394,0.2452 0.507843,2.1977 -0.06129,3.1609 -0.569134,0.9631 -1.287119,1.3221 -1.637355,1.217 -0.350237,-0.105 -1.164536,-0.8055 -0.113827,-2.977 z"
       id="path3368"
       inkscape:connector-curvature="0" />
    <path
       style="fill:#4e8fc0;fill-rule:evenodd;stroke:none;stroke-width:1px;stroke-linecap:butt;stroke-linejoin:miter;stroke-opacity:1;fill-opacity:1"
       d="m 46.047326,1009.3969 c 0,0 0.91937,0.1051 0.674205,2.0752 -0.245166,1.9701 -1.593576,2.6968 -1.987592,2.4954 -0.394016,-0.2014 -0.840567,-0.6304 -0.481575,-2.3553 0.358993,-1.7249 1.514773,-2.2941 1.794962,-2.2153 z"
       id="path3370"
       inkscape:connector-curvature="0" />
  </g>
</svg>
