<?xml version="1.0" encoding="UTF-8" standalone="no"?>
<!-- Created with Inkscape (http://www.inkscape.org/) -->

<svg
   xmlns:dc="http://purl.org/dc/elements/1.1/"
   xmlns:cc="http://creativecommons.org/ns#"
   xmlns:rdf="http://www.w3.org/1999/02/22-rdf-syntax-ns#"
   xmlns:svg="http://www.w3.org/2000/svg"
   xmlns="http://www.w3.org/2000/svg"
   xmlns:sodipodi="http://sodipodi.sourceforge.net/DTD/sodipodi-0.dtd"
   xmlns:inkscape="http://www.inkscape.org/namespaces/inkscape"
   width="64"
   height="64"
   id="svg2"
   version="1.1"
   inkscape:version="0.91 r13725"
   sodipodi:docname="gdeb.svg">
  <defs
     id="defs4" />
  <sodipodi:namedview
     id="base"
     pagecolor="#ffffff"
     bordercolor="#666666"
     borderopacity="1.0"
     inkscape:pageopacity="0.0"
     inkscape:pageshadow="2"
     inkscape:zoom="5.2371972"
     inkscape:cx="28.402059"
     inkscape:cy="3.7603582"
     inkscape:document-units="px"
     inkscape:current-layer="layer1"
     showgrid="true"
     inkscape:object-paths="true"
     inkscape:snap-object-midpoints="true"
     inkscape:snap-center="true"
     inkscape:snap-bbox="true"
     inkscape:bbox-paths="true"
     inkscape:bbox-nodes="true"
     inkscape:snap-bbox-edge-midpoints="true"
     inkscape:snap-bbox-midpoints="true"
     inkscape:snap-intersection-paths="true"
     inkscape:object-nodes="true"
     inkscape:snap-smooth-nodes="true"
     inkscape:snap-midpoints="true"
     inkscape:snap-page="true"
     inkscape:window-width="697"
     inkscape:window-height="714"
     inkscape:window-x="448"
     inkscape:window-y="27"
     inkscape:window-maximized="0"
     showguides="true">
    <inkscape:grid
       empspacing="2"
       visible="true"
       enabled="true"
       snapvisiblegridlinesonly="true"
       type="xygrid"
       id="grid2987" />
  </sodipodi:namedview>
  <metadata
     id="metadata7">
    <rdf:RDF>
      <cc:Work
         rdf:about="">
        <dc:format>image/svg+xml</dc:format>
        <dc:type
           rdf:resource="http://purl.org/dc/dcmitype/StillImage" />
        <dc:title />
      </cc:Work>
    </rdf:RDF>
  </metadata>
  <g
     inkscape:label="Layer 1"
     inkscape:groupmode="layer"
     id="layer1"
     transform="translate(0,-988.36218)">
    <rect
       style="fill:#67abba;fill-opacity:1;stroke:none"
       id="rect4990"
       width="64"
       height="64"
       x="0"
       y="0"
       ry="4"
       transform="translate(0,988.36218)" />
    <path
       style="fill:#d5eaed;fill-opacity:1;fill-rule:evenodd;stroke:none;stroke-width:1px;stroke-linecap:butt;stroke-linejoin:miter;stroke-opacity:1"
       d="m 13.111111,1000.3622 c 0,0 -2.111111,0 -2.111111,2.1111 l 0,14.7778 c 0,0 0,2.1111 2.111111,2.1111 l 14.777778,0 c 0,0 2.111111,0 2.111111,-2.1111 l 0,-14.7778 c 0,0 0,-2.1111 -2.111111,-2.1111 z"
       id="path4144"
       inkscape:connector-curvature="0"
       sodipodi:nodetypes="cscscscsc" />
    <path
       style="fill:#d5eaed;fill-opacity:1;fill-rule:evenodd;stroke:none;stroke-width:1px;stroke-linecap:butt;stroke-linejoin:miter;stroke-opacity:1"
       d="m 34.111111,1000.3622 c 0,0 -2.111111,0 -2.111111,2.1112 l 0,14.7777 c 0,0 0,2.1111 2.111111,2.1111 l 14.777778,0 c 0,0 2.111111,0 2.111111,-2.1111 l 0,-14.7777 c 0,0 0,-2.1112 -2.111111,-2.1112 z"
       id="path4144-2"
       inkscape:connector-curvature="0"
       sodipodi:nodetypes="cscscscsc" />
    <path
       style="fill:#d5eaed;fill-opacity:1;fill-rule:evenodd;stroke:none;stroke-width:1px;stroke-linecap:butt;stroke-linejoin:miter;stroke-opacity:1"
       d="m 13.111111,1021.3622 c 0,0 -2.111111,0 -2.111111,2.1111 l 0,14.7778 c 0,0 0,2.1111 2.111111,2.1111 l 14.777778,0 c 0,0 2.111111,0 2.111111,-2.1111 l 0,-14.7778 c 0,0 0,-2.1111 -2.111111,-2.1111 z"
       id="path4144-5"
       inkscape:connector-curvature="0"
       sodipodi:nodetypes="cscscscsc" />
    <path
       style="fill:#d5eaed;fill-opacity:1;fill-rule:evenodd;stroke:none;stroke-width:1px;stroke-linecap:butt;stroke-linejoin:miter;stroke-opacity:1"
       d="m 35.222222,1022.3622 c 0,0 -2.222222,0 -2.222222,2.2222 l 0,15.5556 c 0,0 0,2.2222 2.222222,2.2222 l 15.555556,0 c 0,0 2.222222,0 2.222222,-2.2222 l 0,-15.5556 c 0,0 0,-2.2222 -2.222222,-2.2222 z"
       id="path4144-1"
       inkscape:connector-curvature="0"
       sodipodi:nodetypes="cscscscsc" />
    <path
       style="fill:#67abba;fill-opacity:1;fill-rule:evenodd;stroke:none;stroke-width:1px;stroke-linecap:butt;stroke-linejoin:miter;stroke-opacity:1"
       d="m 36.777778,1024.3622 c 0,0 -1.777778,0 -1.777778,1.8272 l 0,12.79 c 0,0 0,1.8272 1.777778,1.8272 l 12.444444,0 c 0,0 1.777778,0 1.777778,-1.8272 l 0,-12.79 c 0,0 0,-1.8272 -1.777778,-1.8272 z"
       id="path4144-9"
       inkscape:connector-curvature="0"
       sodipodi:nodetypes="cscscscsc" />
    <path
       style="fill:#67abba;fill-rule:evenodd;stroke:none;stroke-width:1px;stroke-linecap:butt;stroke-linejoin:miter;stroke-opacity:1;fill-opacity:1"
       d="m 14,1003.3622 c 0,0 0,-1 1,-1 1,0 9,0 9,0 0,0 3,0 3,8 0,8 -3,7 -3,7 l -9,0 c 0,0 -1,0 -1,-1 0,-1 0,-13 0,-13 z"
       id="path4159"
       inkscape:connector-curvature="0" />
    <path
       style="fill:#d5eaed;fill-rule:evenodd;stroke:none;stroke-width:1px;stroke-linecap:butt;stroke-linejoin:miter;stroke-opacity:1;fill-opacity:1"
       d="m 17,1006.3622 c 0,0 0,-1 1,-1 l 5,0 c 0,0 1,0 1,5 0,4 -1,4 -1,4 l -5,0 c 0,0 -1,0 -1,-1 z"
       id="path4161"
       inkscape:connector-curvature="0"
       sodipodi:nodetypes="cscsccsc" />
    <path
       style="fill:#67abba;fill-rule:evenodd;stroke:none;stroke-width:1px;stroke-linecap:butt;stroke-linejoin:miter;stroke-opacity:1;fill-opacity:1"
       d="m 35,1003.3622 c 0,0 0,-1 1,-1 l 11,0 c 0,0 1,0 1,1 l 0,1 c 0,0 0,1 -1,1 l -8,0 c 0,0 -1,0 -1,1 l 0,1 c 0,0 0,1 1,1 l 8,0 c 0,0 1,0 1,1 l 0,1 c 0,0 3e-5,1 -1,1 l -8,0 c 0,0 -1,0 -1,1 l 0,1 c 0,0 0,1 1,1 l 8,0 c 0,0 1,0 1,1 l 0,1 c 0,0 0,1 -1,1 l -11,0 c 0,0 -1,0 -1,-1 z"
       id="path4163"
       inkscape:connector-curvature="0"
       sodipodi:nodetypes="cscscscscscscscscscscscsc" />
    <path
       style="fill:#67abba;fill-opacity:1;fill-rule:evenodd;stroke:none;stroke-width:1px;stroke-linecap:butt;stroke-linejoin:miter;stroke-opacity:1"
       d="m 14,1024.3622 c 0,0 0,-1 1,-1 l 9,0 c 0,0 3,0 3,4 0,5 -3,5 -3,5 l -9,-1 c 0,0 -1,0 -1,-1 z"
       id="path4165"
       inkscape:connector-curvature="0"
       sodipodi:nodetypes="cscsccsc" />
    <path
       style="fill:#d5eaed;fill-opacity:1;fill-rule:evenodd;stroke:none;stroke-width:1px;stroke-linecap:butt;stroke-linejoin:miter;stroke-opacity:1"
       d="m 17,1027.3622 c 0,0 0,-1 1,-1 l 5,0 c 0,0 1,0 1,1 0,3 -2,3 -2,3 l -5,0 z"
       id="path4167"
       inkscape:connector-curvature="0"
       sodipodi:nodetypes="cscsccc" />
    <path
       style="fill:#67abba;fill-opacity:1;fill-rule:evenodd;stroke:none;stroke-width:1px;stroke-linecap:butt;stroke-linejoin:miter;stroke-opacity:1"
       d="m 14,1031.3622 c 0,0 -1.3e-5,-1 1,-1 l 10,0 c 0,0 2,0 2,4 0,4 -3,4 -3,4 l -9,0 c 0,0 -1,0 -1,-1 z"
       id="path4165-6"
       inkscape:connector-curvature="0"
       sodipodi:nodetypes="cscsccsc" />
    <path
       style="fill:#d5eaed;fill-opacity:1;fill-rule:evenodd;stroke:none;stroke-width:1px;stroke-linecap:butt;stroke-linejoin:miter;stroke-opacity:1"
       d="m 17,1034.3622 0,-3 5,0 c 0,0 2,0 2,3 0,1 -1,1 -1,1 l -5,0 c 0,0 -1,0 -1,-1 z"
       id="path4167-8"
       inkscape:connector-curvature="0"
       sodipodi:nodetypes="cccsccc" />
  </g>
</svg>
