<?xml version="1.0" encoding="UTF-8" standalone="no"?>
<!-- Created with Inkscape (http://www.inkscape.org/) -->

<svg
   xmlns:dc="http://purl.org/dc/elements/1.1/"
   xmlns:cc="http://creativecommons.org/ns#"
   xmlns:rdf="http://www.w3.org/1999/02/22-rdf-syntax-ns#"
   xmlns:svg="http://www.w3.org/2000/svg"
   xmlns="http://www.w3.org/2000/svg"
   xmlns:sodipodi="http://sodipodi.sourceforge.net/DTD/sodipodi-0.dtd"
   xmlns:inkscape="http://www.inkscape.org/namespaces/inkscape"
   width="64"
   height="64"
   id="svg2"
   version="1.1"
   inkscape:version="0.91 r13725"
   sodipodi:docname="geany.svg">
  <defs
     id="defs4" />
  <sodipodi:namedview
     id="base"
     pagecolor="#ffffff"
     bordercolor="#666666"
     borderopacity="1.0"
     inkscape:pageopacity="0.0"
     inkscape:pageshadow="2"
     inkscape:zoom="4.2688404"
     inkscape:cx="38.091083"
     inkscape:cy="13.642506"
     inkscape:document-units="px"
     inkscape:current-layer="layer1"
     showgrid="true"
     inkscape:object-paths="true"
     inkscape:snap-object-midpoints="true"
     inkscape:snap-center="true"
     inkscape:snap-bbox="true"
     inkscape:bbox-paths="true"
     inkscape:bbox-nodes="true"
     inkscape:snap-bbox-edge-midpoints="true"
     inkscape:snap-bbox-midpoints="true"
     inkscape:snap-intersection-paths="true"
     inkscape:object-nodes="true"
     inkscape:snap-smooth-nodes="true"
     inkscape:snap-midpoints="true"
     inkscape:snap-page="true"
     inkscape:window-width="696"
     inkscape:window-height="651"
     inkscape:window-x="311"
     inkscape:window-y="27"
     inkscape:window-maximized="0">
    <inkscape:grid
       empspacing="2"
       visible="true"
       enabled="true"
       snapvisiblegridlinesonly="true"
       type="xygrid"
       id="grid2987" />
  </sodipodi:namedview>
  <metadata
     id="metadata7">
    <rdf:RDF>
      <cc:Work
         rdf:about="">
        <dc:format>image/svg+xml</dc:format>
        <dc:type
           rdf:resource="http://purl.org/dc/dcmitype/StillImage" />
        <dc:title />
      </cc:Work>
    </rdf:RDF>
  </metadata>
  <g
     inkscape:label="Layer 1"
     inkscape:groupmode="layer"
     id="layer1"
     transform="translate(0,-988.36218)">
    <rect
       style="fill:#d54e68;fill-opacity:1;stroke:none"
       id="rect4990"
       width="64"
       height="64"
       x="0"
       y="0"
       transform="translate(0,988.36218)"
       ry="4" />
    <path
       style="fill:#ffbbc4;fill-rule:evenodd;stroke:none;stroke-width:1px;stroke-linecap:butt;stroke-linejoin:miter;stroke-opacity:1;fill-opacity:1"
       d="m 10,1001.3622 c 0,0 0,-3.00002 3,-3.00002 l 38,0 c 0,0 3,0 3,3.00002 l 0,38 c 0,0 0,3 -3,3 l -38,0 c 0,0 -3,0 -3,-3 z"
       id="path3340"
       inkscape:connector-curvature="0"
       sodipodi:nodetypes="cscscscsc" />
    <rect
       style="fill:#d54e68;fill-opacity:1;stroke:none;stroke-opacity:1"
       id="rect3342"
       width="5"
       height="4.9999976"
       x="16"
       y="1000.8622"
       ry="2.4999988" />
    <rect
       style="fill:#d54e68;fill-opacity:1;stroke:none;stroke-opacity:1"
       id="rect3344"
       width="5"
       height="4.9999976"
       x="25"
       y="1000.8622"
       ry="2.4999988" />
    <rect
       style="fill:#d54e68;fill-opacity:1;stroke:none;stroke-opacity:1"
       id="rect3346"
       width="5"
       height="4.9999976"
       x="34"
       y="1000.8622"
       ry="2.4999988" />
    <rect
       style="fill:#d54e68;fill-opacity:1;stroke:none;stroke-opacity:1"
       id="rect3348"
       width="5"
       height="4.9999976"
       x="43"
       y="1000.8622"
       ry="2.4999988" />
    <path
       style="fill:#d54e68;fill-opacity:1;fill-rule:evenodd;stroke:none;stroke-width:1px;stroke-linecap:butt;stroke-linejoin:miter;stroke-opacity:1"
       d="m 12.523371,1023.2886 c 0,0 0.310068,-0.1511 0.69148,-0.048 0.38141,0.1034 1.135996,0.5614 1.55308,0.7837 0.417082,0.2225 1.473506,0.7258 1.465274,0.7287 -0.0082,0 1.059169,0.4686 1.059169,0.4686 0,0 0.636599,0.257 0.987825,0.3576 0.351227,0.1003 0.513121,0.1218 0.513121,0.1218 0,0 0.101531,0.027 0.227749,-0.027 0.126221,-0.054 0.603671,-0.3577 0.746358,-0.4609 0.142684,-0.1034 0.414335,-0.3152 0.578974,-0.445 0.164637,-0.1296 0.559768,-0.4582 0.672269,-0.5297 0.112507,-0.072 0.175615,-0.106 0.192077,-0.1111 0.01647,-0.011 7.861446,0.01 7.861446,0.01 0,0 0.507633,0.543 0.71343,0.7178 0.205797,0.1748 0.584465,0.5059 0.971362,0.7628 0.386898,0.257 0.89453,0.572 1.243015,0.7443 0.348481,0.1722 0.718916,0.3576 1.072888,0.4954 0.353969,0.1376 0.373178,0.1509 0.373178,0.1509 0,0 0.713429,0.1483 1.188135,0.1404 0.474702,-0.01 0.938434,-0.025 1.484481,-0.1139 0.546048,-0.089 0.930203,-0.1906 1.144232,-0.2569 0.214028,-0.067 0.628366,-0.1934 0.927457,-0.3258 0.299093,-0.1323 0.669527,-0.2782 1.193624,-0.6304 0.524096,-0.3524 0.856116,-0.8026 0.856116,-0.8026 0,0 0.194822,-0.2806 0.279883,-0.4741 0.08507,-0.1933 0.15915,-0.3922 0.156405,-0.4106 -0.0027,-0.018 0.0027,0 0.0027,0 l 1.586008,0 0.614647,0 c 0,0 -0.02745,0.1431 -0.170125,0.5299 -0.142686,0.3866 -0.219517,0.5667 -0.408848,0.9296 -0.189336,0.3629 -0.266166,0.4211 -0.573491,0.7999 -0.307321,0.3787 -0.847882,0.8451 -1.245757,1.1417 -0.397873,0.2966 -0.628366,0.466 -1.072888,0.7309 -0.444522,0.265 -0.598183,0.3551 -1.182647,0.6489 -0.584463,0.2943 -1.094839,0.4953 -1.094839,0.4953 0,0 -0.655807,0.3074 -0.916484,0.461 -0.260676,0.1535 -0.589952,0.3151 -1.223806,0.7072 -0.633856,0.3921 -1.174413,0.7577 -1.468017,0.9562 -0.293606,0.1987 -1.048193,0.7232 -1.048193,0.7232 0,0 -1.207343,0.8344 -1.646377,1.131 -0.439034,0.2965 -0.897273,0.6091 -1.624423,1.0169 -0.72715,0.4081 -1.039961,0.5432 -1.223808,0.6332 -0.183845,0.089 -0.290859,0.1643 -0.321042,0.2436 -0.03018,0.079 -0.0054,0.1722 0.148173,0.2915 0.153661,0.1192 0.65032,0.6092 0.65032,0.6092 0,0 0.381409,0.3839 0.551536,0.6303 0.170125,0.2464 0.268906,0.3232 0.532326,0.8848 0.263425,0.5615 0.244218,0.6754 0.244218,0.6754 l -9.601116,0 c 0,0 0.08507,-0.4343 0.381411,-0.9086 0.296349,-0.474 0.823187,-1.0461 1.199111,-1.3535 0.375922,-0.3071 0.576231,-0.4767 0.576231,-0.4767 0,0 0.252444,-0.2119 0.09878,-0.4079 -0.153661,-0.196 -0.910995,-0.4661 -1.056424,-0.5298 -0.145429,-0.064 -1.284173,-0.551 -1.284173,-0.551 l -1.374724,-0.5871 c 0,0 -0.493912,-0.2145 -0.952153,-0.4397 -0.458244,-0.2251 -0.727151,-0.3443 -1.26771,-0.6674 -0.540562,-0.3232 -0.784773,-0.4928 -1.212829,-0.8212 -0.428061,-0.3283 -0.40062,-0.3362 -0.754591,-0.6542 -0.353971,-0.3178 -0.982338,-1.1231 -0.982338,-1.1231 0,0 -0.524096,-0.7442 -0.729893,-1.1866 -0.205797,-0.4424 -0.334761,-0.7204 -0.439032,-1.0383 -0.104279,-0.3178 -0.194822,-0.5881 -0.290861,-1.0065 -0.09605,-0.4185 -0.164637,-0.8581 -0.200309,-1.2873 -0.03567,-0.4291 -0.0054,-1.1257 0.05762,-1.3773 0.06311,-0.2517 0.181102,-0.4901 0.570746,-0.6675 z"
       id="path4152"
       inkscape:connector-curvature="0" />
    <path
       style="fill:#d54e68;fill-opacity:1;fill-rule:evenodd;stroke:none;stroke-width:1px;stroke-linecap:butt;stroke-linejoin:miter;stroke-opacity:1"
       d="m 21.734343,1022.9361 c 0,0 0.633855,-1.131 0.793005,-1.3455 0.159149,-0.2146 0.425311,-0.6807 0.773797,-1.1098 0.348483,-0.4292 0.680501,-0.8263 1.204599,-1.017 0.524095,-0.191 1.020753,-0.075 1.278685,0.041 0.257933,0.1166 0.669526,0.3975 1.133256,0.9907 0.463728,0.5932 0.370434,0.5324 0.812211,1.1655 0.441779,0.633 0.765566,1.2633 0.765566,1.2633 z"
       id="path4154"
       inkscape:connector-curvature="0" />
    <path
       style="fill:#ffd2be;fill-opacity:1;fill-rule:evenodd;stroke:none;stroke-width:1px;stroke-linecap:butt;stroke-linejoin:miter;stroke-opacity:1"
       d="m 14.69883,1026.5676 c 0,0 0.0933,-0.035 0.716175,0.2859 0.622878,0.3206 1.520152,0.6411 1.520152,0.6411 0,0 0.266165,0.1035 0.414338,0.1511 0.148173,0.047 0.548794,0.1853 0.557023,0.2144 0.0082,0.029 0.244215,1.2343 0.28263,1.4092 0.03842,0.1748 0.252444,1.2502 0.257931,1.3111 0.0054,0.06 0.03291,0.151 -0.131709,0.1298 -0.164637,-0.021 -0.850629,-0.4266 -1.02624,-0.5535 -0.175616,-0.1273 -0.672271,-0.4529 -1.070145,-0.8476 -0.397876,-0.3948 -0.642089,-0.6887 -0.883554,-1.0383 -0.241471,-0.3496 -0.485683,-0.832 -0.675016,-1.2345 -0.189335,-0.4026 -0.120735,-0.4873 0.03842,-0.4687 z"
       id="path4156"
       inkscape:connector-curvature="0" />
  </g>
</svg>
