<?xml version="1.0" encoding="UTF-8" standalone="no"?>
<!-- Created with Inkscape (http://www.inkscape.org/) -->

<svg
   xmlns:dc="http://purl.org/dc/elements/1.1/"
   xmlns:cc="http://creativecommons.org/ns#"
   xmlns:rdf="http://www.w3.org/1999/02/22-rdf-syntax-ns#"
   xmlns:svg="http://www.w3.org/2000/svg"
   xmlns="http://www.w3.org/2000/svg"
   xmlns:sodipodi="http://sodipodi.sourceforge.net/DTD/sodipodi-0.dtd"
   xmlns:inkscape="http://www.inkscape.org/namespaces/inkscape"
   width="64"
   height="64"
   id="svg2"
   version="1.1"
   inkscape:version="0.91 r13725"
   sodipodi:docname="gimp.svg">
  <defs
     id="defs4">
    <clipPath
       id="clipPath-744510083">
      <g
         transform="translate(0,-1004.3622)"
         id="g17">
        <path
           style="fill:#1890d0"
           inkscape:connector-curvature="0"
           d="m -24,13 c 0,1.105 -0.672,2 -1.5,2 -0.828,0 -1.5,-0.895 -1.5,-2 0,-1.105 0.672,-2 1.5,-2 0.828,0 1.5,0.895 1.5,2 z"
           transform="matrix(15.333333,0,0,11.5,414.99999,878.8622)"
           id="path19" />
      </g>
    </clipPath>
  </defs>
  <sodipodi:namedview
     id="base"
     pagecolor="#ffffff"
     bordercolor="#666666"
     borderopacity="1.0"
     inkscape:pageopacity="0.0"
     inkscape:pageshadow="2"
     inkscape:zoom="5.6568543"
     inkscape:cx="43.138245"
     inkscape:cy="27.392724"
     inkscape:document-units="px"
     inkscape:current-layer="layer1"
     showgrid="true"
     inkscape:object-paths="true"
     inkscape:snap-object-midpoints="true"
     inkscape:snap-center="true"
     inkscape:snap-bbox="true"
     inkscape:bbox-paths="true"
     inkscape:bbox-nodes="true"
     inkscape:snap-bbox-edge-midpoints="true"
     inkscape:snap-bbox-midpoints="true"
     inkscape:snap-intersection-paths="true"
     inkscape:object-nodes="true"
     inkscape:snap-smooth-nodes="true"
     inkscape:snap-midpoints="true"
     inkscape:snap-page="true"
     inkscape:window-width="696"
     inkscape:window-height="651"
     inkscape:window-x="656"
     inkscape:window-y="27"
     inkscape:window-maximized="0"
     inkscape:snap-global="false">
    <inkscape:grid
       empspacing="2"
       visible="true"
       enabled="true"
       snapvisiblegridlinesonly="true"
       type="xygrid"
       id="grid2987" />
  </sodipodi:namedview>
  <metadata
     id="metadata7">
    <rdf:RDF>
      <cc:Work
         rdf:about="">
        <dc:format>image/svg+xml</dc:format>
        <dc:type
           rdf:resource="http://purl.org/dc/dcmitype/StillImage" />
        <dc:title></dc:title>
      </cc:Work>
    </rdf:RDF>
  </metadata>
  <g
     inkscape:label="Layer 1"
     inkscape:groupmode="layer"
     id="layer1"
     transform="translate(0,-988.36218)">
    <rect
       style="fill:#deaf5e;fill-opacity:1;stroke:none"
       id="rect4990"
       width="64"
       height="64"
       x="0"
       y="0"
       transform="translate(0,988.36218)"
       ry="4" />
    <path
       style="fill:#bb7944;fill-opacity:1;fill-rule:evenodd;stroke:none;stroke-width:1px;stroke-linecap:butt;stroke-linejoin:miter;stroke-opacity:1"
       d="m 17.97318,1003.534 c 0,0 0.04067,-0.2108 0.203358,-0.011 0.162688,0.2008 1.321831,1.5668 1.565861,1.788 0.244031,0.2209 0.76768,0.7833 0.889695,0.8888 0.122015,0.1056 0.843939,0.8135 1.133724,1.0345 0.289786,0.2211 0.772763,0.668 1.474351,1.1803 0.701588,0.5122 1.286243,0.8989 1.840395,1.2354 0.554153,0.3365 1.454015,0.8386 2.013251,1.1049 0.559236,0.2661 1.159144,0.5372 1.916655,0.8135 0.757512,0.2762 1.560778,0.5525 2.491144,0.7734 0.930367,0.2209 2.104762,0.447 2.852105,0.5022 0.747343,0.056 2.130182,0.1457 2.699586,0.1008 0.569404,-0.045 1.047297,-0.025 1.743801,-0.1306 0.696504,-0.1055 2.003083,-0.3113 2.765678,-0.5574 0.762595,-0.2461 1.270992,-0.3415 2.079341,-0.7282 0.808351,-0.3867 1.098139,-0.4923 1.952244,-0.9843 0.854107,-0.4922 1.642121,-1.0647 1.94716,-1.351 0.305038,-0.2863 0.604991,-0.482 1.393007,-1.2656 0.788014,-0.7835 1.443846,-1.7778 1.443846,-1.7778 0,0 0.61516,-0.8788 0.991372,-1.6472 0.376215,-0.7684 0.310123,-0.5825 0.620246,-1.3259 0.310122,-0.7432 0.325373,-0.8135 0.325373,-0.8135 0,0 0.106767,-0.4822 0.305038,0.07 0.198274,0.5524 0.508398,1.3961 0.798183,2.6064 0.289785,1.2104 0.360962,2.1847 0.391465,2.5864 0.03051,0.4019 0.01524,1.1349 -0.06609,2.0038 -0.08134,0.8688 -0.467725,2.2398 -0.803268,2.9279 -0.335541,0.688 -0.391464,0.9091 -1.021876,1.9184 -0.630412,1.0095 -1.270992,1.7227 -2.221694,2.8225 -0.9507,1.0997 -1.860731,1.9686 -2.191189,2.3553 -0.330457,0.3867 -0.554152,0.452 -0.579572,0.7433 -0.02542,0.2913 -0.137268,2.1544 -0.34571,3.1086 -0.208443,0.9542 -0.462641,2.014 -1.174396,3.41 -0.711756,1.3962 -1.347251,2.2449 -1.347251,2.2449 l -2.394549,2.8124 c 0,0 -0.721922,0.6428 -1.830228,1.2807 -1.108305,0.6377 -2.181021,0.9893 -3.152058,1.2856 -0.971039,0.2963 -1.118472,0.2863 -2.435221,0.4972 -1.316747,0.2109 -1.738716,0.1658 -2.521647,0.2009 -0.782931,0.036 -2.30812,-0.04 -3.131724,-0.1156 -0.823602,-0.076 -1.586197,-0.1707 -2.491143,-0.3365 -0.904947,-0.1656 -1.972579,-0.2862 -4.829767,-1.2002 -2.85719,-0.914 -5.083968,-1.9988 -6.339707,-2.7522 -1.25574,-0.7532 -1.804808,-1.15 -1.804808,-1.15 0,0 0.650748,0.09 1.433679,-0.2711 0.78293,-0.3616 1.545525,-1.0347 1.860731,-1.5318 0.315206,-0.4972 0.711756,-1.0999 0.854106,-2.0038 0.142351,-0.904 0.07626,-1.818 -0.157603,-2.5614 -0.233862,-0.7431 -0.528733,-1.4563 -0.945618,-2.1091 -0.416885,-0.6529 -0.950701,-1.3862 -1.108303,-1.572 -0.157604,-0.1859 -0.01525,0 -0.01525,0 0,0 2.079343,-0.09 2.257282,-0.1055 0.177938,-0.015 4.391412,-0.8796 4.391412,-0.8796 l -1.783073,-2.6421 c 0,0 -0.733362,-1.1506 -1.337306,-3.3806 -0.603945,-2.2301 -0.589564,-6.5768 -0.589564,-6.5768 z"
       id="path4196"
       inkscape:connector-curvature="0" />
    <path
       style="fill:#483737;fill-rule:evenodd;stroke:none;stroke-width:1px;stroke-linecap:butt;stroke-linejoin:miter;stroke-opacity:1"
       d="m 13.363607,1029.6895 c 0,0 -0.430939,0.031 -0.870949,-0.1029 -0.440011,-0.1345 -0.843732,-0.3003 -1.451582,-0.7842 -0.60785,-0.484 -1.007035,-1.0306 -1.2928146,-1.4295 -0.2857799,-0.3988 -0.4808362,-0.7617 -0.7802245,-1.4384 -0.2993893,-0.6766 -0.4536194,-1.2681 -0.6033141,-2.0478 -0.1496945,-0.7797 -0.1542307,-1.425 -0.1224768,-1.9133 0.031754,-0.4885 0.1179403,-1.3444 0.5398064,-2.254 0.4218661,-0.9096 0.9616725,-1.2771 1.2792066,-1.528 0.317532,-0.251 0.966208,-0.4974 1.578595,-0.5198 0.612386,-0.023 1.392611,0.3002 1.864375,0.6005 0.471764,0.3001 0.648675,0.4391 1.043324,0.8199 0.394649,0.381 0.458155,0.4885 0.639603,0.7035 0.181448,0.2152 0.272171,0.3228 0.653211,0.8739 0.381041,0.5511 0.517127,0.7752 0.911774,1.5997 0.394649,0.8245 0.603315,1.8865 0.603315,2.5989 0,0.7126 -0.02722,0.7797 -0.145158,1.3399 -0.117941,0.5601 -0.430939,1.2905 -1.016107,1.976 -0.58517,0.6857 -1.124976,0.9366 -1.564987,1.192 -0.440011,0.2554 -0.943527,0.3271 -1.283742,0.3092 -0.340214,-0.019 0.01816,0 0.01816,0 z"
       id="path4198"
       inkscape:connector-curvature="0" />
    <path
       style="fill:#eaebd7;fill-opacity:1;fill-rule:evenodd;stroke:none;stroke-width:1px;stroke-linecap:butt;stroke-linejoin:miter;stroke-opacity:1"
       d="m 10.328894,1020.5438 c 0,0 0.598778,-0.6139 1.220235,-0.063 0.621458,0.5511 0.281244,1.3443 -0.0045,1.5862 -0.28578,0.2419 -0.517127,0.2957 -0.925383,0.1658 -0.408258,-0.13 -0.567025,-0.6722 -0.557952,-0.9544 0.0091,-0.2823 0.0998,-0.5423 0.267636,-0.7349 z"
       id="path4200"
       inkscape:connector-curvature="0" />
    <path
       style="fill:#eaebd7;fill-opacity:1;fill-rule:evenodd;stroke:none;stroke-width:1px;stroke-linecap:butt;stroke-linejoin:miter;stroke-opacity:1"
       d="m 17.350919,1019.5446 c 0,0 -0.05443,-0.8246 0.417329,-1.658 0.471765,-0.8335 0.698574,-1.0217 1.324569,-1.4967 0.625995,-0.4749 1.950563,-0.6811 2.748933,-0.4839 0.79837,0.1972 1.506016,0.6721 1.923345,1.1739 0.417331,0.502 1.124977,1.5774 0.825587,3.1547 -0.299388,1.5773 -1.2157,2.133 -1.623956,2.4108 -0.408258,0.2779 -1.569523,0.8872 -2.993887,0.4213 -1.424365,-0.4661 -1.887056,-1.2457 -2.177373,-1.8014 -0.290316,-0.5557 -0.417329,-1.0037 -0.444547,-1.7207 z"
       id="path4202"
       inkscape:connector-curvature="0" />
    <path
       style="fill:#483737;fill-rule:evenodd;stroke:none;stroke-width:1px;stroke-linecap:butt;stroke-linejoin:miter;stroke-opacity:1"
       d="m 20.526254,1020.396 c 0,0 0.09073,-1.3892 1.379002,-1.6671 1.288278,-0.2776 2.004997,1.2728 1.805405,2.142 -0.199592,0.8693 -0.480837,1.2905 -1.270133,1.5237 -0.789299,0.233 -1.406221,-0.4662 -1.578595,-0.7081 -0.172376,-0.242 -0.308461,-0.466 -0.335679,-1.2905 z"
       id="path4204"
       inkscape:connector-curvature="0" />
    <path
       style="fill:#eaebd7;fill-opacity:1;fill-rule:evenodd;stroke:none;stroke-width:1px;stroke-linecap:butt;stroke-linejoin:miter;stroke-opacity:1"
       d="m 20.630587,1021.1622 c 0,0 -0.05443,-0.2643 0.222274,-0.4347 0.276707,-0.1702 0.53527,0.036 0.57156,0.099 0.03629,0.063 0.217736,0.2642 0.03629,0.5555 -0.181448,0.2914 -0.553416,0.2242 -0.684965,0.089 -0.13155,-0.1344 -0.145159,-0.2555 -0.145159,-0.3092 z"
       id="path4208"
       inkscape:connector-curvature="0" />
    <path
       style="fill:#eaebd7;fill-opacity:1;fill-rule:evenodd;stroke:none;stroke-width:1px;stroke-linecap:butt;stroke-linejoin:miter;stroke-opacity:1"
       d="m 24.783006,1020.2546 c 0,0 0.449061,-2.4207 3.11776,-3.2952 2.6687,-0.8745 4.798529,1.0012 5.401553,2.3446 0.603023,1.3435 0.769816,2.8265 -0.218117,4.5628 -0.98793,1.7364 -2.899644,2.1546 -3.861916,2.1293 -0.962272,-0.025 -2.078506,-0.1903 -3.310214,-1.3943 -1.231708,-1.204 -1.462653,-3.2952 -1.129066,-4.3472 z"
       id="path4210"
       inkscape:connector-curvature="0" />
    <path
       style="fill:#483737;fill-rule:evenodd;stroke:none;stroke-width:1px;stroke-linecap:butt;stroke-linejoin:miter;stroke-opacity:1"
       d="m 28.439639,1020.9517 c 0,0 0.198869,-0.7287 0.859629,-1.166 0.66076,-0.4373 1.462653,-0.2979 1.98228,0.2536 0.519626,0.5513 0.67359,1.2166 0.680005,1.7426 0.0064,0.5259 -0.102644,1.4891 -0.936611,2.0849 -0.833969,0.5956 -1.738504,0.1837 -2.110583,-0.3043 -0.372079,-0.4878 -0.840384,-1.3877 -0.47472,-2.6108 z"
       id="path4212"
       inkscape:connector-curvature="0" />
    <path
       style="fill:#eaebd7;fill-opacity:1;fill-rule:evenodd;stroke:none;stroke-width:1px;stroke-linecap:butt;stroke-linejoin:miter;stroke-opacity:1"
       d="m 29.371829,1022.4393 c 0,0 0.240418,-0.2509 0.553416,-0.054 0.312998,0.1972 0.217738,0.5558 0.108869,0.6723 -0.108869,0.1165 -0.267636,0.2285 -0.517127,0.1434 -0.249491,-0.085 -0.281243,-0.3047 -0.294851,-0.4079 -0.01361,-0.1029 0.0499,-0.2644 0.149693,-0.3539 z"
       id="path4214"
       inkscape:connector-curvature="0" />
    <path
       style="fill:#483737;fill-rule:evenodd;stroke:none;stroke-width:1px;stroke-linecap:butt;stroke-linejoin:miter;stroke-opacity:1"
       d="m 17.315778,1031.9908 c 0,0 -0.109054,-0.07 0.03207,-0.05 0.141134,0.02 1.32152,0.2725 2.001526,0.355 0.680005,0.083 2.136242,0.2534 3.246063,0.2914 1.109819,0.038 2.2453,-0.051 3.137005,-0.1901 0.891705,-0.1394 2.226055,-0.5134 2.610965,-0.6781 0.384908,-0.1647 1.398501,-0.4689 2.803417,-1.4132 1.404917,-0.9441 1.719259,-1.2167 2.482662,-1.9391 0.763401,-0.7224 0.654344,-0.5702 1.802655,-1.7871 1.148312,-1.2167 0.833968,-0.8744 0.833968,-0.8744 0,0 0.263022,-0.2725 0.250192,0.1331 -0.01283,0.4055 -0.03207,0.8997 -0.121888,1.5842 -0.08981,0.6845 -0.160378,1.0392 -0.288682,1.5526 -0.128303,0.5132 -0.551702,1.5778 -0.551702,1.5778 0,0 -0.314342,0.8049 -0.936611,1.6098 -0.622269,0.8048 -1.244538,1.1786 -1.680768,1.4257 -0.43623,0.2472 -0.756988,0.431 -2.540397,0.6085 -1.783411,0.1774 -2.777758,0.1136 -4.221165,-0.012 -1.443408,-0.1204 -2.944552,-0.4245 -2.944552,-0.4245 0,0 -1.443408,-0.2535 -3.932483,-1.0646 -2.489077,-0.8112 -1.98228,-0.7097 -1.98228,-0.7097 z"
       id="path4216"
       inkscape:connector-curvature="0" />
    <path
       style="fill:#784421;fill-rule:evenodd;stroke:none;stroke-width:1px;stroke-linecap:butt;stroke-linejoin:miter;stroke-opacity:1"
       d="m 31.984676,1029.7612 1.202091,-0.9141 9.943334,0.4166 -0.07258,3.0069 z"
       id="path4218"
       inkscape:connector-curvature="0" />
    <path
       style="fill:#ac9d93;fill-rule:evenodd;stroke:none;stroke-width:1px;stroke-linecap:butt;stroke-linejoin:miter;stroke-opacity:1"
       d="m 42.835223,1032.3076 c 0,0 -0.89812,-0.8744 -0.692836,-1.8883 0.205286,-1.0139 1.305247,-1.3034 1.441332,-1.3213 0.136088,-0.018 0,0 0,0 l 0.340216,0.053 c 0,0 -0.616923,0.1926 -0.997962,0.8559 -0.381041,0.6631 -0.19052,1.4967 -0.10887,1.7252 0.08165,0.2285 0.235883,0.5376 0.235883,0.5376 z"
       id="path4220"
       inkscape:connector-curvature="0" />
    <path
       style="fill:#b1b1be;fill-opacity:1;fill-rule:evenodd;stroke:none;stroke-width:1px;stroke-linecap:butt;stroke-linejoin:miter;stroke-opacity:1"
       d="m 43.046923,1032.257 c -0.0064,-0.05 -0.09622,-0.07 -0.263022,-0.6654 -0.166793,-0.5956 -0.07698,-1.033 0.07698,-1.4575 0.153963,-0.4245 0.705665,-0.8174 0.846798,-0.8809 0.141134,-0.063 0.205285,-0.1008 0.205285,-0.1008 l 5.549101,0.7413 -0.307927,2.3511 -6.055897,0.033 z"
       id="path4222"
       inkscape:connector-curvature="0" />
    <path
       style="fill:#d2272c;fill-opacity:1;fill-rule:evenodd;stroke:none;stroke-width:1px;stroke-linecap:butt;stroke-linejoin:miter;stroke-opacity:1"
       d="m 49.160556,1032.257 c 0,0 -0.615854,-0.8238 0.256606,-2.2813 0.872459,-1.4575 2.335113,-0.7984 3.400026,-0.5323 1.064914,0.2662 3.759276,1.052 3.759276,1.052 0,0 1.950204,0.5069 2.309452,0.5449 0.359249,0.038 0.282266,0.1901 0.141132,0.2915 -0.141132,0.1009 -1.988695,1.3561 -3.707953,1.9138 -1.719259,0.5577 -2.399264,0.5703 -3.54116,0.4943 -1.141896,-0.076 -2.399264,-0.9379 -2.617379,-1.4829 z"
       id="path4224"
       inkscape:connector-curvature="0" />
  </g>
</svg>
