<?xml version="1.0" encoding="UTF-8" standalone="no"?>
<!-- Created with Inkscape (http://www.inkscape.org/) -->

<svg
   xmlns:dc="http://purl.org/dc/elements/1.1/"
   xmlns:cc="http://creativecommons.org/ns#"
   xmlns:rdf="http://www.w3.org/1999/02/22-rdf-syntax-ns#"
   xmlns:svg="http://www.w3.org/2000/svg"
   xmlns="http://www.w3.org/2000/svg"
   xmlns:sodipodi="http://sodipodi.sourceforge.net/DTD/sodipodi-0.dtd"
   xmlns:inkscape="http://www.inkscape.org/namespaces/inkscape"
   width="64"
   height="64"
   id="svg2"
   version="1.1"
   inkscape:version="0.91 r13725"
   sodipodi:docname="gmpc.svg">
  <defs
     id="defs4" />
  <sodipodi:namedview
     id="base"
     pagecolor="#ffffff"
     bordercolor="#666666"
     borderopacity="1.0"
     inkscape:pageopacity="0.0"
     inkscape:pageshadow="2"
     inkscape:zoom="8.9028358"
     inkscape:cx="36.893843"
     inkscape:cy="29.222063"
     inkscape:document-units="px"
     inkscape:current-layer="layer1"
     showgrid="true"
     inkscape:object-paths="true"
     inkscape:snap-object-midpoints="true"
     inkscape:snap-center="true"
     inkscape:snap-bbox="true"
     inkscape:bbox-paths="true"
     inkscape:bbox-nodes="true"
     inkscape:snap-bbox-edge-midpoints="true"
     inkscape:snap-bbox-midpoints="true"
     inkscape:snap-intersection-paths="true"
     inkscape:object-nodes="true"
     inkscape:snap-smooth-nodes="true"
     inkscape:snap-midpoints="true"
     inkscape:snap-page="true"
     inkscape:window-width="696"
     inkscape:window-height="651"
     inkscape:window-x="293"
     inkscape:window-y="79"
     inkscape:window-maximized="0"
     inkscape:snap-global="true">
    <inkscape:grid
       empspacing="2"
       visible="true"
       enabled="true"
       snapvisiblegridlinesonly="true"
       type="xygrid"
       id="grid2987" />
  </sodipodi:namedview>
  <metadata
     id="metadata7">
    <rdf:RDF>
      <cc:Work
         rdf:about="">
        <dc:format>image/svg+xml</dc:format>
        <dc:type
           rdf:resource="http://purl.org/dc/dcmitype/StillImage" />
        <dc:title />
      </cc:Work>
    </rdf:RDF>
  </metadata>
  <g
     inkscape:label="Layer 1"
     inkscape:groupmode="layer"
     id="layer1"
     transform="translate(0,-988.36218)">
    <rect
       style="fill:#4e86b1;fill-opacity:1;stroke:none"
       id="rect4990"
       width="64"
       height="64"
       x="0"
       y="0"
       transform="translate(0,988.36218)"
       ry="4" />
    <path
       style="fill:#d6e2e8;fill-opacity:1;stroke:none;stroke-opacity:1"
       id="path4148"
       sodipodi:type="arc"
       sodipodi:cx="-245.99936"
       sodipodi:cy="1003.2446"
       sodipodi:rx="9.5"
       sodipodi:ry="7.5"
       sodipodi:start="0.020713917"
       sodipodi:end="0.012886272"
       sodipodi:open="true"
       d="m -236.5014,1003.4 a 9.5,7.5 0 0 1 -9.67614,7.3433 9.5,7.5 0 0 1 -9.32048,-7.6247 9.5,7.5 0 0 1 9.63967,-7.37314 9.5,7.5 0 0 1 9.3582,7.59584"
       transform="matrix(0.9647514,-0.26316296,0.26316296,0.9647514,0,0)" />
    <path
       style="fill:#d6e2e8;fill-opacity:1;fill-rule:evenodd;stroke:none;stroke-width:1px;stroke-linecap:butt;stroke-linejoin:miter;stroke-opacity:1"
       d="M 32.063764,1028.1193 32,1004.8622 l 2,0 2,0 0,27 c 0,0 0.06376,-0.7423 -1.936236,-0.7423 -2,0 -2.063764,-2.2577 -2.063764,-2.2577 z"
       id="path4150"
       inkscape:connector-curvature="0"
       sodipodi:nodetypes="ccsccscc" />
    <path
       style="fill:#d6e2e8;fill-opacity:1;fill-rule:evenodd;stroke:none;stroke-width:1px;stroke-linecap:butt;stroke-linejoin:miter;stroke-opacity:1"
       d="m 32,1004.8622 c -0.527267,-1.4394 1.994787,-5.00684 7,-3 4.998356,2.0041 3.504691,3.4057 7.504691,3.4057 4,0 5.530207,-0.6835 5.530207,-0.6835 0,0 0.330318,-0.2161 0.312057,0.3143 -0.03441,0.9994 -4.328205,7.8363 -8.842264,5.2607 -2.944337,-1.68 -7.457624,-1.2736 -7.495584,0.5313 -0.01254,0.5964 -2.108169,-0.5213 -2.108169,-0.5213 z"
       id="path4152"
       inkscape:connector-curvature="0"
       sodipodi:nodetypes="csscssscc" />
  </g>
</svg>
