<?xml version="1.0" encoding="UTF-8" standalone="no"?>
<!-- Created with Inkscape (http://www.inkscape.org/) -->

<svg
   xmlns:dc="http://purl.org/dc/elements/1.1/"
   xmlns:cc="http://creativecommons.org/ns#"
   xmlns:rdf="http://www.w3.org/1999/02/22-rdf-syntax-ns#"
   xmlns:svg="http://www.w3.org/2000/svg"
   xmlns="http://www.w3.org/2000/svg"
   xmlns:sodipodi="http://sodipodi.sourceforge.net/DTD/sodipodi-0.dtd"
   xmlns:inkscape="http://www.inkscape.org/namespaces/inkscape"
   width="64"
   height="64"
   id="svg2"
   version="1.1"
   inkscape:version="0.91 r13725"
   sodipodi:docname="gmusicbrowser.svg">
  <defs
     id="defs4" />
  <sodipodi:namedview
     id="base"
     pagecolor="#ffffff"
     bordercolor="#666666"
     borderopacity="1.0"
     inkscape:pageopacity="0.0"
     inkscape:pageshadow="2"
     inkscape:zoom="6.0370517"
     inkscape:cx="1.4358409"
     inkscape:cy="17.444452"
     inkscape:document-units="px"
     inkscape:current-layer="layer1"
     showgrid="true"
     inkscape:object-paths="true"
     inkscape:snap-object-midpoints="true"
     inkscape:snap-center="true"
     inkscape:snap-bbox="true"
     inkscape:bbox-paths="true"
     inkscape:bbox-nodes="true"
     inkscape:snap-bbox-edge-midpoints="true"
     inkscape:snap-bbox-midpoints="true"
     inkscape:snap-intersection-paths="true"
     inkscape:object-nodes="true"
     inkscape:snap-smooth-nodes="true"
     inkscape:snap-midpoints="true"
     inkscape:snap-page="true"
     inkscape:window-width="696"
     inkscape:window-height="651"
     inkscape:window-x="149"
     inkscape:window-y="44"
     inkscape:window-maximized="0"
     inkscape:snap-global="true">
    <inkscape:grid
       empspacing="2"
       visible="true"
       enabled="true"
       snapvisiblegridlinesonly="true"
       type="xygrid"
       id="grid2987" />
  </sodipodi:namedview>
  <metadata
     id="metadata7">
    <rdf:RDF>
      <cc:Work
         rdf:about="">
        <dc:format>image/svg+xml</dc:format>
        <dc:type
           rdf:resource="http://purl.org/dc/dcmitype/StillImage" />
        <dc:title />
      </cc:Work>
    </rdf:RDF>
  </metadata>
  <g
     inkscape:label="Layer 1"
     inkscape:groupmode="layer"
     id="layer1"
     transform="translate(0,-988.36218)">
    <rect
       style="fill:#597ab5;fill-opacity:1;stroke:none"
       id="rect4990"
       width="64"
       height="64"
       x="0"
       y="0"
       transform="translate(0,988.36218)"
       ry="4" />
    <path
       style="fill:#e1e5e8;fill-opacity:1;stroke:none;stroke-opacity:1"
       id="path4148"
       sodipodi:type="arc"
       sodipodi:cx="-254.14687"
       sodipodi:cy="1002.4712"
       sodipodi:rx="9.5"
       sodipodi:ry="7.5"
       sodipodi:start="0.020713917"
       sodipodi:end="0.012886272"
       sodipodi:open="true"
       d="m -244.6489,1002.6265 a 9.5,7.5 0 0 1 -9.67615,7.3434 9.5,7.5 0 0 1 -9.32048,-7.6247 9.5,7.5 0 0 1 9.63967,-7.37318 9.5,7.5 0 0 1 9.35821,7.59578"
       transform="matrix(0.9647514,-0.26316296,0.26316296,0.9647514,0,0)" />
    <path
       style="fill:#e1e5e8;fill-opacity:1;fill-rule:evenodd;stroke:none;stroke-width:1px;stroke-linecap:butt;stroke-linejoin:miter;stroke-opacity:1"
       d="m 24.063513,1029.7747 -0.06376,-23.2571 2,0 2,0 0,27 c 0,0 0.06376,-0.7423 -1.936236,-0.7423 -2,0 -2.063764,-2.2577 -2.063764,-2.2577 z"
       id="path4150"
       inkscape:connector-curvature="0"
       sodipodi:nodetypes="ccsccscc" />
    <path
       style="fill:#e1e5e8;fill-opacity:1;stroke:none;stroke-opacity:1"
       id="path4148-5"
       sodipodi:type="arc"
       sodipodi:cx="-229.50179"
       sodipodi:cy="1007.1208"
       sodipodi:rx="9.5"
       sodipodi:ry="7.5"
       sodipodi:start="0.020713917"
       sodipodi:end="0.012886272"
       sodipodi:open="true"
       d="m -220.00382,1007.2761 a 9.5,7.5 0 0 1 -9.67615,7.3434 9.5,7.5 0 0 1 -9.32047,-7.6247 9.5,7.5 0 0 1 9.63966,-7.37319 9.5,7.5 0 0 1 9.35821,7.59579"
       transform="matrix(0.9647514,-0.26316296,0.26316296,0.9647514,0,0)" />
    <path
       style="fill:#e1e5e8;fill-opacity:1;fill-rule:evenodd;stroke:none;stroke-width:1px;stroke-linecap:butt;stroke-linejoin:miter;stroke-opacity:1"
       d="m 49.063513,1027.7747 -0.06376,-23.2571 2,0 2,0 0,27 c 0,0 0.06376,-0.7423 -1.936236,-0.7423 -2,0 -2.063764,-2.2577 -2.063764,-2.2577 z"
       id="path4150-4"
       inkscape:connector-curvature="0"
       sodipodi:nodetypes="ccsccscc" />
    <path
       style="fill:#e1e5e8;fill-opacity:1;fill-rule:evenodd;stroke:none;stroke-width:1px;stroke-linecap:butt;stroke-linejoin:miter;stroke-opacity:1"
       d="m 24.311398,1006.605 c 0,0 0.103972,-2.0699 11.887676,-3.2137 17.773277,-1.7253 17.112324,1.2137 17.112324,1.2137 l -2.224648,5.4384 c 0,0 -1.986038,-2.7101 -14.775352,-0.4384 -7.554694,1.3419 -10,5 -10,5 z"
       id="path3356"
       inkscape:connector-curvature="0"
       sodipodi:nodetypes="csccscc" />
  </g>
</svg>
