<?xml version="1.0" encoding="UTF-8" standalone="no"?>
<!-- Created with Inkscape (http://www.inkscape.org/) -->

<svg
   xmlns:dc="http://purl.org/dc/elements/1.1/"
   xmlns:cc="http://creativecommons.org/ns#"
   xmlns:rdf="http://www.w3.org/1999/02/22-rdf-syntax-ns#"
   xmlns:svg="http://www.w3.org/2000/svg"
   xmlns="http://www.w3.org/2000/svg"
   xmlns:sodipodi="http://sodipodi.sourceforge.net/DTD/sodipodi-0.dtd"
   xmlns:inkscape="http://www.inkscape.org/namespaces/inkscape"
   width="64"
   height="64"
   id="svg2"
   version="1.1"
   inkscape:version="0.91 r13725"
   sodipodi:docname="gnome-power-statistics.svg">
  <defs
     id="defs4" />
  <sodipodi:namedview
     id="base"
     pagecolor="#ffffff"
     bordercolor="#666666"
     borderopacity="1.0"
     inkscape:pageopacity="0.0"
     inkscape:pageshadow="2"
     inkscape:zoom="7.6413436"
     inkscape:cx="6.6336899"
     inkscape:cy="23.58211"
     inkscape:document-units="px"
     inkscape:current-layer="layer1"
     showgrid="true"
     inkscape:object-paths="true"
     inkscape:snap-object-midpoints="true"
     inkscape:snap-center="true"
     inkscape:snap-bbox="true"
     inkscape:bbox-paths="true"
     inkscape:bbox-nodes="true"
     inkscape:snap-bbox-edge-midpoints="true"
     inkscape:snap-bbox-midpoints="true"
     inkscape:snap-intersection-paths="true"
     inkscape:object-nodes="true"
     inkscape:snap-smooth-nodes="true"
     inkscape:snap-midpoints="true"
     inkscape:snap-page="true"
     inkscape:window-width="697"
     inkscape:window-height="714"
     inkscape:window-x="181"
     inkscape:window-y="27"
     inkscape:window-maximized="0">
    <inkscape:grid
       empspacing="2"
       visible="true"
       enabled="true"
       snapvisiblegridlinesonly="true"
       type="xygrid"
       id="grid2987" />
  </sodipodi:namedview>
  <metadata
     id="metadata7">
    <rdf:RDF>
      <cc:Work
         rdf:about="">
        <dc:format>image/svg+xml</dc:format>
        <dc:type
           rdf:resource="http://purl.org/dc/dcmitype/StillImage" />
        <dc:title />
      </cc:Work>
    </rdf:RDF>
  </metadata>
  <g
     inkscape:label="Layer 1"
     inkscape:groupmode="layer"
     id="layer1"
     transform="translate(0,-988.36218)">
    <rect
       style="fill:#62a15e;fill-opacity:1;stroke:none"
       id="rect4990"
       width="64"
       height="64"
       x="0"
       y="0"
       transform="translate(0,988.36218)"
       ry="4" />
    <path
       style="fill:#faf4db;fill-rule:evenodd;stroke:none;stroke-width:1px;stroke-linecap:butt;stroke-linejoin:miter;stroke-opacity:1;fill-opacity:1"
       d="m 22,1004.3622 -4,0 c 0,0 -2,0 -2,2 0,2 0,34 0,34 0,0 0,2 2,2 2,0 28,0 28,0 0,0 2,0 2,-2 0,-2 0,-34 0,-34 0,0 0,-2 -2,-2 -2,0 -24,0 -24,0 z"
       id="path3344"
       inkscape:connector-curvature="0" />
    <path
       style="fill:#f4e3d7;fill-opacity:1;fill-rule:evenodd;stroke:none;stroke-width:1px;stroke-linecap:butt;stroke-linejoin:miter;stroke-opacity:1"
       d="m 24,1006.3622 0,-6 c 0,0 0,-2.00002 2,-2.00002 l 12,0 c 0,0 2,0 2,2.00002 l 0,5 0,2 z"
       id="path3346"
       inkscape:connector-curvature="0"
       sodipodi:nodetypes="ccscsccc" />
    <path
       style="fill:none;fill-rule:evenodd;stroke:none;stroke-width:1px;stroke-linecap:butt;stroke-linejoin:miter;stroke-opacity:1"
       d="m 20,1006.3622 c 0,0 -2,0 -2,2 0,2 0,30 0,30 0,0 0,2 2,2 2,0 24,0 24,0 0,0 2,-4 2,-4 l -2,4 c 0,0 2,0 2,-2 0,-2 0,-30 0,-30 0,0 0,-2 -2,-2 -2,0 -24,0 -24,0 z"
       id="path3348"
       inkscape:connector-curvature="0" />
    <path
       style="fill:#acdc82;fill-rule:evenodd;stroke:none;stroke-width:1px;stroke-linecap:butt;stroke-linejoin:miter;stroke-opacity:1;fill-opacity:1"
       d="m 20,1040.3622 c 0,0 -2,0 -2,-2 0,-2 0,-30 0,-30 0,0 0,-2 2,-2 2,0 4,0 4,0 0,0 2,0 2,-2 0,-2 0,-2 0,-2 0,0 0,-2 2,-2 2,0 8,0 8,0 0,0 2,0 2,2 0,2 0,2 0,2 0,0 0,2 2,2 2,0 2,0 2,0 l 2,0 c 0,0 2,0 2,2 0,2 0,30 0,30 0,0 0,2 -2,2 -2,0 -24,0 -24,0 z"
       id="path4139"
       inkscape:connector-curvature="0" />
    <path
       style="fill:#62a15e;fill-opacity:1;fill-rule:evenodd;stroke:none;stroke-width:1px;stroke-linecap:butt;stroke-linejoin:miter;stroke-opacity:1"
       d="m 18,1023.3622 c 0,0 -3.5e-5,-2 2,-2 l 24,0 c 0,0 2,0 2,2 l 0,-5 0,20 c 0,0 0,2 -2,2 l -24,0 c 0,0 -2,0 -2,-2 z"
       id="path3354"
       inkscape:connector-curvature="0"
       sodipodi:nodetypes="csccccscsc" />
  </g>
</svg>
