<?xml version="1.0" encoding="UTF-8" standalone="no"?>
<!-- Created with Inkscape (http://www.inkscape.org/) -->

<svg
   xmlns:dc="http://purl.org/dc/elements/1.1/"
   xmlns:cc="http://creativecommons.org/ns#"
   xmlns:rdf="http://www.w3.org/1999/02/22-rdf-syntax-ns#"
   xmlns:svg="http://www.w3.org/2000/svg"
   xmlns="http://www.w3.org/2000/svg"
   xmlns:sodipodi="http://sodipodi.sourceforge.net/DTD/sodipodi-0.dtd"
   xmlns:inkscape="http://www.inkscape.org/namespaces/inkscape"
   width="64"
   height="64"
   id="svg2"
   version="1.1"
   inkscape:version="0.91 r13725"
   sodipodi:docname="gnome-documents.svg">
  <defs
     id="defs4" />
  <sodipodi:namedview
     id="base"
     pagecolor="#ffffff"
     bordercolor="#666666"
     borderopacity="1.0"
     inkscape:pageopacity="0.0"
     inkscape:pageshadow="2"
     inkscape:zoom="6.8452658"
     inkscape:cx="30.716964"
     inkscape:cy="18.271787"
     inkscape:document-units="px"
     inkscape:current-layer="layer1"
     showgrid="true"
     inkscape:object-paths="true"
     inkscape:snap-object-midpoints="true"
     inkscape:snap-center="true"
     inkscape:snap-bbox="true"
     inkscape:bbox-paths="true"
     inkscape:bbox-nodes="true"
     inkscape:snap-bbox-edge-midpoints="true"
     inkscape:snap-bbox-midpoints="true"
     inkscape:snap-intersection-paths="true"
     inkscape:object-nodes="true"
     inkscape:snap-smooth-nodes="true"
     inkscape:snap-midpoints="true"
     inkscape:snap-page="true"
     inkscape:window-width="696"
     inkscape:window-height="651"
     inkscape:window-x="668"
     inkscape:window-y="56"
     inkscape:window-maximized="0"
     showguides="false">
    <inkscape:grid
       empspacing="2"
       visible="true"
       enabled="true"
       snapvisiblegridlinesonly="true"
       type="xygrid"
       id="grid2987" />
  </sodipodi:namedview>
  <metadata
     id="metadata7">
    <rdf:RDF>
      <cc:Work
         rdf:about="">
        <dc:format>image/svg+xml</dc:format>
        <dc:type
           rdf:resource="http://purl.org/dc/dcmitype/StillImage" />
        <dc:title />
      </cc:Work>
    </rdf:RDF>
  </metadata>
  <g
     inkscape:label="Layer 1"
     inkscape:groupmode="layer"
     id="layer1"
     transform="translate(0,-988.36218)">
    <rect
       style="fill:#62985c;fill-opacity:1;stroke:none"
       id="rect4990"
       width="64"
       height="64"
       x="0"
       y="0"
       transform="translate(0,988.36218)"
       ry="4" />
    <path
       style="fill:#cff9b5;fill-rule:evenodd;stroke:none;stroke-width:1px;stroke-linecap:butt;stroke-linejoin:miter;stroke-opacity:1;fill-opacity:1"
       d="m 10,1001.3622 c 0,0 0,-3.00002 3,-3.00002 l 38,0 c 0,0 3,0 3,3.00002 l 0,38 c 0,0 0,3 -3,3 l -38,0 c 0,0 -3,0 -3,-3 z"
       id="path3340"
       inkscape:connector-curvature="0"
       sodipodi:nodetypes="cscscscsc" />
    <rect
       style="fill:#a9b282;fill-opacity:1;stroke:none;stroke-opacity:1"
       id="rect4144"
       width="18"
       height="17.999998"
       x="14"
       y="1003.3622"
       ry="8.999999" />
    <path
       style="fill:#809e86;fill-rule:evenodd;stroke:none;stroke-width:1px;stroke-linecap:butt;stroke-linejoin:miter;stroke-opacity:1;fill-opacity:1"
       d="m 34,1004.3622 c 0,0 0,-1 1,-1 l 14,0 c 0,0 1,0 1,1 l 0,1 c 0,0 0,1 -1,1 l -14,0 c 0,0 -1,0 -1,-1 z"
       id="path4146"
       inkscape:connector-curvature="0"
       sodipodi:nodetypes="cscscscsc" />
    <path
       style="fill:#809e86;fill-rule:evenodd;stroke:none;stroke-width:1px;stroke-linecap:butt;stroke-linejoin:miter;stroke-opacity:1;fill-opacity:1"
       d="m 34,1009.3622 c 0,0 0,-1 1,-1 l 14,0 c 0,0 1,0 1,1 l 0,1 c 0,0 0,1 -1,1 l -14,0 c 0,0 -1,0 -1,-1 z"
       id="path4146-4"
       inkscape:connector-curvature="0"
       sodipodi:nodetypes="cscscscsc" />
    <path
       style="fill:#809e86;fill-rule:evenodd;stroke:none;stroke-width:1px;stroke-linecap:butt;stroke-linejoin:miter;stroke-opacity:1;fill-opacity:1"
       d="m 34,1014.3622 c 0,0 0,-1 1,-1 l 14,0 c 0,0 1,0 1,1 l 0,1 c 0,0 0,1 -1,1 l -14,0 c 0,0 -1,0 -1,-1 z"
       id="path4146-5"
       inkscape:connector-curvature="0"
       sodipodi:nodetypes="cscscscsc" />
    <path
       style="fill:#809e86;fill-rule:evenodd;stroke:none;stroke-width:1px;stroke-linecap:butt;stroke-linejoin:miter;stroke-opacity:1;fill-opacity:1"
       d="m 14,1024.3622 c 0,0 0,-1 1,-1 l 34,0 c 0,0 1,0 1,1 l 0,1 c 0,0 0,1 -1,1 l -34,0 c 0,0 -1,0 -1,-1 z"
       id="path4146-57"
       inkscape:connector-curvature="0"
       sodipodi:nodetypes="cscscscsc" />
    <path
       style="fill:#809e86;fill-rule:evenodd;stroke:none;stroke-width:1px;stroke-linecap:butt;stroke-linejoin:miter;stroke-opacity:1;fill-opacity:1"
       d="m 14,1029.3622 c 0,0 0,-1 1,-1 l 34,0 c 0,0 1,0 1,1 l 0,1 c 0,0 0,1 -1,1 l -34,0 c 0,0 -1,0 -1,-1 z"
       id="path4146-57-6"
       inkscape:connector-curvature="0"
       sodipodi:nodetypes="cscscscsc" />
    <path
       style="fill:#809e86;fill-rule:evenodd;stroke:none;stroke-width:1px;stroke-linecap:butt;stroke-linejoin:miter;stroke-opacity:1;fill-opacity:1"
       d="m 34,1019.3622 c 0,0 0,-1 1,-1 l 14,0 c 0,0 1,0 1,1 l 0,1 c 0,0 0,1 -1,1 l -14,0 c 0,0 -1,0 -1,-1 z"
       id="path4146-5-3"
       inkscape:connector-curvature="0"
       sodipodi:nodetypes="cscscscsc" />
    <path
       style="fill:#809e86;fill-rule:evenodd;stroke:none;stroke-width:1px;stroke-linecap:butt;stroke-linejoin:miter;stroke-opacity:1;fill-opacity:1"
       d="m 14,1034.3622 c 0,0 0,-1 1,-1 l 34,0 c 0,0 1,0 1,1 l 0,1 c 0,0 0,1 -1,1 l -34,0 c 0,0 -1,0 -1,-1 z"
       id="path4146-57-6-9"
       inkscape:connector-curvature="0"
       sodipodi:nodetypes="cscscscsc" />
    <path
       style="fill:#62985c;fill-opacity:1;stroke:none;stroke-opacity:1"
       id="path4245"
       sodipodi:type="arc"
       sodipodi:cx="23"
       sodipodi:cy="1012.3622"
       sodipodi:rx="9"
       sodipodi:ry="9"
       sodipodi:start="1.9308821"
       sodipodi:end="5.9232561"
       d="m 19.828809,1020.785 a 9,9 0 0 1 -5.764,-9.5009 9,9 0 0 1 7.858458,-7.8573 9,9 0 0 1 9.500029,5.7655 L 23,1012.3622 Z" />
    <path
       style="fill:#79a753;fill-opacity:1;stroke:none;stroke-opacity:1"
       id="path4251"
       sodipodi:type="arc"
       sodipodi:cx="23"
       sodipodi:cy="1012.3622"
       sodipodi:rx="9"
       sodipodi:ry="9"
       sodipodi:start="5.8490646"
       sodipodi:end="0.78657655"
       d="m 31.165162,1008.5767 a 9,9 0 0 1 -1.808705,10.1569 L 23,1012.3622 Z" />
  </g>
</svg>
