<?xml version="1.0" encoding="UTF-8" standalone="no"?>
<!-- Created with Inkscape (http://www.inkscape.org/) -->

<svg
   xmlns:dc="http://purl.org/dc/elements/1.1/"
   xmlns:cc="http://creativecommons.org/ns#"
   xmlns:rdf="http://www.w3.org/1999/02/22-rdf-syntax-ns#"
   xmlns:svg="http://www.w3.org/2000/svg"
   xmlns="http://www.w3.org/2000/svg"
   xmlns:sodipodi="http://sodipodi.sourceforge.net/DTD/sodipodi-0.dtd"
   xmlns:inkscape="http://www.inkscape.org/namespaces/inkscape"
   width="64"
   height="64"
   id="svg2"
   version="1.1"
   inkscape:version="0.91 r13725"
   sodipodi:docname="indicator-weather.svg">
  <defs
     id="defs4" />
  <sodipodi:namedview
     id="base"
     pagecolor="#ffffff"
     bordercolor="#666666"
     borderopacity="1.0"
     inkscape:pageopacity="0.0"
     inkscape:pageshadow="2"
     inkscape:zoom="4.6418046"
     inkscape:cx="3.6452667"
     inkscape:cy="56.341978"
     inkscape:document-units="px"
     inkscape:current-layer="layer1"
     showgrid="true"
     inkscape:object-paths="true"
     inkscape:snap-object-midpoints="true"
     inkscape:snap-center="true"
     inkscape:snap-bbox="true"
     inkscape:bbox-paths="true"
     inkscape:bbox-nodes="true"
     inkscape:snap-bbox-edge-midpoints="true"
     inkscape:snap-bbox-midpoints="true"
     inkscape:snap-intersection-paths="true"
     inkscape:object-nodes="true"
     inkscape:snap-smooth-nodes="true"
     inkscape:snap-midpoints="true"
     inkscape:snap-page="true"
     inkscape:window-width="696"
     inkscape:window-height="651"
     inkscape:window-x="225"
     inkscape:window-y="38"
     inkscape:window-maximized="0"
     inkscape:snap-global="false">
    <inkscape:grid
       empspacing="2"
       visible="true"
       enabled="true"
       snapvisiblegridlinesonly="true"
       type="xygrid"
       id="grid2987" />
  </sodipodi:namedview>
  <metadata
     id="metadata7">
    <rdf:RDF>
      <cc:Work
         rdf:about="">
        <dc:format>image/svg+xml</dc:format>
        <dc:type
           rdf:resource="http://purl.org/dc/dcmitype/StillImage" />
        <dc:title />
      </cc:Work>
    </rdf:RDF>
  </metadata>
  <g
     inkscape:label="Layer 1"
     inkscape:groupmode="layer"
     id="layer1"
     transform="translate(0,-988.36218)">
    <rect
       style="fill:#0b9ecf;fill-opacity:1;stroke:none"
       id="rect4990"
       width="64"
       height="64"
       x="0"
       y="0"
       transform="translate(0,988.36218)"
       ry="4" />
    <path
       style="fill:#eeb887;fill-rule:evenodd;stroke:none;stroke-width:1px;stroke-linecap:butt;stroke-linejoin:miter;stroke-opacity:1;fill-opacity:1"
       d="m 27.025978,1008.7371 c 0,0 0.821736,0.84 1.223473,-0.055 0.401738,-0.8948 2.866945,-5.9531 2.866945,-5.9531 0,0 0.620867,-1.0956 0.91304,0.018 0.292173,1.1139 2.06347,7.6148 2.06347,7.6148 l 6.117366,4.0721 c 0,0 -0.383476,1.0044 0.821736,1.0591 1.205213,0.055 7.231275,0.3835 7.231275,0.3835 0,0 1.643472,0.1826 0.255651,0.8948 -1.38782,0.7122 -6.080845,3.1956 -6.080845,3.1956 0,0 -1.040865,0.4383 0.255652,1.0409 1.296516,0.6026 5.149544,2.3739 5.149544,2.3739 0,0 1.753036,0.7122 -0.03652,1.3513 -1.789558,0.6391 -7.213014,2.5017 -7.213014,2.5017 0,0 -0.69391,0.2557 -0.91304,1.3148 -0.219129,1.0591 -23.026863,-2.5382 -23.136428,-2.5382 -0.109565,0 -1.661732,-0.1096 -1.661732,-0.1096 0,0 -1.58869,-0.3652 0.03652,-1.187 1.625211,-0.8217 4.893893,-2.5565 4.893893,-2.5565 0,0 0.9313,-0.602 -0.511303,-1.2228 -1.442603,-0.6209 -4.546938,-1.9905 -4.546938,-1.9905 0,0 -1.807819,-0.6208 0.419998,-1.26 2.227817,-0.6391 4.80259,-1.3878 4.80259,-1.3878 0,0 1.406081,-0.3469 -0.146087,-1.4426 -1.552167,-1.0956 -4.930415,-3.6339 -4.930415,-3.6339 0,0 -1.460863,-1.0591 0.584346,-0.6756 2.045209,0.3834 7.066928,1.333 7.066928,1.333 0,0 1.278256,0.2556 0.821736,-1.5339 -0.45652,-1.7896 -1.314778,-5.7156 -1.314778,-5.7156 0,0 -0.639128,-2.6479 1.314778,-0.3287 1.953905,2.3191 3.359986,4.2364 3.652159,4.4373 z"
       id="path4139"
       inkscape:connector-curvature="0" />
    <rect
       style="fill:#eba93f;fill-opacity:1;stroke:none;stroke-opacity:1"
       id="rect4170"
       width="18"
       height="18"
       x="22.434334"
       y="1010.8962"
       ry="9" />
    <path
       style="fill:#f4e3d7;fill-opacity:1;fill-rule:evenodd;stroke:none;stroke-width:1px;stroke-linecap:butt;stroke-linejoin:miter;stroke-opacity:1"
       d="m 15.400945,1040.2028 c 0,0 -4,0 -4,-4 0,-4 4,-4 4,-4 -0.433262,-0.7161 -0.694022,-9.2169 5.859905,-9.8599 5.264114,-0.5165 6.827519,2.5271 6.827519,2.5271 -0.367687,-2.9557 6.990838,-5.1059 10.632914,-0.6936 0.614095,0.744 2.226467,3.4094 0.921175,5.3646 -1.222025,1.8304 6.57874,-3.5937 8.357542,3.9613 1.395666,5.9277 -4.835394,6.7478 -4.599055,6.7005 z"
       id="path4144"
       inkscape:connector-curvature="0"
       sodipodi:nodetypes="cscscssscc" />
    <path
       style="fill:#f4e3d7;fill-opacity:1;fill-rule:evenodd;stroke:none;stroke-width:1px;stroke-linecap:butt;stroke-linejoin:miter;stroke-opacity:1"
       d="m 33.944378,1014.7442 c 0,0 -2.543433,0 -2.543433,-2.7057 0,-2.7056 2.543433,-2.7056 2.543433,-2.7056 -0.275493,-0.4844 -0.4413,-6.2345 3.726069,-6.6695 3.34723,-0.3494 4.341334,1.7094 4.341334,1.7094 -0.233796,-1.9993 4.445183,-3.4538 6.761027,-0.4691 0.390477,0.5032 1.415717,2.3061 0.585736,3.6287 -0.777034,1.2381 4.183147,-2.4309 5.314213,2.6794 0.887445,4.0097 -3.074626,4.5644 -2.924348,4.5324 z"
       id="path4144-5"
       inkscape:connector-curvature="0"
       sodipodi:nodetypes="cscscssscc" />
  </g>
</svg>
