<?xml version="1.0" encoding="UTF-8" standalone="no"?>
<!-- Created with Inkscape (http://www.inkscape.org/) -->

<svg
   xmlns:dc="http://purl.org/dc/elements/1.1/"
   xmlns:cc="http://creativecommons.org/ns#"
   xmlns:rdf="http://www.w3.org/1999/02/22-rdf-syntax-ns#"
   xmlns:svg="http://www.w3.org/2000/svg"
   xmlns="http://www.w3.org/2000/svg"
   xmlns:sodipodi="http://sodipodi.sourceforge.net/DTD/sodipodi-0.dtd"
   xmlns:inkscape="http://www.inkscape.org/namespaces/inkscape"
   width="64"
   height="64"
   id="svg2"
   version="1.1"
   inkscape:version="0.91 r13725"
   sodipodi:docname="gnome-mahjongg.svg">
  <defs
     id="defs4" />
  <sodipodi:namedview
     id="base"
     pagecolor="#ffffff"
     bordercolor="#666666"
     borderopacity="1.0"
     inkscape:pageopacity="0.0"
     inkscape:pageshadow="2"
     inkscape:zoom="7.1380367"
     inkscape:cx="2.5518079"
     inkscape:cy="35.105657"
     inkscape:document-units="px"
     inkscape:current-layer="layer1"
     showgrid="true"
     inkscape:object-paths="true"
     inkscape:snap-object-midpoints="true"
     inkscape:snap-center="true"
     inkscape:snap-bbox="true"
     inkscape:bbox-paths="true"
     inkscape:bbox-nodes="true"
     inkscape:snap-bbox-edge-midpoints="true"
     inkscape:snap-bbox-midpoints="true"
     inkscape:snap-intersection-paths="true"
     inkscape:object-nodes="true"
     inkscape:snap-smooth-nodes="true"
     inkscape:snap-midpoints="true"
     inkscape:snap-page="true"
     inkscape:window-width="696"
     inkscape:window-height="651"
     inkscape:window-x="643"
     inkscape:window-y="27"
     inkscape:window-maximized="0">
    <inkscape:grid
       empspacing="2"
       visible="true"
       enabled="true"
       snapvisiblegridlinesonly="true"
       type="xygrid"
       id="grid2987" />
  </sodipodi:namedview>
  <metadata
     id="metadata7">
    <rdf:RDF>
      <cc:Work
         rdf:about="">
        <dc:format>image/svg+xml</dc:format>
        <dc:type
           rdf:resource="http://purl.org/dc/dcmitype/StillImage" />
        <dc:title></dc:title>
      </cc:Work>
    </rdf:RDF>
  </metadata>
  <g
     inkscape:label="Layer 1"
     inkscape:groupmode="layer"
     id="layer1"
     transform="translate(0,-988.36218)">
    <rect
       style="fill:#4bac85;fill-opacity:1;stroke:none"
       id="rect4990"
       width="64"
       height="64"
       x="0"
       y="0"
       transform="translate(0,988.36218)"
       ry="4" />
    <path
       style="fill:#f4e3d7;fill-rule:evenodd;stroke:none;stroke-width:1px;stroke-linecap:butt;stroke-linejoin:miter;stroke-opacity:1;fill-opacity:1"
       d="m 16,1037.3622 0,4 c 0,0 0,1 1,1 l 30,0 c 0,0 1,0 1,-1 l 0,-4 c 0,0 0,-1 -1,-1 l -30,0 c 0,0 -1,0 -1,1 z"
       id="path4146"
       inkscape:connector-curvature="0"
       sodipodi:nodetypes="scscscscs" />
    <path
       style="fill:#f4e3d7;fill-rule:evenodd;stroke:none;stroke-width:1px;stroke-linecap:butt;stroke-linejoin:miter;stroke-opacity:1;fill-opacity:1"
       d="m 53,1004.3622 -4,0 c 0,0 -1,0 -1,1 l 0,30 c 0,0 0,1 1,1 l 4,0 c 0,0 1,0 1,-1 l 0,-30 c 0,0 0,-1 -1,-1 z"
       id="path4146-0"
       inkscape:connector-curvature="0"
       sodipodi:nodetypes="scscscscs" />
    <path
       style="fill:#f4e3d7;fill-rule:evenodd;stroke:none;stroke-width:1px;stroke-linecap:butt;stroke-linejoin:miter;stroke-opacity:1;fill-opacity:1"
       d="m 16,999.36218 0,4.00002 c 0,0 0,1 1,1 l 30,0 c 0,0 1,0 1,-1 l 0,-4.00002 c 0,0 0,-1 -1,-1 l -30,0 c 0,0 -1,0 -1,1 z"
       id="path4146-2"
       inkscape:connector-curvature="0"
       sodipodi:nodetypes="scscscscs" />
    <path
       style="fill:#f4e3d7;fill-rule:evenodd;stroke:none;stroke-width:1px;stroke-linecap:butt;stroke-linejoin:miter;stroke-opacity:1;fill-opacity:1"
       d="m 15,1004.3622 -4,0 c 0,0 -1,0 -1,1 l 0,30 c 0,0 0,1 1,1 l 4,0 c 0,0 1,0 1,-1 l 0,-30 c 0,0 0,-1 -1,-1 z"
       id="path4146-0-4"
       inkscape:connector-curvature="0"
       sodipodi:nodetypes="scscscscs" />
    <path
       style="fill:#f4e3d7;fill-rule:evenodd;stroke:none;stroke-width:1px;stroke-linecap:butt;stroke-linejoin:miter;stroke-opacity:1;fill-opacity:1"
       d="m 18,1026.3622 c 0,0 0,-1 1,-1 1,0 4,0 4,0 0,0 1,0 1,1 0,1 0,7 0,7 0,0 0,1 -1,1 -1,0 -4,0 -4,0 0,0 -1,0 -1,-1 0,-1 0,-7 0,-7 z"
       id="path4184"
       inkscape:connector-curvature="0" />
    <path
       style="fill:#f4e3d7;fill-rule:evenodd;stroke:none;stroke-width:1px;stroke-linecap:butt;stroke-linejoin:miter;stroke-opacity:1;fill-opacity:1"
       d="m 25,1026.3622 c 0,0 0,-1 1,-1 1,0 4,0 4,0 0,0 1,0 1,1 0,1 0,7 0,7 0,0 0,1 -1,1 -1,0 -4,0 -4,0 0,0 -1,0 -1,-1 0,-1 0,-7 0,-7 z"
       id="path4184-6"
       inkscape:connector-curvature="0" />
    <path
       style="fill:#f4e3d7;fill-rule:evenodd;stroke:none;stroke-width:1px;stroke-linecap:butt;stroke-linejoin:miter;stroke-opacity:1;fill-opacity:1"
       d="m 32,1026.3622 c 0,0 0,-1 1,-1 1,0 4,0 4,0 0,0 1,0 1,1 0,1 0,7 0,7 0,0 0,1 -1,1 -1,0 -4,0 -4,0 0,0 -1,0 -1,-1 0,-1 0,-7 0,-7 z"
       id="path4184-2"
       inkscape:connector-curvature="0" />
    <path
       style="fill:#f4e3d7;fill-rule:evenodd;stroke:none;stroke-width:1px;stroke-linecap:butt;stroke-linejoin:miter;stroke-opacity:1;fill-opacity:1"
       d="m 39,1026.3622 c 0,0 0,-1 1,-1 1,0 4,0 4,0 0,0 1,0 1,1 0,1 0,7 0,7 0,0 0,1 -1,1 -1,0 -4,0 -4,0 0,0 -1,0 -1,-1 0,-1 0,-7 0,-7 z"
       id="path4184-3"
       inkscape:connector-curvature="0" />
    <path
       style="fill:#f4e3d7;fill-rule:evenodd;stroke:none;stroke-width:1px;stroke-linecap:butt;stroke-linejoin:miter;stroke-opacity:1;fill-opacity:1"
       d="m 18,1016.3622 c 0,0 0,-1 1,-1 1,0 4,0 4,0 0,0 1,0 1,1 0,1 0,7 0,7 0,0 0,1 -1,1 -1,0 -4,0 -4,0 0,0 -1,0 -1,-1 0,-1 0,-7 0,-7 z"
       id="path4184-33"
       inkscape:connector-curvature="0" />
    <path
       style="fill:#f4e3d7;fill-rule:evenodd;stroke:none;stroke-width:1px;stroke-linecap:butt;stroke-linejoin:miter;stroke-opacity:1;fill-opacity:1"
       d="m 25,1016.3622 c 0,0 0,-1 1,-1 1,0 4,0 4,0 0,0 1,0 1,1 0,1 0,7 0,7 0,0 0,1 -1,1 -1,0 -4,0 -4,0 0,0 -1,0 -1,-1 0,-1 0,-7 0,-7 z"
       id="path4184-9"
       inkscape:connector-curvature="0" />
  </g>
</svg>
