<?xml version="1.0" encoding="UTF-8" standalone="no"?>
<!-- Created with Inkscape (http://www.inkscape.org/) -->

<svg
   xmlns:dc="http://purl.org/dc/elements/1.1/"
   xmlns:cc="http://creativecommons.org/ns#"
   xmlns:rdf="http://www.w3.org/1999/02/22-rdf-syntax-ns#"
   xmlns:svg="http://www.w3.org/2000/svg"
   xmlns="http://www.w3.org/2000/svg"
   xmlns:sodipodi="http://sodipodi.sourceforge.net/DTD/sodipodi-0.dtd"
   xmlns:inkscape="http://www.inkscape.org/namespaces/inkscape"
   width="64"
   height="64"
   id="svg2"
   version="1.1"
   inkscape:version="0.91 r13725"
   sodipodi:docname="gnome-settings-keybinding.svg">
  <defs
     id="defs4" />
  <sodipodi:namedview
     id="base"
     pagecolor="#ffffff"
     bordercolor="#666666"
     borderopacity="1.0"
     inkscape:pageopacity="0.0"
     inkscape:pageshadow="2"
     inkscape:zoom="7.128675"
     inkscape:cx="9.0886413"
     inkscape:cy="21.672183"
     inkscape:document-units="px"
     inkscape:current-layer="layer1"
     showgrid="true"
     inkscape:object-paths="true"
     inkscape:snap-object-midpoints="true"
     inkscape:snap-center="true"
     inkscape:snap-bbox="true"
     inkscape:bbox-paths="true"
     inkscape:bbox-nodes="true"
     inkscape:snap-bbox-edge-midpoints="true"
     inkscape:snap-bbox-midpoints="true"
     inkscape:snap-intersection-paths="true"
     inkscape:object-nodes="true"
     inkscape:snap-smooth-nodes="true"
     inkscape:snap-midpoints="true"
     inkscape:snap-page="true"
     inkscape:window-width="700"
     inkscape:window-height="655"
     inkscape:window-x="609"
     inkscape:window-y="27"
     inkscape:window-maximized="0">
    <inkscape:grid
       empspacing="2"
       visible="true"
       enabled="true"
       snapvisiblegridlinesonly="true"
       type="xygrid"
       id="grid2987" />
  </sodipodi:namedview>
  <metadata
     id="metadata7">
    <rdf:RDF>
      <cc:Work
         rdf:about="">
        <dc:format>image/svg+xml</dc:format>
        <dc:type
           rdf:resource="http://purl.org/dc/dcmitype/StillImage" />
        <dc:title />
      </cc:Work>
    </rdf:RDF>
  </metadata>
  <g
     inkscape:label="Layer 1"
     inkscape:groupmode="layer"
     id="layer1"
     transform="translate(0,-988.36218)">
    <rect
       style="fill:#957761;fill-opacity:1;stroke:none"
       id="rect4990"
       width="64"
       height="64"
       x="0"
       y="0"
       ry="4"
       transform="translate(0,988.36218)" />
    <path
       style="fill:#f4e3d7;fill-rule:evenodd;stroke:none;stroke-width:1px;stroke-linecap:butt;stroke-linejoin:miter;stroke-opacity:1;fill-opacity:1"
       d="m 8,1008.3622 c 0,0 0,-1 1,-1 1,0 4,0 4,0 0,0 1,0 1,1 0,1 0,4 0,4 0,0 0,1 -1,1 -1,0 -4,0 -4,0 0,0 -1,0 -1,-1 0,-1 0,-4 0,-4 z"
       id="path3344"
       inkscape:connector-curvature="0" />
    <path
       style="fill:#f4e3d7;fill-rule:evenodd;stroke:none;stroke-width:1px;stroke-linecap:butt;stroke-linejoin:miter;stroke-opacity:1;fill-opacity:1"
       d="m 15,1008.3622 c 0,0 0,-1 1,-1 1,0 4,0 4,0 0,0 1,0 1,1 0,1 0,4 0,4 0,0 0,1 -1,1 -1,0 -4,0 -4,0 0,0 -1,0 -1,-1 0,-1 0,-4 0,-4 z"
       id="path3344-9"
       inkscape:connector-curvature="0" />
    <path
       style="fill:#fc8f6e;fill-rule:evenodd;stroke:none;stroke-width:1px;stroke-linecap:butt;stroke-linejoin:miter;stroke-opacity:1;fill-opacity:1"
       d="m 22,1008.3622 c 0,0 0,-1 1,-1 1,0 4,0 4,0 0,0 1,0 1,1 0,1 0,4 0,4 0,0 0,1 -1,1 -1,0 -4,0 -4,0 0,0 -1,0 -1,-1 0,-1 0,-4 0,-4 z"
       id="path3344-6"
       inkscape:connector-curvature="0" />
    <path
       style="fill:#f4e3d7;fill-rule:evenodd;stroke:none;stroke-width:1px;stroke-linecap:butt;stroke-linejoin:miter;stroke-opacity:1;fill-opacity:1"
       d="m 29,1008.3622 c 0,0 0,-1 1,-1 1,0 4,0 4,0 0,0 1,0 1,1 0,1 0,4 0,4 0,0 0,1 -1,1 -1,0 -4,0 -4,0 0,0 -1,0 -1,-1 0,-1 0,-4 0,-4 z"
       id="path3344-5"
       inkscape:connector-curvature="0" />
    <path
       style="fill:#f4e3d7;fill-rule:evenodd;stroke:none;stroke-width:1px;stroke-linecap:butt;stroke-linejoin:miter;stroke-opacity:1;fill-opacity:1"
       d="m 36,1008.3622 c 0,0 0,-1 1,-1 1,0 4,0 4,0 0,0 1,0 1,1 0,1 0,4 0,4 0,0 0,1 -1,1 -1,0 -4,0 -4,0 0,0 -1,0 -1,-1 0,-1 0,-4 0,-4 z"
       id="path3344-9-6"
       inkscape:connector-curvature="0" />
    <path
       style="fill:#f4e3d7;fill-rule:evenodd;stroke:none;stroke-width:1px;stroke-linecap:butt;stroke-linejoin:miter;stroke-opacity:1;fill-opacity:1"
       d="m 50,1008.3622 c 0,0 0,-1 1,-1 1,0 4,0 4,0 0,0 1,0 1,1 0,1 0,4 0,4 0,0 0,1 -1,1 -1,0 -4,0 -4,0 0,0 -1,0 -1,-1 0,-1 0,-4 0,-4 z"
       id="path3344-6-6"
       inkscape:connector-curvature="0" />
    <path
       style="fill:#f4e3d7;fill-rule:evenodd;stroke:none;stroke-width:1px;stroke-linecap:butt;stroke-linejoin:miter;stroke-opacity:1;fill-opacity:1"
       d="m 43,1008.3622 c 0,0 0,-1 1,-1 1,0 4,0 4,0 0,0 1,0 1,1 0,1 0,4 0,4 0,0 0,1 -1,1 -1,0 -4,0 -4,0 0,0 -1,0 -1,-1 0,-1 0,-4 0,-4 z"
       id="path3344-6-6-2"
       inkscape:connector-curvature="0" />
    <path
       style="fill:#f4e3d7;fill-rule:evenodd;stroke:none;stroke-width:1px;stroke-linecap:butt;stroke-linejoin:miter;stroke-opacity:1;fill-opacity:1"
       d="m 50,1015.3622 c 0,0 0,-1 1,-1 1,0 4,0 4,0 0,0 1,0 1,1 0,1 0,4 0,4 0,0 0,1 -1,1 -1,0 -4,0 -4,0 0,0 -1,0 -1,-1 0,-1 0,-4 0,-4 z"
       id="path3344-6-6-22"
       inkscape:connector-curvature="0" />
    <path
       style="fill:#f4e3d7;fill-rule:evenodd;stroke:none;stroke-width:1px;stroke-linecap:butt;stroke-linejoin:miter;stroke-opacity:1;fill-opacity:1"
       d="m 43,1015.3622 c 0,0 0,-1 1,-1 1,0 4,0 4,0 0,0 1,0 1,1 0,1 0,4 0,4 0,0 0,1 -1,1 -1,0 -4,0 -4,0 0,0 -1,0 -1,-1 0,-1 0,-4 0,-4 z"
       id="path3344-6-6-8"
       inkscape:connector-curvature="0" />
    <path
       style="fill:#f4e3d7;fill-rule:evenodd;stroke:none;stroke-width:1px;stroke-linecap:butt;stroke-linejoin:miter;stroke-opacity:1;fill-opacity:1"
       d="m 36,1015.3622 c 0,0 0,-1 1,-1 1,0 4,0 4,0 0,0 1,0 1,1 0,1 0,4 0,4 0,0 0,1 -1,1 -1,0 -4,0 -4,0 0,0 -1,0 -1,-1 0,-1 0,-4 0,-4 z"
       id="path3344-6-6-83"
       inkscape:connector-curvature="0" />
    <path
       style="fill:#fc8f6e;fill-rule:evenodd;stroke:none;stroke-width:1px;stroke-linecap:butt;stroke-linejoin:miter;stroke-opacity:1;fill-opacity:1"
       d="m 29,1015.3622 c 0,0 0,-1 1,-1 1,0 4,0 4,0 0,0 1,0 1,1 0,1 0,4 0,4 0,0 0,1 -1,1 -1,0 -4,0 -4,0 0,0 -1,0 -1,-1 0,-1 0,-4 0,-4 z"
       id="path3344-6-6-5"
       inkscape:connector-curvature="0" />
    <path
       style="fill:#f4e3d7;fill-rule:evenodd;stroke:none;stroke-width:1px;stroke-linecap:butt;stroke-linejoin:miter;stroke-opacity:1;fill-opacity:1"
       d="m 22,1015.3622 c 0,0 0,-1 1,-1 1,0 4,0 4,0 0,0 1,0 1,1 0,1 0,4 0,4 0,0 0,1 -1,1 -1,0 -4,0 -4,0 0,0 -1,0 -1,-1 0,-1 0,-4 0,-4 z"
       id="path3344-6-6-0"
       inkscape:connector-curvature="0" />
    <path
       style="fill:#f4e3d7;fill-rule:evenodd;stroke:none;stroke-width:1px;stroke-linecap:butt;stroke-linejoin:miter;stroke-opacity:1;fill-opacity:1"
       d="m 15,1015.3622 c 0,0 0,-1 1,-1 1,0 4,0 4,0 0,0 1,0 1,1 0,1 0,4 0,4 0,0 0,1 -1,1 -1,0 -4,0 -4,0 0,0 -1,0 -1,-1 0,-1 0,-4 0,-4 z"
       id="path3344-6-6-7"
       inkscape:connector-curvature="0" />
    <path
       style="fill:#fc8f6e;fill-rule:evenodd;stroke:none;stroke-width:1px;stroke-linecap:butt;stroke-linejoin:miter;stroke-opacity:1;fill-opacity:1"
       d="m 8,1015.3622 c 0,0 0,-1 1,-1 1,0 4,0 4,0 0,0 1,0 1,1 0,1 0,4 0,4 0,0 0,1 -1,1 -1,0 -4,0 -4,0 0,0 -1,0 -1,-1 0,-1 0,-4 0,-4 z"
       id="path3344-6-6-6"
       inkscape:connector-curvature="0" />
    <path
       style="fill:#fc8f6e;fill-rule:evenodd;stroke:none;stroke-width:1px;stroke-linecap:butt;stroke-linejoin:miter;stroke-opacity:1;fill-opacity:1"
       d="m 8,1022.3622 c 0,0 0,-1 1,-1 1,0 4,0 4,0 0,0 1,0 1,1 0,1 0,4 0,4 0,0 0,1 -1,1 -1,0 -4,0 -4,0 0,0 -1,0 -1,-1 0,-1 0,-4 0,-4 z"
       id="path3344-6-6-77"
       inkscape:connector-curvature="0" />
    <path
       style="fill:#fc8f6e;fill-rule:evenodd;stroke:none;stroke-width:1px;stroke-linecap:butt;stroke-linejoin:miter;stroke-opacity:1;fill-opacity:1"
       d="m 15,1022.3622 c 0,0 0,-1 1,-1 1,0 4,0 4,0 0,0 1,0 1,1 0,1 0,4 0,4 0,0 0,1 -1,1 -1,0 -4,0 -4,0 0,0 -1,0 -1,-1 0,-1 0,-4 0,-4 z"
       id="path3344-6-6-1"
       inkscape:connector-curvature="0" />
    <path
       style="fill:#f4e3d7;fill-rule:evenodd;stroke:none;stroke-width:1px;stroke-linecap:butt;stroke-linejoin:miter;stroke-opacity:1;fill-opacity:1"
       d="m 22,1022.3622 c 0,0 0,-1 1,-1 1,0 4,0 4,0 0,0 1,0 1,1 0,1 0,4 0,4 0,0 0,1 -1,1 -1,0 -4,0 -4,0 0,0 -1,0 -1,-1 0,-1 0,-4 0,-4 z"
       id="path3344-6-6-89"
       inkscape:connector-curvature="0" />
    <path
       style="fill:#f4e3d7;fill-rule:evenodd;stroke:none;stroke-width:1px;stroke-linecap:butt;stroke-linejoin:miter;stroke-opacity:1;fill-opacity:1"
       d="m 29,1022.3622 c 0,0 0,-1 1,-1 1,0 4,0 4,0 0,0 1,0 1,1 0,1 0,4 0,4 0,0 0,1 -1,1 -1,0 -4,0 -4,0 0,0 -1,0 -1,-1 0,-1 0,-4 0,-4 z"
       id="path3344-6-6-3"
       inkscape:connector-curvature="0" />
    <path
       style="fill:#f4e3d7;fill-rule:evenodd;stroke:none;stroke-width:1px;stroke-linecap:butt;stroke-linejoin:miter;stroke-opacity:1;fill-opacity:1"
       d="m 36,1022.3622 c 0,0 0,-1 1,-1 1,0 4,0 4,0 0,0 1,0 1,1 0,1 0,4 0,4 0,0 0,1 -1,1 -1,0 -4,0 -4,0 0,0 -1,0 -1,-1 0,-1 0,-4 0,-4 z"
       id="path3344-6-6-9"
       inkscape:connector-curvature="0" />
    <path
       style="fill:#f4e3d7;fill-rule:evenodd;stroke:none;stroke-width:1px;stroke-linecap:butt;stroke-linejoin:miter;stroke-opacity:1;fill-opacity:1"
       d="m 43,1022.3622 c 0,0 0,-1 1,-1 1,0 4,0 4,0 0,0 1,0 1,1 0,1 0,4 0,4 0,0 0,1 -1,1 -1,0 -4,0 -4,0 0,0 -1,0 -1,-1 0,-1 0,-4 0,-4 z"
       id="path3344-6-6-95"
       inkscape:connector-curvature="0" />
    <path
       inkscape:connector-curvature="0"
       id="path3469"
       d="m 18,1029.3622 c 0,0 0,-1 1,-1 l 26,0 c 0,0 1,0 1,1 l 0,4 c 0,0 0,1 -1,1 l -26,0 c 0,0 -1,0 -1,-1 z"
       style="fill:#f4e3d7;fill-rule:evenodd;stroke:none;stroke-width:1px;stroke-linecap:butt;stroke-linejoin:miter;stroke-opacity:1;fill-opacity:1"
       sodipodi:nodetypes="cscscscsc" />
    <path
       style="fill:#f4e3d7;fill-rule:evenodd;stroke:none;stroke-width:1px;stroke-linecap:butt;stroke-linejoin:miter;stroke-opacity:1;fill-opacity:1"
       d="m 50,1022.3622 c 0,0 0,-1 1,-1 1,0 4,0 4,0 0,0 1,0 1,1 0,1 0,4 0,4 0,0 0,1 -1,1 -1,0 -4,0 -4,0 0,0 -1,0 -1,-1 0,-1 0,-4 0,-4 z"
       id="path3344-6-6-4"
       inkscape:connector-curvature="0" />
  </g>
</svg>
