<?xml version="1.0" encoding="UTF-8" standalone="no"?>
<!-- Created with Inkscape (http://www.inkscape.org/) -->

<svg
   xmlns:dc="http://purl.org/dc/elements/1.1/"
   xmlns:cc="http://creativecommons.org/ns#"
   xmlns:rdf="http://www.w3.org/1999/02/22-rdf-syntax-ns#"
   xmlns:svg="http://www.w3.org/2000/svg"
   xmlns="http://www.w3.org/2000/svg"
   xmlns:sodipodi="http://sodipodi.sourceforge.net/DTD/sodipodi-0.dtd"
   xmlns:inkscape="http://www.inkscape.org/namespaces/inkscape"
   width="64"
   height="64"
   id="svg2"
   version="1.1"
   inkscape:version="0.91 r13725"
   sodipodi:docname="gnome-paint.svg">
  <defs
     id="defs4" />
  <sodipodi:namedview
     id="base"
     pagecolor="#ffffff"
     bordercolor="#666666"
     borderopacity="1.0"
     inkscape:pageopacity="0.0"
     inkscape:pageshadow="2"
     inkscape:zoom="4.2688404"
     inkscape:cx="19.817712"
     inkscape:cy="30.333429"
     inkscape:document-units="px"
     inkscape:current-layer="layer1"
     showgrid="true"
     inkscape:object-paths="true"
     inkscape:snap-object-midpoints="true"
     inkscape:snap-center="true"
     inkscape:snap-bbox="true"
     inkscape:bbox-paths="true"
     inkscape:bbox-nodes="true"
     inkscape:snap-bbox-edge-midpoints="true"
     inkscape:snap-bbox-midpoints="true"
     inkscape:snap-intersection-paths="true"
     inkscape:object-nodes="true"
     inkscape:snap-smooth-nodes="true"
     inkscape:snap-midpoints="true"
     inkscape:snap-page="true"
     inkscape:window-width="728"
     inkscape:window-height="651"
     inkscape:window-x="585"
     inkscape:window-y="47"
     inkscape:window-maximized="0"
     showguides="false"
     inkscape:snap-global="true">
    <inkscape:grid
       empspacing="2"
       visible="true"
       enabled="true"
       snapvisiblegridlinesonly="true"
       type="xygrid"
       id="grid2987" />
  </sodipodi:namedview>
  <metadata
     id="metadata7">
    <rdf:RDF>
      <cc:Work
         rdf:about="">
        <dc:format>image/svg+xml</dc:format>
        <dc:type
           rdf:resource="http://purl.org/dc/dcmitype/StillImage" />
        <dc:title />
      </cc:Work>
    </rdf:RDF>
  </metadata>
  <g
     inkscape:label="Layer 1"
     inkscape:groupmode="layer"
     id="layer1"
     transform="translate(0,-988.36218)">
    <rect
       style="fill:#dca970;fill-opacity:1;stroke:none"
       id="rect4990"
       width="64"
       height="64"
       x="0"
       y="0"
       ry="4"
       transform="translate(0,988.36218)" />
    <path
       style="fill:none;fill-rule:evenodd;stroke:none;stroke-width:1px;stroke-linecap:butt;stroke-linejoin:miter;stroke-opacity:1"
       d="M 18,987.88586 0,1005.8859"
       id="path4152-6"
       inkscape:connector-curvature="0" />
    <path
       style="fill:#8b5b39;fill-rule:evenodd;stroke:none;stroke-width:1px;stroke-linecap:butt;stroke-linejoin:miter;stroke-opacity:1;fill-opacity:1"
       d="m 46.115131,1001.4057 c 0,0 1.454237,-1.3732 2.827276,0.081 1.373035,1.4542 2.746069,2.9084 2.746069,2.9084 0,0 1.373036,1.4542 -0.08121,2.8273 -1.454226,1.373 -20.359176,19.2224 -20.359176,19.2224 0,0 -1.454227,1.3731 -2.827262,-0.081 -1.373035,-1.4542 -2.74607,-2.9084 -2.74607,-2.9084 0,0 -1.373034,-1.4543 0.08119,-2.8273 1.454231,-1.3729 20.359178,-19.2224 20.359178,-19.2224 z"
       id="path4289"
       inkscape:connector-curvature="0" />
    <path
       style="fill:#a9b8a3;fill-opacity:1;fill-rule:evenodd;stroke:none;stroke-width:1px;stroke-linecap:butt;stroke-linejoin:miter;stroke-opacity:1"
       d="m 25.674762,1023.4554 c 0,0 -1.373034,-1.4543 -2.827261,-0.081 -1.454226,1.373 -1.454226,1.373 -1.454226,1.373 0,0 -1.454227,1.3731 -0.08119,2.8273 1.373034,1.4542 2.746069,2.9085 2.746069,2.9085 0,0 1.373035,1.4542 2.827261,0.081 1.454227,-1.3731 1.454227,-1.3731 1.454227,-1.3731 0,0 1.454226,-1.373 0.08119,-2.8273 -1.373035,-1.4542 -2.74607,-2.9084 -2.74607,-2.9084 z"
       id="path4291"
       inkscape:connector-curvature="0" />
    <path
       style="fill:#6d953c;fill-rule:evenodd;stroke:none;stroke-width:1px;stroke-linecap:butt;stroke-linejoin:miter;stroke-opacity:1;fill-opacity:1"
       d="m 21.228608,1027.2908 c 0,0 -4.888028,-1.8028 -6.684508,1.9082 -1.403419,2.899 1.184609,4.8667 -0.33359,5.574 -0.889347,0.4143 -1.90129,0.3463 -2.552478,0.01 -0.654156,-0.3412 -0.129869,1.0537 0.153774,1.6351 0.77944,1.5976 5.523878,3.2674 10.061916,0.1728 4.192162,-3.5292 2.231557,-6.296 2.231557,-6.296 z"
       id="path4293"
       inkscape:connector-curvature="0"
       sodipodi:nodetypes="csscsccc" />
    <path
       style="fill:#f75347;fill-rule:evenodd;stroke:none;stroke-width:1px;stroke-linecap:butt;stroke-linejoin:miter;stroke-opacity:1;fill-opacity:1"
       d="m 19,1019.3622 c -1,-2 -3.574627,-10.0338 -6,-12 -2.425373,-1.9663 -2,-6 1,-6 3,0 14,-1 17,1 3,2 0,11 -4,13 -4,2 -7,-2 -7,0 0,2 0,6 -1,4 z"
       id="path4153"
       inkscape:connector-curvature="0" />
    <path
       style="fill:#ffd38c;fill-rule:evenodd;stroke:none;stroke-width:1px;stroke-linecap:butt;stroke-linejoin:miter;stroke-opacity:1;fill-opacity:1"
       d="m 32,1040.3622 c 0,0 -6,-8 6,-14 12,-6 16,-4 14,4 -2,8 -12,10 -14,10 -2,0 -4,2 -6,0 z"
       id="path4155"
       inkscape:connector-curvature="0" />
  </g>
</svg>
