<?xml version="1.0" encoding="UTF-8" standalone="no"?>
<!-- Created with Inkscape (http://www.inkscape.org/) -->

<svg
   xmlns:dc="http://purl.org/dc/elements/1.1/"
   xmlns:cc="http://creativecommons.org/ns#"
   xmlns:rdf="http://www.w3.org/1999/02/22-rdf-syntax-ns#"
   xmlns:svg="http://www.w3.org/2000/svg"
   xmlns="http://www.w3.org/2000/svg"
   xmlns:sodipodi="http://sodipodi.sourceforge.net/DTD/sodipodi-0.dtd"
   xmlns:inkscape="http://www.inkscape.org/namespaces/inkscape"
   width="64"
   height="64"
   id="svg2"
   version="1.1"
   inkscape:version="0.91 r13725"
   sodipodi:docname="gnome-klotski.svg">
  <defs
     id="defs4" />
  <sodipodi:namedview
     id="base"
     pagecolor="#ffffff"
     bordercolor="#666666"
     borderopacity="1.0"
     inkscape:pageopacity="0.0"
     inkscape:pageshadow="2"
     inkscape:zoom="4.8403338"
     inkscape:cx="23.215288"
     inkscape:cy="24.309171"
     inkscape:document-units="px"
     inkscape:current-layer="layer1"
     showgrid="true"
     inkscape:object-paths="true"
     inkscape:snap-object-midpoints="true"
     inkscape:snap-center="true"
     inkscape:snap-bbox="true"
     inkscape:bbox-paths="true"
     inkscape:bbox-nodes="true"
     inkscape:snap-bbox-edge-midpoints="true"
     inkscape:snap-bbox-midpoints="true"
     inkscape:snap-intersection-paths="true"
     inkscape:object-nodes="true"
     inkscape:snap-smooth-nodes="true"
     inkscape:snap-midpoints="true"
     inkscape:snap-page="true"
     inkscape:window-width="696"
     inkscape:window-height="651"
     inkscape:window-x="191"
     inkscape:window-y="27"
     inkscape:window-maximized="0">
    <inkscape:grid
       empspacing="2"
       visible="true"
       enabled="true"
       snapvisiblegridlinesonly="true"
       type="xygrid"
       id="grid2987" />
  </sodipodi:namedview>
  <metadata
     id="metadata7">
    <rdf:RDF>
      <cc:Work
         rdf:about="">
        <dc:format>image/svg+xml</dc:format>
        <dc:type
           rdf:resource="http://purl.org/dc/dcmitype/StillImage" />
        <dc:title />
      </cc:Work>
    </rdf:RDF>
  </metadata>
  <g
     inkscape:label="Layer 1"
     inkscape:groupmode="layer"
     id="layer1"
     transform="translate(0,-988.36218)">
    <rect
       style="fill:#5c7973;fill-opacity:1;stroke:none"
       id="rect4990"
       width="64"
       height="64"
       x="0"
       y="0"
       transform="translate(0,988.36218)"
       ry="4" />
    <path
       style="fill:#f6a345;fill-rule:evenodd;stroke:none;stroke-width:1px;stroke-linecap:butt;stroke-linejoin:miter;stroke-opacity:1;fill-opacity:1"
       d="m 31,1000.1955 c 0,0 0,-1.83332 1.916667,-1.83332 1.916666,0 19.166666,0 19.166666,0 0,0 1.916667,0 1.916667,1.83332 0,1.8334 0,18.3333 0,18.3333 0,0 0,1.8334 -1.916667,1.8334 -1.916666,0 -19.166666,0 -19.166666,0 0,0 -1.916667,0 -1.916667,-1.8334 0,-1.8333 0,-18.3333 0,-18.3333 z"
       id="path4146"
       inkscape:connector-curvature="0" />
    <path
       style="fill:#ffc75e;fill-opacity:1;fill-rule:evenodd;stroke:none;stroke-width:1px;stroke-linecap:butt;stroke-linejoin:miter;stroke-opacity:1"
       d="m 49.3,1001.3622 c 0,0 1.7,0 1.7,1.6 l 0,12.8 c 0,0 0,1.6 -1.7,1.6 l -13.6,0 c 0,0 -1.7,0 -1.7,-1.6 l 0,-12.8 c 0,0 0,-1.6 1.7,-1.6 z"
       id="path4144"
       inkscape:connector-curvature="0"
       sodipodi:nodetypes="cscscscsc" />
    <path
       style="fill:#f6a345;fill-rule:evenodd;stroke:none;stroke-width:1px;stroke-linecap:butt;stroke-linejoin:miter;stroke-opacity:1;fill-opacity:1"
       d="m 10,1022.1955 c 0,0 0,-1.8333 1.833333,-1.8333 1.833334,0 18.333334,0 18.333334,0 0,0 1.833333,0 1.833333,1.8333 0,1.8334 0,18.3334 0,18.3334 0,0 0,1.8333 -1.833333,1.8333 -1.833334,0 -18.333334,0 -18.333334,0 0,0 -1.833333,0 -1.833333,-1.8333 0,-1.8334 0,-18.3334 0,-18.3334 z"
       id="path4146-0"
       inkscape:connector-curvature="0" />
    <path
       style="fill:#ffc75e;fill-opacity:1;fill-rule:evenodd;stroke:none;stroke-width:1px;stroke-linecap:butt;stroke-linejoin:miter;stroke-opacity:1"
       d="m 27.4,1023.3622 c 0,0 1.6,0 1.6,1.6 l 0,12.8 c 0,0 0,1.6 -1.6,1.6 l -12.8,0 c 0,0 -1.6,0 -1.6,-1.6 l 0,-12.8 c 0,0 0,-1.6 1.6,-1.6 z"
       id="path4144-8"
       inkscape:connector-curvature="0"
       sodipodi:nodetypes="cscscscsc" />
    <path
       style="fill:#6298eb;fill-rule:evenodd;stroke:none;stroke-width:1px;stroke-linecap:butt;stroke-linejoin:miter;stroke-opacity:1;fill-opacity:1"
       d="m 26,1017.3622 c 0,0 2,0 2,-2 l 0,-10 c 0,0 0,-2 -2,-2 l -10,0 c 0,0 -2,0 -2,2 l 0,10 c 0,0 0,2 2,2 z"
       id="path4166"
       inkscape:connector-curvature="0"
       sodipodi:nodetypes="cscscscsc" />
    <path
       style="fill:#6298eb;fill-rule:evenodd;stroke:none;stroke-width:1px;stroke-linecap:butt;stroke-linejoin:miter;stroke-opacity:1;fill-opacity:1"
       d="m 47,1037.3622 c 0,0 2,0 2,-2 l 0,-10 c 0,0 0,-2 -2,-2 l -10,0 c 0,0 -2,0 -2,2 l 0,10 c 0,0 0,2 2,2 z"
       id="path4166-5"
       inkscape:connector-curvature="0"
       sodipodi:nodetypes="cscscscsc" />
  </g>
</svg>
