<?xml version="1.0" encoding="UTF-8" standalone="no"?>
<!-- Created with Inkscape (http://www.inkscape.org/) -->

<svg
   xmlns:dc="http://purl.org/dc/elements/1.1/"
   xmlns:cc="http://creativecommons.org/ns#"
   xmlns:rdf="http://www.w3.org/1999/02/22-rdf-syntax-ns#"
   xmlns:svg="http://www.w3.org/2000/svg"
   xmlns="http://www.w3.org/2000/svg"
   xmlns:sodipodi="http://sodipodi.sourceforge.net/DTD/sodipodi-0.dtd"
   xmlns:inkscape="http://www.inkscape.org/namespaces/inkscape"
   width="64"
   height="64"
   id="svg2"
   version="1.1"
   inkscape:version="0.91 r13725"
   sodipodi:docname="gnucash.svg">
  <defs
     id="defs4" />
  <sodipodi:namedview
     id="base"
     pagecolor="#ffffff"
     bordercolor="#666666"
     borderopacity="1.0"
     inkscape:pageopacity="0.0"
     inkscape:pageshadow="2"
     inkscape:zoom="6.5066634"
     inkscape:cx="-4.2643003"
     inkscape:cy="29.186422"
     inkscape:document-units="px"
     inkscape:current-layer="layer1"
     showgrid="true"
     inkscape:object-paths="true"
     inkscape:snap-object-midpoints="true"
     inkscape:snap-center="true"
     inkscape:snap-bbox="true"
     inkscape:bbox-paths="true"
     inkscape:bbox-nodes="true"
     inkscape:snap-bbox-edge-midpoints="true"
     inkscape:snap-bbox-midpoints="true"
     inkscape:snap-intersection-paths="true"
     inkscape:object-nodes="true"
     inkscape:snap-smooth-nodes="true"
     inkscape:snap-midpoints="true"
     inkscape:snap-page="true"
     inkscape:window-width="1364"
     inkscape:window-height="714"
     inkscape:window-x="0"
     inkscape:window-y="27"
     inkscape:window-maximized="1"
     inkscape:snap-global="true"
     showguides="false">
    <inkscape:grid
       empspacing="2"
       visible="true"
       enabled="true"
       snapvisiblegridlinesonly="true"
       type="xygrid"
       id="grid2987" />
  </sodipodi:namedview>
  <metadata
     id="metadata7">
    <rdf:RDF>
      <cc:Work
         rdf:about="">
        <dc:format>image/svg+xml</dc:format>
        <dc:type
           rdf:resource="http://purl.org/dc/dcmitype/StillImage" />
        <dc:title />
      </cc:Work>
    </rdf:RDF>
  </metadata>
  <g
     inkscape:label="Layer 1"
     inkscape:groupmode="layer"
     id="layer1"
     transform="translate(0,-988.36218)">
    <rect
       style="fill:#61ac5f;fill-opacity:1;stroke:none"
       id="rect4990"
       width="64"
       height="64"
       x="0"
       y="0"
       transform="translate(0,988.36218)"
       ry="4" />
    <path
       style="fill:#fffac7;fill-rule:evenodd;stroke:none;stroke-width:1px;stroke-linecap:butt;stroke-linejoin:miter;stroke-opacity:1;fill-opacity:1"
       d="m 19,1012.3622 c 0,0 -2,0 -2,2 l 0,3 c 0,0 -4.1e-5,2 2,2 l 25,0 c 0,0 2,0 2,-2 l 0,-3 c 0,0 0,-2 -2,-2 z"
       id="path4154"
       inkscape:connector-curvature="0"
       sodipodi:nodetypes="cscscscsc" />
    <path
       style="fill:#fffac7;fill-rule:evenodd;stroke:none;stroke-width:1px;stroke-linecap:butt;stroke-linejoin:miter;stroke-opacity:1;fill-opacity:1"
       d="m 19,1023.3622 c 0,0 -2,0 -2,2 l 0,3 c 0,0 -2.93e-4,2 2,2 l 25,0 c 0,0 2,0 2,-1.8947 l 0,-3.1053 c 0,0 0,-2 -2,-2 z"
       id="path4154-6"
       inkscape:connector-curvature="0"
       sodipodi:nodetypes="cscscscsc" />
    <path
       style="fill:#fffac7;fill-rule:evenodd;stroke:none;stroke-width:1px;stroke-linecap:butt;stroke-linejoin:miter;stroke-opacity:1;fill-opacity:1"
       d="m 28,1019.3622 0,21 c 0,0 -0.125,2 2.291667,2 l 2.416666,0 c 0,0 2.291667,0 2.291667,-2 l 0,-22 -7,0 z"
       id="path4173"
       inkscape:connector-curvature="0"
       sodipodi:nodetypes="ccscsccc" />
    <path
       style="fill:#fffac7;fill-opacity:1;fill-rule:evenodd;stroke:none;stroke-width:1px;stroke-linecap:butt;stroke-linejoin:miter;stroke-opacity:1"
       d="m 17,1002.678 c 0,0 0,-2.3158 2.416667,-2.3158 l 3.625,0 1.208333,0 6.75,7 c 0,0 0.5,1.1053 1.708333,-0.053 1.208334,-1.1579 6.041667,-6.9474 6.041667,-6.9474 l 4.833333,0 c 0,0 2.416667,0 2.416667,2.3158 0,2.3158 0,0 0,0 l -10.875,12.7368 -7.25,0 z"
       id="path4175"
       inkscape:connector-curvature="0"
       sodipodi:nodetypes="cscccsccscccc" />
  </g>
</svg>
