<?xml version="1.0" encoding="UTF-8" standalone="no"?>
<!-- Created with Inkscape (http://www.inkscape.org/) -->

<svg
   xmlns:dc="http://purl.org/dc/elements/1.1/"
   xmlns:cc="http://creativecommons.org/ns#"
   xmlns:rdf="http://www.w3.org/1999/02/22-rdf-syntax-ns#"
   xmlns:svg="http://www.w3.org/2000/svg"
   xmlns="http://www.w3.org/2000/svg"
   xmlns:sodipodi="http://sodipodi.sourceforge.net/DTD/sodipodi-0.dtd"
   xmlns:inkscape="http://www.inkscape.org/namespaces/inkscape"
   width="64"
   height="64"
   id="svg2"
   version="1.1"
   inkscape:version="0.91 r13725"
   sodipodi:docname="gpk-prefs.svg">
  <defs
     id="defs4" />
  <sodipodi:namedview
     id="base"
     pagecolor="#ffffff"
     bordercolor="#666666"
     borderopacity="1.0"
     inkscape:pageopacity="0.0"
     inkscape:pageshadow="2"
     inkscape:zoom="3.5690184"
     inkscape:cx="72.327946"
     inkscape:cy="34.941092"
     inkscape:document-units="px"
     inkscape:current-layer="layer1"
     showgrid="true"
     inkscape:object-paths="true"
     inkscape:snap-object-midpoints="true"
     inkscape:snap-center="true"
     inkscape:snap-bbox="true"
     inkscape:bbox-paths="true"
     inkscape:bbox-nodes="true"
     inkscape:snap-bbox-edge-midpoints="true"
     inkscape:snap-bbox-midpoints="true"
     inkscape:snap-intersection-paths="true"
     inkscape:object-nodes="true"
     inkscape:snap-smooth-nodes="true"
     inkscape:snap-midpoints="true"
     inkscape:snap-page="true"
     inkscape:window-width="696"
     inkscape:window-height="651"
     inkscape:window-x="644"
     inkscape:window-y="27"
     inkscape:window-maximized="0">
    <inkscape:grid
       empspacing="2"
       visible="true"
       enabled="true"
       snapvisiblegridlinesonly="true"
       type="xygrid"
       id="grid2987" />
  </sodipodi:namedview>
  <metadata
     id="metadata7">
    <rdf:RDF>
      <cc:Work
         rdf:about="">
        <dc:format>image/svg+xml</dc:format>
        <dc:type
           rdf:resource="http://purl.org/dc/dcmitype/StillImage" />
        <dc:title></dc:title>
      </cc:Work>
    </rdf:RDF>
  </metadata>
  <g
     inkscape:label="Layer 1"
     inkscape:groupmode="layer"
     id="layer1"
     transform="translate(0,-988.36218)">
    <rect
       style="fill:#3fb19d;fill-opacity:1;stroke:none"
       id="rect4990"
       width="64"
       height="64"
       x="0"
       y="0"
       transform="translate(0,988.36218)"
       ry="4" />
    <path
       style="fill:#f4e3d7;fill-rule:evenodd;stroke:none;stroke-width:1px;stroke-linecap:butt;stroke-linejoin:miter;stroke-opacity:1;fill-opacity:1"
       d="m 14.222222,1018.3622 c 0,0 -2.222222,0 -2.222222,-2.8 0,-2.8 0,-8.4 0,-8.4 0,0 0,-2.8 2.222222,-2.8 2.222222,0 35.555556,0 35.555556,0 0,0 2.222222,0 2.222222,2.8 0,2.8 0,8.4 0,8.4 0,0 0,2.8 -2.222222,2.8 -2.222222,0 -35.555556,0 -35.555556,0 z"
       id="path4144"
       inkscape:connector-curvature="0" />
    <path
       style="fill:#f4e3d7;fill-rule:evenodd;stroke:none;stroke-width:1px;stroke-linecap:butt;stroke-linejoin:miter;stroke-opacity:1;fill-opacity:1"
       d="m 14.222222,1036.3622 c 0,0 -2.222222,0 -2.222222,-2.8 0,-2.8 0,-8.4 0,-8.4 0,0 0,-2.8 2.222222,-2.8 2.222222,0 35.555556,0 35.555556,0 0,0 2.222222,0 2.222222,2.8 0,2.8 0,8.4 0,8.4 0,0 0,2.8 -2.222222,2.8 -2.222222,0 -35.555556,0 -35.555556,0 z"
       id="path4144-0"
       inkscape:connector-curvature="0" />
    <path
       style="fill:#91b2b4;fill-opacity:1;fill-rule:evenodd;stroke:none;stroke-width:1px;stroke-linecap:butt;stroke-linejoin:miter;stroke-opacity:1"
       d="m 13,1007.7622 c 0,0 0,-2.4 2.111111,-2.4 2.111111,0 14.777778,0 14.777778,0 0,0 2.111111,0 2.111111,2.4 0,2.4 0,7.2 0,7.2 0,0 0,2.4 -2.111111,2.4 -2.111111,0 -14.777778,0 -14.777778,0 0,0 -2.111111,0 -2.111111,-2.4 0,-2.4 0,-7.2 0,-7.2 z"
       id="path4161"
       inkscape:connector-curvature="0" />
    <path
       style="fill:#3fb19d;fill-opacity:1;fill-rule:evenodd;stroke:none;stroke-width:1px;stroke-linecap:butt;stroke-linejoin:miter;stroke-opacity:1"
       d="m 32,1025.7622 c 0,0 0,-2.4 2.111111,-2.4 2.111111,0 14.777778,0 14.777778,0 0,0 2.111111,0 2.111111,2.4 0,2.4 0,7.2 0,7.2 0,0 0,2.4 -2.111111,2.4 -2.111111,0 -14.777778,0 -14.777778,0 0,0 -2.111111,0 -2.111111,-2.4 0,-2.4 0,-7.2 0,-7.2 z"
       id="path4161-2"
       inkscape:connector-curvature="0" />
  </g>
</svg>
