<?xml version="1.0" encoding="UTF-8" standalone="no"?>
<!-- Created with Inkscape (http://www.inkscape.org/) -->

<svg
   xmlns:dc="http://purl.org/dc/elements/1.1/"
   xmlns:cc="http://creativecommons.org/ns#"
   xmlns:rdf="http://www.w3.org/1999/02/22-rdf-syntax-ns#"
   xmlns:svg="http://www.w3.org/2000/svg"
   xmlns="http://www.w3.org/2000/svg"
   xmlns:sodipodi="http://sodipodi.sourceforge.net/DTD/sodipodi-0.dtd"
   xmlns:inkscape="http://www.inkscape.org/namespaces/inkscape"
   width="64"
   height="64"
   id="svg2"
   version="1.1"
   inkscape:version="0.91 r13725"
   sodipodi:docname="grisbi.svg">
  <defs
     id="defs4" />
  <sodipodi:namedview
     id="base"
     pagecolor="#ffffff"
     bordercolor="#666666"
     borderopacity="1.0"
     inkscape:pageopacity="0.0"
     inkscape:pageshadow="2"
     inkscape:zoom="9.6806676"
     inkscape:cx="35.688233"
     inkscape:cy="49.187399"
     inkscape:document-units="px"
     inkscape:current-layer="layer1"
     showgrid="true"
     inkscape:object-paths="true"
     inkscape:snap-object-midpoints="true"
     inkscape:snap-center="true"
     inkscape:snap-bbox="true"
     inkscape:bbox-paths="true"
     inkscape:bbox-nodes="true"
     inkscape:snap-bbox-edge-midpoints="true"
     inkscape:snap-bbox-midpoints="true"
     inkscape:snap-intersection-paths="true"
     inkscape:object-nodes="true"
     inkscape:snap-smooth-nodes="true"
     inkscape:snap-midpoints="true"
     inkscape:snap-page="true"
     inkscape:window-width="696"
     inkscape:window-height="651"
     inkscape:window-x="254"
     inkscape:window-y="27"
     inkscape:window-maximized="0"
     inkscape:snap-global="false">
    <inkscape:grid
       empspacing="2"
       visible="true"
       enabled="true"
       snapvisiblegridlinesonly="true"
       type="xygrid"
       id="grid2987" />
  </sodipodi:namedview>
  <metadata
     id="metadata7">
    <rdf:RDF>
      <cc:Work
         rdf:about="">
        <dc:format>image/svg+xml</dc:format>
        <dc:type
           rdf:resource="http://purl.org/dc/dcmitype/StillImage" />
        <dc:title />
      </cc:Work>
    </rdf:RDF>
  </metadata>
  <g
     inkscape:label="Layer 1"
     inkscape:groupmode="layer"
     id="layer1"
     transform="translate(0,-988.36218)">
    <rect
       style="fill:#d67047;fill-opacity:1;stroke:none"
       id="rect4990"
       width="64"
       height="64"
       x="0"
       y="0"
       transform="translate(0,988.36218)"
       ry="4" />
    <path
       style="fill:#ffe7ae;fill-opacity:1;fill-rule:evenodd;stroke:none;stroke-width:1px;stroke-linecap:butt;stroke-linejoin:miter;stroke-opacity:1"
       d="m 16,1013.3622 c 0,0 0,-2 2,-2 2,0 28,0 28,0 0,0 2,0 2,2 l 0,2 c 0,0 0,2 -2,2 -2,0 -28,0 -28,0 0,0 -2,0 -2,-2 0,-2 0,-2 0,-2 z"
       id="path4144"
       inkscape:connector-curvature="0" />
    <path
       style="fill:#ffe7ae;fill-opacity:1;fill-rule:evenodd;stroke:none;stroke-width:1px;stroke-linecap:butt;stroke-linejoin:miter;stroke-opacity:1"
       d="m 16,1025.3622 c 0,0 0,-2 2,-2 2,0 28,0 28,0 0,0 2,0 2,2 l 0,2 c 0,0 0,2 -2,2 -2,0 -28,0 -28,0 0,0 -2,0 -2,-2 0,-2 0,-2 0,-2 z"
       id="path4144-3"
       inkscape:connector-curvature="0" />
    <path
       style="fill:#ffe7ae;fill-opacity:1;fill-rule:evenodd;stroke:none;stroke-width:1px;stroke-linecap:butt;stroke-linejoin:miter;stroke-opacity:1"
       d="m 33,1012.015 c 0,0 2,0 2,1.8967 0,1.8967 0,26.5538 0,26.5538 0,0 0,1.8967 -2,1.8967 l -2,0 c 0,0 -2,0 -2,-1.8967 0,-1.8967 0,-26.5538 0,-26.5538 0,0 0,-1.8967 2,-1.8967 2,0 2,0 2,0 z"
       id="path4144-39"
       inkscape:connector-curvature="0" />
    <path
       style="fill:#ffe7ae;fill-opacity:1;fill-rule:evenodd;stroke:none;stroke-width:1px;stroke-linecap:butt;stroke-linejoin:miter;stroke-opacity:1"
       d="m 18.67214,999.55485 c 0,0 1.535331,-1.28168 2.25629,-0.41806 0.720946,0.86371 10.09342,12.09081 10.09342,12.09081 0,0 0.720946,0.8637 -0.814382,2.1454 l -1.535329,1.2817 c 0,0 -1.535328,1.2817 -2.256291,0.4181 -0.720945,-0.8637 -10.093419,-12.0908 -10.093419,-12.0908 0,0 -0.720946,-0.8637 0.814382,-2.1454 1.535329,-1.28175 1.535329,-1.28175 1.535329,-1.28175 z"
       id="path4144-5"
       inkscape:connector-curvature="0" />
    <path
       style="fill:#ffe7ae;fill-opacity:1;fill-rule:evenodd;stroke:none;stroke-width:1px;stroke-linecap:butt;stroke-linejoin:miter;stroke-opacity:1"
       d="m 45.481189,999.49217 c 0,0 -1.535331,-1.2817 -2.25629,-0.4181 -0.720947,0.86372 -10.093421,12.09083 -10.093421,12.09083 0,0 -0.720946,0.8637 0.814382,2.1454 l 1.535329,1.2817 c 0,0 1.535328,1.2817 2.256292,0.4181 0.720945,-0.8637 10.093418,-12.0908 10.093418,-12.0908 0,0 0.720946,-0.8637 -0.814382,-2.1454 -1.535328,-1.28173 -1.535328,-1.28173 -1.535328,-1.28173 z"
       id="path4144-5-9"
       inkscape:connector-curvature="0" />
  </g>
</svg>
