<?xml version="1.0" encoding="UTF-8" standalone="no"?>
<!-- Created with Inkscape (http://www.inkscape.org/) -->

<svg
   xmlns:dc="http://purl.org/dc/elements/1.1/"
   xmlns:cc="http://creativecommons.org/ns#"
   xmlns:rdf="http://www.w3.org/1999/02/22-rdf-syntax-ns#"
   xmlns:svg="http://www.w3.org/2000/svg"
   xmlns="http://www.w3.org/2000/svg"
   xmlns:sodipodi="http://sodipodi.sourceforge.net/DTD/sodipodi-0.dtd"
   xmlns:inkscape="http://www.inkscape.org/namespaces/inkscape"
   width="64"
   height="64"
   id="svg2"
   version="1.1"
   inkscape:version="0.91 r13725"
   sodipodi:docname="gsopcast.svg">
  <defs
     id="defs4" />
  <sodipodi:namedview
     id="base"
     pagecolor="#ffffff"
     bordercolor="#666666"
     borderopacity="1.0"
     inkscape:pageopacity="0.0"
     inkscape:pageshadow="2"
     inkscape:zoom="4.8403338"
     inkscape:cx="16.093449"
     inkscape:cy="25.842551"
     inkscape:document-units="px"
     inkscape:current-layer="layer1"
     showgrid="true"
     inkscape:object-paths="true"
     inkscape:snap-object-midpoints="true"
     inkscape:snap-center="true"
     inkscape:snap-bbox="true"
     inkscape:bbox-paths="true"
     inkscape:bbox-nodes="true"
     inkscape:snap-bbox-edge-midpoints="true"
     inkscape:snap-bbox-midpoints="true"
     inkscape:snap-intersection-paths="true"
     inkscape:object-nodes="true"
     inkscape:snap-smooth-nodes="true"
     inkscape:snap-midpoints="true"
     inkscape:snap-page="true"
     inkscape:window-width="696"
     inkscape:window-height="651"
     inkscape:window-x="590"
     inkscape:window-y="56"
     inkscape:window-maximized="0">
    <inkscape:grid
       empspacing="2"
       visible="true"
       enabled="true"
       snapvisiblegridlinesonly="true"
       type="xygrid"
       id="grid2987" />
  </sodipodi:namedview>
  <metadata
     id="metadata7">
    <rdf:RDF>
      <cc:Work
         rdf:about="">
        <dc:format>image/svg+xml</dc:format>
        <dc:type
           rdf:resource="http://purl.org/dc/dcmitype/StillImage" />
        <dc:title />
      </cc:Work>
    </rdf:RDF>
  </metadata>
  <g
     inkscape:label="Layer 1"
     inkscape:groupmode="layer"
     id="layer1"
     transform="translate(0,-988.36218)">
    <rect
       style="fill:#dbdee7;fill-opacity:1;stroke:none"
       id="rect4990"
       width="64"
       height="64"
       x="0"
       y="0"
       transform="translate(0,988.36218)"
       ry="4" />
    <path
       style="fill:#a4cdde;fill-rule:evenodd;stroke:none;stroke-width:1px;stroke-linecap:butt;stroke-linejoin:miter;stroke-opacity:1;fill-opacity:1"
       d="m 21,1011.3622 22,0 0,7 -22,0 z"
       id="path4245"
       inkscape:connector-curvature="0" />
    <path
       style="fill:#516e6b;fill-rule:evenodd;stroke:none;stroke-width:1px;stroke-linecap:butt;stroke-linejoin:miter;stroke-opacity:1;fill-opacity:1"
       d="m 10,999.36218 c 0,0 0,-1 1,-1 1,0 9,0 9,0 0,0 1,0 1,1 l 0,42.00002 c 0,0 0,1 -1,1 -1,0 -9,0 -9,0 0,0 -1,0 -1,-1 0,-1 0,-42.00002 0,-42.00002 z"
       id="path4144"
       inkscape:connector-curvature="0" />
    <path
       style="fill:#516e6b;fill-rule:evenodd;stroke:none;stroke-width:1px;stroke-linecap:butt;stroke-linejoin:miter;stroke-opacity:1;fill-opacity:1"
       d="m 43,999.36218 c 0,0 0,-1 1,-1 1,0 9,0 9,0 0,0 1,0 1,1 l 0,42.00002 c 0,0 0,1 -1,1 -1,0 -9,0 -9,0 0,0 -1,0 -1,-1 0,-1 0,-42.00002 0,-42.00002 z"
       id="path4144-1"
       inkscape:connector-curvature="0" />
    <path
       style="fill:#dbdee7;fill-opacity:1;fill-rule:evenodd;stroke:none;stroke-width:1px;stroke-linecap:butt;stroke-linejoin:miter;stroke-opacity:1"
       d="m 13,1002.0764 c 0,0 0,-0.7142 0.714286,-0.7142 0.714286,0 3.571428,0 3.571428,0 0,0 0.714286,0 0.714286,0.7142 0,0.7144 0,3.5715 0,3.5715 0,0 0,0.7143 -0.714286,0.7143 -0.714286,0 -3.571428,0 -3.571428,0 0,0 -0.714286,0 -0.714286,-0.7143 0,-0.7143 0,-3.5715 0,-3.5715 z"
       id="path4161"
       inkscape:connector-curvature="0" />
    <path
       style="fill:#dbdee7;fill-opacity:1;fill-rule:evenodd;stroke:none;stroke-width:1px;stroke-linecap:butt;stroke-linejoin:miter;stroke-opacity:1"
       d="m 13,1013.0764 c 0,0 0,-0.7142 0.714286,-0.7142 0.714286,0 3.571428,0 3.571428,0 0,0 0.714286,0 0.714286,0.7142 0,0.7144 0,3.5715 0,3.5715 0,0 0,0.7143 -0.714286,0.7143 -0.714286,0 -3.571428,0 -3.571428,0 0,0 -0.714286,0 -0.714286,-0.7143 0,-0.7143 0,-3.5715 0,-3.5715 z"
       id="path4161-7"
       inkscape:connector-curvature="0" />
    <path
       style="fill:#dbdee7;fill-opacity:1;fill-rule:evenodd;stroke:none;stroke-width:1px;stroke-linecap:butt;stroke-linejoin:miter;stroke-opacity:1"
       d="m 13,1024.0764 c 0,0 0,-0.7142 0.714286,-0.7142 0.714286,0 3.571428,0 3.571428,0 0,0 0.714286,0 0.714286,0.7142 0,0.7144 0,3.5715 0,3.5715 0,0 0,0.7143 -0.714286,0.7143 -0.714286,0 -3.571428,0 -3.571428,0 0,0 -0.714286,0 -0.714286,-0.7143 0,-0.7143 0,-3.5715 0,-3.5715 z"
       id="path4161-0"
       inkscape:connector-curvature="0" />
    <path
       style="fill:#dbdee7;fill-opacity:1;fill-rule:evenodd;stroke:none;stroke-width:1px;stroke-linecap:butt;stroke-linejoin:miter;stroke-opacity:1"
       d="m 13,1035.0764 c 0,0 0,-0.7142 0.714286,-0.7142 0.714286,0 3.571428,0 3.571428,0 0,0 0.714286,0 0.714286,0.7142 0,0.7144 0,3.5715 0,3.5715 0,0 0,0.7143 -0.714286,0.7143 -0.714286,0 -3.571428,0 -3.571428,0 0,0 -0.714286,0 -0.714286,-0.7143 0,-0.7143 0,-3.5715 0,-3.5715 z"
       id="path4161-7-4"
       inkscape:connector-curvature="0" />
    <path
       style="fill:#516e6b;fill-rule:evenodd;stroke:none;stroke-width:1px;stroke-linecap:butt;stroke-linejoin:miter;stroke-opacity:1;fill-opacity:1"
       d="m 19,1007.3622 26,0 0,4 -26,0 z"
       id="path4220"
       inkscape:connector-curvature="0" />
    <path
       style="fill:#516e6b;fill-rule:evenodd;stroke:none;stroke-width:1px;stroke-linecap:butt;stroke-linejoin:miter;stroke-opacity:1;fill-opacity:1"
       d="m 19,1018.3622 26,0 0,4 -26,0 z"
       id="path4220-7"
       inkscape:connector-curvature="0" />
    <path
       style="fill:#516e6b;fill-rule:evenodd;stroke:none;stroke-width:1px;stroke-linecap:butt;stroke-linejoin:miter;stroke-opacity:1;fill-opacity:1"
       d="m 19,1029.3622 26,0 0,4 -26,0 z"
       id="path4220-3"
       inkscape:connector-curvature="0" />
    <path
       style="fill:#a4cdde;fill-rule:evenodd;stroke:none;stroke-width:1px;stroke-linecap:butt;stroke-linejoin:miter;stroke-opacity:1;fill-opacity:1"
       d="m 20,998.36218 c 0,0 1,0 1,1 0,1.00002 0,8.00002 0,8.00002 l 22,0 0,-8.00002 c 0,0 0,-1 1,-1 1,0 -24,0 -24,0 z"
       id="path4243"
       inkscape:connector-curvature="0" />
    <path
       style="fill:#a4cdde;fill-rule:evenodd;stroke:none;stroke-width:1px;stroke-linecap:butt;stroke-linejoin:miter;stroke-opacity:1;fill-opacity:1"
       d="m 21,1022.3622 22,0 0,7 -22,0 z"
       id="path4247"
       inkscape:connector-curvature="0" />
    <path
       style="fill:#a4cdde;fill-rule:evenodd;stroke:none;stroke-width:1px;stroke-linecap:butt;stroke-linejoin:miter;stroke-opacity:1;fill-opacity:1"
       d="m 20,1042.3622 c 0,0 1,0 1,-1 0,-1 0,-8 0,-8 l 22,0 0,8 c 0,0 0,1 1,1 1,0 -24,0 -24,0 z"
       id="path4249"
       inkscape:connector-curvature="0" />
    <path
       style="fill:#dbdee7;fill-opacity:1;fill-rule:evenodd;stroke:none;stroke-width:1px;stroke-linecap:butt;stroke-linejoin:miter;stroke-opacity:1"
       d="m 46,1002.3622 c 0,0 0,-0.7142 0.714286,-0.7142 0.714286,0 3.571428,0 3.571428,0 0,0 0.714286,0 0.714286,0.7142 0,0.7144 0,3.5715 0,3.5715 0,0 0,0.7143 -0.714286,0.7143 -0.714286,0 -3.571428,0 -3.571428,0 0,0 -0.714286,0 -0.714286,-0.7143 0,-0.7143 0,-3.5715 0,-3.5715 z"
       id="path4161-6"
       inkscape:connector-curvature="0" />
    <path
       style="fill:#dbdee7;fill-opacity:1;fill-rule:evenodd;stroke:none;stroke-width:1px;stroke-linecap:butt;stroke-linejoin:miter;stroke-opacity:1"
       d="m 46,1013.3622 c 0,0 0,-0.7142 0.714286,-0.7142 0.714286,0 3.571428,0 3.571428,0 0,0 0.714286,0 0.714286,0.7142 0,0.7144 0,3.5715 0,3.5715 0,0 0,0.7143 -0.714286,0.7143 -0.714286,0 -3.571428,0 -3.571428,0 0,0 -0.714286,0 -0.714286,-0.7143 0,-0.7143 0,-3.5715 0,-3.5715 z"
       id="path4161-7-8"
       inkscape:connector-curvature="0" />
    <path
       style="fill:#dbdee7;fill-opacity:1;fill-rule:evenodd;stroke:none;stroke-width:1px;stroke-linecap:butt;stroke-linejoin:miter;stroke-opacity:1"
       d="m 46,1024.3622 c 0,0 0,-0.7142 0.714286,-0.7142 0.714286,0 3.571428,0 3.571428,0 0,0 0.714286,0 0.714286,0.7142 0,0.7144 0,3.5715 0,3.5715 0,0 0,0.7143 -0.714286,0.7143 -0.714286,0 -3.571428,0 -3.571428,0 0,0 -0.714286,0 -0.714286,-0.7143 0,-0.7143 0,-3.5715 0,-3.5715 z"
       id="path4161-0-2"
       inkscape:connector-curvature="0" />
    <path
       style="fill:#dbdee7;fill-opacity:1;fill-rule:evenodd;stroke:none;stroke-width:1px;stroke-linecap:butt;stroke-linejoin:miter;stroke-opacity:1"
       d="m 46,1035.3622 c 0,0 0,-0.7142 0.714286,-0.7142 0.714286,0 3.571428,0 3.571428,0 0,0 0.714286,0 0.714286,0.7142 0,0.7144 0,3.5715 0,3.5715 0,0 0,0.7143 -0.714286,0.7143 -0.714286,0 -3.571428,0 -3.571428,0 0,0 -0.714286,0 -0.714286,-0.7143 0,-0.7143 0,-3.5715 0,-3.5715 z"
       id="path4161-7-4-6"
       inkscape:connector-curvature="0" />
  </g>
</svg>
