<?xml version="1.0" encoding="UTF-8" standalone="no"?>
<!-- Created with Inkscape (http://www.inkscape.org/) -->

<svg
   xmlns:dc="http://purl.org/dc/elements/1.1/"
   xmlns:cc="http://creativecommons.org/ns#"
   xmlns:rdf="http://www.w3.org/1999/02/22-rdf-syntax-ns#"
   xmlns:svg="http://www.w3.org/2000/svg"
   xmlns="http://www.w3.org/2000/svg"
   xmlns:sodipodi="http://sodipodi.sourceforge.net/DTD/sodipodi-0.dtd"
   xmlns:inkscape="http://www.inkscape.org/namespaces/inkscape"
   width="64"
   height="64"
   id="svg2"
   version="1.1"
   inkscape:version="0.91 r13725"
   sodipodi:docname="gthumb.svg">
  <defs
     id="defs4" />
  <sodipodi:namedview
     id="base"
     pagecolor="#ffffff"
     bordercolor="#666666"
     borderopacity="1.0"
     inkscape:pageopacity="0.0"
     inkscape:pageshadow="2"
     inkscape:zoom="9.283609"
     inkscape:cx="5.1000299"
     inkscape:cy="44.894577"
     inkscape:document-units="px"
     inkscape:current-layer="layer1"
     showgrid="true"
     inkscape:object-paths="true"
     inkscape:snap-object-midpoints="true"
     inkscape:snap-center="true"
     inkscape:snap-bbox="true"
     inkscape:bbox-paths="true"
     inkscape:bbox-nodes="true"
     inkscape:snap-bbox-edge-midpoints="true"
     inkscape:snap-bbox-midpoints="true"
     inkscape:snap-intersection-paths="true"
     inkscape:object-nodes="true"
     inkscape:snap-smooth-nodes="true"
     inkscape:snap-midpoints="true"
     inkscape:snap-page="true"
     inkscape:window-width="696"
     inkscape:window-height="651"
     inkscape:window-x="647"
     inkscape:window-y="27"
     inkscape:window-maximized="0">
    <inkscape:grid
       empspacing="2"
       visible="true"
       enabled="true"
       snapvisiblegridlinesonly="true"
       type="xygrid"
       id="grid2987" />
  </sodipodi:namedview>
  <metadata
     id="metadata7">
    <rdf:RDF>
      <cc:Work
         rdf:about="">
        <dc:format>image/svg+xml</dc:format>
        <dc:type
           rdf:resource="http://purl.org/dc/dcmitype/StillImage" />
        <dc:title />
      </cc:Work>
    </rdf:RDF>
  </metadata>
  <g
     inkscape:label="Layer 1"
     inkscape:groupmode="layer"
     id="layer1"
     transform="translate(0,-988.36218)">
    <rect
       style="fill:#6bc0c1;fill-opacity:1;stroke:none"
       id="rect4990"
       width="64"
       height="64"
       x="0"
       y="0"
       transform="translate(0,988.36218)"
       ry="4" />
    <path
       style="fill:#4e9ba4;fill-rule:evenodd;stroke:none;stroke-width:1px;stroke-linecap:butt;stroke-linejoin:miter;stroke-opacity:1;fill-opacity:1"
       d="m 2,992.36218 c 0,0 0,-2 2,-2 2,0 56,0 56,0 0,0 2,0 2,2 0,2 0,56.00002 0,56.00002 0,0 0,2 -2,2 -2,0 -56,0 -56,0 0,0 -2,0 -2,-2 0,-2 0,-56.00002 0,-56.00002 z"
       id="path4137"
       inkscape:connector-curvature="0" />
    <path
       style="fill:#f4e3d7;fill-rule:evenodd;stroke:none;stroke-width:1px;stroke-linecap:butt;stroke-linejoin:miter;stroke-opacity:1;fill-opacity:1"
       d="m 10,1020.3622 c 0,0 10,-14 22,-14 12,0 22,14 22,14 0,0 -10,14 -22,14 -12,0 -22,-14 -22,-14 z"
       id="path3344"
       inkscape:connector-curvature="0" />
    <path
       style="fill:#4e9ba4;fill-opacity:1;stroke:none;stroke-opacity:1"
       id="path3346"
       sodipodi:type="arc"
       sodipodi:cx="32"
       sodipodi:cy="1020.3622"
       sodipodi:rx="6"
       sodipodi:ry="12"
       sodipodi:start="0.020713917"
       sodipodi:end="6.2282598"
       sodipodi:open="true"
       d="m 37.998713,1020.6107 a 6,12 0 0 1 -6.009537,11.7515 6,12 0 0 1 -5.988298,-11.7948 6,12 0 0 1 5.783075,-12.1974 6,12 0 0 1 6.206999,11.3334" />
  </g>
</svg>
