<?xml version="1.0" encoding="UTF-8" standalone="no"?>
<!-- Created with Inkscape (http://www.inkscape.org/) -->

<svg
   xmlns:dc="http://purl.org/dc/elements/1.1/"
   xmlns:cc="http://creativecommons.org/ns#"
   xmlns:rdf="http://www.w3.org/1999/02/22-rdf-syntax-ns#"
   xmlns:svg="http://www.w3.org/2000/svg"
   xmlns="http://www.w3.org/2000/svg"
   xmlns:sodipodi="http://sodipodi.sourceforge.net/DTD/sodipodi-0.dtd"
   xmlns:inkscape="http://www.inkscape.org/namespaces/inkscape"
   width="64"
   height="64"
   id="svg2"
   version="1.1"
   inkscape:version="0.91 r13725"
   sodipodi:docname="guayadeque.svg">
  <defs
     id="defs4">
    <clipPath
       id="clipPath-589278297">
      <g
         transform="translate(0,-1004.3622)"
         id="g17">
        <path
           style="fill:#1890d0"
           inkscape:connector-curvature="0"
           d="m -24,13 c 0,1.105 -0.672,2 -1.5,2 -0.828,0 -1.5,-0.895 -1.5,-2 0,-1.105 0.672,-2 1.5,-2 0.828,0 1.5,0.895 1.5,2 z"
           transform="matrix(15.333333,0,0,11.5,414.99999,878.8622)"
           id="path19" />
      </g>
    </clipPath>
  </defs>
  <sodipodi:namedview
     id="base"
     pagecolor="#ffffff"
     bordercolor="#666666"
     borderopacity="1.0"
     inkscape:pageopacity="0.0"
     inkscape:pageshadow="2"
     inkscape:zoom="8.1875024"
     inkscape:cx="17.842991"
     inkscape:cy="23.547784"
     inkscape:document-units="px"
     inkscape:current-layer="layer1"
     showgrid="true"
     inkscape:object-paths="true"
     inkscape:snap-object-midpoints="true"
     inkscape:snap-center="true"
     inkscape:snap-bbox="true"
     inkscape:bbox-paths="true"
     inkscape:bbox-nodes="true"
     inkscape:snap-bbox-edge-midpoints="true"
     inkscape:snap-bbox-midpoints="true"
     inkscape:snap-intersection-paths="true"
     inkscape:object-nodes="true"
     inkscape:snap-smooth-nodes="true"
     inkscape:snap-midpoints="true"
     inkscape:snap-page="true"
     inkscape:window-width="696"
     inkscape:window-height="651"
     inkscape:window-x="191"
     inkscape:window-y="27"
     inkscape:window-maximized="0"
     inkscape:snap-global="true">
    <inkscape:grid
       empspacing="2"
       visible="true"
       enabled="true"
       snapvisiblegridlinesonly="true"
       type="xygrid"
       id="grid2987" />
  </sodipodi:namedview>
  <metadata
     id="metadata7">
    <rdf:RDF>
      <cc:Work
         rdf:about="">
        <dc:format>image/svg+xml</dc:format>
        <dc:type
           rdf:resource="http://purl.org/dc/dcmitype/StillImage" />
        <dc:title />
      </cc:Work>
    </rdf:RDF>
  </metadata>
  <g
     inkscape:label="Layer 1"
     inkscape:groupmode="layer"
     id="layer1"
     transform="translate(0,-988.36218)">
    <rect
       style="fill:#74afd9;fill-opacity:1;stroke:none"
       id="rect4990"
       width="64"
       height="64"
       x="0"
       y="0"
       transform="translate(0,988.36218)"
       ry="4" />
    <path
       style="fill:#8fdf45;fill-opacity:1;fill-rule:evenodd;stroke:none;stroke-width:1px;stroke-linecap:butt;stroke-linejoin:miter;stroke-opacity:1"
       d="m 31.741852,1007.5173 c 0,0 -1.648458,-0.065 -2.923436,0.1752 -1.274979,0.24 -2.331023,0.4864 -3.812059,1.2 -1.481036,0.7134 -2.923437,1.9978 -2.923437,1.9978 0,0 -1.2621,1.0637 -2.07345,2.348 -0.81135,1.2844 -1.403765,2.6723 -1.687093,3.84 -0.283329,1.1675 -0.386358,2.2702 -0.283329,3.9178 0.103027,1.6475 0.81135,3.5674 1.274978,4.3328 0.463629,0.7655 1.068923,2.0757 2.80753,3.6324 1.738607,1.5567 3.335551,2.2314 4.623409,2.6464 1.287857,0.4152 2.073451,0.6357 4.185537,0.6876 2.112087,0.052 3.168129,-0.3243 4.468865,-0.7134 1.300737,-0.3892 2.472687,-1.1287 2.472687,-1.1287 0,0 -0.05151,1.3232 -0.618171,2.3869 -0.566658,1.0638 -0.91438,1.5567 -1.751487,2.2704 -0.837107,0.7134 -1.674215,1.0377 -1.674215,1.0377 l -0.01288,6.214 c 0,0 1.957543,-0.3633 3.747665,-1.44 1.790122,-1.0767 2.71738,-1.9199 3.61888,-3.0226 0.901501,-1.1027 1.35225,-1.6995 2.26663,-3.9827 0.914378,-2.2832 0.669685,-5.7339 0.669685,-5.7339 l 0.03864,-20.6657 -6.233231,-0.039 -0.01288,12.4927 c 0,0 0.141665,1.3362 -0.824229,3.0616 -0.965893,1.7254 -2.691622,2.6335 -3.322673,2.854 -0.631049,0.2206 -2.3439,0.96 -4.842344,0.2206 -2.498443,-0.7396 -3.644637,-2.7114 -3.876451,-3.0876 -0.231814,-0.3762 -1.056043,-1.7773 -0.798472,-3.8399 0.257572,-2.0627 1.287858,-3.5805 2.884802,-4.6442 1.596943,-1.0638 2.987829,-1.1028 3.309793,-1.1547 0.321964,-0.051 1.326494,0.026 1.326494,0.026 z"
       id="path4164"
       inkscape:connector-curvature="0" />
    <path
       style="fill:#414b51;fill-opacity:1;fill-rule:evenodd;stroke:none;stroke-width:1px;stroke-linecap:butt;stroke-linejoin:miter;stroke-opacity:1"
       d="m 31.734715,998.36214 1.976117,0.0183 c 0,0 0.546391,-0.0825 1.766666,0.11008 1.220275,0.19263 2.039863,0.5137 3.351203,1.18333 1.311339,0.66975 2.595361,2.13735 3.232817,3.14645 0.637457,1.009 1.001718,2.1649 1.15653,3.0454 0.15481,0.8807 0.153157,1.6322 0.153157,1.6322 l -5.441197,-0.026 -0.02576,12.5122 c 0,0 0.09015,0.681 -0.328403,1.9524 -0.418554,1.2712 -1.113997,1.9783 -1.423083,2.3156 -0.309086,0.3373 -0.927257,0.9145 -1.860954,1.3946 -0.933697,0.4799 -2.028375,0.7004 -2.717379,0.7394 -0.689004,0.039 -0.677516,0.041 -1.456124,-0.033 -0.778609,-0.073 -1.493472,-0.3485 -1.834966,-0.4999 -0.341495,-0.1512 -0.710309,-0.2521 -1.693814,-1.0227 -0.983505,-0.7705 -1.50713,-1.7247 -1.712027,-2.1053 -0.204897,-0.3807 -0.473539,-1.0136 -0.623798,-1.9401 -0.150257,-0.9264 -0.0092,-1.6466 0.05919,-2.0501 0.0683,-0.4037 0.254983,-1.1651 0.610137,-1.7797 0.355155,-0.6145 0.810481,-1.3255 1.625515,-1.9905 0.815035,-0.665 1.416065,-0.8991 1.848626,-1.0917 0.432559,-0.1927 1.070017,-0.3531 1.675601,-0.4403 0.605584,-0.087 0.983505,-0.06 1.211168,-0.064 0.227664,0 0.487199,0.037 0.487199,0.037 z"
       id="path4166"
       inkscape:connector-curvature="0" />
  </g>
</svg>
