<?xml version="1.0" encoding="UTF-8" standalone="no"?>
<!-- Created with Inkscape (http://www.inkscape.org/) -->

<svg
   xmlns:dc="http://purl.org/dc/elements/1.1/"
   xmlns:cc="http://creativecommons.org/ns#"
   xmlns:rdf="http://www.w3.org/1999/02/22-rdf-syntax-ns#"
   xmlns:svg="http://www.w3.org/2000/svg"
   xmlns="http://www.w3.org/2000/svg"
   xmlns:sodipodi="http://sodipodi.sourceforge.net/DTD/sodipodi-0.dtd"
   xmlns:inkscape="http://www.inkscape.org/namespaces/inkscape"
   width="64"
   height="64"
   id="svg2"
   version="1.1"
   inkscape:version="0.91 r13725"
   sodipodi:docname="gwibber.svg">
  <defs
     id="defs4">
    <clipPath
       id="clipPath-690941205">
      <g
         transform="translate(0,-1004.3622)"
         id="g59731">
        <path
           style="fill:#1890d0"
           inkscape:connector-curvature="0"
           d="m -24,13 c 0,1.105 -0.672,2 -1.5,2 -0.828,0 -1.5,-0.895 -1.5,-2 0,-1.105 0.672,-2 1.5,-2 0.828,0 1.5,0.895 1.5,2 z"
           transform="matrix(15.333333,0,0,11.5,414.99999,878.8622)"
           id="path59733" />
      </g>
    </clipPath>
    <clipPath
       id="clip1">
      <path
         inkscape:connector-curvature="0"
         d="m 12,11 26,0 0,23 -26,0 m 0,-23"
         id="path59736" />
    </clipPath>
    <clipPath
       id="clip2">
      <path
         inkscape:connector-curvature="0"
         d="m 23.867,11.594 c -29.504,5.996 6.05,39.93 13.469,11.168 0,-6.168 -6.03,-11.168 -13.469,-11.168 m 0,0"
         id="path59739" />
    </clipPath>
  </defs>
  <sodipodi:namedview
     id="base"
     pagecolor="#ffffff"
     bordercolor="#666666"
     borderopacity="1.0"
     inkscape:pageopacity="0.0"
     inkscape:pageshadow="2"
     inkscape:zoom="3.0604465"
     inkscape:cx="13.345025"
     inkscape:cy="18.342924"
     inkscape:document-units="px"
     inkscape:current-layer="layer1"
     showgrid="true"
     inkscape:object-paths="true"
     inkscape:snap-object-midpoints="true"
     inkscape:snap-center="true"
     inkscape:snap-bbox="true"
     inkscape:bbox-paths="true"
     inkscape:bbox-nodes="true"
     inkscape:snap-bbox-edge-midpoints="true"
     inkscape:snap-bbox-midpoints="true"
     inkscape:snap-intersection-paths="true"
     inkscape:object-nodes="true"
     inkscape:snap-smooth-nodes="true"
     inkscape:snap-midpoints="true"
     inkscape:snap-page="true"
     inkscape:window-width="697"
     inkscape:window-height="714"
     inkscape:window-x="590"
     inkscape:window-y="27"
     inkscape:window-maximized="0"
     inkscape:snap-global="false">
    <inkscape:grid
       empspacing="2"
       visible="true"
       enabled="true"
       snapvisiblegridlinesonly="true"
       type="xygrid"
       id="grid2987" />
  </sodipodi:namedview>
  <metadata
     id="metadata7">
    <rdf:RDF>
      <cc:Work
         rdf:about="">
        <dc:format>image/svg+xml</dc:format>
        <dc:type
           rdf:resource="http://purl.org/dc/dcmitype/StillImage" />
        <dc:title />
      </cc:Work>
    </rdf:RDF>
  </metadata>
  <g
     inkscape:label="Layer 1"
     inkscape:groupmode="layer"
     id="layer1"
     transform="translate(0,-988.36218)">
    <rect
       style="fill:#54a0be;fill-opacity:1;stroke:none"
       id="rect4990"
       width="64"
       height="64"
       x="0"
       y="0"
       transform="translate(0,988.36218)"
       ry="4" />
    <path
       style="fill:#dff9f3;fill-opacity:1;fill-rule:evenodd;stroke:none;stroke-width:1px;stroke-linecap:butt;stroke-linejoin:miter;stroke-opacity:1"
       d="m 10,1016.3622 c 0,0 -1,-18.00002 22,-18.00004 23,-2e-5 22,18.00004 22,18.00004 0,0 1,18 -22,18 -23,0 -22,-18 -22,-18 z"
       id="path4184"
       inkscape:connector-curvature="0"
       sodipodi:nodetypes="cscsc" />
    <path
       style="fill:#dff9f3;fill-opacity:1;fill-rule:evenodd;stroke:none;stroke-width:1px;stroke-linecap:butt;stroke-linejoin:miter;stroke-opacity:1"
       d="m 17,1037.3622 c 0.08834,0.097 -4.70212,6.5665 2,4 2.801614,-1.0729 9,-4 9,-10 0,-6 -10,-4 -10,-4 0,0 2,4 -1,10 z"
       id="path3339"
       inkscape:connector-curvature="0"
       sodipodi:nodetypes="csscc" />
    <path
       style="fill:#a6afc6;fill-rule:evenodd;stroke:none;stroke-width:1px;stroke-linecap:butt;stroke-linejoin:miter;stroke-opacity:1;fill-opacity:1"
       d="m 18.098534,1019.0591 c 0,0 0.300905,-0.2743 0.513308,-0.9647 0.212404,-0.6903 0.132752,-1.2567 0.327455,-1.7169 0.194703,-0.4602 0.681461,-0.9647 1.407172,-0.947 0.725712,0.018 2.478039,0.8054 3.354203,1.4338 0.876164,0.6283 1.787728,1.9116 2.062083,1.9736 0,0 0.946964,-0.01 1.477973,0.4602 0.531008,0.469 0.946965,0.8938 0.867313,2.5134 -0.07965,1.6196 -1.486823,2.9559 -1.770027,3.1861 -0.283205,0.2301 -0.380556,0.2301 -0.548709,0.8142 -0.168153,0.5841 -0.902714,1.2832 -0.902714,1.2832 0,0 -0.433657,0.5664 -0.59296,1.0532 -0.159302,0.4868 -0.442506,1.0089 -0.69031,2.2125 -0.247804,1.2037 -0.06195,0.5664 -1.380622,-0.6195 -1.318671,-1.1859 -0.292055,0.6372 -1.070867,-1.832 -0.778812,-2.4691 0.469057,-0.2566 -0.168153,-2.8497 -0.63721,-2.5931 -2.327586,-3.5135 -2.716992,-5.2127 -0.389406,-1.6993 -0.141603,-0.7966 -0.168153,-0.7877 z"
       id="path3372"
       inkscape:connector-curvature="0" />
    <path
       style="fill:#a6afc6;fill-rule:evenodd;stroke:none;stroke-width:1px;stroke-linecap:butt;stroke-linejoin:miter;stroke-opacity:1;fill-opacity:1"
       d="m 38.462704,1009.085 c 0,0 -3.557756,-0.3009 -5.06228,2.5842 -1.504523,2.8852 -0.601809,4.2835 -0.106201,4.7437 0.495608,0.4602 2.619641,1.0443 4.194966,0.9735 1.575324,-0.071 1.752327,4.9207 1.752327,4.9207 0,0 0.212403,3.3808 0.442507,3.8764 0.230104,0.4956 1.663826,2.2479 3.363053,0.4071 1.699227,-1.8409 2.56654,-6.0358 2.478039,-6.6376 -0.0885,-0.6018 0.796512,-1.4869 0.796512,-1.4869 0,0 2.141734,-2.478 0.902715,-2.7612 -1.23902,-0.2832 -0.761112,0.6195 -2.053233,-1.2744 -1.29212,-1.8939 -0.831913,-2.4073 -2.106333,-3.6463 -1.27442,-1.239 -2.424938,0.071 -2.424938,0.071 0,0 -1.29212,-0.1062 -2.177134,-1.77 z"
       id="path4174"
       inkscape:connector-curvature="0" />
    <path
       style="fill:#a6afc6;fill-rule:evenodd;stroke:none;stroke-width:1px;stroke-linecap:butt;stroke-linejoin:miter;stroke-opacity:1;fill-opacity:1"
       d="m 15.59492,1011.8604 c 0,0 -0.413068,0.5265 -0.315716,0.823 0.09735,0.2965 0.659335,0.5841 0.659335,0.5841 0,0 0.424807,0.2213 0.393831,0.6239 -0.03098,0.4027 -0.181428,0.1461 0.03098,0.4868 0.212403,0.3407 0.424806,0.77 0.424806,0.77 0,0 0.02655,0.1239 -0.106201,0.049 -0.132753,-0.075 -1.323096,-1.0797 -1.646126,-1.2655 -0.32303,-0.1859 -0.663761,-0.5045 -1.062017,-0.5797 -0.398256,-0.075 -0.513308,-0.031 -0.513308,-0.031 0,0 -0.451357,0.031 -0.92484,-0.3717 -0.473482,-0.4027 -1.04796,-0.7918 -1.552418,-1.6813 -0.504458,-0.8894 1.632873,-4.7265 3.097243,-6.3411 1.464371,-1.6145 1.818228,-1.8057 3.181149,-2.7925 1.362922,-0.9868 3.057724,-1.6417 3.951588,-2.0399 0.893864,-0.39827 2.181559,-0.69475 2.354137,-0.75225 0.172577,-0.058 0.309754,-0.15947 0.601809,0.0397 0.380556,0.2478 1.138157,0.8139 0.85029,1.0768 -0.287868,0.2628 -1.351727,0.438 -1.214051,0.9387 0.137676,0.5006 0.12516,0.2628 0.12516,0.2628 0,0 -0.988763,-0.4005 -1.176503,-0.4881 -0.18774,-0.088 -0.575735,-0.4256 -0.06258,-0.6258 0.513156,-0.2003 0.650831,-0.1878 0.600767,-0.3129 -0.05006,-0.1252 -0.600767,-0.413 -0.863603,-0.3379 -0.262835,0.075 -0.788507,0.3754 -0.951215,0.7509 -0.162707,0.3755 -1.889914,0.7259 -1.889914,0.7259 0,0 -1.251598,0.2003 -1.113922,0.8511 0.137676,0.6509 0.638315,0.751 0.638315,0.751 0,0 0.25032,0.8511 0.488123,0.826 0.237804,-0.025 0.08761,0.5132 0.988763,-0.6758 0.901151,-1.189 1.201535,-1.7898 1.727207,-1.6646 0.525671,0.1251 0.638315,0.4756 0.638315,0.4756 0,0 0.588251,0.025 0.738443,0.2253 0.150192,0.2002 0.400512,0.5131 0.863603,2.403 0.463092,1.8899 0.12516,0.4381 0.12516,0.4381 0,0 -0.575735,0.3004 -0.738443,0.2503 -0.162708,-0.05 -0.18774,-0.2628 -0.162708,-0.6383 0.02503,-0.3755 0.0751,-0.6008 -0.425544,-0.413 -0.500639,0.1877 -0.250319,0.2127 -1.08889,0.2503 -0.838571,0.038 0.03755,0.5507 0.03755,0.5507 0,0 0.713411,0.3504 0.538187,0.5632 -0.175224,0.2128 -0.851087,0.1877 -1.501918,0.5382 -0.650832,0.3504 -1.739723,0.7509 -2.841129,2.2654 -1.101407,1.5144 -1.026311,2.2904 -1.026311,2.2904 0,0 -0.901151,-1.6271 -1.689658,-1.2641 -0.788508,0.363 -1.664627,0.3379 -1.914946,0.9512 -0.25032,0.6133 -0.550704,1.1264 0.02503,1.8524 0.575735,0.7259 1.702174,-0.338 1.702174,-0.338 z"
       id="path4176"
       inkscape:connector-curvature="0"
       sodipodi:nodetypes="cscsscccccsccsccccccccccsccccscccsccscccscccssccc" />
    <path
       style="fill:#a6afc6;fill-rule:evenodd;stroke:none;stroke-width:1px;stroke-linecap:butt;stroke-linejoin:miter;stroke-opacity:1;fill-opacity:1"
       d="m 26.189702,999.15047 c 0,0 1.125386,-0.40049 2.909722,-0.68399 0.739492,-0.0406 0.817953,-0.0719 2.24085,-0.0774 1.398594,-0.0227 2.749354,-0.005 2.757447,0.009 0,0 -0.689421,1.10549 -1.043427,1.43296 -0.354005,0.32739 -0.955815,0.76549 -1.398322,1.05759 -0.442507,0.292 -1.376196,0.7434 -1.960305,0.854 -0.58411,0.1106 -0.415957,0.1018 -0.681461,0.4868 -0.265504,0.385 -0.738987,0.8407 -1.340796,0.3761 -0.60181,-0.4646 -0.526584,-1.2921 -0.349581,-1.5576 0.177003,-0.2655 0.159303,-0.2257 0.274355,-0.3496 0.115051,-0.1239 0.150452,-0.01 0.274354,-0.2744 0.123902,-0.2655 -0.504458,-0.63269 -0.504458,-0.63269 z"
       id="path4178"
       inkscape:connector-curvature="0"
       sodipodi:nodetypes="ccccccsssssccc" />
    <path
       style="fill:#a6afc6;fill-rule:evenodd;stroke:none;stroke-width:1px;stroke-linecap:butt;stroke-linejoin:miter;stroke-opacity:1;fill-opacity:1"
       d="m 39.157724,1005.9213 c 0,0 -0.463092,-0.1377 -0.932441,1.0827 -0.46935,1.2203 -1.896172,0.6696 -2.033848,-0.1565 -0.137676,-0.826 1.157729,-1.214 1.157729,-1.214 0,0 -0.206514,-0.3255 0.0751,-0.6947 0.281609,-0.3692 0.694637,-0.5319 0.901151,-0.6884 0.206513,-0.1564 0.444317,-0.1502 1.157728,-0.8072 0.713412,-0.6571 0.300384,-0.776 0.300384,-0.776 0,0 0.657089,0.1376 0.694637,-0.1878 0.03755,-0.3254 -0.951215,-0.4193 -0.951215,-0.4193 0,0 -0.112644,-0.8198 0.663348,-1.433 0.684485,-0.5964 0.728899,-0.67362 1.36036,-0.95158 0,0 2.718857,0.74878 4.772946,2.22348 2.385546,1.4414 3.615436,3.0995 4.147753,3.7186 0.488124,0.6634 1.254923,1.7894 1.611628,2.5529 0.356706,0.7635 0.86438,1.8042 0.951992,2.211 0.08761,0.4067 -0.387478,0.3 -0.387478,0.3 0,0 -0.510693,0.2713 -1.67468,-0.1105 -1.163987,-0.3817 -1.276631,-0.6633 -1.764754,-0.7635 -0.488124,-0.1001 -0.669605,-0.2565 -0.488124,0.169 0.181482,0.4255 0.569478,0.7885 0.569478,0.7885 0,0 0.356705,-0.2065 0.494381,-0.2065 0.137676,0 0.763475,-0.1064 1.082633,0.6446 0.319158,0.7509 -0.193998,1.2641 -0.356706,1.3642 -0.162707,0.1001 -0.387995,0.2941 -0.638315,0.3067 -0.25032,0.013 0.01252,0.2315 -1.026311,0.7134 -1.038827,0.4818 -1.852366,-1.0889 -2.159007,-1.6647 -0.306642,-0.5757 -0.613284,-1.4956 -0.901151,-1.9525 -0.287868,-0.4568 -0.319158,-0.6383 -0.46935,-0.7447 -0.150192,-0.1063 0.08135,-0.01 0.25032,-0.463 0.168966,-0.4569 0.12516,-0.4193 0.100128,-0.5508 -0.02503,-0.1314 -0.181482,-0.3879 -1.001279,-0.5444 -0.819797,-0.1564 -1.057601,-0.1252 -1.057601,-0.6321 0,-0.5068 0.287868,-0.4568 0.581993,-0.413 0.294126,0.044 1.038827,0.044 1.620821,-0.2691 0.581993,-0.3129 0.894893,-0.3004 0.894893,-0.3004 0,0 0.344189,0.031 -0.231546,-0.1689 -0.575736,-0.2003 -0.788507,-0.2378 -0.869861,-0.2253 -0.08135,0.013 -0.34419,-0.3317 -0.607026,-0.3567 -0.262835,-0.025 -0.463091,-0.05 -0.725927,0.3317 -0.262836,0.3817 -0.269094,0.657 -0.801023,0.9637 -0.531929,0.3066 -0.237804,-0.088 -0.269094,0.4506 -0.03129,0.5382 -0.306641,0.7259 -0.832313,0.1063 -0.525671,-0.6195 -0.775991,-1.1452 -0.775991,-1.1452 0,0 -1.176503,-0.7822 -0.488123,-0.1064 0.688379,0.6759 0.794765,1.0639 0.594509,1.3205 -0.200256,0.2566 -0.519414,0.219 -0.519414,0.219 0,0 0.306642,-0.094 0.03129,-0.4881 -0.275351,-0.3943 -1.001278,-1.1703 -2.052624,-1.0326 z"
       id="path4180"
       inkscape:connector-curvature="0"
       sodipodi:nodetypes="ccccscccscccccsccccscscsccccccccscccccsscccccsccc" />
  </g>
</svg>
