<?xml version="1.0" encoding="UTF-8" standalone="no"?>
<!-- Created with Inkscape (http://www.inkscape.org/) -->

<svg
   xmlns:dc="http://purl.org/dc/elements/1.1/"
   xmlns:cc="http://creativecommons.org/ns#"
   xmlns:rdf="http://www.w3.org/1999/02/22-rdf-syntax-ns#"
   xmlns:svg="http://www.w3.org/2000/svg"
   xmlns="http://www.w3.org/2000/svg"
   xmlns:sodipodi="http://sodipodi.sourceforge.net/DTD/sodipodi-0.dtd"
   xmlns:inkscape="http://www.inkscape.org/namespaces/inkscape"
   width="64"
   height="64"
   id="svg2"
   version="1.1"
   inkscape:version="0.91 r13725"
   sodipodi:docname="hb-icon.svg">
  <defs
     id="defs4" />
  <sodipodi:namedview
     id="base"
     pagecolor="#ffffff"
     bordercolor="#666666"
     borderopacity="1.0"
     inkscape:pageopacity="0.0"
     inkscape:pageshadow="2"
     inkscape:zoom="3.4447639"
     inkscape:cx="28.64525"
     inkscape:cy="0.34406933"
     inkscape:document-units="px"
     inkscape:current-layer="layer1"
     showgrid="true"
     inkscape:object-paths="true"
     inkscape:snap-object-midpoints="true"
     inkscape:snap-center="true"
     inkscape:snap-bbox="true"
     inkscape:bbox-paths="true"
     inkscape:bbox-nodes="true"
     inkscape:snap-bbox-edge-midpoints="true"
     inkscape:snap-bbox-midpoints="true"
     inkscape:snap-intersection-paths="true"
     inkscape:object-nodes="true"
     inkscape:snap-smooth-nodes="true"
     inkscape:snap-midpoints="true"
     inkscape:snap-page="true"
     inkscape:window-width="728"
     inkscape:window-height="659"
     inkscape:window-x="167"
     inkscape:window-y="27"
     inkscape:window-maximized="0"
     inkscape:snap-global="true">
    <inkscape:grid
       empspacing="2"
       visible="true"
       enabled="true"
       snapvisiblegridlinesonly="true"
       type="xygrid"
       id="grid2987" />
  </sodipodi:namedview>
  <metadata
     id="metadata7">
    <rdf:RDF>
      <cc:Work
         rdf:about="">
        <dc:format>image/svg+xml</dc:format>
        <dc:type
           rdf:resource="http://purl.org/dc/dcmitype/StillImage" />
        <dc:title />
      </cc:Work>
    </rdf:RDF>
  </metadata>
  <g
     inkscape:label="Layer 1"
     inkscape:groupmode="layer"
     id="layer1"
     transform="translate(0,-988.36218)">
    <rect
       style="fill:#d5b25b;fill-opacity:1;stroke:none"
       id="rect4990"
       width="64"
       height="64"
       x="0"
       y="0"
       ry="4"
       transform="translate(0,988.36218)" />
    <rect
       style="fill:#ebf1d0;fill-opacity:1;stroke:none;stroke-opacity:1"
       id="rect3344"
       width="44"
       height="44"
       x="10"
       y="998.36218"
       ry="22" />
    <rect
       style="fill:#d5b25b;fill-opacity:1;stroke:none;stroke-opacity:1"
       id="rect3348"
       width="8"
       height="7.9999976"
       x="28"
       y="1016.3622"
       ry="3.9999988" />
    <path
       style="fill:#d5b25b;fill-opacity:1;fill-rule:evenodd;stroke:none;stroke-width:1px;stroke-linecap:butt;stroke-linejoin:miter;stroke-opacity:1"
       d="m 13,1015.3622 c 0,0 0,-1 1,-1 1,0 2,0 2,0 0,0 1,0 1,1 0,1 0,2 0,2 0,0 0,1 -1,1 -1,0 -2,0 -2,0 0,0 -1,0 -1,-1 0,-1 0,-2 0,-2 z"
       id="path4138"
       inkscape:connector-curvature="0" />
    <path
       style="fill:#d5b25b;fill-opacity:1;fill-rule:evenodd;stroke:none;stroke-width:1px;stroke-linecap:butt;stroke-linejoin:miter;stroke-opacity:1"
       d="m 19,1017.3622 c 0,0 0,-1 1,-1 1,0 2,0 2,0 0,0 1,0 1,1 0,1 0,2 0,2 0,0 0,1 -1,1 -1,0 -2,0 -2,0 0,0 -1,0 -1,-1 0,-1 0,-2 0,-2 z"
       id="path4138-4"
       inkscape:connector-curvature="0" />
    <path
       style="fill:#d5b25b;fill-opacity:1;fill-rule:evenodd;stroke:none;stroke-width:1px;stroke-linecap:butt;stroke-linejoin:miter;stroke-opacity:1"
       d="m 15,1021.3622 c 0,0 0,-1 1,-1 1,0 2,0 2,0 0,0 1,0 1,1 0,1 0,2 0,2 0,0 0,1 -1,1 -1,0 -2,0 -2,0 0,0 -1,0 -1,-1 0,-1 0,-2 0,-2 z"
       id="path4138-1"
       inkscape:connector-curvature="0" />
    <path
       style="fill:#d5b25b;fill-opacity:1;fill-rule:evenodd;stroke:none;stroke-width:1px;stroke-linecap:butt;stroke-linejoin:miter;stroke-opacity:1"
       d="m 21,1023.3622 c 0,0 0,-1 1,-1 1,0 2,0 2,0 0,0 1,0 1,1 0,1 0,2 0,2 0,0 0,1 -1,1 -1,0 -2,0 -2,0 0,0 -1,0 -1,-1 0,-1 0,-2 0,-2 z"
       id="path4138-8"
       inkscape:connector-curvature="0" />
    <path
       style="fill:#d5b25b;fill-opacity:1;fill-rule:evenodd;stroke:none;stroke-width:1px;stroke-linecap:butt;stroke-linejoin:miter;stroke-opacity:1"
       d="m 39,1015.3622 c 0,0 0,-1 1,-1 1,0 2,0 2,0 0,0 1,0 1,1 0,1 0,2 0,2 0,0 0,1 -1,1 -1,0 -2,0 -2,0 0,0 -1,0 -1,-1 0,-1 0,-2 0,-2 z"
       id="path4138-3"
       inkscape:connector-curvature="0" />
    <path
       style="fill:#d5b25b;fill-opacity:1;fill-rule:evenodd;stroke:none;stroke-width:1px;stroke-linecap:butt;stroke-linejoin:miter;stroke-opacity:1"
       d="m 45,1017.3622 c 0,0 0,-1 1,-1 1,0 2,0 2,0 0,0 1,0 1,1 0,1 0,2 0,2 0,0 0,1 -1,1 -1,0 -2,0 -2,0 0,0 -1,0 -1,-1 0,-1 0,-2 0,-2 z"
       id="path4138-4-0"
       inkscape:connector-curvature="0" />
    <path
       style="fill:#d5b25b;fill-opacity:1;fill-rule:evenodd;stroke:none;stroke-width:1px;stroke-linecap:butt;stroke-linejoin:miter;stroke-opacity:1"
       d="m 41,1021.3622 c 0,0 0,-1 1,-1 1,0 2,0 2,0 0,0 1,0 1,1 0,1 0,2 0,2 0,0 0,1 -1,1 -1,0 -2,0 -2,0 0,0 -1,0 -1,-1 0,-1 0,-2 0,-2 z"
       id="path4138-1-4"
       inkscape:connector-curvature="0" />
    <path
       style="fill:#d5b25b;fill-opacity:1;fill-rule:evenodd;stroke:none;stroke-width:1px;stroke-linecap:butt;stroke-linejoin:miter;stroke-opacity:1"
       d="m 47,1023.3622 c 0,0 0,-1 1,-1 1,0 2,0 2,0 0,0 1,0 1,1 0,1 0,2 0,2 0,0 0,1 -1,1 -1,0 -2,0 -2,0 0,0 -1,0 -1,-1 0,-1 0,-2 0,-2 z"
       id="path4138-8-1"
       inkscape:connector-curvature="0" />
  </g>
</svg>
