<?xml version="1.0" encoding="UTF-8" standalone="no"?>
<!-- Created with Inkscape (http://www.inkscape.org/) -->

<svg
   xmlns:dc="http://purl.org/dc/elements/1.1/"
   xmlns:cc="http://creativecommons.org/ns#"
   xmlns:rdf="http://www.w3.org/1999/02/22-rdf-syntax-ns#"
   xmlns:svg="http://www.w3.org/2000/svg"
   xmlns="http://www.w3.org/2000/svg"
   xmlns:sodipodi="http://sodipodi.sourceforge.net/DTD/sodipodi-0.dtd"
   xmlns:inkscape="http://www.inkscape.org/namespaces/inkscape"
   width="64"
   height="64"
   id="svg2"
   version="1.1"
   inkscape:version="0.91 r13725"
   sodipodi:docname="i-nex.svg">
  <defs
     id="defs4" />
  <sodipodi:namedview
     id="base"
     pagecolor="#ffffff"
     bordercolor="#666666"
     borderopacity="1.0"
     inkscape:pageopacity="0.0"
     inkscape:pageshadow="2"
     inkscape:zoom="6.021227"
     inkscape:cx="30.499661"
     inkscape:cy="16.0789"
     inkscape:document-units="px"
     inkscape:current-layer="layer1"
     showgrid="true"
     inkscape:object-paths="true"
     inkscape:snap-object-midpoints="true"
     inkscape:snap-center="true"
     inkscape:snap-bbox="true"
     inkscape:bbox-paths="true"
     inkscape:bbox-nodes="true"
     inkscape:snap-bbox-edge-midpoints="true"
     inkscape:snap-bbox-midpoints="true"
     inkscape:snap-intersection-paths="true"
     inkscape:object-nodes="true"
     inkscape:snap-smooth-nodes="true"
     inkscape:snap-midpoints="true"
     inkscape:snap-page="true"
     inkscape:window-width="700"
     inkscape:window-height="655"
     inkscape:window-x="513"
     inkscape:window-y="55"
     inkscape:window-maximized="0">
    <inkscape:grid
       empspacing="2"
       visible="true"
       enabled="true"
       snapvisiblegridlinesonly="true"
       type="xygrid"
       id="grid2987" />
  </sodipodi:namedview>
  <metadata
     id="metadata7">
    <rdf:RDF>
      <cc:Work
         rdf:about="">
        <dc:format>image/svg+xml</dc:format>
        <dc:type
           rdf:resource="http://purl.org/dc/dcmitype/StillImage" />
        <dc:title />
      </cc:Work>
    </rdf:RDF>
  </metadata>
  <g
     inkscape:label="Layer 1"
     inkscape:groupmode="layer"
     id="layer1"
     transform="translate(0,-988.36218)">
    <rect
       style="fill:#839b95;fill-opacity:1;stroke:none"
       id="rect4990"
       width="64"
       height="64"
       x="0"
       y="0"
       transform="translate(0,988.36218)"
       ry="4" />
    <rect
       style="fill:#f6fcf4;fill-opacity:1;stroke:none;stroke-opacity:1"
       id="rect3344"
       width="32"
       height="31.999998"
       x="16"
       y="1004.3622"
       ry="3.9999974" />
    <rect
       style="fill:#839b95;fill-opacity:1;stroke:none;stroke-opacity:1"
       id="rect3346"
       width="24"
       height="24"
       x="20"
       y="1008.3622"
       ry="4" />
    <path
       style="fill:#f6fcf4;fill-rule:evenodd;stroke:none;stroke-width:1px;stroke-linecap:butt;stroke-linejoin:miter;stroke-opacity:1;fill-opacity:1"
       d="m 22,1000.3622 c 0,0 0,-2.00002 2,-2.00002 2,0 2,2.00002 2,2.00002 l 0,5 -4,0 z"
       id="path3348"
       inkscape:connector-curvature="0" />
    <path
       style="fill:#f6fcf4;fill-rule:evenodd;stroke:none;stroke-width:1px;stroke-linecap:butt;stroke-linejoin:miter;stroke-opacity:1;fill-opacity:1"
       d="m 30,1005.3622 0,-5 c 0,0 0,-2.00002 2,-2.00002 2,0 2,2.00002 2,2.00002 l 0,5 -4,0 z"
       id="path3350"
       inkscape:connector-curvature="0" />
    <path
       style="fill:#f6fcf4;fill-rule:evenodd;stroke:none;stroke-width:1px;stroke-linecap:butt;stroke-linejoin:miter;stroke-opacity:1;fill-opacity:1"
       d="m 38,1005.3622 0,-5 c 0,0 0,-2.00002 2,-2.00002 2,0 2,2.00002 2,2.00002 l 0,5 z"
       id="path3352"
       inkscape:connector-curvature="0" />
    <path
       style="fill:#f6fcf4;fill-rule:evenodd;stroke:none;stroke-width:1px;stroke-linecap:butt;stroke-linejoin:miter;stroke-opacity:1;fill-opacity:1"
       d="m 52,1010.3622 c 0,0 2,0 2,2 0,2 -2,2 -2,2 l -5,0 0,-4 z"
       id="path3348-2"
       inkscape:connector-curvature="0" />
    <path
       style="fill:#f6fcf4;fill-rule:evenodd;stroke:none;stroke-width:1px;stroke-linecap:butt;stroke-linejoin:miter;stroke-opacity:1;fill-opacity:1"
       d="m 47,1018.3622 5,0 c 0,0 2,0 2,2 0,2 -2,2 -2,2 l -5,0 0,-4 z"
       id="path3350-1"
       inkscape:connector-curvature="0" />
    <path
       style="fill:#f6fcf4;fill-rule:evenodd;stroke:none;stroke-width:1px;stroke-linecap:butt;stroke-linejoin:miter;stroke-opacity:1;fill-opacity:1"
       d="m 47,1026.3622 5,0 c 0,0 2,0 2,2 0,2 -2,2 -2,2 l -5,0 z"
       id="path3352-2"
       inkscape:connector-curvature="0" />
    <path
       style="fill:#f6fcf4;fill-rule:evenodd;stroke:none;stroke-width:1px;stroke-linecap:butt;stroke-linejoin:miter;stroke-opacity:1;fill-opacity:1"
       d="m 12,1026.3622 c 0,0 -2,0 -2,2 0,2 2,2 2,2 l 5,0 0,-4 z"
       id="path3348-9"
       inkscape:connector-curvature="0" />
    <path
       style="fill:#f6fcf4;fill-rule:evenodd;stroke:none;stroke-width:1px;stroke-linecap:butt;stroke-linejoin:miter;stroke-opacity:1;fill-opacity:1"
       d="m 17,1018.3622 -5,0 c 0,0 -2,0 -2,2 0,2 2,2 2,2 l 5,0 0,-4 z"
       id="path3350-3"
       inkscape:connector-curvature="0" />
    <path
       style="fill:#f6fcf4;fill-rule:evenodd;stroke:none;stroke-width:1px;stroke-linecap:butt;stroke-linejoin:miter;stroke-opacity:1;fill-opacity:1"
       d="m 17,1010.3622 -5,0 c 0,0 -2,0 -2,2 0,2 2,2 2,2 l 5,0 z"
       id="path3352-24"
       inkscape:connector-curvature="0" />
    <path
       style="fill:#f6fcf4;fill-rule:evenodd;stroke:none;stroke-width:1px;stroke-linecap:butt;stroke-linejoin:miter;stroke-opacity:1;fill-opacity:1"
       d="m 42,1040.3622 c 0,0 0,2 -2,2 -2,0 -2,-2 -2,-2 l 0,-5 4,0 z"
       id="path3348-6"
       inkscape:connector-curvature="0" />
    <path
       style="fill:#f6fcf4;fill-rule:evenodd;stroke:none;stroke-width:1px;stroke-linecap:butt;stroke-linejoin:miter;stroke-opacity:1;fill-opacity:1"
       d="m 34,1035.3622 0,5 c 0,0 0,2 -2,2 -2,0 -2,-2 -2,-2 l 0,-5 4,0 z"
       id="path3350-11"
       inkscape:connector-curvature="0" />
    <path
       style="fill:#f6fcf4;fill-rule:evenodd;stroke:none;stroke-width:1px;stroke-linecap:butt;stroke-linejoin:miter;stroke-opacity:1;fill-opacity:1"
       d="m 26,1035.3622 0,5 c 0,0 0,2 -2,2 -2,0 -2,-2 -2,-2 l 0,-5 z"
       id="path3352-5"
       inkscape:connector-curvature="0" />
    <rect
       style="fill:#f6fcf4;fill-opacity:1;stroke:none;stroke-opacity:1"
       id="rect3346-6"
       width="16"
       height="16"
       x="24"
       y="1012.3622"
       ry="2.666667" />
    <ellipse
       style="fill:#839b95;fill-opacity:1;stroke:none;stroke-opacity:1"
       id="path3356"
       cx="32.630009"
       cy="1014.949"
       rx="1.6300102"
       ry="1.5867915" />
    <path
       style="fill:#839b95;fill-opacity:1;fill-rule:evenodd;stroke:none;stroke-width:1px;stroke-linecap:butt;stroke-linejoin:miter;stroke-opacity:1"
       d="m 29.357282,1018.0234 c 0,0 -0.545454,0 -0.545454,0.5179 0,0.5179 0.545454,0.5179 0.545454,0.5179 l 1.09091,0 c 0,0 0.628314,0.01 0.545455,0.5179 l -1.09091,6.7328 c 0,0 0.01484,1.2061 1.09091,1.0358 l 3.272727,-0.5178 c 0,0 0.545454,0 0.545454,-0.518 0,-0.5178 -0.545454,-0.5178 -0.545454,-0.5178 l -1.09091,0 c 0,0 -0.628314,-0.01 -0.545455,-0.518 l 1.09091,-6.7328 c 0,0 -0.01484,-1.2061 -1.09091,-1.0358 z"
       id="path3341"
       inkscape:connector-curvature="0"
       sodipodi:nodetypes="csccscscsccscsc" />
  </g>
</svg>
