<?xml version="1.0" encoding="UTF-8" standalone="no"?>
<!-- Created with Inkscape (http://www.inkscape.org/) -->

<svg
   xmlns:dc="http://purl.org/dc/elements/1.1/"
   xmlns:cc="http://creativecommons.org/ns#"
   xmlns:rdf="http://www.w3.org/1999/02/22-rdf-syntax-ns#"
   xmlns:svg="http://www.w3.org/2000/svg"
   xmlns="http://www.w3.org/2000/svg"
   xmlns:sodipodi="http://sodipodi.sourceforge.net/DTD/sodipodi-0.dtd"
   xmlns:inkscape="http://www.inkscape.org/namespaces/inkscape"
   width="64"
   height="64"
   id="svg2"
   version="1.1"
   inkscape:version="0.91 r13725"
   sodipodi:docname="icedove.svg">
  <defs
     id="defs4" />
  <sodipodi:namedview
     id="base"
     pagecolor="#ffffff"
     bordercolor="#666666"
     borderopacity="1.0"
     inkscape:pageopacity="0.0"
     inkscape:pageshadow="2"
     inkscape:zoom="3.2822515"
     inkscape:cx="-5.1497492"
     inkscape:cy="-6.2799702"
     inkscape:document-units="px"
     inkscape:current-layer="layer1"
     showgrid="true"
     inkscape:object-paths="true"
     inkscape:snap-object-midpoints="true"
     inkscape:snap-center="true"
     inkscape:snap-bbox="true"
     inkscape:bbox-paths="true"
     inkscape:bbox-nodes="true"
     inkscape:snap-bbox-edge-midpoints="true"
     inkscape:snap-bbox-midpoints="true"
     inkscape:snap-intersection-paths="true"
     inkscape:object-nodes="true"
     inkscape:snap-smooth-nodes="true"
     inkscape:snap-midpoints="true"
     inkscape:snap-page="true"
     inkscape:window-width="696"
     inkscape:window-height="651"
     inkscape:window-x="169"
     inkscape:window-y="79"
     inkscape:window-maximized="0"
     inkscape:snap-global="true">
    <inkscape:grid
       empspacing="2"
       visible="true"
       enabled="true"
       snapvisiblegridlinesonly="true"
       type="xygrid"
       id="grid2987" />
  </sodipodi:namedview>
  <metadata
     id="metadata7">
    <rdf:RDF>
      <cc:Work
         rdf:about="">
        <dc:format>image/svg+xml</dc:format>
        <dc:type
           rdf:resource="http://purl.org/dc/dcmitype/StillImage" />
        <dc:title />
      </cc:Work>
    </rdf:RDF>
  </metadata>
  <g
     inkscape:label="Layer 1"
     inkscape:groupmode="layer"
     id="layer1"
     transform="translate(0,-988.36218)">
    <rect
       style="fill:#9ac1af;fill-opacity:1;stroke:none"
       id="rect4990"
       width="64"
       height="64"
       x="0"
       y="0"
       transform="translate(0,988.36218)"
       ry="4" />
    <path
       style="fill:#dcdb98;fill-opacity:1;fill-rule:evenodd;stroke:none;stroke-width:1px;stroke-linecap:butt;stroke-linejoin:miter;stroke-opacity:1"
       d="m 10,1004.1622 c 0,0 0,-1.8 2,-1.8 l 40,0 c 0,0 2,0 2,1.8 l 0,32.4 c 0,0 0,1.8 -2,1.8 l -40,0 c 0,0 -2,0 -2,-1.8 z"
       id="path3340"
       inkscape:connector-curvature="0"
       sodipodi:nodetypes="cscscscsc" />
    <path
       style="fill:#d6b282;fill-opacity:1;fill-rule:evenodd;stroke:none;stroke-width:1px;stroke-linecap:butt;stroke-linejoin:miter;stroke-opacity:1"
       d="m 31,1022.3622 c 0,0 0,0.5047 1,0.5047 1,0 1,-0.5047 1,-0.5047 l 21,-17 0,-1 c 0,0 0,-2 -2,-2 l -40,0 c 0,0 -2,0 -2,2 l 0,1 z"
       id="path4154"
       inkscape:connector-curvature="0"
       sodipodi:nodetypes="cscccscscc" />
    <path
       style="fill:#ffeef6;fill-opacity:1;fill-rule:evenodd;stroke:none;stroke-width:1px;stroke-linecap:butt;stroke-linejoin:miter;stroke-opacity:1"
       d="m 23.703759,1003.4085 c 0,0 1.21582,-3.3827 3.269355,-4.32823 2.043348,-0.94095 3.269355,-0.94117 5.312703,-0.0946 2.595372,1.07573 2.247681,3.48153 2.247681,3.48153 0,0 -1.430342,0.8468 -1.430342,1.5996 0,0.7526 0.817338,1.4113 0.817338,1.4113 0,0 -2.452017,1.7879 -2.758518,3.8579 -0.306502,2.0701 0.102166,9.3153 -2.145514,13.9257 -2.247682,4.6106 -9.195061,7.1512 -10.318902,7.7158 -1.12384,0.5646 -5.619203,7.9979 -5.619203,7.9979 0,0 -1.328175,0.4704 -4.3931945,-0.1881 -3.0650214,-0.6582 -3.5758575,-1.6932 -3.5758575,-1.6932 0,0 5.006199,-7.0571 7.969052,-9.5975 2.962852,-2.5405 0.174635,-5.6124 4.495363,-13.1732 4.086693,-7.151 4.699697,-6.3983 6.130039,-10.9148 z"
       id="path3344"
       inkscape:connector-curvature="0"
       sodipodi:nodetypes="csscscssscsccsc" />
    <path
       style="fill:#e28b5c;fill-opacity:1;fill-rule:evenodd;stroke:none;stroke-width:1px;stroke-linecap:butt;stroke-linejoin:miter;stroke-opacity:1"
       d="m 34.503249,1002.4123 3.132,1.5148 c 0,0 0.866918,0.5323 -0.07224,0.7984 -0.939161,0.2661 -3.719138,0.7295 -3.719138,0.7295 0,0 -0.893963,-0.8704 -0.740712,-1.4349 0.153251,-0.5645 0.348171,-1.0986 1.400092,-1.6078 z"
       id="path4146"
       inkscape:connector-curvature="0"
       sodipodi:nodetypes="ccsccc" />
    <ellipse
       style="fill:#c08080;fill-opacity:1;stroke:none;stroke-opacity:1"
       id="path4148"
       ry="0.96445823"
       rx="1.0599861"
       cy="1001.903"
       cx="29.029234" />
  </g>
</svg>
