<?xml version="1.0" encoding="UTF-8" standalone="no"?>
<!-- Created with Inkscape (http://www.inkscape.org/) -->

<svg
   xmlns:dc="http://purl.org/dc/elements/1.1/"
   xmlns:cc="http://creativecommons.org/ns#"
   xmlns:rdf="http://www.w3.org/1999/02/22-rdf-syntax-ns#"
   xmlns:svg="http://www.w3.org/2000/svg"
   xmlns="http://www.w3.org/2000/svg"
   xmlns:xlink="http://www.w3.org/1999/xlink"
   xmlns:sodipodi="http://sodipodi.sourceforge.net/DTD/sodipodi-0.dtd"
   xmlns:inkscape="http://www.inkscape.org/namespaces/inkscape"
   width="64"
   height="64"
   id="svg2"
   version="1.1"
   inkscape:version="0.91 r13725"
   sodipodi:docname="iceweasel-alt.svg">
  <defs
     id="defs4">
    <linearGradient
       inkscape:collect="always"
       id="linearGradient4166">
      <stop
         style="stop-color:#f3f1f7;stop-opacity:1;"
         offset="0"
         id="stop4168" />
      <stop
         style="stop-color:#f3f1f7;stop-opacity:0;"
         offset="1"
         id="stop4170" />
    </linearGradient>
    <linearGradient
       inkscape:collect="always"
       id="linearGradient4277">
      <stop
         style="stop-color:#f3f1f7;stop-opacity:1;"
         offset="0"
         id="stop4279" />
      <stop
         style="stop-color:#f3f1f7;stop-opacity:0;"
         offset="1"
         id="stop4281" />
    </linearGradient>
    <linearGradient
       inkscape:collect="always"
       id="linearGradient4219">
      <stop
         style="stop-color:#f3f1f7;stop-opacity:1;"
         offset="0"
         id="stop4221" />
      <stop
         style="stop-color:#f3f1f7;stop-opacity:0;"
         offset="1"
         id="stop4223" />
    </linearGradient>
    <linearGradient
       inkscape:collect="always"
       xlink:href="#linearGradient4219"
       id="linearGradient4225"
       x1="16.433825"
       y1="1030.9763"
       x2="50.754406"
       y2="1031.3584"
       gradientUnits="userSpaceOnUse"
       gradientTransform="matrix(-0.52530687,1.2203273,-1.0800643,-0.4649287,1154.6775,1457.1573)" />
    <linearGradient
       inkscape:collect="always"
       xlink:href="#linearGradient4219"
       id="linearGradient4225-5"
       x1="13.562452"
       y1="1033.2996"
       x2="50.754406"
       y2="1031.3584"
       gradientUnits="userSpaceOnUse"
       gradientTransform="matrix(-1.230821,0.50022576,0.4427304,1.0893518,-381.32556,-110.95475)" />
    <linearGradient
       inkscape:collect="always"
       xlink:href="#linearGradient4277"
       id="linearGradient4283"
       x1="20.957211"
       y1="1041.9187"
       x2="51.589794"
       y2="1040.5807"
       gradientUnits="userSpaceOnUse"
       gradientTransform="matrix(-0.61868777,0.78563697,-0.37799369,-0.29766939,447.70174,1303.4868)" />
    <linearGradient
       inkscape:collect="always"
       xlink:href="#linearGradient4277"
       id="linearGradient4283-2"
       x1="14.048373"
       y1="1040.8951"
       x2="58.385334"
       y2="1043.4929"
       gradientUnits="userSpaceOnUse"
       gradientTransform="matrix(-0.80556478,-0.59250772,0.28507337,-0.38758157,-235.40687,1446.594)" />
    <linearGradient
       inkscape:collect="always"
       xlink:href="#linearGradient4166"
       id="linearGradient4172"
       x1="25.177853"
       y1="1032.3192"
       x2="31.141027"
       y2="1026.6874"
       gradientUnits="userSpaceOnUse" />
  </defs>
  <sodipodi:namedview
     id="base"
     pagecolor="#ffffff"
     bordercolor="#666666"
     borderopacity="1.0"
     inkscape:pageopacity="0.0"
     inkscape:pageshadow="2"
     inkscape:zoom="5.5519811"
     inkscape:cx="6.8665465"
     inkscape:cy="19.984905"
     inkscape:document-units="px"
     inkscape:current-layer="layer1"
     showgrid="true"
     inkscape:object-paths="true"
     inkscape:snap-object-midpoints="true"
     inkscape:snap-center="true"
     inkscape:snap-bbox="true"
     inkscape:bbox-paths="true"
     inkscape:bbox-nodes="true"
     inkscape:snap-bbox-edge-midpoints="true"
     inkscape:snap-bbox-midpoints="true"
     inkscape:snap-intersection-paths="true"
     inkscape:object-nodes="true"
     inkscape:snap-smooth-nodes="true"
     inkscape:snap-midpoints="true"
     inkscape:snap-page="true"
     inkscape:window-width="696"
     inkscape:window-height="651"
     inkscape:window-x="240"
     inkscape:window-y="55"
     inkscape:window-maximized="0"
     inkscape:snap-global="false">
    <inkscape:grid
       empspacing="2"
       visible="true"
       enabled="true"
       snapvisiblegridlinesonly="true"
       type="xygrid"
       id="grid2987" />
  </sodipodi:namedview>
  <metadata
     id="metadata7">
    <rdf:RDF>
      <cc:Work
         rdf:about="">
        <dc:format>image/svg+xml</dc:format>
        <dc:type
           rdf:resource="http://purl.org/dc/dcmitype/StillImage" />
        <dc:title></dc:title>
      </cc:Work>
    </rdf:RDF>
  </metadata>
  <g
     inkscape:label="Layer 1"
     inkscape:groupmode="layer"
     id="layer1"
     transform="translate(0,-988.36218)">
    <rect
       style="fill:#77cfd9;fill-opacity:1;stroke:none"
       id="rect4990"
       width="64"
       height="64"
       x="0"
       y="0"
       transform="translate(0,988.36218)"
       ry="4" />
    <path
       style="fill:url(#linearGradient4283-2);fill-opacity:1;fill-rule:evenodd;stroke:none;stroke-width:1px;stroke-linecap:butt;stroke-linejoin:miter;stroke-opacity:1"
       d="m 46.316418,1031.1321 c 0,0 -9.193161,-5.2235 -18.529838,-12.0906 -9.336711,-6.8674 -10.358041,-9.157 -10.358041,-9.157 0,0 6.160679,2.993 14.642819,9.3502 8.48241,6.3569 14.24506,11.8974 14.24506,11.8974 z"
       id="path4275-8"
       inkscape:connector-curvature="0" />
    <path
       style="fill:url(#linearGradient4225-5);fill-opacity:1;fill-rule:evenodd;stroke:none;stroke-width:1px;stroke-linecap:butt;stroke-linejoin:miter;stroke-opacity:1"
       d="m 43.915586,1011.6594 c -0.487721,0.1982 6.536598,14.5051 -7.311585,20.615 -9.668825,4.266 -19.68874,-4.5804 -19.68874,-4.5804 0,0 9.301633,10.8842 20.364983,6.3492 14.123034,-5.4022 7.449959,-21.5566 6.635342,-22.3838 z"
       id="path4209-0"
       inkscape:connector-curvature="0"
       sodipodi:nodetypes="csccc" />
    <path
       style="fill:#f3f1f7;fill-rule:evenodd;stroke:none;stroke-width:1px;stroke-linecap:butt;stroke-linejoin:miter;stroke-opacity:1;fill-opacity:1"
       d="m 35.243443,1010.1318 c 0,0 0.320446,2.246 -3.859008,2.5382 -3.154608,0.2204 -6.706358,-10.3935 -6.706358,-10.3935 0,0 -0.644389,-1.8934 -0.01991,-3.16221 0.624476,-1.26888 5.035648,-3.82652 9.466729,-3.22196 l 4.431084,0.60456 c 0,0 0.239594,3.77971 0.686782,4.44141 0.447219,0.6618 -2.175496,-0.7395 -4.102695,-0.7494 -1.927222,-0.01 -2.570571,-0.1611 -4.119718,0.07 -1.549125,0.2313 -1.899073,0.9423 -1.76366,1.3402 0.135415,0.3978 1.364138,2.0514 2.614049,3.5498 1.249885,1.4984 3.270951,3.4527 3.372706,4.9827 z"
       id="path4148"
       inkscape:connector-curvature="0"
       sodipodi:nodetypes="cscssccssssc" />
    <path
       style="fill:url(#linearGradient4225);fill-opacity:1;fill-rule:evenodd;stroke:none;stroke-width:1px;stroke-linecap:butt;stroke-linejoin:miter;stroke-opacity:1"
       d="m 41.041722,1008.5129 c -0.208157,0.4836 -14.448068,-6.7351 -20.89396,7.8421 -3.650324,8.2551 6.086643,18.7865 6.086643,18.7865 0,0 -11.971119,-9.7179 -7.749279,-19.9321 7.137621,-15.92132 19.268962,-5.2459 22.556596,-6.6965 z"
       id="path4209"
       inkscape:connector-curvature="0"
       sodipodi:nodetypes="csccc" />
    <path
       style="fill:#f3f1f7;fill-rule:evenodd;stroke:none;stroke-width:1px;stroke-linecap:butt;stroke-linejoin:miter;stroke-opacity:1;fill-opacity:1"
       d="m 39.787176,1014.8527 c 0,0 -2.176749,0.6391 -0.711117,4.5637 1.106442,2.9625 12.238047,1.7973 12.238047,1.7973 0,0 1.990183,-0.198 2.88629,-1.292 0.896108,-1.0941 1.396196,-6.1685 -0.989978,-9.9509 l -2.386176,-3.7824 c 0,0 -3.539236,1.348 -4.326687,1.2154 -0.78762,-0.1328 1.574307,1.6736 2.381907,3.4234 0.807689,1.7499 1.211668,2.2729 1.643046,3.7786 0.431383,1.5057 -0.07081,2.1188 -0.489023,2.1605 -0.417994,0.042 -2.432313,-0.3916 -4.313916,-0.9084 -1.881602,-0.5167 -4.497599,-1.5464 -5.932342,-1.005 z"
       id="path4148-9"
       inkscape:connector-curvature="0"
       sodipodi:nodetypes="cscssccssssc" />
    <path
       style="fill:url(#linearGradient4283);fill-opacity:1;fill-rule:evenodd;stroke:none;stroke-width:1px;stroke-linecap:butt;stroke-linejoin:miter;stroke-opacity:1"
       d="m 41.73256,1008.2485 c 0,0 -5.522993,9.0163 -12.693738,18.122 -7.170729,9.1057 -9.492637,10.0512 -9.492637,10.0512 0,0 3.194046,-6.0589 9.826853,-14.3272 6.632477,-8.2688 12.359522,-13.846 12.359522,-13.846 z"
       id="path4275"
       inkscape:connector-curvature="0" />
    <path
       style="fill:#e7f4e8;fill-rule:evenodd;stroke:none;stroke-width:1px;stroke-linecap:butt;stroke-linejoin:miter;stroke-opacity:1;fill-opacity:1"
       d="m 36.131527,1000.1137 c 0,0 -2.378359,-4.81404 0.419544,-7.24615 2.341071,-2.03502 5.245614,-0.67542 5.83101,0.82719 0.585395,1.50259 0.528851,3.07571 0.528851,3.07571 0,0 2.762546,-1.01416 4.497792,0.17103 1.735244,1.18516 2.672017,2.19836 3.23482,3.63452 0.562831,1.4363 0.338532,0.9947 0.338532,0.9947 0,0 1.691793,-2.20358 3.887056,-1.84084 2.195265,0.36274 3.425412,2.23794 3.236206,3.85604 -0.189172,1.6182 -0.364144,1.9737 -1.751089,3.3338 -1.38697,1.3599 -4.379448,1.0463 -4.379448,1.0463 0,0 -2.590596,3.6934 -7.081411,4.6299 -4.490807,0.9365 -6.114639,-0.1387 -6.114639,-0.1387 0,0 -1.382909,-0.8708 -2.793193,-3.8588 -1.59499,-3.3793 -0.03583,-8.5242 0.145922,-8.4849 z"
       id="path4150"
       inkscape:connector-curvature="0"
       sodipodi:nodetypes="csscsscscscccsc" />
    <circle
       style="fill:#3c4e44;fill-opacity:1;stroke:none;stroke-opacity:1"
       id="path4167"
       cx="40.714401"
       cy="1002.0388"
       r="0.94108725" />
    <circle
       style="fill:#3c4e44;fill-opacity:1;stroke:none;stroke-opacity:1"
       id="path4167-2"
       cx="47.103886"
       cy="1005.7042"
       r="0.94108725" />
    <circle
       style="fill:#3c4e44;fill-opacity:1;stroke:none;stroke-opacity:1"
       id="path4167-0"
       cx="39.590427"
       cy="1010.7582"
       r="0.94108725" />
    <path
       style="fill:url(#linearGradient4172);fill-opacity:1;fill-rule:evenodd;stroke:none;stroke-width:1px;stroke-linecap:butt;stroke-linejoin:miter;stroke-opacity:1"
       d="m 13.914077,1032.9818 c 0,0 6.62575,0.1657 9.27605,-2.8159 2.6503,-2.9816 5.300601,-3.1472 6.460107,-1.3251 1.159506,1.822 -0.662575,4.9693 -0.662575,4.9693 0,0 -6.643456,6.5158 -8.77912,6.7914 -5.134957,0.6626 -7.9509,-5.135 -6.294462,-7.6197 z"
       id="path3356"
       inkscape:connector-curvature="0"
       sodipodi:nodetypes="csccsc" />
  </g>
</svg>
