<?xml version="1.0" encoding="UTF-8" standalone="no"?>
<!-- Created with Inkscape (http://www.inkscape.org/) -->

<svg
   xmlns:dc="http://purl.org/dc/elements/1.1/"
   xmlns:cc="http://creativecommons.org/ns#"
   xmlns:rdf="http://www.w3.org/1999/02/22-rdf-syntax-ns#"
   xmlns:svg="http://www.w3.org/2000/svg"
   xmlns="http://www.w3.org/2000/svg"
   xmlns:sodipodi="http://sodipodi.sourceforge.net/DTD/sodipodi-0.dtd"
   xmlns:inkscape="http://www.inkscape.org/namespaces/inkscape"
   width="64"
   height="64"
   id="svg2"
   version="1.1"
   inkscape:version="0.91 r13725"
   sodipodi:docname="inkscape-alt.svg">
  <defs
     id="defs4">
    <inkscape:perspective
       sodipodi:type="inkscape:persp3d"
       inkscape:vp_x="3.2413786 : 34.287357 : 1"
       inkscape:vp_y="0 : 1000 : 0"
       inkscape:vp_z="66 : 34 : 1"
       inkscape:persp3d-origin="35.241379 : 23.62069 : 1"
       id="perspective4160" />
  </defs>
  <sodipodi:namedview
     id="base"
     pagecolor="#ffffff"
     bordercolor="#666666"
     borderopacity="1.0"
     inkscape:pageopacity="0.0"
     inkscape:pageshadow="2"
     inkscape:zoom="4.8403338"
     inkscape:cx="31.618985"
     inkscape:cy="47.485586"
     inkscape:document-units="px"
     inkscape:current-layer="layer1"
     showgrid="true"
     inkscape:object-paths="true"
     inkscape:snap-object-midpoints="true"
     inkscape:snap-center="true"
     inkscape:snap-bbox="true"
     inkscape:bbox-paths="true"
     inkscape:bbox-nodes="true"
     inkscape:snap-bbox-edge-midpoints="true"
     inkscape:snap-bbox-midpoints="true"
     inkscape:snap-intersection-paths="true"
     inkscape:object-nodes="true"
     inkscape:snap-smooth-nodes="true"
     inkscape:snap-midpoints="true"
     inkscape:snap-page="true"
     inkscape:window-width="696"
     inkscape:window-height="651"
     inkscape:window-x="874"
     inkscape:window-y="57"
     inkscape:window-maximized="0"
     inkscape:snap-global="false">
    <inkscape:grid
       empspacing="2"
       visible="true"
       enabled="true"
       snapvisiblegridlinesonly="true"
       type="xygrid"
       id="grid2987" />
  </sodipodi:namedview>
  <metadata
     id="metadata7">
    <rdf:RDF>
      <cc:Work
         rdf:about="">
        <dc:format>image/svg+xml</dc:format>
        <dc:type
           rdf:resource="http://purl.org/dc/dcmitype/StillImage" />
        <dc:title></dc:title>
      </cc:Work>
    </rdf:RDF>
  </metadata>
  <g
     inkscape:label="Layer 1"
     inkscape:groupmode="layer"
     id="layer1"
     transform="translate(0,-988.36218)">
    <rect
       style="fill:#515658;fill-opacity:1;stroke:none"
       id="rect4990"
       width="64"
       height="64"
       x="0"
       y="0"
       transform="translate(0,988.36218)"
       ry="4" />
    <path
       style="fill:#e7d8a0;fill-opacity:1;fill-rule:evenodd;stroke:none;stroke-width:1px;stroke-linecap:butt;stroke-linejoin:miter;stroke-opacity:1"
       d="m 12.462948,1020.9285 c -2.6333582,-0.7681 -3.3236213,-3.4116 -0.990616,-5.8447 1.287803,-1.2878 18.425496,-15.55272 18.425496,-15.55272 0,0 2.377482,-2.77373 5.844645,0.0991 4.59267,3.80532 16.345198,15.25552 16.345198,15.25552 4.554114,5.3373 1.273528,5.6035 -10.698675,10.6987 0,0 -2.080298,0.9906 0.495309,2.7737 4.238277,2.9691 6.307028,3.6503 3.070916,5.4484 -3.566225,1.8822 -5.844646,2.9719 -5.844646,2.9719 0,0 -3.073722,1.9406 -1.684051,2.7737 2.162967,1.2967 1.783113,1.6375 1.783113,1.6375 0,0 0.0123,1.1901 -2.157102,1.1376 -1.153386,-10e-4 -3.502376,-0.2047 -6.181086,-1.2287 -3.880831,-1.7256 -6.512347,-2.5236 -3.945476,-3.9239 5.126562,-2.8474 3.0819,-2.4505 0.450756,-3.5361 l -11.464289,-4.0661 c 0,0 -1.859905,-1.2452 0.01767,-2.4526 3.169978,-1.7335 3.665287,-1.9812 3.665287,-1.9812 0,0 3.146737,-1.6282 -0.396248,-2.4765 -3.516694,-0.8421 -6.736202,-1.7336 -6.736201,-1.7336 z"
       id="path4192"
       inkscape:connector-curvature="0"
       sodipodi:nodetypes="cccscccccsccccccccsc" />
  </g>
</svg>
