<?xml version="1.0" encoding="UTF-8" standalone="no"?>
<!-- Created with Inkscape (http://www.inkscape.org/) -->

<svg
   xmlns:dc="http://purl.org/dc/elements/1.1/"
   xmlns:cc="http://creativecommons.org/ns#"
   xmlns:rdf="http://www.w3.org/1999/02/22-rdf-syntax-ns#"
   xmlns:svg="http://www.w3.org/2000/svg"
   xmlns="http://www.w3.org/2000/svg"
   xmlns:sodipodi="http://sodipodi.sourceforge.net/DTD/sodipodi-0.dtd"
   xmlns:inkscape="http://www.inkscape.org/namespaces/inkscape"
   width="64"
   height="64"
   id="svg2"
   version="1.1"
   inkscape:version="0.91 r13725"
   sodipodi:docname="java.svg">
  <defs
     id="defs4">
    <clipPath
       id="clipPath-055917835">
      <g
         transform="translate(0,-1004.3622)"
         id="g17">
        <path
           style="fill:#1890d0"
           inkscape:connector-curvature="0"
           d="m -24,13 c 0,1.105 -0.672,2 -1.5,2 -0.828,0 -1.5,-0.895 -1.5,-2 0,-1.105 0.672,-2 1.5,-2 0.828,0 1.5,0.895 1.5,2 z"
           transform="matrix(15.333333,0,0,11.5,414.99999,878.8622)"
           id="path19" />
      </g>
    </clipPath>
  </defs>
  <sodipodi:namedview
     id="base"
     pagecolor="#ffffff"
     bordercolor="#666666"
     borderopacity="1.0"
     inkscape:pageopacity="0.0"
     inkscape:pageshadow="2"
     inkscape:zoom="4"
     inkscape:cx="19.911962"
     inkscape:cy="33.139308"
     inkscape:document-units="px"
     inkscape:current-layer="layer1"
     showgrid="true"
     inkscape:object-paths="true"
     inkscape:snap-object-midpoints="true"
     inkscape:snap-center="true"
     inkscape:snap-bbox="true"
     inkscape:bbox-paths="true"
     inkscape:bbox-nodes="true"
     inkscape:snap-bbox-edge-midpoints="true"
     inkscape:snap-bbox-midpoints="true"
     inkscape:snap-intersection-paths="true"
     inkscape:object-nodes="true"
     inkscape:snap-smooth-nodes="true"
     inkscape:snap-midpoints="true"
     inkscape:snap-page="true"
     inkscape:window-width="696"
     inkscape:window-height="651"
     inkscape:window-x="597"
     inkscape:window-y="27"
     inkscape:window-maximized="0"
     inkscape:snap-global="false">
    <inkscape:grid
       empspacing="2"
       visible="true"
       enabled="true"
       snapvisiblegridlinesonly="true"
       type="xygrid"
       id="grid2987" />
  </sodipodi:namedview>
  <metadata
     id="metadata7">
    <rdf:RDF>
      <cc:Work
         rdf:about="">
        <dc:format>image/svg+xml</dc:format>
        <dc:type
           rdf:resource="http://purl.org/dc/dcmitype/StillImage" />
        <dc:title></dc:title>
      </cc:Work>
    </rdf:RDF>
  </metadata>
  <g
     inkscape:label="Layer 1"
     inkscape:groupmode="layer"
     id="layer1"
     transform="translate(0,-988.36218)">
    <rect
       style="fill:#e4eee2;fill-opacity:1;stroke:none"
       id="rect4990"
       width="64"
       height="64"
       x="0"
       y="0"
       transform="translate(0,988.36218)"
       ry="4" />
    <path
       style="fill:#ff851e;fill-rule:evenodd;stroke:none;stroke-width:1px;stroke-linecap:butt;stroke-linejoin:miter;stroke-opacity:1;fill-opacity:1"
       d="m 36.875,998.35827 c 0,0 0.269531,0.89844 0.28125,1.62891 0.01172,0.73042 0.01953,0.90622 -0.113281,1.60152 -0.132813,0.6954 -0.464844,1.4219 -0.695313,1.7891 -0.230469,0.3672 -0.378906,0.7813 -1.597656,1.9531 -1.21875,1.1719 -1.53125,1.4219 -3.359375,2.7188 -1.828125,1.2969 -2.953125,2.0469 -4.1875,3.25 -1.234375,1.2031 -1.546875,2.0312 -1.640625,2.9844 -0.09375,0.9531 0.515625,2.1718 1.28125,3.2343 0.765625,1.0625 2.453125,2.5938 3.203125,3.2813 0.75,0.6875 1.859375,1.5937 1.859375,1.5937 0,0 0.390625,0.375 -0.0625,-0.3125 -0.453125,-0.6875 -0.46875,-0.7187 -0.78125,-1.1875 -0.3125,-0.4687 -1.75,-2.0937 -2.15625,-2.9218 -0.40625,-0.8282 -0.859375,-1.4844 -0.796875,-2.9375 0.0625,-1.4532 1.625,-3.2032 2.078125,-3.5625 0.453125,-0.3594 2.140625,-1.8125 3.078125,-2.4219 0.9375,-0.6094 2.109375,-1.8125 2.640625,-2.4531 0.53125,-0.6407 0.84375,-0.9063 1.578125,-2.2813 0.734375,-1.375 0.6875,-2.6719 0.6875,-2.8594 0,-0.1875 -0.01563,-0.9062 -0.359375,-1.68747 -0.34375,-0.78125 -0.96875,-1.52344 -0.9375,-1.41016 z"
       id="path3372"
       inkscape:connector-curvature="0" />
    <path
       style="fill:#ff851e;fill-rule:evenodd;stroke:none;stroke-width:1px;stroke-linecap:butt;stroke-linejoin:miter;stroke-opacity:1;fill-opacity:1"
       d="m 42.868349,1007.3504 c 0,0 0.149155,-0.01 0.01657,0.066 -0.132582,0.072 -0.595858,0.2892 -1.154452,0.6017 -0.558594,0.3125 -0.878906,0.4883 -1.234375,0.6875 -0.355469,0.1992 -0.730469,0.4219 -1.074219,0.6407 -0.34375,0.2187 -0.949219,0.6054 -1.421875,0.9296 -0.472656,0.3243 -1.191406,0.8555 -1.601562,1.2539 -0.410157,0.3985 -0.644532,0.6211 -1.070313,1.1915 -0.425781,0.5703 -0.496094,1.2968 -0.480469,1.5039 0.01563,0.207 0.03125,0.3554 0.125,0.7148 0.09375,0.3594 0.519532,1.0234 0.695313,1.2813 0.175781,0.2578 0.789062,1.0273 0.847656,1.1054 0.05859,0.078 0.480469,0.5781 0.613281,0.7969 0.132813,0.2187 0.34375,0.4922 0.449219,1.1719 0.105469,0.6797 -0.125,1.2968 -0.277344,1.5859 -0.152343,0.2891 -0.367187,0.6875 -0.960937,1.2774 -0.59375,0.5898 -0.957031,0.8437 -1.453125,1.1718 -0.496092,0.3282 -0.902342,0.5313 -0.902342,0.5313 0,0 -0.496094,0.2851 0.0039,-0.1133 0.5,-0.3984 0.785157,-0.9883 0.785157,-0.9883 0,0 0.246093,-0.3594 0.355468,-0.9726 0.109375,-0.6133 -0.01563,-1.2383 -0.402343,-1.8047 -0.386719,-0.5664 -0.941407,-1.0821 -1.195313,-1.4102 -0.253906,-0.3281 -0.746094,-1.0156 -0.957031,-1.5039 -0.210938,-0.4883 -0.316406,-0.8086 -0.402344,-1.2461 -0.08594,-0.4375 -0.07813,-0.8867 -0.03516,-1.2695 0.04297,-0.3828 0.222656,-0.9063 0.433594,-1.3203 0.210937,-0.4141 0.476562,-0.7774 0.972656,-1.3321 0.496094,-0.5546 1.304687,-1.1171 1.304687,-1.1171 0,0 0.496094,-0.3829 1.210938,-0.7891 0.714844,-0.4063 1.722656,-0.9102 2.261719,-1.1133 0.539062,-0.2031 0.957031,-0.4141 1.695312,-0.6641 0.738281,-0.25 1.121094,-0.371 1.542969,-0.5039 0.421875,-0.1328 1.309755,-0.3633 1.309755,-0.3633 z"
       id="path3374"
       inkscape:connector-curvature="0" />
    <path
       style="fill:#2f3cb1;fill-rule:evenodd;stroke:none;stroke-width:1px;stroke-linecap:butt;stroke-linejoin:miter;stroke-opacity:1;fill-opacity:1"
       d="m 43.441406,1022.9637 c 0,0 -0.199218,0.1055 -0.02344,-0.086 0.175781,-0.1914 0.453125,-0.3398 0.453125,-0.3398 0,0 0.109375,-0.062 0.675781,-0.211 0.566406,-0.1484 0.929688,-0.1484 1.535156,-0.1758 0.605469,-0.027 1.578125,0.2813 1.578125,0.2813 0,0 0.417969,0.1367 0.902344,0.4453 0.484375,0.3086 0.785156,0.6875 0.917969,0.8672 0.132812,0.1797 0.355469,0.5898 0.441406,0.9922 0.08594,0.4023 0.05469,0.8203 -0.0078,1.1015 -0.0625,0.2813 -0.207032,0.7227 -0.429688,1.0391 -0.222656,0.3164 -0.296875,0.5078 -0.785156,0.9492 -0.488281,0.4414 -0.53125,0.5039 -1.050781,0.8399 -0.519532,0.3359 -1.007813,0.6093 -1.417969,0.8047 -0.410156,0.1953 -0.9375,0.3984 -1.339844,0.5546 -0.402344,0.1563 -1.015625,0.3477 -1.558594,0.4961 -0.542968,0.1485 -0.941406,0.2618 -0.957031,0.2578 -0.01563,-0 -0.367187,0.01 0.09766,-0.2148 0.464844,-0.2227 0.625,-0.293 1.285157,-0.6523 0.660156,-0.3594 1.605468,-0.9454 1.867187,-1.1836 0.261719,-0.2383 0.652344,-0.4649 1.160156,-1.0196 0.507813,-0.5547 0.820313,-1.0625 0.929688,-1.3476 0.109375,-0.2852 0.296875,-0.6875 0.234375,-1.3477 -0.0625,-0.6601 -0.453125,-1.1172 -0.628906,-1.3086 -0.175782,-0.1914 -0.566407,-0.5586 -1.121094,-0.7578 -0.554688,-0.1992 -1,-0.2695 -1.53125,-0.25 -0.53125,0.019 -1.226563,0.2656 -1.226563,0.2656 z"
       id="path3376"
       inkscape:connector-curvature="0" />
    <path
       style="fill:#2f3cb1;fill-rule:evenodd;stroke:none;stroke-width:1px;stroke-linecap:butt;stroke-linejoin:miter;stroke-opacity:1;fill-opacity:1"
       d="m 26.157427,1022.6471 c 0,0 0.436417,-0.072 -0.02762,-0.077 -0.464039,-0.01 -1.143524,0.055 -1.563369,0.094 -0.419844,0.039 -1.265058,0.1657 -2.027407,0.337 -0.76235,0.1712 -1.386593,0.3425 -2.303622,0.6463 -0.917029,0.3038 -1.618611,0.6519 -1.618611,0.6519 0,0 -0.497185,0.1712 -0.690534,0.5524 -0.19335,0.3812 0.574524,0.6519 0.795495,0.7292 0.220971,0.077 0.513757,0.1878 1.55232,0.3757 1.038563,0.1878 2.679272,0.3204 2.679272,0.3204 0,0 1.182194,0.083 1.563369,0.099 0.381175,0.017 1.856155,0.083 2.751087,0.072 0.894932,-0.011 1.613088,0.011 2.530117,-0.028 0.917029,-0.039 1.867204,-0.077 2.480398,-0.105 0.613194,-0.028 1.856155,-0.1215 2.833951,-0.2375 0.977796,-0.116 2.309146,-0.2707 2.894718,-0.3756 0.585573,-0.105 1.955593,-0.3481 2.220758,-0.442 0.265165,-0.094 1.298204,-0.3093 1.883776,-0.7458 0.585573,-0.4364 0.303835,-0.3701 -0.187825,-0.2596 -0.49166,0.1105 -2.309145,0.3204 -2.635077,0.3646 -0.325933,0.044 -1.922447,0.2431 -2.977583,0.3259 -1.055136,0.083 -2.535641,0.2099 -3.745456,0.2652 -1.209816,0.055 -2.640602,0.1215 -4.347602,0.1381 -1.707,0.017 -3.25932,-0.044 -3.872515,-0.099 -0.613194,-0.055 -0.784446,-0.022 -1.679378,-0.1768 -0.894932,-0.1547 -1.187719,-0.3812 -1.220864,-0.4751 -0.03315,-0.094 -0.121534,-0.2376 0.309359,-0.5193 0.430893,-0.2817 1.270583,-0.5856 2.19866,-0.8397 0.928078,-0.2541 0.657389,-0.2209 2.204185,-0.5911 z"
       id="path3378"
       inkscape:connector-curvature="0" />
    <path
       style="fill:#2f3cb1;fill-rule:evenodd;stroke:none;stroke-width:1px;stroke-linecap:butt;stroke-linejoin:miter;stroke-opacity:1;fill-opacity:1"
       d="m 21.597656,1035.827 c 0,0 0.375,0.012 -0.02344,-0.1172 -0.398438,-0.1289 -0.441406,-0.1367 -1.039063,-0.1406 -0.597656,-0 -1.199218,0.07 -1.609375,0.1641 -0.410156,0.094 -0.96875,0.1914 -1.558593,0.3672 -0.589844,0.1757 -1.023438,0.3398 -1.324219,0.4531 -0.300781,0.1133 -1.316406,0.582 -1.757813,1.0312 -0.441406,0.4493 -0.261718,0.7383 -0.15625,0.8907 0.105469,0.1523 0.332032,0.289 0.71875,0.4336 0.386719,0.1445 0.65625,0.2421 1.667969,0.3867 1.011719,0.1445 1.828125,0.2383 2.402344,0.3086 0.574219,0.07 2.335937,0.25 2.71875,0.2851 0.382812,0.035 2.476562,0.1992 3.179687,0.2344 0.703125,0.035 2.527344,0.1016 2.660157,0.1016 0.132812,0 2.648437,0.055 3.117187,0.019 0.46875,-0.035 0.40625,-0.01 0.664063,-0 0.257812,0 1.40625,-0.047 2.09375,-0.066 0.6875,-0.02 1.953125,-0.1055 2.292968,-0.1289 0.339844,-0.024 1.417969,-0.125 1.941407,-0.168 0.523437,-0.043 1.800781,-0.2031 2.410156,-0.293 0.609375,-0.09 2.304687,-0.3554 2.886719,-0.5 0.582031,-0.1445 1.414062,-0.3086 2.226562,-0.5742 0.8125,-0.2656 1.160156,-0.3711 1.9375,-0.789 0.777344,-0.418 0.800781,-0.7891 0.804688,-0.9258 0.0039,-0.1367 -0.07422,-0.3516 -0.28125,-0.4844 -0.207032,-0.1328 -0.523438,-0.3008 -0.523438,-0.3008 0,0 -0.328125,-0.1953 -0.0039,0.09 0.324219,0.2851 0.152344,0.6875 0.0625,0.7929 -0.08984,0.1055 -0.296875,0.3907 -1.257813,0.7344 -0.960937,0.3438 -3.265625,0.6758 -3.40625,0.6992 -0.140625,0.024 -1.675781,0.2031 -2.167968,0.25 -0.492188,0.047 -2.414063,0.2344 -3.007813,0.2578 -0.59375,0.024 -4.871296,0.3354 -8.716189,0.2028 -3.844893,-0.1325 -6.032504,-0.1105 -9.899495,-0.9059 -3.86699,-0.7955 0.662913,-1.9225 0.662913,-1.9225 0,0 0.791003,-0.3445 2.284802,-0.3822 z"
       id="path3380"
       inkscape:connector-curvature="0" />
    <path
       style="fill:#2f3cb1;fill-rule:evenodd;stroke:none;stroke-width:1px;stroke-linecap:butt;stroke-linejoin:miter;stroke-opacity:1;fill-opacity:1"
       d="m 21.257398,1041.3689 c 0,0 -1.712525,-0.4972 0.09944,-0.2099 1.811962,0.2872 4.496758,0.3977 4.496758,0.3977 0,0 4.408369,0.1878 5.336446,0.1215 0.928078,-0.066 3.314563,-0.011 4.883456,-0.1657 1.568894,-0.1547 3.623923,-0.3204 4.828214,-0.4972 1.204291,-0.1768 3.78965,-0.5524 5.347495,-1.0385 1.557844,-0.4862 2.552213,-0.7845 2.994155,-1.1159 0.441942,-0.3315 1.027515,-1.1049 0.68501,-0.3204 -0.342505,0.7844 -0.696058,1.149 -2.209709,1.8782 -1.51365,0.7292 -4.463611,1.1932 -4.916602,1.2595 -0.45299,0.066 -2.253903,0.2983 -4.275786,0.4641 -2.021883,0.1657 -4.850311,0.2209 -5.734194,0.2099 -0.883884,-0.011 -2.618505,0.055 -5.391689,-0.1105 -2.773185,-0.1657 -4.883456,-0.4972 -6.14299,-0.8728 z"
       id="path3382"
       inkscape:connector-curvature="0" />
  </g>
</svg>
