<?xml version="1.0" encoding="UTF-8" standalone="no"?>
<!-- Created with Inkscape (http://www.inkscape.org/) -->

<svg
   xmlns:dc="http://purl.org/dc/elements/1.1/"
   xmlns:cc="http://creativecommons.org/ns#"
   xmlns:rdf="http://www.w3.org/1999/02/22-rdf-syntax-ns#"
   xmlns:svg="http://www.w3.org/2000/svg"
   xmlns="http://www.w3.org/2000/svg"
   xmlns:sodipodi="http://sodipodi.sourceforge.net/DTD/sodipodi-0.dtd"
   xmlns:inkscape="http://www.inkscape.org/namespaces/inkscape"
   width="64"
   height="64"
   id="svg2"
   version="1.1"
   inkscape:version="0.91 r13725"
   sodipodi:docname="jdownloader.svg">
  <defs
     id="defs4" />
  <sodipodi:namedview
     id="base"
     pagecolor="#ffffff"
     bordercolor="#666666"
     borderopacity="1.0"
     inkscape:pageopacity="0.0"
     inkscape:pageshadow="2"
     inkscape:zoom="7.1380367"
     inkscape:cx="51.416976"
     inkscape:cy="12.791342"
     inkscape:document-units="px"
     inkscape:current-layer="layer1"
     showgrid="true"
     inkscape:object-paths="true"
     inkscape:snap-object-midpoints="true"
     inkscape:snap-center="true"
     inkscape:snap-bbox="true"
     inkscape:bbox-paths="true"
     inkscape:bbox-nodes="true"
     inkscape:snap-bbox-edge-midpoints="true"
     inkscape:snap-bbox-midpoints="true"
     inkscape:snap-intersection-paths="true"
     inkscape:object-nodes="true"
     inkscape:snap-smooth-nodes="true"
     inkscape:snap-midpoints="true"
     inkscape:snap-page="true"
     inkscape:window-width="696"
     inkscape:window-height="651"
     inkscape:window-x="634"
     inkscape:window-y="90"
     inkscape:window-maximized="0"
     showguides="false"
     inkscape:snap-global="false">
    <inkscape:grid
       empspacing="2"
       visible="true"
       enabled="true"
       snapvisiblegridlinesonly="true"
       type="xygrid"
       id="grid2987" />
  </sodipodi:namedview>
  <metadata
     id="metadata7">
    <rdf:RDF>
      <cc:Work
         rdf:about="">
        <dc:format>image/svg+xml</dc:format>
        <dc:type
           rdf:resource="http://purl.org/dc/dcmitype/StillImage" />
        <dc:title></dc:title>
      </cc:Work>
    </rdf:RDF>
  </metadata>
  <g
     inkscape:label="Layer 1"
     inkscape:groupmode="layer"
     id="layer1"
     transform="translate(0,-988.36218)">
    <rect
       style="fill:#5071a0;fill-opacity:1;stroke:none"
       id="rect4990"
       width="64"
       height="64"
       x="0"
       y="0"
       transform="translate(0,988.36218)"
       ry="4" />
    <circle
       style="fill:#77cf59;fill-opacity:1;stroke:none;stroke-opacity:1"
       id="path4146"
       cx="32"
       cy="1020.3622"
       r="22" />
    <path
       style="fill:#fbd058;fill-rule:evenodd;stroke:none;stroke-width:1px;stroke-linecap:butt;stroke-linejoin:miter;stroke-opacity:1;fill-opacity:1"
       d="m 16.246136,1035.7198 c 0,0 12.052962,-0.5892 19.758162,-11.0963 7.7052,-10.5071 5.463687,-24.2364 5.463687,-24.2364 0,0 0.560378,-0.42028 2.101418,0.2802 1.54104,0.7005 5.043404,4.0627 4.903309,4.9033 -0.140094,0.8406 0.140095,13.4491 -9.24624,24.5165 -9.386334,11.0675 -15.410399,10.9274 -15.410399,10.9274 -1.655129,-0.2281 -1.827393,-0.3608 -3.622546,-1.292 -1.55151,-0.9328 -2.818331,-1.7528 -3.947391,-4.0027 z"
       id="path4148"
       inkscape:connector-curvature="0"
       sodipodi:nodetypes="cscsssccc" />
    <path
       style="fill:#fbd058;fill-rule:evenodd;stroke:none;stroke-width:1px;stroke-linecap:butt;stroke-linejoin:miter;stroke-opacity:1;fill-opacity:1"
       d="m 42.98956,1040.0589 c 0,0 0.187028,-8.8282 -4.590339,-20.9504 -4.777366,-12.1221 -17.586032,-17.5495 -17.586032,-17.5495 0,0 -0.05659,-0.6982 1.35799,-1.62815 1.414519,-0.92983 6.126684,-2.09889 6.762976,-1.532 0.636291,0.5669 11.450671,7.05555 15.805185,20.89865 4.354657,13.843 2.703929,18.4435 2.703929,18.4435 -1.075798,1.2783 -1.279949,1.6334 -3.025142,2.6551 -1.616614,0.8148 1.076747,-0.092 -1.428567,-0.3372 z"
       id="path4148-9"
       inkscape:connector-curvature="0"
       sodipodi:nodetypes="cscsssccc" />
    <path
       style="fill:#fbd058;fill-opacity:1;fill-rule:evenodd;stroke:none;stroke-width:1px;stroke-linecap:butt;stroke-linejoin:miter;stroke-opacity:1"
       d="m 47.183718,1043.7674 c 0,0 -0.842231,1.366 -1.93825,0.1937 l -7.671871,-8.2033 c 0,0 -2.191962,-2.3437 0.715369,-2.6344 l 6.783776,-0.6783 6.783765,-0.6783 c 2.907346,-0.2905 1.222849,2.4406 1.222849,2.4406 z"
       id="path4157"
       inkscape:connector-curvature="0"
       sodipodi:nodetypes="cscscscc" />
  </g>
</svg>
