<?xml version="1.0" encoding="UTF-8" standalone="no"?>
<!-- Created with Inkscape (http://www.inkscape.org/) -->

<svg
   xmlns:dc="http://purl.org/dc/elements/1.1/"
   xmlns:cc="http://creativecommons.org/ns#"
   xmlns:rdf="http://www.w3.org/1999/02/22-rdf-syntax-ns#"
   xmlns:svg="http://www.w3.org/2000/svg"
   xmlns="http://www.w3.org/2000/svg"
   xmlns:sodipodi="http://sodipodi.sourceforge.net/DTD/sodipodi-0.dtd"
   xmlns:inkscape="http://www.inkscape.org/namespaces/inkscape"
   width="64"
   height="64"
   id="svg2"
   version="1.1"
   inkscape:version="0.91 r13725"
   sodipodi:docname="kadu.svg">
  <defs
     id="defs4" />
  <sodipodi:namedview
     id="base"
     pagecolor="#ffffff"
     bordercolor="#666666"
     borderopacity="1.0"
     inkscape:pageopacity="0.0"
     inkscape:pageshadow="2"
     inkscape:zoom="3.7648225"
     inkscape:cx="-3.6944252"
     inkscape:cy="-2.8138135"
     inkscape:document-units="px"
     inkscape:current-layer="layer1"
     showgrid="true"
     inkscape:object-paths="true"
     inkscape:snap-object-midpoints="true"
     inkscape:snap-center="true"
     inkscape:snap-bbox="true"
     inkscape:bbox-paths="true"
     inkscape:bbox-nodes="true"
     inkscape:snap-bbox-edge-midpoints="true"
     inkscape:snap-bbox-midpoints="true"
     inkscape:snap-intersection-paths="true"
     inkscape:object-nodes="true"
     inkscape:snap-smooth-nodes="true"
     inkscape:snap-midpoints="true"
     inkscape:snap-page="true"
     inkscape:window-width="696"
     inkscape:window-height="651"
     inkscape:window-x="231"
     inkscape:window-y="90"
     inkscape:window-maximized="0">
    <inkscape:grid
       empspacing="2"
       visible="true"
       enabled="true"
       snapvisiblegridlinesonly="true"
       type="xygrid"
       id="grid2987" />
  </sodipodi:namedview>
  <metadata
     id="metadata7">
    <rdf:RDF>
      <cc:Work
         rdf:about="">
        <dc:format>image/svg+xml</dc:format>
        <dc:type
           rdf:resource="http://purl.org/dc/dcmitype/StillImage" />
        <dc:title />
      </cc:Work>
    </rdf:RDF>
  </metadata>
  <g
     inkscape:label="Layer 1"
     inkscape:groupmode="layer"
     id="layer1"
     transform="translate(0,-988.36218)">
    <rect
       style="fill:#2ca0ba;fill-opacity:1;stroke:none"
       id="rect4990"
       width="64"
       height="64"
       x="0"
       y="0"
       transform="translate(0,988.36218)"
       ry="4" />
    <path
       style="fill:#fddf2f;fill-opacity:1;fill-rule:evenodd;stroke:none;stroke-width:1px;stroke-linecap:butt;stroke-linejoin:miter;stroke-opacity:1"
       d="m 28.571428,1006.648 c 0,0 1.714286,-10.28581 3.428572,-10.28581 1.714286,0 3.428571,10.28581 3.428571,10.28581 z"
       id="path4146"
       inkscape:connector-curvature="0"
       sodipodi:nodetypes="cscc" />
    <path
       style="fill:#fddf2f;fill-opacity:1;fill-rule:evenodd;stroke:none;stroke-width:1px;stroke-linecap:butt;stroke-linejoin:miter;stroke-opacity:1"
       d="m 28.571428,1034.0764 c 0,0 1.714286,10.2858 3.428572,10.2858 1.714286,0 3.428571,-10.2858 3.428571,-10.2858 z"
       id="path4146-1"
       inkscape:connector-curvature="0"
       sodipodi:nodetypes="cscc" />
    <path
       style="fill:#fddf2f;fill-opacity:1;fill-rule:evenodd;stroke:none;stroke-width:1px;stroke-linecap:butt;stroke-linejoin:miter;stroke-opacity:1"
       d="m 45.714285,1016.9336 c 0,0 10.285715,1.7143 10.285715,3.4286 0,1.7142 -10.285715,3.4286 -10.285715,3.4286 z"
       id="path4146-9"
       inkscape:connector-curvature="0"
       sodipodi:nodetypes="cscc" />
    <path
       style="fill:#fddf2f;fill-opacity:1;fill-rule:evenodd;stroke:none;stroke-width:1px;stroke-linecap:butt;stroke-linejoin:miter;stroke-opacity:1"
       d="m 18.285714,1023.7908 c 0,0 -10.285714,-1.7144 -10.285714,-3.4286 0,-1.7143 10.285714,-3.4286 10.285714,-3.4286 z"
       id="path4146-4"
       inkscape:connector-curvature="0"
       sodipodi:nodetypes="cscc" />
    <path
       style="fill:#fddf2f;fill-opacity:1;fill-rule:evenodd;stroke:none;stroke-width:1px;stroke-linecap:butt;stroke-linejoin:miter;stroke-opacity:1"
       d="m 39.44538,1008.0681 c 0,0 8.485293,-6.061 9.697476,-4.8487 1.212183,1.2122 -4.848744,9.6974 -4.848744,9.6974 z"
       id="path4146-2"
       inkscape:connector-curvature="0"
       sodipodi:nodetypes="cscc" />
    <path
       style="fill:#fddf2f;fill-opacity:1;fill-rule:evenodd;stroke:none;stroke-width:1px;stroke-linecap:butt;stroke-linejoin:miter;stroke-opacity:1"
       d="m 39.44538,1032.6563 c 0,0 8.485293,6.0609 9.697476,4.8487 1.212183,-1.2123 -4.848744,-9.6975 -4.848744,-9.6975 z"
       id="path4146-2-8"
       inkscape:connector-curvature="0"
       sodipodi:nodetypes="cscc" />
    <path
       style="fill:#fddf2f;fill-opacity:1;fill-rule:evenodd;stroke:none;stroke-width:1px;stroke-linecap:butt;stroke-linejoin:miter;stroke-opacity:1"
       d="m 24.554686,1032.6563 c 0,0 -8.485286,6.0609 -9.697544,4.8487 -1.21217,-1.2123 4.848772,-9.6975 4.848772,-9.6975 z"
       id="path4146-2-2"
       inkscape:connector-curvature="0"
       sodipodi:nodetypes="cscc" />
    <path
       style="fill:#fddf2f;fill-opacity:1;fill-rule:evenodd;stroke:none;stroke-width:1px;stroke-linecap:butt;stroke-linejoin:miter;stroke-opacity:1"
       d="m 24.554619,1008.0681 c 0,0 -8.485293,-6.061 -9.697477,-4.8487 -1.212181,1.2122 4.848745,9.6974 4.848745,9.6974 z"
       id="path4146-2-23"
       inkscape:connector-curvature="0"
       sodipodi:nodetypes="cscc" />
    <path
       style="fill:#fddf2f;fill-opacity:1;stroke:none;stroke-opacity:1"
       id="path4144"
       sodipodi:type="arc"
       sodipodi:cx="32"
       sodipodi:cy="1020.3622"
       sodipodi:rx="15.428571"
       sodipodi:ry="15.428558"
       sodipodi:start="0.020713917"
       sodipodi:end="0.012886272"
       sodipodi:open="true"
       d="m 47.425261,1020.6817 a 15.428571,15.428558 0 0 1 -15.714638,15.1063 15.428571,15.428558 0 0 1 -15.137016,-15.685 15.428571,15.428558 0 0 1 15.655394,-15.1677 15.428571,15.428558 0 0 1 15.198289,15.6257" />
  </g>
</svg>
