<?xml version="1.0" encoding="UTF-8" standalone="no"?>
<!-- Created with Inkscape (http://www.inkscape.org/) -->

<svg
   xmlns:dc="http://purl.org/dc/elements/1.1/"
   xmlns:cc="http://creativecommons.org/ns#"
   xmlns:rdf="http://www.w3.org/1999/02/22-rdf-syntax-ns#"
   xmlns:svg="http://www.w3.org/2000/svg"
   xmlns="http://www.w3.org/2000/svg"
   xmlns:sodipodi="http://sodipodi.sourceforge.net/DTD/sodipodi-0.dtd"
   xmlns:inkscape="http://www.inkscape.org/namespaces/inkscape"
   width="128"
   height="128"
   id="svg2"
   version="1.1"
   inkscape:version="0.91 r13725"
   sodipodi:docname="edittrash.svg">
  <defs
     id="defs4" />
  <sodipodi:namedview
     id="base"
     pagecolor="#ffffff"
     bordercolor="#666666"
     borderopacity="1.0"
     inkscape:pageopacity="0.0"
     inkscape:pageshadow="2"
     inkscape:zoom="1.7311615"
     inkscape:cx="73.882288"
     inkscape:cy="99.227314"
     inkscape:document-units="px"
     inkscape:current-layer="layer1"
     showgrid="true"
     inkscape:object-paths="true"
     inkscape:snap-object-midpoints="true"
     inkscape:snap-center="true"
     inkscape:snap-bbox="true"
     inkscape:bbox-paths="true"
     inkscape:bbox-nodes="true"
     inkscape:snap-bbox-edge-midpoints="true"
     inkscape:snap-bbox-midpoints="true"
     inkscape:snap-intersection-paths="true"
     inkscape:object-nodes="true"
     inkscape:snap-smooth-nodes="true"
     inkscape:snap-midpoints="true"
     inkscape:snap-page="true"
     inkscape:window-width="696"
     inkscape:window-height="651"
     inkscape:window-x="695"
     inkscape:window-y="43"
     inkscape:window-maximized="0">
    <inkscape:grid
       empspacing="2"
       visible="true"
       enabled="true"
       snapvisiblegridlinesonly="true"
       type="xygrid"
       id="grid2987" />
  </sodipodi:namedview>
  <metadata
     id="metadata7">
    <rdf:RDF>
      <cc:Work
         rdf:about="">
        <dc:format>image/svg+xml</dc:format>
        <dc:type
           rdf:resource="http://purl.org/dc/dcmitype/StillImage" />
        <dc:title></dc:title>
      </cc:Work>
    </rdf:RDF>
  </metadata>
  <g
     inkscape:label="Layer 1"
     inkscape:groupmode="layer"
     id="layer1"
     transform="translate(0,-924.36218)">
    <path
       style="fill:#41c98b;fill-rule:evenodd;stroke:none;stroke-width:1px;stroke-linecap:butt;stroke-linejoin:miter;stroke-opacity:1;fill-opacity:1"
       d="m 4,944.36218 c 0,0 -4,0 -4,4 l 0,8 c 0,0 0,4 4,4 l 12,0 c 0,0 4,0 4,4 l 0,76.00002 c 0,0 0,4 4,4 l 80,0 c 0,0 4,0 4,-4 l 0,-76.00002 c 0,0 0,-4 4,-4 l 12,0 c 0,0 4,0 4,-4 l 0,-8 c 0,0 0,-4 -4,-4 z"
       id="path3338"
       inkscape:connector-curvature="0"
       sodipodi:nodetypes="cscscscscscscscsc" />
    <path
       style="fill:#41c98b;fill-rule:evenodd;stroke:none;stroke-width:1px;stroke-linecap:butt;stroke-linejoin:miter;stroke-opacity:1;fill-opacity:1"
       d="m 40,948.36218 c 0,0 4,0 4,-4 0,-4 0,0 0,0 0,0 4,0 4,-4 l 0,-4 c 0,0 0,-4 4,-4 l 24,0 c 0,0 4,0 4,4 l 0,4 c 0,0 0,4 4,4 4,0 4,4 4,4 z"
       id="path3340"
       inkscape:connector-curvature="0"
       sodipodi:nodetypes="cscscscscscc" />
    <path
       style="fill:#1d856e;fill-rule:evenodd;stroke:none;stroke-width:1px;stroke-linecap:butt;stroke-linejoin:miter;stroke-opacity:1;fill-opacity:1"
       d="m 32,976.36218 c 0,0 0,-4 4,-4 4,0 4,0 4,0 0,0 4,0 4,4 0,4 0,52.00002 0,52.00002 0,0 0,4 -4,4 -4,0 -4,0 -4,0 0,0 -4,0 -4,-4 0,-4 0,-52.00002 0,-52.00002 z"
       id="path4142"
       inkscape:connector-curvature="0" />
    <path
       style="fill:#1d856e;fill-opacity:1;fill-rule:evenodd;stroke:none;stroke-width:1px;stroke-linecap:butt;stroke-linejoin:miter;stroke-opacity:1"
       d="m 58,976.36218 c 0,0 0,-4 4,-4 4,0 4,0 4,0 0,0 4,0 4,4 0,4 0,52.00002 0,52.00002 0,0 0,4 -4,4 -4,0 -4,0 -4,0 0,0 -4,0 -4,-4 0,-4 0,-52.00002 0,-52.00002 z"
       id="path4142-7"
       inkscape:connector-curvature="0" />
    <path
       style="fill:#1d856e;fill-opacity:1;fill-rule:evenodd;stroke:none;stroke-width:1px;stroke-linecap:butt;stroke-linejoin:miter;stroke-opacity:1"
       d="m 84,976.36218 c 0,0 0,-4 4,-4 4,0 4,0 4,0 0,0 4,0 4,4 0,4 0,52.00002 0,52.00002 0,0 0,4 -4,4 -4,0 -4,0 -4,0 0,0 -4,0 -4,-4 0,-4 0,-52.00002 0,-52.00002 z"
       id="path4142-9"
       inkscape:connector-curvature="0" />
  </g>
</svg>
