<?xml version="1.0" encoding="UTF-8" standalone="no"?>
<!-- Created with Inkscape (http://www.inkscape.org/) -->

<svg
   xmlns:dc="http://purl.org/dc/elements/1.1/"
   xmlns:cc="http://creativecommons.org/ns#"
   xmlns:rdf="http://www.w3.org/1999/02/22-rdf-syntax-ns#"
   xmlns:svg="http://www.w3.org/2000/svg"
   xmlns="http://www.w3.org/2000/svg"
   xmlns:sodipodi="http://sodipodi.sourceforge.net/DTD/sodipodi-0.dtd"
   xmlns:inkscape="http://www.inkscape.org/namespaces/inkscape"
   width="128"
   height="128"
   id="svg2"
   version="1.1"
   inkscape:version="0.91 r13725"
   sodipodi:docname="gnome-fs-ftp.svg">
  <defs
     id="defs4" />
  <sodipodi:namedview
     id="base"
     pagecolor="#ffffff"
     bordercolor="#666666"
     borderopacity="1.0"
     inkscape:pageopacity="0.0"
     inkscape:pageshadow="2"
     inkscape:zoom="23.697958"
     inkscape:cx="33.075297"
     inkscape:cy="72.88212"
     inkscape:document-units="px"
     inkscape:current-layer="layer1"
     showgrid="true"
     inkscape:object-paths="true"
     inkscape:snap-object-midpoints="true"
     inkscape:snap-center="true"
     inkscape:snap-bbox="true"
     inkscape:bbox-paths="true"
     inkscape:bbox-nodes="true"
     inkscape:snap-bbox-edge-midpoints="true"
     inkscape:snap-bbox-midpoints="true"
     inkscape:snap-intersection-paths="true"
     inkscape:object-nodes="true"
     inkscape:snap-smooth-nodes="true"
     inkscape:snap-midpoints="true"
     inkscape:snap-page="true"
     inkscape:window-width="696"
     inkscape:window-height="651"
     inkscape:window-x="524"
     inkscape:window-y="63"
     inkscape:window-maximized="0"
     inkscape:snap-global="true">
    <inkscape:grid
       empspacing="2"
       visible="true"
       enabled="true"
       snapvisiblegridlinesonly="true"
       type="xygrid"
       id="grid2987" />
  </sodipodi:namedview>
  <metadata
     id="metadata7">
    <rdf:RDF>
      <cc:Work
         rdf:about="">
        <dc:format>image/svg+xml</dc:format>
        <dc:type
           rdf:resource="http://purl.org/dc/dcmitype/StillImage" />
        <dc:title />
      </cc:Work>
    </rdf:RDF>
  </metadata>
  <g
     inkscape:label="Layer 1"
     inkscape:groupmode="layer"
     id="layer1"
     transform="translate(0,-924.36218)">
    <path
       style="fill:#41c98b;fill-opacity:1;fill-rule:evenodd;stroke:none;stroke-width:1px;stroke-linecap:butt;stroke-linejoin:miter;stroke-opacity:1"
       d="m 0,940.36217 c 0,0 0,-7.99999 8,-7.99999 l 40,0 c 0,0 8,0.5 8,7.99999 -0.0938,4.08847 4,4.00001 8,4.00001 l 56,0 c 0,0 8,0.49996 8,8.00004 l 0,85.99998 c 0,0 0,6 -8,6 -112,0 -20,0 -112,0 0,0 -8,-0.5001 -8,-8 z"
       id="path4144"
       inkscape:connector-curvature="0"
       sodipodi:nodetypes="csccccscccsc" />
    <path
       style="fill:#56cfc3;fill-opacity:1;fill-rule:evenodd;stroke:none;stroke-width:1px;stroke-linecap:butt;stroke-linejoin:miter;stroke-opacity:1"
       d="m 29.320404,1012.2313 c 0,0 0,-2.1577 2,-2.1577 2,0 64,0 64,0 0,0 2,0 2,2.1577 0,2.1576 0,6.473 0,6.473 0,0 0,2.1576 -2,2.1576 -2,0 -64,0 -64,0 0,0 -2,0 -2,-2.1576 0,-2.1577 0,-6.473 0,-6.473 z"
       id="path4157"
       inkscape:connector-curvature="0" />
    <rect
       style="fill:#1d856e;fill-opacity:1;stroke:none;stroke-opacity:1"
       id="rect4160"
       width="83.03064"
       height="68.183792"
       x="-1041.3928"
       y="27.908104"
       ry="34.091896"
       transform="matrix(0,-1,1,0,0,0)" />
    <rect
       style="fill:#41c98b;fill-opacity:1;stroke:none;stroke-opacity:1"
       id="rect4158"
       width="74.290573"
       height="61.006542"
       x="-1037.0228"
       y="31.496578"
       ry="30.503271"
       transform="matrix(0,-1,1,0,0,0)" />
    <rect
       style="fill:#1d856e;fill-opacity:1;stroke:none;stroke-opacity:1"
       id="rect4156"
       width="65.550507"
       height="53.829304"
       x="-1032.6528"
       y="35.085361"
       ry="26.914652"
       transform="matrix(0,-1,1,0,0,0)" />
    <rect
       style="fill:#41c98b;fill-opacity:1;stroke:none;stroke-opacity:1"
       id="rect4154"
       width="56.81044"
       height="46.652061"
       x="-1028.2827"
       y="38.674042"
       ry="23.326031"
       transform="matrix(0,-1,1,0,0,0)" />
    <rect
       style="fill:#1d856e;fill-opacity:1;stroke:none;stroke-opacity:1"
       id="rect4152"
       width="48.07037"
       height="39.474823"
       x="-1023.9127"
       y="42.262619"
       ry="19.737411"
       transform="matrix(0,-1,1,0,0,0)" />
    <rect
       style="fill:#41c98b;fill-opacity:1;stroke:none;stroke-opacity:1"
       id="rect4150"
       width="39.330303"
       height="32.297585"
       x="-1019.5426"
       y="45.851196"
       ry="16.148792"
       transform="matrix(0,-1,1,0,0,0)" />
    <path
       style="fill:#41c98b;fill-opacity:1;fill-rule:evenodd;stroke:none;stroke-width:1px;stroke-linecap:butt;stroke-linejoin:miter;stroke-opacity:1"
       d="m 29.702468,997.69255 68.183753,0 0,43.70035 -71.772406,0 0,-43.70035 z"
       id="path4166"
       inkscape:connector-curvature="0" />
    <rect
       style="fill:#1d856e;fill-opacity:1;stroke:none;stroke-opacity:1"
       id="rect4148"
       width="45.779667"
       height="25.120342"
       x="-1030.3622"
       y="49.439671"
       ry="12.560171"
       transform="matrix(0,-1,1,0,0,0)" />
  </g>
</svg>
