<?xml version="1.0" encoding="UTF-8" standalone="no"?>
<!-- Created with Inkscape (http://www.inkscape.org/) -->

<svg
   xmlns:dc="http://purl.org/dc/elements/1.1/"
   xmlns:cc="http://creativecommons.org/ns#"
   xmlns:rdf="http://www.w3.org/1999/02/22-rdf-syntax-ns#"
   xmlns:svg="http://www.w3.org/2000/svg"
   xmlns="http://www.w3.org/2000/svg"
   xmlns:sodipodi="http://sodipodi.sourceforge.net/DTD/sodipodi-0.dtd"
   xmlns:inkscape="http://www.inkscape.org/namespaces/inkscape"
   width="128"
   height="128"
   id="svg2"
   version="1.1"
   inkscape:version="0.91 r13725"
   sodipodi:docname="folder-ubuntu.svg">
  <defs
     id="defs4" />
  <sodipodi:namedview
     id="base"
     pagecolor="#ffffff"
     bordercolor="#666666"
     borderopacity="1.0"
     inkscape:pageopacity="0.0"
     inkscape:pageshadow="2"
     inkscape:zoom="4.555257"
     inkscape:cx="48.89771"
     inkscape:cy="59.150257"
     inkscape:document-units="px"
     inkscape:current-layer="layer1"
     showgrid="true"
     inkscape:object-paths="true"
     inkscape:snap-object-midpoints="true"
     inkscape:snap-center="true"
     inkscape:snap-bbox="true"
     inkscape:bbox-paths="true"
     inkscape:bbox-nodes="true"
     inkscape:snap-bbox-edge-midpoints="true"
     inkscape:snap-bbox-midpoints="true"
     inkscape:snap-intersection-paths="true"
     inkscape:object-nodes="true"
     inkscape:snap-smooth-nodes="true"
     inkscape:snap-midpoints="true"
     inkscape:snap-page="true"
     inkscape:window-width="696"
     inkscape:window-height="651"
     inkscape:window-x="649"
     inkscape:window-y="90"
     inkscape:window-maximized="0"
     inkscape:snap-global="true">
    <inkscape:grid
       empspacing="2"
       visible="true"
       enabled="true"
       snapvisiblegridlinesonly="true"
       type="xygrid"
       id="grid2987" />
  </sodipodi:namedview>
  <metadata
     id="metadata7">
    <rdf:RDF>
      <cc:Work
         rdf:about="">
        <dc:format>image/svg+xml</dc:format>
        <dc:type
           rdf:resource="http://purl.org/dc/dcmitype/StillImage" />
        <dc:title></dc:title>
      </cc:Work>
    </rdf:RDF>
  </metadata>
  <g
     inkscape:label="Layer 1"
     inkscape:groupmode="layer"
     id="layer1"
     transform="translate(0,-924.36218)">
    <path
       style="fill:#41c98b;fill-opacity:1;fill-rule:evenodd;stroke:none;stroke-width:1px;stroke-linecap:butt;stroke-linejoin:miter;stroke-opacity:1"
       d="m 0,940.36217 c 0,0 0,-7.99999 8,-7.99999 l 40,0 c 0,0 8,0.5 8,7.99999 -0.0938,4.08847 4,4.00001 8,4.00001 l 56,0 c 0,0 8,0.49996 8,8.00004 l 0,85.99998 c 0,0 0,6 -8,6 -112,0 -20,0 -112,0 0,0 -8,-0.5001 -8,-8 z"
       id="path4144"
       inkscape:connector-curvature="0"
       sodipodi:nodetypes="csccccscccsc" />
    <rect
       style="fill:#1d856e;fill-opacity:1;stroke:none;stroke-opacity:1"
       id="rect4166"
       width="13.391404"
       height="13.543502"
       x="24.207632"
       y="988.30298"
       ry="6.7717505"
       rx="6.6957021" />
    <rect
       style="fill:#1d856e;fill-opacity:1;stroke:none;stroke-opacity:1"
       id="rect4166-2"
       width="13.391404"
       height="13.543502"
       x="75.304298"
       y="958.36218"
       ry="6.7717505"
       rx="6.6957021" />
    <rect
       style="fill:#1d856e;fill-opacity:1;stroke:none;stroke-opacity:1"
       id="rect4166-7"
       width="13.391404"
       height="13.543502"
       x="75.312721"
       y="1018.1882"
       ry="6.7717505"
       rx="6.6957021" />
    <path
       style="fill:#1d856e;fill-opacity:1;fill-rule:evenodd;stroke:none;stroke-width:1px;stroke-linecap:butt;stroke-linejoin:miter;stroke-opacity:1"
       d="m 36.846959,987.6879 c 0,0 0.712281,-2.57131 0.970657,-3.1097 0.258378,-0.5382 0.467871,-1.21819 0.810046,-1.91959 0.342174,-0.70122 0.991607,-2.08246 1.724838,-3.21579 0.73323,-1.13334 1.270933,-1.97617 2.19271,-3.09537 0.921775,-1.11919 1.37568,-1.61514 1.843552,-2.08969 0.46787,-0.47456 1.236017,-1.21113 1.850534,-1.71416 0.614517,-0.50284 1.319814,-1.08365 1.878466,-1.47333 0.558653,-0.38951 0.733232,-0.51699 0.733232,-0.51699 l 4.895189,8.28752 c 0,0 -1.501378,1.14041 -1.920367,1.5796 -0.418989,0.43919 -0.865911,0.80041 -1.703889,1.77072 -0.837977,0.97049 -1.305849,1.76384 -1.66199,2.28082 -0.356139,0.51717 -0.851944,1.50888 -1.012556,1.82767 -0.160607,0.3186 -0.600551,1.19698 -1.138254,2.86163 -0.537703,1.66448 -0.782113,3.66912 -0.810046,4.25701 -0.02795,0.58805 -0.08379,1.03414 -0.06984,2.21715 0.01394,1.18282 0.251394,2.65616 0.342175,3.10946 0.09077,0.4534 0.258374,1.34594 0.642449,2.53614 0.384073,1.1899 0.977641,2.4011 0.998591,2.4436 0.02095,0.044 0.174584,0.4818 1.061439,1.9196 0.88686,1.438 2.018129,2.6917 2.018129,2.6917 0,0 1.17317,1.2466 1.661991,1.6576 0.48882,0.4108 1.536293,1.2396 1.599141,1.282 0.06285,0.041 0,0 0,0 l -4.909155,8.3086 c 0,0 -1.35473,-0.9349 -2.381254,-1.8204 -1.026527,-0.8853 -1.571212,-1.3741 -2.506954,-2.3516 -0.935742,-0.9775 -2.353322,-2.8475 -2.520918,-3.0883 -0.167595,-0.2408 -1.159203,-1.707 -1.52931,-2.38 -0.370106,-0.673 -0.886859,-1.5937 -1.082388,-2.0542 -0.195527,-0.4604 -0.747196,-1.5797 -1.096355,-2.6208 -0.349157,-1.0412 -0.64245,-1.9407 -0.698315,-2.1604 -0.05587,-0.2195 -0.181561,-0.687 -0.181561,-0.687 0,0 0.265359,-0.1914 0.48882,-0.411 0.223462,-0.2195 0.698315,-0.7154 0.830995,-0.8783 0.132682,-0.1633 0.970659,-1.35284 1.208085,-1.90534 0.237427,-0.5525 0.391057,-0.9138 0.509769,-1.3317 0.11872,-0.41807 0.26536,-0.87136 0.363124,-1.77094 0.09777,-0.89961 0.06285,-1.51578 0.02096,-1.97619 -0.0419,-0.46041 -0.23743,-1.72829 -0.614521,-2.62789 -0.37709,-0.89961 -0.949708,-1.82041 -1.236017,-2.19596 -0.286308,-0.37537 -0.79608,-1.00587 -1.571209,-1.64325 z"
       id="path4189"
       inkscape:connector-curvature="0" />
    <path
       style="fill:#1d856e;fill-opacity:1;fill-rule:evenodd;stroke:none;stroke-width:1px;stroke-linecap:butt;stroke-linejoin:miter;stroke-opacity:1"
       d="m 85.331389,974.04524 c 0,0 1.83918,1.91125 2.169648,2.40738 0.330312,0.49614 0.806133,1.02019 1.233884,1.67155 0.427592,0.65116 1.282126,1.91215 1.883124,3.12293 0.600999,1.21077 1.051748,2.10456 1.546395,3.474 0.494645,1.36925 0.69112,2.01607 0.862346,2.66434 0.171228,0.64828 0.416019,1.69131 0.538235,2.48263 0.122036,0.79116 0.265283,1.70129 0.31865,2.38673 0.05329,0.68562 0.07484,0.90268 0.07484,0.90268 l -9.523254,0.15595 c 0,0 -0.222964,-1.88915 -0.388437,-2.47684 -0.165469,-0.58771 -0.250414,-1.16089 -0.659857,-2.38219 -0.409598,-1.22129 -0.85299,-2.02894 -1.116306,-2.60034 -0.263473,-0.57137 -0.862271,-1.50289 -1.054135,-1.80336 -0.191712,-0.30029 -0.721678,-1.1261 -1.87406,-2.43059 -1.152225,-1.30471 -2.741532,-2.52164 -3.229487,-2.84024 -0.488105,-0.31842 -0.841035,-0.59062 -1.858051,-1.16979 -1.016849,-0.57919 -2.393471,-1.10722 -2.825908,-1.25429 -0.432434,-0.14687 -1.27825,-0.44589 -2.486356,-0.70357 -1.207954,-0.2575 -2.538923,-0.34182 -2.585627,-0.34454 -0.04762,0 -0.498644,-0.0871 -2.169623,-0.0271 -1.67114,0.0597 -3.307188,0.42687 -3.307188,0.42687 0,0 -1.650959,0.40726 -2.246187,0.63121 -0.595074,0.22414 -1.826484,0.72988 -1.894136,0.76378 -0.06704,0.0344 0,0 0,0 l -4.63919,-8.46685 c 0,0 1.475607,-0.72262 2.744845,-1.18157 1.269242,-0.45915 1.958818,-0.69324 3.261316,-1.02635 1.302341,-0.33329 3.607769,-0.64356 3.897165,-0.6704 0.289398,-0.0271 2.037062,-0.16501 2.796645,-0.15413 0.759583,0.0181 1.804127,0.0181 2.294974,0.0762 0.490849,0.058 1.722219,0.13419 2.785765,0.34744 1.063544,0.21379 1.978244,0.406 2.193662,0.46674 0.215416,0.0616 0.677386,0.18407 0.677386,0.18407 0,0 0.03066,0.32875 0.106403,0.63485 0.07577,0.30609 0.261602,0.97104 0.334442,1.16906 0.07299,0.19819 0.669615,1.52919 1.022631,2.01388 0.353019,0.4849 0.584603,0.80041 0.882101,1.11377 0.297495,0.31315 0.611221,0.66875 1.330393,1.20442 0.719169,0.53566 1.262698,0.8131 1.676733,1.0064 0.414036,0.19348 1.594286,0.65572 2.550884,0.77411 0.956597,0.11784 2.029072,0.0762 2.492857,0.0181 0.463627,-0.0635 1.256816,-0.19639 2.188565,-0.55869 z"
       id="path4189-6"
       inkscape:connector-curvature="0" />
    <path
       style="fill:#1d856e;fill-opacity:1;fill-rule:evenodd;stroke:none;stroke-width:1px;stroke-linecap:butt;stroke-linejoin:miter;stroke-opacity:1"
       d="m 72.728945,1023.4264 c 0,0 -2.551478,0.6601 -3.140321,0.7024 -0.58869,0.041 -1.274004,0.1979 -2.043927,0.2481 -0.769769,0.051 -2.273736,0.1704 -3.607966,0.093 -1.334228,-0.079 -2.322676,-0.1287 -3.739101,-0.3785 -1.416425,-0.2501 -2.066805,-0.4011 -2.705902,-0.5748 -0.639093,-0.174 -1.652037,-0.4801 -2.388763,-0.7685 -0.736568,-0.2883 -1.585099,-0.6176 -2.197131,-0.9134 -0.611875,-0.296 -0.808002,-0.3856 -0.808002,-0.3856 l 4.628061,-8.4439 c 0,0 1.724342,0.7487 2.308805,0.8971 0.584463,0.1488 1.116323,0.3605 2.363744,0.6115 1.247577,0.2508 2.15884,0.2651 2.778299,0.3195 0.619611,0.054 1.714228,0 2.066705,-0.023 0.352319,-0.019 1.32223,-0.07 3.012314,-0.4311 1.689926,-0.3598 3.523646,-1.1475 4.039533,-1.4169 0.516047,-0.2694 0.924825,-0.4433 1.927877,-1.0473 1.002906,-0.6036 2.142079,-1.5489 2.483734,-1.8551 0.341656,-0.3064 1.019871,-0.9001 1.843907,-1.8324 0.82388,-0.9324 1.561281,-2.0594 1.587036,-2.0992 0.02667,-0.04 0.324059,-0.3942 1.108185,-1.8921 0.784277,-1.4981 1.289055,-3.1186 1.289055,-3.1186 0,0 0.477791,-1.65404 0.584199,-2.28884 0.106259,-0.6349 0.290192,-1.96956 0.294994,-2.04584 0.0041,-0.0758 0,0 0,0 l 9.548346,0.15769 c 0,0 -0.120882,1.65765 -0.363599,3.00205 -0.242708,1.34444 -0.387594,2.06734 -0.754349,3.37804 -0.366601,1.3107 -1.254452,3.4911 -1.376255,3.7588 -0.121795,0.2676 -0.877856,1.872 -1.267332,2.5334 -0.389478,0.6617 -0.917266,1.5759 -1.212589,1.978 -0.295317,0.4018 -0.975021,1.4461 -1.689409,2.2733 -0.714386,0.8275 -1.335793,1.5349 -1.495346,1.6936 -0.15955,0.1597 -0.495825,0.5031 -0.495825,0.5031 0,0 -0.296013,-0.1377 -0.595228,-0.2239 -0.299215,-0.087 -0.959914,-0.2556 -1.165435,-0.2906 -0.20568,-0.034 -1.640274,-0.1761 -2.230719,-0.1089 -0.590444,0.068 -0.975657,0.1125 -1.391869,0.2179 -0.416218,0.1051 -0.876583,0.2026 -1.693517,0.5666 -0.816936,0.3638 -1.325552,0.7026 -1.697684,0.9695 -0.372131,0.2671 -1.356857,1.0728 -1.936365,1.8538 -0.579507,0.7812 -1.079366,1.7447 -1.256839,2.1838 -0.177321,0.4392 -0.460736,1.2022 -0.617359,2.2019 z"
       id="path4189-3"
       inkscape:connector-curvature="0" />
  </g>
</svg>
