<?xml version="1.0" encoding="UTF-8" standalone="no"?>
<!-- Created with Inkscape (http://www.inkscape.org/) -->

<svg
   xmlns:dc="http://purl.org/dc/elements/1.1/"
   xmlns:cc="http://creativecommons.org/ns#"
   xmlns:rdf="http://www.w3.org/1999/02/22-rdf-syntax-ns#"
   xmlns:svg="http://www.w3.org/2000/svg"
   xmlns="http://www.w3.org/2000/svg"
   xmlns:sodipodi="http://sodipodi.sourceforge.net/DTD/sodipodi-0.dtd"
   xmlns:inkscape="http://www.inkscape.org/namespaces/inkscape"
   width="128"
   height="128"
   id="svg2"
   version="1.1"
   inkscape:version="0.91 r13725"
   sodipodi:docname="folder-system.svg">
  <defs
     id="defs4" />
  <sodipodi:namedview
     id="base"
     pagecolor="#ffffff"
     bordercolor="#666666"
     borderopacity="1.0"
     inkscape:pageopacity="0.0"
     inkscape:pageshadow="2"
     inkscape:zoom="1.6105266"
     inkscape:cx="74.921248"
     inkscape:cy="44.927798"
     inkscape:document-units="px"
     inkscape:current-layer="layer1"
     showgrid="true"
     inkscape:object-paths="true"
     inkscape:snap-object-midpoints="true"
     inkscape:snap-center="true"
     inkscape:snap-bbox="true"
     inkscape:bbox-paths="true"
     inkscape:bbox-nodes="true"
     inkscape:snap-bbox-edge-midpoints="true"
     inkscape:snap-bbox-midpoints="true"
     inkscape:snap-intersection-paths="true"
     inkscape:object-nodes="true"
     inkscape:snap-smooth-nodes="true"
     inkscape:snap-midpoints="true"
     inkscape:snap-page="true"
     inkscape:window-width="696"
     inkscape:window-height="651"
     inkscape:window-x="615"
     inkscape:window-y="53"
     inkscape:window-maximized="0"
     inkscape:snap-global="false">
    <inkscape:grid
       empspacing="2"
       visible="true"
       enabled="true"
       snapvisiblegridlinesonly="true"
       type="xygrid"
       id="grid2987" />
  </sodipodi:namedview>
  <metadata
     id="metadata7">
    <rdf:RDF>
      <cc:Work
         rdf:about="">
        <dc:format>image/svg+xml</dc:format>
        <dc:type
           rdf:resource="http://purl.org/dc/dcmitype/StillImage" />
        <dc:title />
      </cc:Work>
    </rdf:RDF>
  </metadata>
  <g
     inkscape:label="Layer 1"
     inkscape:groupmode="layer"
     id="layer1"
     transform="translate(0,-924.36218)">
    <path
       style="fill:#41c98b;fill-opacity:1;fill-rule:evenodd;stroke:none;stroke-width:1px;stroke-linecap:butt;stroke-linejoin:miter;stroke-opacity:1"
       d="m 0,940.36217 c 0,0 0,-7.99999 8,-7.99999 l 40,0 c 0,0 8,0.5 8,7.99999 -0.0938,4.08847 4,4.00001 8,4.00001 l 56,0 c 0,0 8,0.49996 8,8.00004 l 0,85.99998 c 0,0 0,6 -8,6 -112,0 -20,0 -112,0 0,0 -8,-0.5001 -8,-8 z"
       id="path4144"
       inkscape:connector-curvature="0"
       sodipodi:nodetypes="csccccscccsc" />
    <rect
       style="fill:#1d856e;fill-opacity:1;stroke:none;stroke-opacity:1"
       id="rect3355"
       width="57.985321"
       height="56.347935"
       x="33.927326"
       y="966.18829"
       ry="28.173967" />
    <rect
       style="fill:#41c98b;fill-opacity:1;stroke:none;stroke-opacity:1"
       id="rect3353"
       width="41.878288"
       height="40.695724"
       x="41.725002"
       y="974.36218"
       ry="20.347862" />
    <rect
       style="fill:#1d856e;fill-opacity:1;stroke:none;stroke-opacity:1"
       id="rect3345"
       width="19.186823"
       height="18.821121"
       x="53.038155"
       y="985.52014"
       ry="9.3052464" />
    <path
       style="fill:#1d856e;fill-opacity:1;fill-rule:evenodd;stroke:none;stroke-width:1px;stroke-linecap:butt;stroke-linejoin:miter;stroke-opacity:1"
       d="m 53.25577,967.75359 1.610704,-7.82619 c 0,0 0,-1.56522 1.610703,-1.56522 l 12.885625,0 c 0,0 1.294821,0.0304 1.610705,1.56522 l 1.610703,7.82619 z"
       id="path3359"
       inkscape:connector-curvature="0"
       sodipodi:nodetypes="ccscscc" />
    <path
       style="fill:#1d856e;fill-opacity:1;fill-rule:evenodd;stroke:none;stroke-width:1px;stroke-linecap:butt;stroke-linejoin:miter;stroke-opacity:1"
       d="m 53.25577,1020.971 1.610704,7.8259 c 0,0 0,1.5653 1.610703,1.5653 l 12.885625,0 c 0,0 1.294821,-0.03 1.610705,-1.5653 l 1.610703,-7.8259 z"
       id="path3359-0"
       inkscape:connector-curvature="0"
       sodipodi:nodetypes="ccscscc" />
    <path
       style="fill:#1d856e;fill-opacity:1;fill-rule:evenodd;stroke:none;stroke-width:1px;stroke-linecap:butt;stroke-linejoin:miter;stroke-opacity:1"
       d="m 79.542508,971.7512 8.472217,-2.80257 c 0,0 1.513857,-0.84336 2.416739,0.57056 l 7.222985,11.31314 c 0,0 0.697043,1.15296 -0.611009,2.25777 l -6.666458,5.63089 z"
       id="path3359-4"
       inkscape:connector-curvature="0"
       sodipodi:nodetypes="ccscscc" />
    <path
       style="fill:#1d856e;fill-opacity:1;fill-rule:evenodd;stroke:none;stroke-width:1px;stroke-linecap:butt;stroke-linejoin:miter;stroke-opacity:1"
       d="m 79.467478,1017.593 8.472212,2.8026 c 0,0 1.513865,0.8434 2.416744,-0.5706 l 7.222982,-11.3131 c 0,0 0.697043,-1.153 -0.611009,-2.2578 l -6.666457,-5.631 z"
       id="path3359-4-1"
       inkscape:connector-curvature="0"
       sodipodi:nodetypes="ccscscc" />
    <path
       style="fill:#1d856e;fill-opacity:1;fill-rule:evenodd;stroke:none;stroke-width:1px;stroke-linecap:butt;stroke-linejoin:miter;stroke-opacity:1"
       d="m 46.372503,1017.593 -8.472213,2.8026 c 0,0 -1.513863,0.8434 -2.416742,-0.5706 l -7.222981,-11.3131 c 0,0 -0.697044,-1.153 0.611009,-2.2578 l 6.666456,-5.631 z"
       id="path3359-4-1-7"
       inkscape:connector-curvature="0"
       sodipodi:nodetypes="ccscscc" />
    <path
       style="fill:#1d856e;fill-opacity:1;fill-rule:evenodd;stroke:none;stroke-width:1px;stroke-linecap:butt;stroke-linejoin:miter;stroke-opacity:1"
       d="m 46.297472,971.7512 -8.472212,-2.80257 c 0,0 -1.513865,-0.84336 -2.416744,0.57056 l -7.222982,11.31314 c 0,0 -0.697043,1.15296 0.611009,2.25777 l 6.666457,5.63089 z"
       id="path3359-4-9"
       inkscape:connector-curvature="0"
       sodipodi:nodetypes="ccscscc" />
  </g>
</svg>
