<?xml version="1.0" encoding="UTF-8" standalone="no"?>
<!-- Created with Inkscape (http://www.inkscape.org/) -->

<svg
   xmlns:dc="http://purl.org/dc/elements/1.1/"
   xmlns:cc="http://creativecommons.org/ns#"
   xmlns:rdf="http://www.w3.org/1999/02/22-rdf-syntax-ns#"
   xmlns:svg="http://www.w3.org/2000/svg"
   xmlns="http://www.w3.org/2000/svg"
   xmlns:sodipodi="http://sodipodi.sourceforge.net/DTD/sodipodi-0.dtd"
   xmlns:inkscape="http://www.inkscape.org/namespaces/inkscape"
   width="128"
   height="128"
   id="svg2"
   version="1.1"
   inkscape:version="0.91 r13725"
   sodipodi:docname="folder-music.svg">
  <defs
     id="defs4" />
  <sodipodi:namedview
     id="base"
     pagecolor="#ffffff"
     bordercolor="#666666"
     borderopacity="1.0"
     inkscape:pageopacity="0.0"
     inkscape:pageshadow="2"
     inkscape:zoom="1.6292029"
     inkscape:cx="33.277876"
     inkscape:cy="33.564544"
     inkscape:document-units="px"
     inkscape:current-layer="layer1"
     showgrid="true"
     inkscape:object-paths="true"
     inkscape:snap-object-midpoints="true"
     inkscape:snap-center="true"
     inkscape:snap-bbox="true"
     inkscape:bbox-paths="true"
     inkscape:bbox-nodes="true"
     inkscape:snap-bbox-edge-midpoints="true"
     inkscape:snap-bbox-midpoints="true"
     inkscape:snap-intersection-paths="true"
     inkscape:object-nodes="true"
     inkscape:snap-smooth-nodes="true"
     inkscape:snap-midpoints="true"
     inkscape:snap-page="true"
     inkscape:window-width="696"
     inkscape:window-height="651"
     inkscape:window-x="557"
     inkscape:window-y="65"
     inkscape:window-maximized="0">
    <inkscape:grid
       empspacing="2"
       visible="true"
       enabled="true"
       snapvisiblegridlinesonly="true"
       type="xygrid"
       id="grid2987" />
  </sodipodi:namedview>
  <metadata
     id="metadata7">
    <rdf:RDF>
      <cc:Work
         rdf:about="">
        <dc:format>image/svg+xml</dc:format>
        <dc:type
           rdf:resource="http://purl.org/dc/dcmitype/StillImage" />
        <dc:title />
      </cc:Work>
    </rdf:RDF>
  </metadata>
  <g
     inkscape:label="Layer 1"
     inkscape:groupmode="layer"
     id="layer1"
     transform="translate(0,-924.36218)">
    <path
       style="fill:#41c98b;fill-opacity:1;fill-rule:evenodd;stroke:none;stroke-width:1px;stroke-linecap:butt;stroke-linejoin:miter;stroke-opacity:1"
       d="m 0,940.36217 c 0,0 0,-7.99999 8,-7.99999 l 40,0 c 0,0 8,0.5 8,7.99999 -0.0938,4.08847 4,4.00001 8,4.00001 l 56,0 c 0,0 8,0.49996 8,8.00004 l 0,85.99998 c 0,0 0,6 -8,6 -112,0 -20,0 -112,0 0,0 -8,-0.5001 -8,-8 z"
       id="path4144"
       inkscape:connector-curvature="0"
       sodipodi:nodetypes="csccccscccsc" />
    <g
       id="g3349"
       transform="matrix(1.7171011,0,0,1.7731007,-27.91998,-788.78422)"
       style="fill:#329e8e;fill-opacity:1">
      <path
         sodipodi:nodetypes="ccssssccc"
         inkscape:connector-curvature="0"
         id="path3339"
         d="m 43.631665,995.5139 0,18.0475 c 0,0 -0.344958,1.3683 -2.329508,1.128 -4.659016,-0.564 -8.872105,1.6565 -9.900407,5.6398 -0.582377,2.2559 1.581576,5.6398 5.581576,5.6398 8,0 10.724977,-4.8549 10.724977,-6.7678 l 0,-2.2559 0,-21.4314 z"
         style="fill:#1d856e;fill-opacity:1;fill-rule:evenodd;stroke:none;stroke-width:1px;stroke-linecap:butt;stroke-linejoin:miter;stroke-opacity:1" />
      <path
         inkscape:connector-curvature="0"
         id="path4179"
         d="m 43.631665,995.5139 c 0,0 -0.131658,-2.6061 1.747131,-3.3839 1.878786,-0.7778 25.863626,-6.76782 25.863626,-6.76782 0,0 2.090465,-0.42762 2.090464,1.12798 l 0,6.76781 -25.624583,6.76783 c 0,0 -0.890122,-2.21912 -0.890122,-1.44132 0,0.7777 -1.878788,0.7777 -1.878788,0.7777 z"
         style="fill:#1d856e;fill-opacity:1;fill-rule:evenodd;stroke:none;stroke-width:1px;stroke-linecap:butt;stroke-linejoin:miter;stroke-opacity:1"
         sodipodi:nodetypes="cscsccscc" />
      <path
         sodipodi:nodetypes="ccssssccc"
         inkscape:connector-curvature="0"
         id="path3339-36"
         d="m 69.256248,988.7461 0,20.3034 c 0,0 -0.329507,1.128 -2.329507,1.128 -4.123106,0 -7.290778,1.6392 -8.598701,4.3581 -1.862115,3.871 1,7 5,7 8.000002,0 10.009149,-4.9333 10.004846,-6.8462 l 0,-2.256 0,-24.81527 z"
         style="fill:#1d856e;fill-opacity:1;fill-rule:evenodd;stroke:none;stroke-width:1px;stroke-linecap:butt;stroke-linejoin:miter;stroke-opacity:1" />
    </g>
  </g>
</svg>
