<?xml version="1.0" encoding="UTF-8" standalone="no"?>
<!-- Created with Inkscape (http://www.inkscape.org/) -->

<svg
   xmlns:dc="http://purl.org/dc/elements/1.1/"
   xmlns:cc="http://creativecommons.org/ns#"
   xmlns:rdf="http://www.w3.org/1999/02/22-rdf-syntax-ns#"
   xmlns:svg="http://www.w3.org/2000/svg"
   xmlns="http://www.w3.org/2000/svg"
   xmlns:sodipodi="http://sodipodi.sourceforge.net/DTD/sodipodi-0.dtd"
   xmlns:inkscape="http://www.inkscape.org/namespaces/inkscape"
   width="128"
   height="128"
   id="svg2"
   version="1.1"
   inkscape:version="0.91 r13725"
   sodipodi:docname="gnome-fs-loading-icon.svg">
  <defs
     id="defs4" />
  <sodipodi:namedview
     id="base"
     pagecolor="#ffffff"
     bordercolor="#666666"
     borderopacity="1.0"
     inkscape:pageopacity="0.0"
     inkscape:pageshadow="2"
     inkscape:zoom="3.4226329"
     inkscape:cx="82.221375"
     inkscape:cy="63.297378"
     inkscape:document-units="px"
     inkscape:current-layer="layer1"
     showgrid="true"
     inkscape:object-paths="true"
     inkscape:snap-object-midpoints="true"
     inkscape:snap-center="true"
     inkscape:snap-bbox="true"
     inkscape:bbox-paths="true"
     inkscape:bbox-nodes="true"
     inkscape:snap-bbox-edge-midpoints="true"
     inkscape:snap-bbox-midpoints="true"
     inkscape:snap-intersection-paths="true"
     inkscape:object-nodes="true"
     inkscape:snap-smooth-nodes="true"
     inkscape:snap-midpoints="true"
     inkscape:snap-page="true"
     inkscape:window-width="696"
     inkscape:window-height="651"
     inkscape:window-x="546"
     inkscape:window-y="90"
     inkscape:window-maximized="0">
    <inkscape:grid
       empspacing="2"
       visible="true"
       enabled="true"
       snapvisiblegridlinesonly="true"
       type="xygrid"
       id="grid2987" />
  </sodipodi:namedview>
  <metadata
     id="metadata7">
    <rdf:RDF>
      <cc:Work
         rdf:about="">
        <dc:format>image/svg+xml</dc:format>
        <dc:type
           rdf:resource="http://purl.org/dc/dcmitype/StillImage" />
        <dc:title></dc:title>
      </cc:Work>
    </rdf:RDF>
  </metadata>
  <g
     inkscape:label="Layer 1"
     inkscape:groupmode="layer"
     id="layer1"
     transform="translate(0,-924.36218)">
    <rect
       style="fill:#41c98b;fill-opacity:1;stroke:none"
       id="rect4990"
       width="128"
       height="128"
       x="0"
       y="924.36218"
       ry="8" />
    <path
       style="fill:#bbf4e7;fill-opacity:1;stroke:none;stroke-opacity:1"
       id="path3346"
       sodipodi:type="arc"
       sodipodi:cx="28"
       sodipodi:cy="988.36218"
       sodipodi:rx="16"
       sodipodi:ry="16"
       sodipodi:start="0.020713917"
       sodipodi:end="0.012886272"
       sodipodi:open="true"
       d="m 43.996568,988.69358 a 16,16 0 0 1 -16.296662,15.66582 16,16 0 0 1 -15.697648,-16.26601 16,16 0 0 1 16.235224,-15.72944 16,16 0 0 1 15.76119,16.20441" />
    <path
       style="fill:#bbf4e7;fill-opacity:1;stroke:none;stroke-opacity:1"
       id="path3346-5"
       sodipodi:type="arc"
       sodipodi:cx="64"
       sodipodi:cy="988.36218"
       sodipodi:rx="16"
       sodipodi:ry="16"
       sodipodi:start="0.020713917"
       sodipodi:end="0.012886272"
       sodipodi:open="true"
       d="m 79.996568,988.69358 a 16,16 0 0 1 -16.296662,15.66582 16,16 0 0 1 -15.697648,-16.26601 16,16 0 0 1 16.235224,-15.72944 16,16 0 0 1 15.76119,16.20441" />
    <path
       style="fill:#bbf4e7;fill-opacity:1;stroke:none;stroke-opacity:1"
       id="path3346-0"
       sodipodi:type="arc"
       sodipodi:cx="100"
       sodipodi:cy="988.36218"
       sodipodi:rx="16"
       sodipodi:ry="16"
       sodipodi:start="0.020713917"
       sodipodi:end="0.012886272"
       sodipodi:open="true"
       d="m 115.99657,988.69358 a 16,16 0 0 1 -16.296664,15.66582 16,16 0 0 1 -15.697648,-16.26601 16,16 0 0 1 16.235222,-15.72944 16,16 0 0 1 15.76119,16.20441" />
  </g>
</svg>
